<?xml version="1.0" encoding="UTF-8"?>
<svg height="100%" viewBox="0 0 5209 2021" width="100%" fill="#C0C0C0" image-rendering="optimizeSpeed" onload="SVG_doc_loaded(evt);" PB:pid="" xlink:xid="" xmlns:svg="OSI_SVG_20090601" xmlns:xlink="http://www.w3.org/1999/xlink" xmlns:PB="urn:osisoft-com-pb" xmlns:PBI="urn:osisoft-com-interface" xmlns:PBD="urn:osisoft-com-data" xmlns:xsi="http://www.w3.org/1999/XMLSchema/instance">
	<defs><PBD:DataSetUses tag="AF2_DS.\\JLEFEBVRENEW\DataStatistics\DataStatistic|+3 sigma" PB:Parent="AF2_DS" PB:BO="PWSPIDataSetsBO.CBODataSets">
			<PBI:Symbol name="Trend1_Plot3" PB:Type="10" PB:Parent="Trend1">
			</PBI:Symbol>
		</PBD:DataSetUses><PBD:DataSetUses tag="AF2_DS.\\JLEFEBVRENEW\DataStatistics\DataStatistic|-3 sigma" PB:Parent="AF2_DS" PB:BO="PWSPIDataSetsBO.CBODataSets">
			<PBI:Symbol name="Trend1_Plot2" PB:Type="10" PB:Parent="Trend1">
			</PBI:Symbol>
		</PBD:DataSetUses><PBD:DataSetUses tag="AF2_DS.\\JLEFEBVRENEW\DataStatistics\DataStatistic|Maximum" PB:Parent="AF2_DS" PB:BO="PWSPIDataSetsBO.CBODataSets">
			<PBI:Symbol name="Trend1_Plot5" PB:Type="10" PB:Parent="Trend1">
			</PBI:Symbol>
		</PBD:DataSetUses><PBD:DataSetUses tag="AF2_DS.\\JLEFEBVRENEW\DataStatistics\DataStatistic|Mean" PB:Parent="AF2_DS" PB:BO="PWSPIDataSetsBO.CBODataSets">
			<PBI:Symbol name="Trend1_Plot0" PB:Type="10" PB:Parent="Trend1">
			</PBI:Symbol>
		</PBD:DataSetUses><PBD:DataSetUses tag="AF2_DS.\\JLEFEBVRENEW\DataStatistics\DataStatistic|Minimum" PB:Parent="AF2_DS" PB:BO="PWSPIDataSetsBO.CBODataSets">
			<PBI:Symbol name="Trend1_Plot4" PB:Type="10" PB:Parent="Trend1">
			</PBI:Symbol>
		</PBD:DataSetUses><PBD:DataSetUses tag="AF2_DS.\\JLEFEBVRENEW\DataStatistics\DataStatistic|Sensor" PB:Parent="AF2_DS" PB:BO="PWSPIDataSetsBO.CBODataSets">
			<PBI:Symbol name="Trend1_Plot1" PB:Type="10" PB:Parent="Trend1">
			</PBI:Symbol>
		</PBD:DataSetUses>
	</defs>
	<rect x="0" y="0" width="5209" height="2021" PB:DocMajorVersionNum="3" PB:DocMinorVersionNum="26" PB:DocGroup="1" PB:wnHeight="670" PB:wnWidth="1612" PB:wnState="0" PB:Zoom="80" PB:LocalID="1041" PB:DisplayServerTimeZone="True" PB:Type="55" PB:NamedValues="AFDisplayBuilder.Upgraded,1">
	</rect>
	<PB:Dataset id="AF2_DS" PB:Type="57" PB:Context="2" PB:Description="" PB:RefreshInterval="10000" PB:Stepped="False" PB:DSType="3" PB:DSVisible="True">
		<PB:DSDatapoint id="\\JLEFEBVRENEW\DataStatistics\DataStatistic|Mean_DP"/>
		<PB:DSDatapoint id="\\JLEFEBVRENEW\DataStatistics\DataStatistic|Sensor_DP"/>
		<PB:DSDatapoint id="\\JLEFEBVRENEW\DataStatistics\DataStatistic|-3 sigma_DP"/>
		<PB:DSDatapoint id="\\JLEFEBVRENEW\DataStatistics\DataStatistic|+3 sigma_DP"/>
		<PB:DSDatapoint id="\\JLEFEBVRENEW\DataStatistics\DataStatistic|Minimum_DP"/>
		<PB:DSDatapoint id="\\JLEFEBVRENEW\DataStatistics\DataStatistic|Maximum_DP"/>
	</PB:Dataset>
	<PB:Dataset id="E_DS_DS" PB:Type="57" PB:Context="2" PB:Description="" PB:RefreshInterval="5000" PB:Stepped="False" PB:DSType="3" PB:DSVisible="False">
	</PB:Dataset>
	<PB:Dataset id="MODULEDB_DS" PB:Type="57" PB:Context="2" PB:Description="" PB:RefreshInterval="5000" PB:Stepped="False" PB:DSType="3" PB:DSVisible="False">
	</PB:Dataset>
	<g id="Trend1" PB:Type="10">
		<PB:TrendLogical id="Trend1_Logical" PB:ValueScalePosition="1" PB:BackgroundColor="8421504" PB:CurrentTrace="6" PB:DisplayScaleInside="True" PB:EnableScript="True" PB:Enabled="True" PB:EndTime="*+2M" PB:FillColor="16711680" PB:FontBold="False" PB:FontItalic="False" PB:FontName="Arial" PB:FontSize="10" PB:FontStrikethrough="False" PB:FontUnderline="False" PB:Height="1954" PB:IsMultiState="False" PB:Left="-14967" PB:LineColor="16777215" PB:MultipleScales="True" PB:Name="Trend1" PB:PlotTimeStyle="0" PB:Rotation="0" PB:ShowDescription="False" PB:ShowEngUnits="True" PB:ShowGrids="True" PB:ShowTagName="True" PB:ShowServerName="False" PB:ShowTitle="True" PB:ShowTraceMarkers="False" PB:ShowValue="True" PB:StartTime="*-4m" PB:Top="14948" PB:TraceCount="6" PB:TrendTitle="Plot-0" PB:Visible="True" PB:Width="4369">
			<PB:TraceElem id="PB:TraceElem_1" PB:ShowLinearRegression="False" PB:ScaleLogarithmic="False" PB:ScaleMax="Autorange" PB:ScaleMin="Autorange" PB:Trace="AF2.\\JLEFEBVRENEW\DataStatistics\DataStatistic|Mean" PB:ScaleFormat="General" PB:DisplayDigits="-5" PB:CanonicalNumberFormat="General" PB:TagInfoType="1">
			</PB:TraceElem>
			<PB:TraceElem id="PB:TraceElem_2" PB:ShowLinearRegression="False" PB:ScaleLogarithmic="False" PB:ScaleMax="Autorange" PB:ScaleMin="Autorange" PB:Trace="AF2.\\JLEFEBVRENEW\DataStatistics\DataStatistic|Sensor" PB:ScaleFormat="General" PB:DisplayDigits="-5" PB:CanonicalNumberFormat="General" PB:TagInfoType="1">
			</PB:TraceElem>
			<PB:TraceElem id="PB:TraceElem_3" PB:ShowLinearRegression="False" PB:ScaleLogarithmic="False" PB:ScaleMax="Autorange" PB:ScaleMin="Autorange" PB:Trace="AF2.\\JLEFEBVRENEW\DataStatistics\DataStatistic|-3 sigma" PB:ScaleFormat="General" PB:DisplayDigits="2" PB:CanonicalNumberFormat="General" PB:TagInfoType="1">
			</PB:TraceElem>
			<PB:TraceElem id="PB:TraceElem_4" PB:ShowLinearRegression="False" PB:ScaleLogarithmic="False" PB:ScaleMax="Autorange" PB:ScaleMin="Autorange" PB:Trace="AF2.\\JLEFEBVRENEW\DataStatistics\DataStatistic|+3 sigma" PB:ScaleFormat="General" PB:DisplayDigits="2" PB:CanonicalNumberFormat="General" PB:TagInfoType="1">
			</PB:TraceElem>
			<PB:TraceElem id="PB:TraceElem_5" PB:ShowLinearRegression="False" PB:ScaleLogarithmic="False" PB:ScaleMax="Autorange" PB:ScaleMin="Autorange" PB:Trace="AF2.\\JLEFEBVRENEW\DataStatistics\DataStatistic|Minimum" PB:ScaleFormat="General" PB:DisplayDigits="-5" PB:CanonicalNumberFormat="General" PB:TagInfoType="1">
			</PB:TraceElem>
			<PB:TraceElem id="PB:TraceElem_6" PB:ShowLinearRegression="False" PB:ScaleLogarithmic="False" PB:ScaleMax="Autorange" PB:ScaleMin="Autorange" PB:Trace="AF2.\\JLEFEBVRENEW\DataStatistics\DataStatistic|Maximum" PB:ScaleFormat="General" PB:DisplayDigits="-5" PB:CanonicalNumberFormat="General" PB:TagInfoType="1">
			</PB:TraceElem>
			<PB:Format id="PB:Format_1" PB:Name="Horz. Axis" PB:LineColor="0" PB:LineStyle="0" PB:LineWidth="1" PB:MarkerStyle="-1">
			</PB:Format>
			<PB:Format id="PB:Format_2" PB:Name="Background" PB:LineColor="8421504" PB:LineStyle="-1" PB:LineWidth="1" PB:MarkerStyle="-1">
			</PB:Format>
			<PB:Format id="PB:Format_3" PB:Name="Horz. Major Grid" PB:LineColor="0" PB:LineStyle="0" PB:LineWidth="1" PB:MarkerStyle="-1">
			</PB:Format>
			<PB:Format id="PB:Format_4" PB:Name="Horz. Minor Grid" PB:LineColor="0" PB:LineStyle="0" PB:LineWidth="1" PB:MarkerStyle="-1">
			</PB:Format>
			<PB:Format id="PB:Format_5" PB:Name="Pen 1" PB:LineColor="65280" PB:LineStyle="0" PB:LineWidth="1" PB:MarkerStyle="0">
			</PB:Format>
			<PB:Format id="PB:Format_6" PB:Name="Pen 2" PB:LineColor="16776960" PB:LineStyle="0" PB:LineWidth="1" PB:MarkerStyle="1">
			</PB:Format>
			<PB:Format id="PB:Format_7" PB:Name="Pen 3" PB:LineColor="65535" PB:LineStyle="0" PB:LineWidth="1" PB:MarkerStyle="2">
			</PB:Format>
			<PB:Format id="PB:Format_8" PB:Name="Pen 4" PB:LineColor="16711935" PB:LineStyle="0" PB:LineWidth="1" PB:MarkerStyle="3">
			</PB:Format>
			<PB:Format id="PB:Format_9" PB:Name="Pen 5" PB:LineColor="255" PB:LineStyle="0" PB:LineWidth="1" PB:MarkerStyle="4">
			</PB:Format>
			<PB:Format id="PB:Format_10" PB:Name="Pen 6" PB:LineColor="16777215" PB:LineStyle="0" PB:LineWidth="1" PB:MarkerStyle="5">
			</PB:Format>
			<PB:Format id="PB:Format_11" PB:Name="Pen 7" PB:LineColor="16711680" PB:LineStyle="0" PB:LineWidth="1" PB:MarkerStyle="6">
			</PB:Format>
			<PB:Format id="PB:Format_12" PB:Name="Pen 8" PB:LineColor="0" PB:LineStyle="0" PB:LineWidth="1" PB:MarkerStyle="7">
			</PB:Format>
			<PB:Format id="PB:Format_13" PB:Name="Pen 9" PB:LineColor="8388608" PB:LineStyle="0" PB:LineWidth="1" PB:MarkerStyle="8">
			</PB:Format>
			<PB:Format id="PB:Format_14" PB:Name="Pen 10" PB:LineColor="32768" PB:LineStyle="0" PB:LineWidth="1" PB:MarkerStyle="9">
			</PB:Format>
			<PB:Format id="PB:Format_15" PB:Name="Pen 11" PB:LineColor="8388736" PB:LineStyle="0" PB:LineWidth="1" PB:MarkerStyle="10">
			</PB:Format>
			<PB:Format id="PB:Format_16" PB:Name="Pen 12" PB:LineColor="8433626" PB:LineStyle="0" PB:LineWidth="1" PB:MarkerStyle="11">
			</PB:Format>
			<PB:Format id="PB:Format_17" PB:Name="Text" PB:LineColor="16777215" PB:LineStyle="-1" PB:LineWidth="1" PB:MarkerStyle="-1">
			</PB:Format>
			<PB:Format id="PB:Format_18" PB:Name="Vert. Axis" PB:LineColor="0" PB:LineStyle="0" PB:LineWidth="1" PB:MarkerStyle="-1">
			</PB:Format>
			<PB:Format id="PB:Format_19" PB:Name="Vert. Major Grid" PB:LineColor="0" PB:LineStyle="0" PB:LineWidth="1" PB:MarkerStyle="-1">
			</PB:Format>
			<PB:Format id="PB:Format_20" PB:Name="Vert. Minor Grid" PB:LineColor="0" PB:LineStyle="0" PB:LineWidth="1" PB:MarkerStyle="-1">
			</PB:Format>
		</PB:TrendLogical>
		<svg id="Trend1_Graphical" height="1954" width="4369" x="33" y="52">
			<PB:RefreshData id="Trend1_RefreshData" PB:bEngUnits="True" PB:bLogarithmic="False" PB:bMarkers="False" PB:bTagname="True" PB:bValue="True" PB:fXUnits="8.955555555555555555555555556" PB:iGrdBegX="6" PB:iGrdBegY="41" PB:iGrdHght="1862" PB:iGrdWdth="3224" PB:iMinPerCol="1" PB:iNumTrcs="6" PB:iNumXCols="0" PB:bGrids="True" PB:Updateable="True" PB:iSnglLnHght="33" PB:iScaleWidth="0" PB:bOmitScaleText="False" PB:bOmitTimeText="False">
			</PB:RefreshData>
			<rect id="Trend1_Background" x="0" y="0" width="4369" height="1954" fill="#808080">
			</rect>
			<g id="Trend1_PlotTitleGroup" style="font-family:Arial;font-size:33;stroke:#FFFFFF;fill:#FFFFFF;">
				<text x="6" y="33" style="font-family:Arial;font-size:33;stroke:#FFFFFF;fill:#FFFFFF;">Plot-0</text>
			</g>
			<svg id="Trend1_AxesGroup" height="1862" width="3224" x="6" y="41">
				<rect id="Trend1_GridBackground" x="0" y="0" width="3224" height="1862" style="fill:#808080;stroke:none;">
				</rect>
				<polyline id="Trend1_VertAxis_1" style="stroke-width:3;fill:none;stroke:#000000;" points="0,0 0,1862">
				</polyline>
				<polyline id="Trend1_VertAxis_Last" style="stroke-width:3;fill:none;stroke:#000000;stroke-dasharray:10 10 10 10;" points="3224,0 3224,1862">
				</polyline>
				<polyline id="Trend1_HorizAxis" style="stroke-width:3;fill:none;stroke:#000000;" points="0,1862 3224,1862">
				</polyline>
			</svg>
			<svg id="Trend1_GridGroup" height="1862" width="3224" x="6" y="41">
				<path id="Trend1_HorizGridLine" style="stroke-width:2;stroke:#000000;" d="M63,0 L63,1862">
				</path>
				<path id="Trend1_HorizGridLine" style="stroke-width:2;stroke:#000000;" d="M600,0 L600,1862">
				</path>
				<path id="Trend1_HorizGridLine" style="stroke-width:2;stroke:#000000;" d="M1137,0 L1137,1862">
				</path>
				<path id="Trend1_HorizGridLine" style="stroke-width:2;stroke:#000000;" d="M1675,0 L1675,1862">
				</path>
				<path id="Trend1_HorizGridLine" style="stroke-width:2;stroke:#000000;" d="M2212,0 L2212,1862">
				</path>
				<path id="Trend1_HorizGridLine" style="stroke-width:2;stroke:#000000;" d="M2749,0 L2749,1862">
				</path>
				<path id="Trend1_VertGridLine" style="stroke-width:2;stroke:#000000" d="M0,1862 L3224,1862">
				</path>
				<path id="Trend1_VertGridLine" style="stroke-width:2;stroke:#000000" d="M0,1675.8 L3224,1675.8">
				</path>
				<path id="Trend1_VertGridLine" style="stroke-width:2;stroke:#000000" d="M0,1489.6 L3224,1489.6">
				</path>
				<path id="Trend1_VertGridLine" style="stroke-width:2;stroke:#000000" d="M0,1303.4 L3224,1303.4">
				</path>
				<path id="Trend1_VertGridLine" style="stroke-width:2;stroke:#000000" d="M0,1117.2 L3224,1117.2">
				</path>
				<path id="Trend1_VertGridLine" style="stroke-width:2;stroke:#000000" d="M0,931 L3224,931">
				</path>
				<path id="Trend1_VertGridLine" style="stroke-width:2;stroke:#000000" d="M0,744.8 L3224,744.8">
				</path>
				<path id="Trend1_VertGridLine" style="stroke-width:2;stroke:#000000" d="M0,558.6 L3224,558.6">
				</path>
				<path id="Trend1_VertGridLine" style="stroke-width:2;stroke:#000000" d="M0,372.4 L3224,372.4">
				</path>
				<path id="Trend1_VertGridLine" style="stroke-width:2;stroke:#000000" d="M0,186.2 L3224,186.2">
				</path>
				<path id="Trend1_VertGridLine" style="stroke-width:2;stroke:#000000" d="M0,0 L3224,0">
				</path>
			</svg>
			<g id="Trend1_XScaleTextGroup" style="font-family:Arial;font-size:33;stroke:#FFFFFF;fill:#FFFFFF;">
				<text id="Trend1_XScaleTextBegin" x="6" y="1938" style="font-family:Arial;font-size:33;stroke:#FFFFFF;fill:#FFFFFF;">2016/04/20 13:32:53</text>
				<text id="Trend1_XScaleTextSpan" x="1495" y="1938" style="font-family:Arial;font-size:33;stroke:#FFFFFF;fill:#FFFFFF;">6.00 minutes</text>
				<text id="Trend1_XScaleTextEnd" x="2845" y="1938" style="font-family:Arial;font-size:33;stroke:#FFFFFF;fill:#FFFFFF;">2016/04/20 13:38:53</text>
			</g>
			<g id="Trend1_TagNameGroup" transform="translate(3256,43)">
				<circle id="Trend1_0" cx="0.5" cy="17" r="8" style="stroke-width:2;stroke:#00FF00;fill:#00FF00;">
				</circle>
				<text id="Trend1_TagName0" x="19.1860465116279" y="33" style="font-family:Arial;font-size:33;stroke:#00FF00;fill:#00FF00;">OSI_DataStatistic.Mean</text>
				<text id="Trend1_TagValue0" x="19.1860465116279" y="68" style="font-family:Arial;font-size:33;stroke:#00FF00;fill:#00FF00;">3.04248346040474E-02</text>
				<text id="Trend1_EngUnits0" x="19.1860465116279" y="103" style="font-family:Arial;font-size:33;stroke:#00FF00;fill:#00FF00;">
				</text>
				<circle id="Trend1_1" cx="0.5" cy="122" r="8" style="stroke-width:2;stroke:#00FFFF;fill:none;">
				</circle>
				<text id="Trend1_TagName1" x="19.1860465116279" y="138" style="font-family:Arial;font-size:33;stroke:#00FFFF;fill:#00FFFF;">DataGeneration.Sensor</text>
				<text id="Trend1_TagValue1" x="19.1860465116279" y="173" style="font-family:Arial;font-size:33;stroke:#00FFFF;fill:#00FFFF;">0.84077</text>
				<text id="Trend1_EngUnits1" x="19.1860465116279" y="208" style="font-family:Arial;font-size:33;stroke:#00FFFF;fill:#00FFFF;">
				</text>
				<polygon id="Trend1_2" points="-5.5,221 6.5,221 6.5,233 -5.5,233 -5.5,221" style="stroke-width:2;stroke:#FFFF00;fill:#FFFF00;" transform="rotate(45,0.5,227) ">
				</polygon>
				<text id="Trend1_TagName2" x="19.1860465116279" y="243" style="font-family:Arial;font-size:33;stroke:#FFFF00;fill:#FFFF00;">AF2.\\JLEFEBVRENEW\DataStatistics\DataStatistic|-3 sigma</text>
				<text id="Trend1_TagValue2" x="19.1860465116279" y="278" style="font-family:Arial;font-size:33;stroke:#FFFF00;fill:#FFFF00;">Calc Failed</text>
				<text id="Trend1_EngUnits2" x="19.1860465116279" y="313" style="font-family:Arial;font-size:33;stroke:#FFFF00;fill:#FFFF00;">
				</text>
				<polygon id="Trend1_3" points="-5.5,326 6.5,326 6.5,338 -5.5,338 -5.5,326" style="stroke-width:2;stroke:#FF00FF;fill:none;" transform="rotate(45,0.5,332) ">
				</polygon>
				<text id="Trend1_TagName3" x="19.1860465116279" y="348" style="font-family:Arial;font-size:33;stroke:#FF00FF;fill:#FF00FF;">AF2.\\JLEFEBVRENEW\DataStatistics\DataStatistic|+3 sigma</text>
				<text id="Trend1_TagValue3" x="19.1860465116279" y="383" style="font-family:Arial;font-size:33;stroke:#FF00FF;fill:#FF00FF;">Calc Failed</text>
				<text id="Trend1_EngUnits3" x="19.1860465116279" y="418" style="font-family:Arial;font-size:33;stroke:#FF00FF;fill:#FF00FF;">
				</text>
				<rect id="Trend1_4" x="-7.5" y="429" width="16" height="16" style="stroke-width:2;stroke:#FF0000;fill:#FF0000;">
				</rect>
				<text id="Trend1_TagName4" x="19.1860465116279" y="453" style="font-family:Arial;font-size:33;stroke:#FF0000;fill:#FF0000;">OSI_DataStatistic.Minimum</text>
				<text id="Trend1_TagValue4" x="19.1860465116279" y="488" style="font-family:Arial;font-size:33;stroke:#FF0000;fill:#FF0000;">No Data</text>
				<text id="Trend1_EngUnits4" x="19.1860465116279" y="523" style="font-family:Arial;font-size:33;stroke:#FF0000;fill:#FF0000;">
				</text>
				<rect id="Trend1_5" x="-7.5" y="534" width="16" height="16" style="stroke-width:2;stroke:#FFFFFF;fill:none;">
				</rect>
				<text id="Trend1_TagName5" x="19.1860465116279" y="558" style="font-family:Arial;font-size:33;stroke:#FFFFFF;fill:#FFFFFF;">OSI_DataStatistic.Maximum</text>
				<text id="Trend1_TagValue5" x="19.1860465116279" y="593" style="font-family:Arial;font-size:33;stroke:#FFFFFF;fill:#FFFFFF;">No Data</text>
				<text id="Trend1_EngUnits5" x="19.1860465116279" y="628" style="font-family:Arial;font-size:33;stroke:#FFFFFF;fill:#FFFFFF;">
				</text>
			</g>
			<svg id="Trend1_TraceGroup" height="1862" width="3224" style="font-family:Arial;font-size:33;stroke:#FFFFFF;fill:#FFFFFF;" x="6" y="41">
				<path id="Trend1_Plot0" style="font-family:Arial;font-size:33;stroke:#00FF00;fill:none;stroke-width:2;" d="M1137.35555555556,931 L1146.31111111111,924 L1146.31111111111,931 L1155.26666666667,931 L1155.26666666667,931 L1164.22222222222,931 L1164.22222222222,931 L1173.17777777778,931 L1173.17777777778,931 L1182.13333333333,931 L1182.13333333333,931 L1191.08888888889,931 L1191.08888888889,931 L1200.04444444444,931 L1200.04444444444,931 L1209,931 L1209,931 L1217.95555555556,931 L1217.95555555556,931 L1226.91111111111,931 L1226.91111111111,931 L1235.86666666667,931 L1235.86666666667,931 L1244.82222222222,931 L1244.82222222222,931 L1253.77777777778,931 L1253.77777777778,931 L1262.73333333333,931 L1262.73333333333,931 L1271.68888888889,931 L1271.68888888889,931 L1280.64444444444,931 L1280.64444444444,931 L1289.6,931 L1289.6,931 L1298.55555555556,931 L1298.55555555556,931 L1307.51111111111,931 L1307.51111111111,931 L1316.46666666667,931 L1316.46666666667,931 L1325.42222222222,931 L1325.42222222222,931 L1334.37777777778,931 L1334.37777777778,931 L1343.33333333333,931 L1343.33333333333,931 L1352.28888888889,931 L1352.28888888889,931 L1361.24444444444,931 L1361.24444444444,931 L1370.2,931 L1370.2,931 L1379.15555555556,931 L1379.15555555556,931 L1388.11111111111,931 L1388.11111111111,931 L1397.06666666667,931 L1397.06666666667,931 L1406.02222222222,931 L1406.02222222222,931 L1414.97777777778,931 L1414.97777777778,931 L1423.93333333333,931 L1423.93333333333,931 L1432.88888888889,931 L1432.88888888889,931 L1441.84444444444,931 L1441.84444444444,931 L1450.8,931 L1450.8,931 L1459.75555555556,931 L1459.75555555556,931 L1468.71111111111,931 L1468.71111111111,931 L1477.66666666667,931 L1477.66666666667,931 L1486.62222222222,931 L1486.62222222222,931 L1495.57777777778,931 L1495.57777777778,931 L1504.53333333333,931 L1504.53333333333,931 L1513.48888888889,931 L1513.48888888889,931 L1522.44444444444,931 L1522.44444444444,931 L1531.4,931 L1531.4,931 L1540.35555555556,931 L1540.35555555556,931 L1549.31111111111,931 L1549.31111111111,931 L1558.26666666667,931 L1558.26666666667,931 L1567.22222222222,931 L1567.22222222222,931 L1576.17777777778,931 L1576.17777777778,931 L1585.13333333333,931 L1585.13333333333,931 L1594.08888888889,931 L1594.08888888889,931 L1603.04444444444,931 L1603.04444444444,931 L1612,931 L1612,931 L1620.95555555556,931 L1620.95555555556,931 L1629.91111111111,931 L1629.91111111111,931 L1638.86666666667,931 L1638.86666666667,931 L1647.82222222222,931 L1647.82222222222,931 L1656.77777777778,931 L1656.77777777778,931 L1665.73333333333,931 L1665.73333333333,931 L1675,931 M1683.64444444444,931 L1692.6,924 L1692.6,931 L1701.55555555556,931 L1701.55555555556,931 L1710.51111111111,931 L1710.51111111111,931 L1719.46666666667,931 L1719.46666666667,931 L1728.42222222222,931 L1728.42222222222,931 L1737.37777777778,931 L1737.37777777778,931 L1746.33333333333,931 L1746.33333333333,931 L1755.28888888889,931 L1755.28888888889,931 L1764.24444444444,931 L1764.24444444444,931 L1773.2,931 L1773.2,931 L1782.15555555556,931 L1782.15555555556,931 L1791.11111111111,931 L1791.11111111111,931 L1800.06666666667,931 L1800.06666666667,931 L1809.02222222222,931 L1809.02222222222,931 L1817.97777777778,931 L1817.97777777778,931 L1826.93333333333,931 L1826.93333333333,931 L1835.88888888889,931 L1835.88888888889,931 L1844.84444444444,931 L1844.84444444444,931 L1853.8,931 L1853.8,931 L1862.75555555556,931 L1862.75555555556,931 L1871.71111111111,931 L1871.71111111111,931 L1880.66666666667,931 L1880.66666666667,931 L1889.62222222222,931 L1889.62222222222,931 L1898.57777777778,931 L1898.57777777778,931 L1907.53333333333,931 L1907.53333333333,931 L1916.48888888889,931 L1916.48888888889,931 L1925.44444444444,931 L1925.44444444444,931 L1934.4,931 L1934.4,931 L1943.35555555556,931 L1943.35555555556,931 L1952.31111111111,931 L1952.31111111111,931 L1961.26666666667,931 L1961.26666666667,931 L1970.22222222222,931 L1970.22222222222,931 L1979.17777777778,931 L1979.17777777778,931 L1988.13333333333,931 L1988.13333333333,931 L1997.08888888889,931 L1997.08888888889,931 L2006.04444444444,931 L2006.04444444444,931 L2015,931 L2015,931 L2023.95555555556,931 L2023.95555555556,931 L2032.91111111111,931 L2032.91111111111,931 L2041.86666666667,931 L2041.86666666667,931 L2050.82222222222,931 L2050.82222222222,931 L2059.77777777778,931 L2059.77777777778,931 L2068.73333333333,931 L2068.73333333333,931 L2077.68888888889,931 L2077.68888888889,931 L2086.64444444444,931 L2086.64444444444,931 L2095.6,931 L2095.6,931 L2104.55555555556,931 L2104.55555555556,931 L2113.51111111111,931 L2113.51111111111,931 L2122.46666666667,931 L2122.46666666667,931 L2131.42222222222,931 L2131.42222222222,931 L2140.37777777778,931 L2140.37777777778,931 L2149.33333333333,931 L2149.33333333333,931 L2158.28888888889,931 L2158.28888888889,931 L2167.24444444444,931 L2167.24444444444,931 L2176.2,931 L2176.2,931 L2185.15555555556,931 L2185.15555555556,931 L2194.11111111111,931 L2194.11111111111,931 L2203.06666666667,931 L2203.06666666667,931 L2195,931 " PBD:DatasetName="AF2_DS" PBD:DatasetColumn="\\JLEFEBVRENEW\DataStatistics\DataStatistic|Mean">
				</path>
				<path id="Trend1_Plot1" style="font-family:Arial;font-size:33;stroke:#00FFFF;fill:none;stroke-width:2;" d="M8.95555555555556,1287.61440522064 L17.9111111111111,1244.8680729524 L26.8666666666667,1428.40123738954 L35.8222222222222,1454.03311882524 L44.7777777777778,1546.13287999084 L53.7333333333333,1689.26976910277 L62.6888888888889,1862 L71.6444444444444,1649.98424978915 L80.6,1355.69064942538 L89.5555555555556,1389.61797887315 L98.5111111111111,1385.2867467013 L107.466666666667,1418.04589798741 L116.422222222222,1146.6999511917 L125.377777777778,1186.68514144923 L134.333333333333,1129.91746698049 L143.288888888889,984.90642381691 L152.244444444444,999.383799590411 L161.2,867.539862987718 L170.155555555556,616.811455656451 L179.111111111111,613.904577517489 L188.066666666667,655.566400211825 L197.022222222222,600.359667437059 L205.977777777778,610.708534111518 L214.933333333333,401.719640344514 L223.888888888889,502.537268573435 L232.844444444444,466.936791414609 L241.8,308.154482224918 L250.755555555556,189.534438998925 L259.711111111111,287.050091496896 L268.666666666667,176.917167000505 L277.622222222222,266.95757583331 L286.577777777778,190.938062442435 L295.533333333333,43.8271016220928 L304.488888888889,232.131985972218 L313.444444444444,191.073014161445 L322.4,232.513422846932 L331.355555555556,235.573742171106 L340.311111111111,219.431104300584 L349.266666666667,270.162659723926 L358.222222222222,121.890629366155 L367.177777777778,183.044145145058 L376.133333333333,107.202294526887 L385.088888888889,188.536187558552 L394.044444444444,368.252755447867 L403,169.184605070137 L411.955555555556,326.483356470029 L420.911111111111,339.878470429171 L429.866666666667,440.11697653123 L438.822222222222,414.57521272404 L447.777777777778,718.761520113268 L456.733333333333,525.425290484982 L465.688888888889,585.98508846373 L474.644444444444,776.047154872445 L483.6,803.954090388908 L492.555555555555,821.203331641259 L501.511111111111,917.811227566077 L510.466666666667,857.207362619318 L519.422222222222,1236.3990923255 L528.377777777778,1104.0205736974 L537.333333333333,1239.85931858516 L546.288888888889,1211.6340286886 L555.244444444444,1328.47874430867 L564.2,1454.84170061164 L573.155555555556,1642.61039649097 L582.111111111111,1734.21640394841 L591.066666666667,1746.03568250106 L600.022222222222,1631.3216715431 L608.977777777778,1442.74708298552 L617.933333333333,1712.04703027611 L626.888888888889,1555.39143721525 L635.844444444444,1321.40770324115 L644.8,1487.71096195833 L653.755555555556,1274.42213750279 L662.711111111111,1004.2692993242 L671.666666666667,1158.2380955311 L680.622222222222,1045.12400329915 L689.577777777778,915.25614950149 L698.533333333333,912.077510651955 L707.488888888889,845.245664778147 L716.444444444444,781.006862765243 L725.4,692.389168908162 L734.355555555556,584.847102739537 L743.311111111111,509.37374998556 L752.266666666667,510.043953363364 L761.222222222222,450.489808946533 L770.177777777778,349.862386036927 L779.133333333333,384.081468041633 L788.088888888889,335.798592343232 L797.044444444444,210.28868726297 L806,302.66658168005 L814.955555555556,296.357746854646 L823.911111111111,144.399353196601 L832.866666666667,181.514154257501 L841.822222222222,153.546609686112 L850.777777777778,185.821523289244 L859.733333333333,151.054669827934 L868.688888888889,32.7027773213989 L877.644444444444,0.247282419147804 L886.6,201.968805384717 L895.555555555556,147.762229055108 L904.511111111111,334.670223930817 L913.466666666667,321.986790041045 L922.422222222222,146.434135852099 L931.377777777778,331.596933191626 L940.333333333333,244.361968303113 L949.288888888889,237.771799519801 L958.244444444444,382.133559101411 L967.2,414.943334230659 L976.155555555555,493.161366335661 L985.111111111111,515.442715725799 L994.066666666666,552.43671034956 L1003.02222222222,629.041192619002 L1011.97777777778,790.222423062374 L1020.93333333333,883.499442605467 L1029.88888888889,822.378055847175 L1038.84444444444,853.144454252396 L1047.8,1115.91333915659 L1056.75555555556,1097.69528753758 L1065.71111111111,1148.28067388403 L1074.66666666667,1227.79494145193 L1083.62222222222,1348.76225284732 L1092.57777777778,1313.26029420707 L1101.53333333333,1466.99838804491 L1110.48888888889,1610.88884576164 L1119.44444444444,1625.49012953925 L1128.4,1673.31881680127 L1137.35555555556,1774.99873311924 L1146.31111111111,1707.93625157429 L1155.26666666667,1438.11421852853 L1164.22222222222,1562.85127483579 L1173.17777777778,1454.24957790176 L1182.13333333333,1240.26329799995 L1191.08888888889,1146.04928248158 L1200.04444444444,1025.41011930888 L1209,1050.05036176173 L1217.95555555556,852.392691241628 L1226.91111111111,838.414340045473 L1235.86666666667,842.777323614654 L1244.82222222222,826.662163010097 L1253.77777777778,666.548745533491 L1262.73333333333,669.475990430698 L1271.68888888889,615.139055925495 L1280.64444444444,440.011128165584 L1289.6,601.973109408077 L1298.55555555556,556.848333818122 L1307.51111111111,342.764675774799 L1316.46666666667,187.385715949694 L1325.42222222222,234.890147201809 L1334.37777777778,275.973036597271 L1343.33333333333,266.529481005103 L1352.28888888889,296.568644093614 L1361.24444444444,138.026249429443 L1370.2,257.261573543946 L1379.15555555556,42.6704045155776 L1388.11111111111,140.664892671554 L1397.06666666667,0 L1406.02222222222,253.917547845364 L1414.97777777778,200.2697281901 L1423.93333333333,109.523341749912 L1432.88888888889,73.6220189355454 L1441.84444444444,271.571714081197 L1450.8,321.887240082362 L1459.75555555556,256.152737985232 L1468.71111111111,213.764170503825 L1477.66666666667,224.193850863725 L1486.62222222222,426.686976799567 L1495.57777777778,369.223255373976 L1504.53333333333,501.433338920367 L1513.48888888889,426.494631079096 L1522.44444444444,655.621945406666 L1531.4,651.288906015414 L1540.35555555556,695.200732706713 L1549.31111111111,706.899821947134 L1558.26666666667,763.714181943336 L1567.22222222222,869.751820130114 L1576.17777777778,1090.36812488707 L1585.13333333333,1212.37406878653 L1594.08888888889,1122.62611619336 L1603.04444444444,1201.54037473409 L1612,1252.24735933413 L1620.95555555556,1232.29106090019 L1629.91111111111,1283.54873925633 L1638.86666666667,1498.94274226852 L1647.82222222222,1658.22037434927 L1656.77777777778,1631.39260373873 L1665.73333333333,1826.22199198664 L1674.68888888889,1709.13498097086 L1683.64444444444,1534.92733392924 L1692.6,1518.2160370755 L1701.55555555556,1465.53752070841 L1710.51111111111,1359.12318283232 L1719.46666666667,1383.77635217285 L1728.42222222222,1183.21264711661 L1737.37777777778,1225.12353364372 L1746.33333333333,1048.79635930325 L1755.28888888889,1054.9129160607 L1764.24444444444,777.909020869422 L1773.2,796.495142717716 L1782.15555555556,888.580155819559 L1791.11111111111,637.85413401739 L1800.06666666667,567.177061255599 L1809.02222222222,529.83461418401 L1817.97777777778,432.072751940873 L1826.93333333333,614.398869554817 L1835.88888888889,576.25148000671 L1844.84444444444,440.454874908228 L1853.8,383.154380993035 L1862.75555555556,230.762244248574 L1871.71111111111,234.906420304437 L1880.66666666667,295.154616534043 L1889.62222222222,306.295892090314 L1898.57777777778,125.801650709789 L1907.53333333333,231.307407804915 L1916.48888888889,114.396487148278 L1925.44444444444,225.165075767859 L1934.4,134.394335113357 L1943.35555555556,241.095396988634 L1952.31111111111,117.260243715098 L1961.26666666667,126.668454839216 L1970.22222222222,115.978693117392 L1979.17777777778,236.496183089323 L1988.13333333333,219.77258411665 L1997.08888888889,34.0956386283244 L2006.04444444444,290.215271250315 L2015,404.525099675723 L2023.95555555556,355.618549812164 L2032.91111111111,399.584229535999 L2149.33333333333,399.584229535999 " PBD:DatasetName="AF2_DS" PBD:DatasetColumn="\\JLEFEBVRENEW\DataStatistics\DataStatistic|Sensor">
				</path>
				<path id="Trend1_Plot2" style="font-family:Arial;font-size:33;stroke:#FFFF00;fill:none;stroke-width:2;" d="" PBD:DatasetName="AF2_DS" PBD:DatasetColumn="\\JLEFEBVRENEW\DataStatistics\DataStatistic|-3 sigma">
				</path>
				<path id="Trend1_Plot3" style="font-family:Arial;font-size:33;stroke:#FF00FF;fill:none;stroke-width:2;" d="" PBD:DatasetName="AF2_DS" PBD:DatasetColumn="\\JLEFEBVRENEW\DataStatistics\DataStatistic|+3 sigma">
				</path>
				<path id="Trend1_Plot4" style="font-family:Arial;font-size:33;stroke:#FF0000;fill:none;stroke-width:2;" d="" PBD:DatasetName="AF2_DS" PBD:DatasetColumn="\\JLEFEBVRENEW\DataStatistics\DataStatistic|Minimum">
				</path>
				<path id="Trend1_Plot5" style="font-family:Arial;font-size:33;stroke:#FFFFFF;fill:none;stroke-width:2;" d="" PBD:DatasetName="AF2_DS" PBD:DatasetColumn="\\JLEFEBVRENEW\DataStatistics\DataStatistic|Maximum">
				</path>
			</svg>
			<svg id="Trend1_MarkerGroup" height="1862" width="3224" style="" x="6" y="41">
				<polyline id="Trend1_0" style="stroke-width:2;stroke:#00FF00;fill:none;stroke-width:4;" points="1130,924 1144,938 1137,931 1130,938 1144,924">
				</polyline>
				<circle id="Trend1_0" cx="1675.18888888889" cy="931.5" r="8" style="stroke-width:2;stroke:#00FF00;fill:#00FF00;">
				</circle>
				<polyline id="Trend1_0" style="stroke-width:2;stroke:#00FF00;fill:none;stroke-width:4;" points="1677,924 1691,938 1684,931 1677,938 1691,924">
				</polyline>
				<polyline id="Trend1_0" style="stroke-width:2;stroke:#00FF00;fill:none;stroke-width:4;" points="2188,924 2202,938 2195,931 2188,938 2202,924">
				</polyline>
				<circle id="Trend1_1" cx="1406.52222222222" cy="931.5" r="8" style="stroke-width:2;stroke:#00FF00;fill:#00FF00;">
				</circle>
				<circle id="Trend1_1" cx="1684.14444444444" cy="931.5" r="8" style="stroke-width:2;stroke:#00FF00;fill:#00FF00;">
				</circle>
				<circle id="Trend1_1" cx="1961.76666666667" cy="931.5" r="8" style="stroke-width:2;stroke:#00FF00;fill:#00FF00;">
				</circle>
				<circle id="Trend1_2" cx="510.966666666667" cy="857.707362619318" r="8" style="stroke-width:2;stroke:#00FFFF;fill:none;">
				</circle>
				<circle id="Trend1_2" cx="1021.43333333333" cy="883.999442605467" r="8" style="stroke-width:2;stroke:#00FFFF;fill:none;">
				</circle>
				<circle id="Trend1_2" cx="1522.94444444444" cy="656.121945406666" r="8" style="stroke-width:2;stroke:#00FFFF;fill:none;">
				</circle>
			</svg>
			<g id="Trend1_YScaleTextGroup" style="font-family:Arial;font-size:33;stroke:#FFFFFF;fill:#FFFFFF;" transform="translate(8,41)">
				<text id="Max_0" x="2" y="33" style="font-family:Arial;font-size:33;stroke:#00FF00;fill:#00FF00;">2</text>
				<text id="Min_0" x="2" y="1856" style="font-family:Arial;font-size:33;stroke:#00FF00;fill:#00FF00;">0</text>
				<text id="Max_1" x="46" y="33" style="font-family:Arial;font-size:33;stroke:#00FFFF;fill:#00FFFF;">1.09529</text>
				<text id="Min_1" x="46" y="1856" style="font-family:Arial;font-size:33;stroke:#00FFFF;fill:#00FFFF;">-0.09073</text>
				<text id="Max_2" x="224" y="33" style="font-family:Arial;font-size:33;stroke:#FFFF00;fill:#FFFF00;">1</text>
				<text id="Min_2" x="224" y="1856" style="font-family:Arial;font-size:33;stroke:#FFFF00;fill:#FFFF00;">-1</text>
				<text id="Max_3" x="281" y="33" style="font-family:Arial;font-size:33;stroke:#FF00FF;fill:#FF00FF;">1</text>
				<text id="Min_3" x="281" y="1856" style="font-family:Arial;font-size:33;stroke:#FF00FF;fill:#FF00FF;">-1</text>
				<text id="Max_4" x="338" y="33" style="font-family:Arial;font-size:33;stroke:#FF0000;fill:#FF0000;">1</text>
				<text id="Min_4" x="338" y="1856" style="font-family:Arial;font-size:33;stroke:#FF0000;fill:#FF0000;">-1</text>
				<text id="Max_5" x="395" y="33" style="font-family:Arial;font-size:33;stroke:#FFFFFF;fill:#FFFFFF;">1</text>
				<text id="Min_5" x="395" y="1856" style="font-family:Arial;font-size:33;stroke:#FFFFFF;fill:#FFFFFF;">-1</text>
				<text x="0" y="1681.05052505251" style="font-family:Arial;font-size:33;stroke:#00FF00;fill:#00FF00;">0.2</text>
				<text x="0" y="1494.85052505251" style="font-family:Arial;font-size:33;stroke:#00FF00;fill:#00FF00;">0.4</text>
				<text x="0" y="1308.65052505251" style="font-family:Arial;font-size:33;stroke:#00FF00;fill:#00FF00;">0.6</text>
				<text x="0" y="1122.45052505251" style="font-family:Arial;font-size:33;stroke:#00FF00;fill:#00FF00;">0.8</text>
				<text x="0" y="936.250525052505" style="font-family:Arial;font-size:33;stroke:#00FF00;fill:#00FF00;">1</text>
				<text x="0" y="750.050525052505" style="font-family:Arial;font-size:33;stroke:#00FF00;fill:#00FF00;">1.2</text>
				<text x="0" y="563.850525052505" style="font-family:Arial;font-size:33;stroke:#00FF00;fill:#00FF00;">1.4</text>
				<text x="0" y="377.650525052505" style="font-family:Arial;font-size:33;stroke:#00FF00;fill:#00FF00;">1.6</text>
				<text x="0" y="191.450525052505" style="font-family:Arial;font-size:33;stroke:#00FF00;fill:#00FF00;">1.8</text>
			</g>
		</svg>
	</g>
	<script language="JavaScript" type="text/javascript"> 
        
        function SVG_doc_loaded(evt)
	{
	    var parentDoc = evt.getTarget().getOwnerDocument();
	    var elem = parentDoc.createElement("Ready");
	    evt.getTarget().appendChild(elem);

        }</script>
</svg>
