<?xml version="1.0" encoding="UTF-8"?>
<svg height="100%" viewBox="0 699 5222 2021" width="100%" fill="#C0C0C0" image-rendering="optimizeSpeed" onload="SVG_doc_loaded(evt);" PB:pid="" xlink:xid="" xmlns:svg="OSI_SVG_20090601" xmlns:xlink="http://www.w3.org/1999/xlink" xmlns:PB="urn:osisoft-com-pb" xmlns:PBI="urn:osisoft-com-interface" xmlns:PBD="urn:osisoft-com-data" xmlns:xsi="http://www.w3.org/1999/XMLSchema/instance">
	<defs><PBD:TagUses tag="af2.\\jlefebvrenew\datastatistics\datastatistic|-3 sigma" PB:BO="PWSPIEventsBO.cBOEvents">
			<PBI:Symbol name="Value1" PB:Type="7"/>
		</PBD:TagUses><PBD:DataSetUses tag="AF2_DS.\\JLEFEBVRENEW\JDIData\DataGeneration|Sensor" PB:Parent="AF2_DS" PB:BO="PWSPIDataSetsBO.CBODataSets">
			<PBI:Symbol name="Trend1_Plot0" PB:Type="10" PB:Parent="Trend1">
			</PBI:Symbol>
		</PBD:DataSetUses><PBD:DataSetUses tag="AF2_DS.\\JLEFEBVRENEW\JDIData\DataGeneration|Sensor|HiHi" PB:Parent="AF2_DS" PB:BO="PWSPIDataSetsBO.CBODataSets">
			<PBI:Symbol name="Trend1_Plot1" PB:Type="10" PB:Parent="Trend1">
			</PBI:Symbol>
		</PBD:DataSetUses><PBD:DataSetUses tag="AF2_DS.\\JLEFEBVRENEW\JDIData\DataGeneration|Sensor|LoLo" PB:Parent="AF2_DS" PB:BO="PWSPIDataSetsBO.CBODataSets">
			<PBI:Symbol name="Trend1_Plot2" PB:Type="10" PB:Parent="Trend1">
			</PBI:Symbol>
		</PBD:DataSetUses>
	</defs>
	<rect x="0" y="0" width="5222" height="2720" PB:DocMajorVersionNum="3" PB:DocMinorVersionNum="26" PB:DocGroup="1" PB:wnHeight="670" PB:wnWidth="1616" PB:wnState="2" PB:Zoom="80" PB:LocalID="1041" PB:DisplayServerTimeZone="True" PB:Type="55" PB:NamedValues="AFDisplayBuilder.Upgraded,1">
	</rect>
	<PB:Dataset id="AF2_DS" PB:Type="57" PB:Context="2" PB:Description="" PB:RefreshInterval="10000" PB:Stepped="False" PB:DSType="3" PB:DSVisible="True">
		<PB:DSDatapoint id="\\JLEFEBVRENEW\JDIData\DataGeneration|Sensor_DP"/>
		<PB:DSDatapoint id="\\JLEFEBVRENEW\JDIData\DataGeneration|Sensor|HiHi_DP"/>
		<PB:DSDatapoint id="\\JLEFEBVRENEW\JDIData\DataGeneration|Sensor|LoLo_DP"/>
	</PB:Dataset>
	<PB:Dataset id="E_DS_DS" PB:Type="57" PB:Context="2" PB:Description="" PB:RefreshInterval="5000" PB:Stepped="False" PB:DSType="3" PB:DSVisible="False">
	</PB:Dataset>
	<PB:Dataset id="MODULEDB_DS" PB:Type="57" PB:Context="2" PB:Description="" PB:RefreshInterval="5000" PB:Stepped="False" PB:DSType="3" PB:DSVisible="False">
	</PB:Dataset>
	<g id="Trend1" PB:Type="10">
		<PB:TrendLogical id="Trend1_Logical" PB:ValueScalePosition="1" PB:BackgroundColor="8421504" PB:CurrentTrace="3" PB:DisplayScaleInside="True" PB:EnableScript="True" PB:Enabled="True" PB:EndTime="*+1m" PB:FillColor="16711680" PB:FontBold="False" PB:FontItalic="False" PB:FontName="Arial" PB:FontSize="10" PB:FontStrikethrough="False" PB:FontUnderline="False" PB:Height="1954" PB:IsMultiState="False" PB:Left="-14848" PB:LineColor="16777215" PB:MultipleScales="False" PB:Name="Trend1" PB:PlotTimeStyle="0" PB:Rotation="0" PB:ShowDescription="False" PB:ShowEngUnits="True" PB:ShowGrids="True" PB:ShowTagName="True" PB:ShowServerName="False" PB:ShowTitle="True" PB:ShowTraceMarkers="False" PB:ShowValue="True" PB:StartTime="*-3m" PB:Top="14478" PB:TraceCount="3" PB:TrendTitle="Plot-0" PB:Visible="True" PB:Width="4369">
			<PB:TraceElem id="PB:TraceElem_1" PB:ShowLinearRegression="False" PB:ScaleLogarithmic="False" PB:ScaleMax="Autorange" PB:ScaleMin="Autorange" PB:Trace="AF2.\\JLEFEBVRENEW\JDIData\DataGeneration|Sensor" PB:ScaleFormat="General" PB:DisplayDigits="-5" PB:CanonicalNumberFormat="General" PB:TagInfoType="1">
			</PB:TraceElem>
			<PB:TraceElem id="PB:TraceElem_2" PB:ShowLinearRegression="False" PB:ScaleLogarithmic="False" PB:ScaleMax="Autorange" PB:ScaleMin="Autorange" PB:Trace="AF2.\\JLEFEBVRENEW\JDIData\DataGeneration|Sensor|HiHi" PB:ScaleFormat="General" PB:DisplayDigits="2" PB:CanonicalNumberFormat="General" PB:TagInfoType="1">
			</PB:TraceElem>
			<PB:TraceElem id="PB:TraceElem_3" PB:ShowLinearRegression="False" PB:ScaleLogarithmic="False" PB:ScaleMax="Autorange" PB:ScaleMin="Autorange" PB:Trace="AF2.\\JLEFEBVRENEW\JDIData\DataGeneration|Sensor|LoLo" PB:ScaleFormat="General" PB:DisplayDigits="-5" PB:CanonicalNumberFormat="General" PB:TagInfoType="1">
			</PB:TraceElem>
			<PB:Format id="PB:Format_1" PB:Name="Horz. Axis" PB:LineColor="0" PB:LineStyle="0" PB:LineWidth="1" PB:MarkerStyle="-1">
			</PB:Format>
			<PB:Format id="PB:Format_2" PB:Name="Background" PB:LineColor="8421504" PB:LineStyle="-1" PB:LineWidth="1" PB:MarkerStyle="-1">
			</PB:Format>
			<PB:Format id="PB:Format_3" PB:Name="Horz. Major Grid" PB:LineColor="0" PB:LineStyle="0" PB:LineWidth="1" PB:MarkerStyle="-1">
			</PB:Format>
			<PB:Format id="PB:Format_4" PB:Name="Horz. Minor Grid" PB:LineColor="0" PB:LineStyle="0" PB:LineWidth="1" PB:MarkerStyle="-1">
			</PB:Format>
			<PB:Format id="PB:Format_5" PB:Name="Pen 1" PB:LineColor="65280" PB:LineStyle="0" PB:LineWidth="1" PB:MarkerStyle="0">
			</PB:Format>
			<PB:Format id="PB:Format_6" PB:Name="Pen 2" PB:LineColor="16776960" PB:LineStyle="0" PB:LineWidth="1" PB:MarkerStyle="1">
			</PB:Format>
			<PB:Format id="PB:Format_7" PB:Name="Pen 3" PB:LineColor="65535" PB:LineStyle="0" PB:LineWidth="1" PB:MarkerStyle="2">
			</PB:Format>
			<PB:Format id="PB:Format_8" PB:Name="Pen 4" PB:LineColor="16711935" PB:LineStyle="0" PB:LineWidth="1" PB:MarkerStyle="3">
			</PB:Format>
			<PB:Format id="PB:Format_9" PB:Name="Pen 5" PB:LineColor="255" PB:LineStyle="0" PB:LineWidth="1" PB:MarkerStyle="4">
			</PB:Format>
			<PB:Format id="PB:Format_10" PB:Name="Pen 6" PB:LineColor="16777215" PB:LineStyle="0" PB:LineWidth="1" PB:MarkerStyle="5">
			</PB:Format>
			<PB:Format id="PB:Format_11" PB:Name="Pen 7" PB:LineColor="16711680" PB:LineStyle="0" PB:LineWidth="1" PB:MarkerStyle="6">
			</PB:Format>
			<PB:Format id="PB:Format_12" PB:Name="Pen 8" PB:LineColor="0" PB:LineStyle="0" PB:LineWidth="1" PB:MarkerStyle="7">
			</PB:Format>
			<PB:Format id="PB:Format_13" PB:Name="Pen 9" PB:LineColor="8388608" PB:LineStyle="0" PB:LineWidth="1" PB:MarkerStyle="8">
			</PB:Format>
			<PB:Format id="PB:Format_14" PB:Name="Pen 10" PB:LineColor="32768" PB:LineStyle="0" PB:LineWidth="1" PB:MarkerStyle="9">
			</PB:Format>
			<PB:Format id="PB:Format_15" PB:Name="Pen 11" PB:LineColor="8388736" PB:LineStyle="0" PB:LineWidth="1" PB:MarkerStyle="10">
			</PB:Format>
			<PB:Format id="PB:Format_16" PB:Name="Pen 12" PB:LineColor="8433626" PB:LineStyle="0" PB:LineWidth="1" PB:MarkerStyle="11">
			</PB:Format>
			<PB:Format id="PB:Format_17" PB:Name="Text" PB:LineColor="16777215" PB:LineStyle="-1" PB:LineWidth="1" PB:MarkerStyle="-1">
			</PB:Format>
			<PB:Format id="PB:Format_18" PB:Name="Vert. Axis" PB:LineColor="0" PB:LineStyle="0" PB:LineWidth="1" PB:MarkerStyle="-1">
			</PB:Format>
			<PB:Format id="PB:Format_19" PB:Name="Vert. Major Grid" PB:LineColor="0" PB:LineStyle="0" PB:LineWidth="1" PB:MarkerStyle="-1">
			</PB:Format>
			<PB:Format id="PB:Format_20" PB:Name="Vert. Minor Grid" PB:LineColor="0" PB:LineStyle="0" PB:LineWidth="1" PB:MarkerStyle="-1">
			</PB:Format>
		</PB:TrendLogical>
		<svg id="Trend1_Graphical" height="1954" width="4369" x="152" y="522">
			<PB:RefreshData id="Trend1_RefreshData" PB:bEngUnits="True" PB:bLogarithmic="False" PB:bMarkers="False" PB:bTagname="True" PB:bValue="True" PB:fXUnits="13.379166666666666666666666667" PB:iGrdBegX="6" PB:iGrdBegY="41" PB:iGrdHght="1862" PB:iGrdWdth="3211" PB:iMinPerCol="30" PB:iNumTrcs="3" PB:iNumXCols="0" PB:bGrids="True" PB:Updateable="True" PB:iSnglLnHght="33" PB:iScaleWidth="0" PB:bOmitScaleText="False" PB:bOmitTimeText="False">
			</PB:RefreshData>
			<rect id="Trend1_Background" x="0" y="0" width="4369" height="1954" fill="#808080">
			</rect>
			<g id="Trend1_PlotTitleGroup" style="font-family:Arial;font-size:33;stroke:#FFFFFF;fill:#FFFFFF;">
				<text x="6" y="33" style="font-family:Arial;font-size:33;stroke:#FFFFFF;fill:#FFFFFF;">Plot-0</text>
			</g>
			<svg id="Trend1_AxesGroup" height="1862" width="3211" x="6" y="41">
				<rect id="Trend1_GridBackground" x="0" y="0" width="3211" height="1862" style="fill:#808080;stroke:none;">
				</rect>
				<polyline id="Trend1_VertAxis_1" style="stroke-width:3;fill:none;stroke:#000000;" points="0,0 0,1862">
				</polyline>
				<polyline id="Trend1_VertAxis_Last" style="stroke-width:3;fill:none;stroke:#000000;stroke-dasharray:10 10 10 10;" points="3211,0 3211,1862">
				</polyline>
				<polyline id="Trend1_HorizAxis" style="stroke-width:3;fill:none;stroke:#000000;" points="0,1862 3211,1862">
				</polyline>
			</svg>
			<svg id="Trend1_GridGroup" height="1862" width="3211" x="6" y="41">
				<path id="Trend1_HorizGridLine" style="stroke-width:2;stroke:#000000;" d="M94,0 L94,1862">
				</path>
				<path id="Trend1_HorizGridLine" style="stroke-width:2;stroke:#000000;" d="M495,0 L495,1862">
				</path>
				<path id="Trend1_HorizGridLine" style="stroke-width:2;stroke:#000000;" d="M896,0 L896,1862">
				</path>
				<path id="Trend1_HorizGridLine" style="stroke-width:2;stroke:#000000;" d="M1298,0 L1298,1862">
				</path>
				<path id="Trend1_HorizGridLine" style="stroke-width:2;stroke:#000000;" d="M1699,0 L1699,1862">
				</path>
				<path id="Trend1_HorizGridLine" style="stroke-width:2;stroke:#000000;" d="M2101,0 L2101,1862">
				</path>
				<path id="Trend1_HorizGridLine" style="stroke-width:2;stroke:#000000;" d="M2502,0 L2502,1862">
				</path>
				<path id="Trend1_HorizGridLine" style="stroke-width:2;stroke:#000000;" d="M2903,0 L2903,1862">
				</path>
				<path id="Trend1_VertGridLine" style="stroke-width:2;stroke:#000000" d="M0,1742.06 L3211,1742.06">
				</path>
				<path id="Trend1_VertGridLine" style="stroke-width:2;stroke:#000000" d="M0,1412.44 L3211,1412.44">
				</path>
				<path id="Trend1_VertGridLine" style="stroke-width:2;stroke:#000000" d="M0,1082.82 L3211,1082.82">
				</path>
				<path id="Trend1_VertGridLine" style="stroke-width:2;stroke:#000000" d="M0,753.2 L3211,753.2">
				</path>
				<path id="Trend1_VertGridLine" style="stroke-width:2;stroke:#000000" d="M0,423.59 L3211,423.59">
				</path>
				<path id="Trend1_VertGridLine" style="stroke-width:2;stroke:#000000" d="M0,93.97 L3211,93.97">
				</path>
				<path id="Trend1_VertGridLine" style="stroke-width:2;stroke:#000000" d="M0,0 L3211,0">
				</path>
			</svg>
			<g id="Trend1_XScaleTextGroup" style="font-family:Arial;font-size:33;stroke:#FFFFFF;fill:#FFFFFF;">
				<text id="Trend1_XScaleTextBegin" x="6" y="1938" style="font-family:Arial;font-size:33;stroke:#FFFFFF;fill:#FFFFFF;">2016/04/27 14:54:23</text>
				<text id="Trend1_XScaleTextSpan" x="1462" y="1938" style="font-family:Arial;font-size:33;stroke:#FFFFFF;fill:#FFFFFF;">240.00 seconds</text>
				<text id="Trend1_XScaleTextEnd" x="2832" y="1938" style="font-family:Arial;font-size:33;stroke:#FFFFFF;fill:#FFFFFF;">2016/04/27 14:58:23</text>
			</g>
			<g id="Trend1_TagNameGroup" transform="translate(3243,43)">
				<circle id="Trend1_0" cx="0.5" cy="17" r="8" style="stroke-width:2;stroke:#00FF00;fill:#00FF00;">
				</circle>
				<text id="Trend1_TagName0" x="19.1860465116279" y="33" style="font-family:Arial;font-size:33;stroke:#00FF00;fill:#00FF00;">DataGeneration.Sensor</text>
				<text id="Trend1_TagValue0" x="19.1860465116279" y="68" style="font-family:Arial;font-size:33;stroke:#00FF00;fill:#00FF00;">0.88332</text>
				<text id="Trend1_EngUnits0" x="19.1860465116279" y="103" style="font-family:Arial;font-size:33;stroke:#00FF00;fill:#00FF00;">
				</text>
				<circle id="Trend1_1" cx="0.5" cy="122" r="8" style="stroke-width:2;stroke:#00FFFF;fill:none;">
				</circle>
				<text id="Trend1_TagName1" x="19.1860465116279" y="138" style="font-family:Arial;font-size:33;stroke:#00FFFF;fill:#00FFFF;">AF2.\\JLEFEBVRENEW\JDIData\DataGeneration|Sensor|HiHi</text>
				<text id="Trend1_TagValue1" x="19.1860465116279" y="173" style="font-family:Arial;font-size:33;stroke:#00FFFF;fill:#00FFFF;">No Data</text>
				<text id="Trend1_EngUnits1" x="19.1860465116279" y="208" style="font-family:Arial;font-size:33;stroke:#00FFFF;fill:#00FFFF;">
				</text>
				<polygon id="Trend1_2" points="-5.5,221 6.5,221 6.5,233 -5.5,233 -5.5,221" style="stroke-width:2;stroke:#FFFF00;fill:#FFFF00;" transform="rotate(45,0.5,227) ">
				</polygon>
				<text id="Trend1_TagName2" x="19.1860465116279" y="243" style="font-family:Arial;font-size:33;stroke:#FFFF00;fill:#FFFF00;">OSIDemo_DataGeneration.LoLo</text>
				<text id="Trend1_TagValue2" x="19.1860465116279" y="278" style="font-family:Arial;font-size:33;stroke:#FFFF00;fill:#FFFF00;">No Data</text>
				<text id="Trend1_EngUnits2" x="19.1860465116279" y="313" style="font-family:Arial;font-size:33;stroke:#FFFF00;fill:#FFFF00;">
				</text>
			</g>
			<svg id="Trend1_TraceGroup" height="1862" width="3211" style="font-family:Arial;font-size:33;stroke:#FFFFFF;fill:#FFFFFF;" x="6" y="41">
				<path id="Trend1_Plot0" style="font-family:Arial;font-size:33;stroke:#00FF00;fill:none;stroke-width:2;" d="M13.3791666666667,679.055256213116 L26.7583333333333,1086.68513285321 L40.1375,1220.54818533786 L53.5166666666667,1158.89584902582 L66.8958333333333,1534.58291492865 L80.275,1788.31700936335 L93.6541666666667,1630.10644893573 L107.033333333333,1742.05634167585 L120.4125,1742.05634167585 L133.791666666667,1742.05634167585 L147.170833333333,1742.05634167585 L160.55,1742.05634167585 L173.929166666667,1742.05634167585 L187.308333333333,1742.05634167585 L200.6875,1742.05634167585 L214.066666666667,1742.05634167585 L227.445833333333,1742.05634167585 L240.825,1742.05634167585 L254.204166666667,1742.05634167585 L267.583333333333,1742.05634167585 L280.9625,1742.05634167585 L294.341666666667,1742.05634167585 L307.720833333333,1742.05634167585 L321.1,1742.05634167585 L334.479166666667,1742.05634167585 L347.858333333333,1742.05634167585 L361.2375,1742.05634167585 L374.616666666667,1742.05634167585 L387.995833333333,1742.05634167585 L401.375,1742.05634167585 L414.754166666667,1742.05634167585 L428.133333333333,1742.05634167585 L441.5125,1742.05634167585 L454.891666666667,1742.05634167585 L468.270833333333,1742.05634167585 L481.65,1742.05634167585 L495.029166666667,1862.00000000001 L508.408333333333,1537.34207382713 L521.7875,1287.03100378287 L535.166666666667,1365.44397355966 L548.545833333333,1017.0325472878 L561.925,914.943060779705 L575.304166666667,819.947352078177 L588.683333333333,704.769558149944 L602.0625,453.44768088539 L615.441666666667,431.556043801161 L628.820833333333,349.772734423317 L642.2,265.496111194011 L655.579166666667,202.159455157411 L668.958333333333,161.1240773187 L682.3375,340.816914978134 L695.716666666667,107.066170160073 L709.095833333333,199.366481307826 L722.475,193.387155045732 L735.854166666667,123.756451412164 L749.233333333333,183.172871289217 L762.6125,395.392256732016 L775.991666666667,401.498226954597 L789.370833333333,451.824385791192 L802.75,650.272454479984 L816.129166666666,775.516762728783 L829.508333333333,792.008290669854 L842.8875,1066.8794092591 L856.266666666667,1159.11502867042 L869.645833333333,1450.55673528619 L883.025,1586.92665817122 L896.404166666667,1654.12049928448 L909.783333333333,1742.05634167585 L923.1625,1742.05634167585 L936.541666666667,1742.05634167585 L949.920833333333,1742.05634167585 L963.3,1742.05634167585 L976.679166666667,1742.05634167585 L990.058333333333,1742.05634167585 L1003.4375,1742.05634167585 L1016.81666666667,1742.05634167585 L1030.19583333333,1742.05634167585 L1043.575,1742.05634167585 L1056.95416666667,1742.05634167585 L1070.33333333333,1742.05634167585 L1083.7125,1742.05634167585 L1097.09166666667,1742.05634167585 L1110.47083333333,1742.05634167585 L1123.85,1742.05634167585 L1137.22916666667,1742.05634167585 L1150.60833333333,1742.05634167585 L1163.9875,1742.05634167585 L1177.36666666667,1742.05634167585 L1190.74583333333,1742.05634167585 L1204.125,1742.05634167585 L1217.50416666667,1742.05634167585 L1230.88333333333,1742.05634167585 L1244.2625,1742.05634167585 L1257.64166666667,1742.05634167585 L1271.02083333333,1742.05634167585 L1284.4,1742.05634167585 L1297.77916666667,1545.62173239034 L1311.15833333333,1575.68902936756 L1324.5375,1266.89606943173 L1337.91666666667,1261.53203647703 L1351.29583333333,1064.77262925115 L1364.675,929.046073284068 L1378.05416666667,695.146805020571 L1391.43333333333,620.490379980444 L1404.8125,609.318068284053 L1418.19166666667,474.805381689347 L1431.57083333333,392.979752518727 L1444.95,402.319901896656 L1458.32916666667,212.446667158711 L1471.70833333333,195.557826891122 L1485.0875,0 L1498.46666666667,89.6801459810952 L1511.84583333333,29.0091289930463 L1525.225,215.795992774023 L1538.60416666667,250.549214454204 L1551.98333333333,271.102779512541 L1565.3625,351.015335549919 L1578.74166666667,468.620853568536 L1592.12083333333,414.363720630237 L1605.5,720.710211724186 L1618.87916666667,824.108280029642 L1632.25833333333,1020.96587303972 L1645.6375,1006.71755640696 L1659.01666666667,1411.93883982321 L1672.39583333333,1279.91424995822 L1685.775,1530.63706100949 L1699.15416666667,1623.97351539706 L1712.53333333333,1742.05634167585 L1725.9125,1742.05634167585 L1739.29166666667,1742.05634167585 L1752.67083333333,1742.05634167585 L1766.05,1742.05634167585 L1779.42916666667,1742.05634167585 L1792.80833333333,1742.05634167585 L1806.1875,1742.05634167585 L1819.56666666667,1742.05634167585 L1832.94583333333,1742.05634167585 L1846.325,1742.05634167585 L1859.70416666667,1742.05634167585 L1873.08333333333,1742.05634167585 L1886.4625,1742.05634167585 L1899.84166666667,1742.05634167585 L1913.22083333333,1742.05634167585 L1926.6,1742.05634167585 L1939.97916666667,1742.05634167585 L1953.35833333333,1742.05634167585 L1966.7375,1742.05634167585 L1980.11666666667,1742.05634167585 L1993.49583333333,1742.05634167585 L2006.875,1742.05634167585 L2020.25416666667,1742.05634167585 L2033.63333333333,1742.05634167585 L2047.0125,1742.05634167585 L2060.39166666667,1742.05634167585 L2073.77083333333,1742.05634167585 L2087.15,1742.05634167585 L2100.52916666667,1707.72566609985 L2113.90833333333,1496.2877909852 L2127.2875,1364.57571759645 L2140.66666666667,1243.25233235803 L2154.04583333333,1117.9591638355 L2167.425,944.74610723607 L2180.80416666667,775.93844219731 L2194.18333333333,698.770695550995 L2207.5625,477.429421416634 L2220.94166666667,404.847570346735 L2234.32083333333,238.168404108037 L2247.7,244.888981250127 L2261.07916666667,314.544241446297 L2274.45833333333,160.212483519923 L2287.8375,286.273228584554 L2408.25,286.273228584554 " PBD:DatasetName="AF2_DS" PBD:DatasetColumn="\\JLEFEBVRENEW\JDIData\DataGeneration|Sensor">
				</path>
				<path id="Trend1_Plot1" style="font-family:Arial;font-size:33;stroke:#00FFFF;fill:none;stroke-width:2;" d="" PBD:DatasetName="AF2_DS" PBD:DatasetColumn="\\JLEFEBVRENEW\JDIData\DataGeneration|Sensor|HiHi">
				</path>
				<path id="Trend1_Plot2" style="font-family:Arial;font-size:33;stroke:#FFFF00;fill:none;stroke-width:2;" d="" PBD:DatasetName="AF2_DS" PBD:DatasetColumn="\\JLEFEBVRENEW\JDIData\DataGeneration|Sensor|LoLo">
				</path>
			</svg>
			<svg id="Trend1_MarkerGroup" height="1862" width="3211" style="" x="6" y="41">
				<circle id="Trend1_1" cx="575.804166666667" cy="820.447352078177" r="8" style="stroke-width:2;stroke:#00FF00;fill:#00FF00;">
				</circle>
				<circle id="Trend1_1" cx="1151.10833333333" cy="1742.55634167585" r="8" style="stroke-width:2;stroke:#00FF00;fill:#00FF00;">
				</circle>
				<circle id="Trend1_1" cx="1713.03333333333" cy="1742.55634167585" r="8" style="stroke-width:2;stroke:#00FF00;fill:#00FF00;">
				</circle>
			</svg>
			<g id="Trend1_YScaleTextGroup" style="font-family:Arial;font-size:33;stroke:#FFFFFF;fill:#FFFFFF;" transform="translate(8,41)">
				<text id="Max_0" x="2" y="33">1.05702</text>
				<text id="Min_0" x="2" y="1856">-0.07278</text>
				<text x="0" y="1747.30686672835">0</text>
				<text x="0" y="1417.6897164958">0.2</text>
				<text x="0" y="1088.07256626325">0.4</text>
				<text x="0" y="758.455416030698">0.6</text>
				<text x="0" y="428.838265798147">0.8</text>
				<text x="0" y="99.2211155655958">1</text>
			</g>
		</svg>
	</g>
	<g id="Value1" fill="#FFFFFF" stroke="none" font-family="Arial" font-size="53.3333312140572" PB:DisplayPointName="9" PB:DisplayTimeStamp="3" PB:HorzAlign="0" PB:ShowUOM="False" PB:IsMultiState="False" PB:NumberFormat="General" PB:CanonicalNumberFormat="General" PB:TagInfoType="3" PBD:PtTagName="af2.\\jlefebvrenew\datastatistics\datastatistic|-3 sigma" PB:PtTagStatus="0" PB:PtTagTime="2016/04/27 14:57:24" PB:PtTagValue="No Data" PB:Type="7" PB:Visible="True" PB:Scripting="True">
		<rect id="Value1_pbTextBoundingRectEl" x="3700" y="298" width="800" height="56" fill="#C0C0C0" stroke-width="0">
		</rect>
		<text id="Value1_pbTextEl" x="4100" y="340" fill="#FFFFFF" stroke="none" font-family="Arial" font-size="53.3333312140572" text-anchor="middle" PBD:Property="timestamp">2016/04/27 14:57:24 <tspan PBD:Property="value">No Data</tspan>
		</text>
	</g>
	<script language="JavaScript" type="text/javascript"> 
        
        function SVG_doc_loaded(evt)
	{
	    var parentDoc = evt.getTarget().getOwnerDocument();
	    var elem = parentDoc.createElement("Ready");
	    evt.getTarget().appendChild(elem);

        }</script>
</svg>
