<?xml version="1.0" encoding="UTF-8"?>
<svg height="100%" viewBox="0 2453 5209 2021" width="100%" fill="#C0C0C0" image-rendering="optimizeSpeed" onload="SVG_doc_loaded(evt);" PB:pid="" xlink:xid="" xmlns:svg="OSI_SVG_20090601" xmlns:xlink="http://www.w3.org/1999/xlink" xmlns:PB="urn:osisoft-com-pb" xmlns:PBI="urn:osisoft-com-interface" xmlns:PBD="urn:osisoft-com-data" xmlns:xsi="http://www.w3.org/1999/XMLSchema/instance">
	<defs><PBD:DataSetUses tag="AF2_DS.\\JLEFEBVRENEW\DataStatistics\DataStatistic|+3 sigma" PB:Parent="AF2_DS" PB:BO="PWSPIDataSetsBO.CBODataSets">
			<PBI:Symbol name="Trend1_Plot1" PB:Type="10" PB:Parent="Trend1">
			</PBI:Symbol>
			<PBI:Symbol name="Trend2_Plot2" PB:Type="10" PB:Parent="Trend2">
			</PBI:Symbol>
		</PBD:DataSetUses><PBD:DataSetUses tag="AF2_DS.\\JLEFEBVRENEW\DataStatistics\DataStatistic|-3 sigma" PB:Parent="AF2_DS" PB:BO="PWSPIDataSetsBO.CBODataSets">
			<PBI:Symbol name="Trend1_Plot2" PB:Type="10" PB:Parent="Trend1">
			</PBI:Symbol>
			<PBI:Symbol name="Trend2_Plot1" PB:Type="10" PB:Parent="Trend2">
			</PBI:Symbol>
			<PBI:Symbol name="Value1" PB:Type="7">
			</PBI:Symbol>
		</PBD:DataSetUses><PBD:DataSetUses tag="AF2_DS.\\JLEFEBVRENEW\DataStatistics\DataStatistic|Sensor" PB:Parent="AF2_DS" PB:BO="PWSPIDataSetsBO.CBODataSets">
			<PBI:Symbol name="Trend1_Plot0" PB:Type="10" PB:Parent="Trend1">
			</PBI:Symbol>
			<PBI:Symbol name="Trend2_Plot0" PB:Type="10" PB:Parent="Trend2">
			</PBI:Symbol>
		</PBD:DataSetUses></defs>
	<rect x="0" y="0" width="5209" height="4474" PB:DocMajorVersionNum="3" PB:DocMinorVersionNum="26" PB:DocGroup="1" PB:wnHeight="670" PB:wnWidth="1612" PB:wnState="2" PB:Zoom="80" PB:LocalID="1041" PB:DisplayServerTimeZone="True" PB:Type="55" PB:NamedValues="AFDisplayBuilder.Upgraded,1">
	</rect>
	<PB:Dataset id="AF2_DS" PB:Type="57" PB:Context="2" PB:Description="" PB:RefreshInterval="10000" PB:Stepped="False" PB:DSType="3" PB:DSVisible="True">
		<PB:DSDatapoint id="\\JLEFEBVRENEW\DataStatistics\DataStatistic|-3 sigma_DP"/>
		<PB:DSDatapoint id="\\JLEFEBVRENEW\DataStatistics\DataStatistic|Sensor_DP"/>
		<PB:DSDatapoint id="\\JLEFEBVRENEW\DataStatistics\DataStatistic|+3 sigma_DP"/>
	</PB:Dataset>
	<PB:Dataset id="E_DS_DS" PB:Type="57" PB:Context="2" PB:Description="" PB:RefreshInterval="5000" PB:Stepped="False" PB:DSType="3" PB:DSVisible="False">
	</PB:Dataset>
	<PB:Dataset id="MODULEDB_DS" PB:Type="57" PB:Context="2" PB:Description="" PB:RefreshInterval="5000" PB:Stepped="False" PB:DSType="3" PB:DSVisible="False">
	</PB:Dataset>
	<g id="Trend1" PB:Type="10">
		<PB:TrendLogical id="Trend1_Logical" PB:ValueScalePosition="1" PB:BackgroundColor="8421504" PB:CurrentTrace="3" PB:DisplayScaleInside="True" PB:EnableScript="True" PB:Enabled="True" PB:EndTime="9:48" PB:FillColor="16711680" PB:FontBold="False" PB:FontItalic="False" PB:FontName="Arial" PB:FontSize="10" PB:FontStrikethrough="False" PB:FontUnderline="False" PB:Height="1954" PB:IsMultiState="False" PB:Left="-14848" PB:LineColor="16777215" PB:MultipleScales="False" PB:Name="Trend1" PB:PlotTimeStyle="0" PB:Rotation="0" PB:ShowDescription="False" PB:ShowEngUnits="True" PB:ShowGrids="True" PB:ShowTagName="True" PB:ShowServerName="False" PB:ShowTitle="True" PB:ShowTraceMarkers="False" PB:ShowValue="True" PB:StartTime="9:40" PB:Top="14478" PB:TraceCount="3" PB:TrendTitle="Plot-0" PB:Visible="True" PB:Width="4369">
			<PB:TraceElem id="PB:TraceElem_1" PB:ShowLinearRegression="False" PB:ScaleLogarithmic="False" PB:ScaleMax="Autorange" PB:ScaleMin="Autorange" PB:Trace="AF2.\\JLEFEBVRENEW\DataStatistics\DataStatistic|Sensor" PB:ScaleFormat="General" PB:DisplayDigits="-5" PB:CanonicalNumberFormat="General" PB:TagInfoType="1">
			</PB:TraceElem>
			<PB:TraceElem id="PB:TraceElem_2" PB:ShowLinearRegression="False" PB:ScaleLogarithmic="False" PB:ScaleMax="Autorange" PB:ScaleMin="Autorange" PB:Trace="AF2.\\JLEFEBVRENEW\DataStatistics\DataStatistic|+3 sigma" PB:ScaleFormat="General" PB:DisplayDigits="-5" PB:CanonicalNumberFormat="General" PB:TagInfoType="1">
			</PB:TraceElem>
			<PB:TraceElem id="PB:TraceElem_3" PB:ShowLinearRegression="False" PB:ScaleLogarithmic="False" PB:ScaleMax="Autorange" PB:ScaleMin="Autorange" PB:Trace="AF2.\\JLEFEBVRENEW\DataStatistics\DataStatistic|-3 sigma" PB:ScaleFormat="General" PB:DisplayDigits="-5" PB:CanonicalNumberFormat="General" PB:TagInfoType="1">
			</PB:TraceElem>
			<PB:Format id="PB:Format_1" PB:Name="Horz. Axis" PB:LineColor="0" PB:LineStyle="0" PB:LineWidth="1" PB:MarkerStyle="-1">
			</PB:Format>
			<PB:Format id="PB:Format_2" PB:Name="Background" PB:LineColor="8421504" PB:LineStyle="-1" PB:LineWidth="1" PB:MarkerStyle="-1">
			</PB:Format>
			<PB:Format id="PB:Format_3" PB:Name="Horz. Major Grid" PB:LineColor="0" PB:LineStyle="0" PB:LineWidth="1" PB:MarkerStyle="-1">
			</PB:Format>
			<PB:Format id="PB:Format_4" PB:Name="Horz. Minor Grid" PB:LineColor="0" PB:LineStyle="0" PB:LineWidth="1" PB:MarkerStyle="-1">
			</PB:Format>
			<PB:Format id="PB:Format_5" PB:Name="Pen 1" PB:LineColor="65280" PB:LineStyle="0" PB:LineWidth="1" PB:MarkerStyle="0">
			</PB:Format>
			<PB:Format id="PB:Format_6" PB:Name="Pen 2" PB:LineColor="16776960" PB:LineStyle="0" PB:LineWidth="1" PB:MarkerStyle="1">
			</PB:Format>
			<PB:Format id="PB:Format_7" PB:Name="Pen 3" PB:LineColor="65535" PB:LineStyle="0" PB:LineWidth="1" PB:MarkerStyle="2">
			</PB:Format>
			<PB:Format id="PB:Format_8" PB:Name="Pen 4" PB:LineColor="16711935" PB:LineStyle="0" PB:LineWidth="1" PB:MarkerStyle="3">
			</PB:Format>
			<PB:Format id="PB:Format_9" PB:Name="Pen 5" PB:LineColor="255" PB:LineStyle="0" PB:LineWidth="1" PB:MarkerStyle="4">
			</PB:Format>
			<PB:Format id="PB:Format_10" PB:Name="Pen 6" PB:LineColor="16777215" PB:LineStyle="0" PB:LineWidth="1" PB:MarkerStyle="5">
			</PB:Format>
			<PB:Format id="PB:Format_11" PB:Name="Pen 7" PB:LineColor="16711680" PB:LineStyle="0" PB:LineWidth="1" PB:MarkerStyle="6">
			</PB:Format>
			<PB:Format id="PB:Format_12" PB:Name="Pen 8" PB:LineColor="0" PB:LineStyle="0" PB:LineWidth="1" PB:MarkerStyle="7">
			</PB:Format>
			<PB:Format id="PB:Format_13" PB:Name="Pen 9" PB:LineColor="8388608" PB:LineStyle="0" PB:LineWidth="1" PB:MarkerStyle="8">
			</PB:Format>
			<PB:Format id="PB:Format_14" PB:Name="Pen 10" PB:LineColor="32768" PB:LineStyle="0" PB:LineWidth="1" PB:MarkerStyle="9">
			</PB:Format>
			<PB:Format id="PB:Format_15" PB:Name="Pen 11" PB:LineColor="8388736" PB:LineStyle="0" PB:LineWidth="1" PB:MarkerStyle="10">
			</PB:Format>
			<PB:Format id="PB:Format_16" PB:Name="Pen 12" PB:LineColor="8433626" PB:LineStyle="0" PB:LineWidth="1" PB:MarkerStyle="11">
			</PB:Format>
			<PB:Format id="PB:Format_17" PB:Name="Text" PB:LineColor="16777215" PB:LineStyle="-1" PB:LineWidth="1" PB:MarkerStyle="-1">
			</PB:Format>
			<PB:Format id="PB:Format_18" PB:Name="Vert. Axis" PB:LineColor="0" PB:LineStyle="0" PB:LineWidth="1" PB:MarkerStyle="-1">
			</PB:Format>
			<PB:Format id="PB:Format_19" PB:Name="Vert. Major Grid" PB:LineColor="0" PB:LineStyle="0" PB:LineWidth="1" PB:MarkerStyle="-1">
			</PB:Format>
			<PB:Format id="PB:Format_20" PB:Name="Vert. Minor Grid" PB:LineColor="0" PB:LineStyle="0" PB:LineWidth="1" PB:MarkerStyle="-1">
			</PB:Format>
		</PB:TrendLogical>
		<svg id="Trend1_Graphical" height="1954" width="4369" x="152" y="522">
			<PB:RefreshData id="Trend1_RefreshData" PB:bEngUnits="True" PB:bLogarithmic="False" PB:bMarkers="False" PB:bTagname="True" PB:bValue="True" PB:fXUnits="7.2479166666666666666666666667" PB:iGrdBegX="6" PB:iGrdBegY="41" PB:iGrdHght="1862" PB:iGrdWdth="3479" PB:iMinPerCol="1" PB:iNumTrcs="3" PB:iNumXCols="0" PB:bGrids="True" PB:Updateable="False" PB:iSnglLnHght="33" PB:iScaleWidth="0" PB:bOmitScaleText="False" PB:bOmitTimeText="False">
			</PB:RefreshData>
			<rect id="Trend1_Background" x="0" y="0" width="4369" height="1954" fill="#808080">
			</rect>
			<g id="Trend1_PlotTitleGroup" style="font-family:Arial;font-size:33;stroke:#FFFFFF;fill:#FFFFFF;">
				<text x="6" y="33" style="font-family:Arial;font-size:33;stroke:#FFFFFF;fill:#FFFFFF;">Plot-0</text>
			</g>
			<svg id="Trend1_AxesGroup" height="1862" width="3479" x="6" y="41">
				<rect id="Trend1_GridBackground" x="0" y="0" width="3479" height="1862" style="fill:#808080;stroke:none;">
				</rect>
				<polyline id="Trend1_VertAxis_1" style="stroke-width:3;fill:none;stroke:#000000;" points="0,0 0,1862">
				</polyline>
				<polyline id="Trend1_VertAxis_Last" style="stroke-width:3;fill:none;stroke:#000000;" points="3479,0 3479,1862">
				</polyline>
				<polyline id="Trend1_HorizAxis" style="stroke-width:3;fill:none;stroke:#000000;" points="0,1862 3479,1862">
				</polyline>
			</svg>
			<svg id="Trend1_GridGroup" height="1862" width="3479" x="6" y="41">
				<path id="Trend1_HorizGridLine" style="stroke-width:2;stroke:#000000;" d="M435,0 L435,1862">
				</path>
				<path id="Trend1_HorizGridLine" style="stroke-width:2;stroke:#000000;" d="M870,0 L870,1862">
				</path>
				<path id="Trend1_HorizGridLine" style="stroke-width:2;stroke:#000000;" d="M1305,0 L1305,1862">
				</path>
				<path id="Trend1_HorizGridLine" style="stroke-width:2;stroke:#000000;" d="M1739,0 L1739,1862">
				</path>
				<path id="Trend1_HorizGridLine" style="stroke-width:2;stroke:#000000;" d="M2174,0 L2174,1862">
				</path>
				<path id="Trend1_HorizGridLine" style="stroke-width:2;stroke:#000000;" d="M2609,0 L2609,1862">
				</path>
				<path id="Trend1_HorizGridLine" style="stroke-width:2;stroke:#000000;" d="M3044,0 L3044,1862">
				</path>
				<path id="Trend1_VertGridLine" style="stroke-width:2;stroke:#000000" d="M0,1923.59 L3479,1923.59">
				</path>
				<path id="Trend1_VertGridLine" style="stroke-width:2;stroke:#000000" d="M0,1649.95 L3479,1649.95">
				</path>
				<path id="Trend1_VertGridLine" style="stroke-width:2;stroke:#000000" d="M0,1376.31 L3479,1376.31">
				</path>
				<path id="Trend1_VertGridLine" style="stroke-width:2;stroke:#000000" d="M0,1102.67 L3479,1102.67">
				</path>
				<path id="Trend1_VertGridLine" style="stroke-width:2;stroke:#000000" d="M0,829.04 L3479,829.04">
				</path>
				<path id="Trend1_VertGridLine" style="stroke-width:2;stroke:#000000" d="M0,555.4 L3479,555.4">
				</path>
				<path id="Trend1_VertGridLine" style="stroke-width:2;stroke:#000000" d="M0,281.76 L3479,281.76">
				</path>
				<path id="Trend1_VertGridLine" style="stroke-width:2;stroke:#000000" d="M0,8.12 L3479,8.12">
				</path>
				<path id="Trend1_VertGridLine" style="stroke-width:2;stroke:#000000" d="M0,0 L3479,0">
				</path>
			</svg>
			<g id="Trend1_XScaleTextGroup" style="font-family:Arial;font-size:33;stroke:#FFFFFF;fill:#FFFFFF;">
				<text id="Trend1_XScaleTextBegin" x="6" y="1938" style="font-family:Arial;font-size:33;stroke:#FFFFFF;fill:#FFFFFF;">2016/04/22 9:40:00</text>
				<text id="Trend1_XScaleTextSpan" x="1622" y="1938" style="font-family:Arial;font-size:33;stroke:#FFFFFF;fill:#FFFFFF;">8.00 minutes</text>
				<text id="Trend1_XScaleTextEnd" x="3122" y="1938" style="font-family:Arial;font-size:33;stroke:#FFFFFF;fill:#FFFFFF;">2016/04/22 9:48:00</text>
			</g>
			<g id="Trend1_TagNameGroup" transform="translate(3511,43)">
				<circle id="Trend1_0" cx="0.5" cy="17" r="8" style="stroke-width:2;stroke:#00FF00;fill:#00FF00;">
				</circle>
				<text id="Trend1_TagName0" x="19.1860465116279" y="33" style="font-family:Arial;font-size:33;stroke:#00FF00;fill:#00FF00;">DataGeneration.Sensor</text>
				<text id="Trend1_TagValue0" x="19.1860465116279" y="68" style="font-family:Arial;font-size:33;stroke:#00FF00;fill:#00FF00;">-0.00442</text>
				<text id="Trend1_EngUnits0" x="19.1860465116279" y="103" style="font-family:Arial;font-size:33;stroke:#00FF00;fill:#00FF00;">
				</text>
				<circle id="Trend1_1" cx="0.5" cy="122" r="8" style="stroke-width:2;stroke:#00FFFF;fill:none;">
				</circle>
				<text id="Trend1_TagName1" x="19.1860465116279" y="138" style="font-family:Arial;font-size:33;stroke:#00FFFF;fill:#00FFFF;">OSI_DataStatistic.+3 sigma</text>
				<text id="Trend1_TagValue1" x="19.1860465116279" y="173" style="font-family:Arial;font-size:33;stroke:#00FFFF;fill:#00FFFF;">0.09633</text>
				<text id="Trend1_EngUnits1" x="19.1860465116279" y="208" style="font-family:Arial;font-size:33;stroke:#00FFFF;fill:#00FFFF;">
				</text>
				<polygon id="Trend1_2" points="-5.5,221 6.5,221 6.5,233 -5.5,233 -5.5,221" style="stroke-width:2;stroke:#FFFF00;fill:#FFFF00;" transform="rotate(45,0.5,227) ">
				</polygon>
				<text id="Trend1_TagName2" x="19.1860465116279" y="243" style="font-family:Arial;font-size:33;stroke:#FFFF00;fill:#FFFF00;">OSI_DataStatistic.-3 sigma</text>
				<text id="Trend1_TagValue2" x="19.1860465116279" y="278" style="font-family:Arial;font-size:33;stroke:#FFFF00;fill:#FFFF00;">-0.1306</text>
				<text id="Trend1_EngUnits2" x="19.1860465116279" y="313" style="font-family:Arial;font-size:33;stroke:#FFFF00;fill:#FFFF00;">
				</text>
			</g>
			<svg id="Trend1_TraceGroup" height="1862" width="3479" style="font-family:Arial;font-size:33;stroke:#FFFFFF;fill:#FFFFFF;" x="6" y="41">
				<path id="Trend1_Plot0" style="font-family:Arial;font-size:33;stroke:#00FF00;fill:none;stroke-width:2;" d="M0,1634.23699419614 L7.24791666666667,1604.35465151487 L14.4958333333333,1475.87073111669 L21.74375,1446.57908190736 L28.9916666666667,1492.13907473816 L36.2395833333333,1274.46640568933 L43.4875,1224.22340753767 L50.7354166666667,1245.33356200636 L57.9833333333333,993.821555451733 L65.23125,1102.57392140131 L72.4791666666667,945.801997437613 L79.7270833333333,842.921426767394 L86.975,820.905494957839 L94.2229166666667,782.173443026193 L101.470833333333,694.902571195771 L108.71875,740.937857283806 L115.966666666667,558.783180626017 L123.214583333333,566.095422451064 L130.4625,497.063633482487 L137.710416666667,564.466896543839 L144.958333333333,413.625243989558 L152.20625,425.195747572038 L159.454166666667,465.383749301883 L166.702083333333,417.279930724187 L173.95,248.070669247741 L181.197916666667,317.737598071897 L188.445833333333,365.414134211554 L195.69375,242.737984100975 L202.941666666667,285.859620459234 L210.189583333333,340.595696587424 L217.4375,245.955196025903 L224.685416666667,236.850753775871 L231.933333333333,244.785605209516 L239.18125,289.696725724837 L246.429166666667,398.702918526772 L253.677083333333,331.346964020621 L260.925,408.286716229566 L268.172916666667,469.065239901334 L275.420833333333,414.084130342073 L282.66875,443.037315781918 L289.916666666667,411.839220475527 L297.164583333333,552.882288143642 L304.4125,616.232745196016 L311.660416666667,630.787479069146 L318.908333333333,673.960145233257 L326.15625,719.13655558358 L333.404166666667,621.311977577636 L340.652083333333,862.653530316049 L347.9,878.481394353044 L355.147916666667,850.971240197184 L362.395833333333,1066.68888881683 L369.64375,1215.18407048551 L376.891666666667,1170.2216570203 L384.139583333333,1161.4194832217 L391.3875,1276.5670724187 L398.635416666667,1288.63129912367 L405.883333333333,1376.65325220392 L413.13125,1499.55181526852 L420.379166666667,1597.4893420162 L427.627083333333,1641.46204843919 L434.875,1632.50146980433 L442.122916666667,1682.46862532244 L449.370833333333,1819.1748231449 L456.61875,1706.2053770127 L463.866666666667,1636.51271498514 L471.114583333333,1476.89184163258 L478.3625,1654.35851795465 L485.610416666667,1716.40873328213 L492.858333333333,1622.01215384802 L500.10625,1643.6722536867 L507.354166666667,1627.64139470966 L514.602083333333,1619.97377045766 L521.85,1559.52379289603 L529.097916666667,1721.27415283464 L536.345833333333,1660.43835916627 L543.59375,1581.01832710263 L550.841666666667,1708.7093746358 L558.089583333333,1579.33195531252 L565.3375,1579.14397336797 L572.585416666667,1622.85849958029 L579.833333333333,1635.3842165933 L587.08125,1609.3945646281 L594.329166666667,1660.16604923022 L601.577083333333,1678.6463037278 L608.825,1664.73510727257 L616.072916666667,1667.97296448236 L623.320833333333,1548.30286447609 L630.56875,1645.04314253379 L637.816666666667,1594.03129600054 L645.064583333333,1548.83731125104 L652.3125,1612.07796023435 L659.560416666667,1587.68071708406 L666.808333333333,1686.14364958887 L674.05625,1567.56473734865 L681.304166666667,1677.63120440526 L688.552083333333,1552.73061327553 L695.8,1737.4016673305 L703.047916666667,1766.65310957572 L710.295833333333,1629.15062365213 L717.54375,1674.73556209608 L724.791666666667,1657.71450495689 L732.039583333333,1696.42089164284 L739.2875,1660.39095843317 L746.535416666667,1485.12771058429 L753.783333333333,1728.33011699178 L761.03125,1631.04006006992 L768.279166666667,1596.73280789497 L775.527083333333,1669.79118184961 L782.775,1633.27370609743 L790.022916666667,1678.03139421285 L797.270833333333,1696.58685480486 L804.51875,1629.33874850513 L811.766666666667,1573.83142558474 L819.014583333333,1679.20769885308 L826.2625,1747.04259537498 L833.510416666667,1492.9119415323 L840.758333333333,1696.70837355875 L848.00625,1663.47812356681 L855.254166666667,1692.57865034829 L862.502083333333,1658.80036861799 L869.75,1672.77092728183 L876.997916666667,1636.63525344022 L884.245833333333,1541.89629223832 L891.49375,1459.09502616581 L898.741666666667,1354.80043512374 L905.989583333333,1244.06376802082 L913.2375,1290.78890488733 L920.485416666667,1100.1893231419 L927.733333333333,1110.62094544332 L934.98125,1092.51773393737 L942.229166666667,1015.9174547565 L949.477083333333,936.763494800886 L956.725,805.259312105383 L963.972916666667,752.475404371065 L971.220833333333,724.018611981546 L978.46875,677.184054470986 L985.716666666667,503.228844260004 L992.964583333333,670.830686203079 L1000.2125,440.455229200374 L1007.46041666667,609.321715989795 L1014.70833333333,433.673534225981 L1021.95625,481.422551898595 L1029.20416666667,340.747146038532 L1036.45208333333,283.505409760412 L1043.7,189.209087542899 L1050.94791666667,394.706999155822 L1058.19583333333,100.817546082523 L1065.44375,414.037257372805 L1072.69166666667,330.560485321406 L1079.93958333333,297.643235431017 L1087.1875,324.572574843462 L1094.43541666667,398.239579236078 L1101.68333333333,190.591166111416 L1108.93125,318.885099602966 L1116.17916666667,203.17668996829 L1123.42708333333,331.385885016468 L1130.675,330.580890859083 L1137.92291666667,463.489146414053 L1145.17083333333,394.595210314446 L1152.41875,496.573256918081 L1159.66666666667,462.993954997873 L1166.91458333333,608.613922210754 L1174.1625,554.548988764916 L1181.41041666667,717.649203851451 L1188.65833333333,631.59889470255 L1195.90625,701.102075117769 L1203.15416666667,722.668722134898 L1210.40208333333,869.06936282029 L1217.65,919.872812552308 L1224.89791666667,1004.56689316817 L1232.14583333333,993.425831211686 L1239.39375,1046.60870154538 L1246.64166666667,1330.78210634824 L1253.88958333333,1277.90764710514 L1261.1375,1461.53339524122 L1268.38541666667,1339.8145458874 L1275.63333333333,1434.33275857633 L1282.88125,1580.09665828004 L1290.12916666667,1485.88830950659 L1297.37708333333,1636.03389098681 L1304.625,1541.81480367501 L1311.87291666667,1754.14178152752 L1319.12083333333,1769.67004172423 L1326.36875,1683.4061172953 L1333.61666666667,1635.89820341852 L1340.86458333333,1740.69134426472 L1348.1125,1525.95412750282 L1355.36041666667,1694.26475395638 L1362.60833333333,1662.34207754006 L1369.85625,1741.72868973915 L1377.10416666667,1533.20608051837 L1384.35208333333,1664.82247138636 L1391.6,1700.86157061983 L1398.84791666667,1610.54533703787 L1406.09583333333,1761.78360264668 L1413.34375,1559.36488448252 L1420.59166666667,1600.00380935593 L1427.83958333333,1567.37006880857 L1435.0875,1595.20641591879 L1442.33541666667,1693.74220697477 L1449.58333333333,1615.44373547125 L1456.83125,1628.36120390607 L1464.07916666667,1609.11120856853 L1471.32708333333,1665.26470829249 L1478.575,1654.7300330948 L1485.82291666667,1696.98855523298 L1493.07083333333,1673.42588630232 L1500.31875,1678.21158491488 L1507.56666666667,1613.94766540016 L1514.81458333333,1618.79627060719 L1522.0625,1550.54562939858 L1529.31041666667,1657.47919506729 L1536.55833333333,1683.05397027677 L1543.80625,1674.40525545224 L1551.05416666667,1761.89729152873 L1558.30208333333,1647.80654562546 L1565.55,1694.62094119686 L1572.79791666667,1862 L1580.04583333333,1668.78234202471 L1587.29375,1785.46856494019 L1594.54166666667,1579.29889441081 L1601.78958333333,1626.74570539068 L1609.0375,1645.27800406231 L1616.28541666667,1653.29362042169 L1623.53333333333,1619.35052508643 L1630.78125,1548.98281743739 L1638.02916666667,1600.35450071498 L1645.27708333333,1734.50715940002 L1652.525,1561.23188624593 L1659.77291666667,1655.21190024242 L1667.02083333333,1576.68346144802 L1674.26875,1663.61552768725 L1681.51666666667,1688.43500823644 L1688.76458333333,1675.24368894099 L1696.0125,1607.17015266312 L1703.26041666667,1581.4368820008 L1710.50833333333,1593.83023859235 L1717.75625,1577.11646033759 L1725.00416666667,1714.1954238316 L1732.25208333333,1716.84992260274 L1739.5,1631.62088831812 L1746.74791666667,1578.06648668984 L1753.99583333333,1497.97619173176 L1761.24375,1333.83671938359 L1768.49166666667,1478.37921594791 L1775.73958333333,1214.01457531783 L1782.9875,1226.54903481912 L1790.23541666667,1192.61175629967 L1797.48333333333,1174.36209265412 L1804.73125,916.354145168101 L1811.97916666667,996.341840730662 L1819.22708333333,1006.55327036317 L1826.475,794.024613164486 L1833.72291666667,743.568207263734 L1840.97083333333,665.763008763201 L1848.21875,761.84712310635 L1855.46666666667,707.710130190796 L1862.71458333333,641.538187263475 L1869.9625,409.322736966647 L1877.21041666667,595.309443379466 L1884.45833333333,504.606776482959 L1891.70625,478.521684776038 L1898.95416666667,387.70116530979 L1906.20208333333,377.218514366716 L1913.45,464.577078282461 L1920.69791666667,236.079951458764 L1927.94583333333,292.522880551298 L1935.19375,316.964938989977 L1942.44166666667,347.944118749647 L1949.68958333333,259.741617335764 L1956.9375,315.051904223489 L1964.18541666667,307.518027419579 L1971.43333333333,361.941572197114 L1978.68125,329.794141947125 L1985.92916666667,391.659892825947 L1993.17708333333,284.215887742933 L2000.425,235.37911836874 L2007.67291666667,378.408273450142 L2014.92083333333,358.150600219422 L2022.16875,404.595434236932 L2029.41666666667,512.107716210818 L2036.66458333333,502.887389018472 L2043.9125,513.863703131407 L2051.16041666667,591.692954051444 L2058.40833333333,634.414459114924 L2065.65625,638.536491564001 L2072.90416666667,768.012612715158 L2080.15208333333,954.9684431803 L2087.4,924.065011192965 L2094.64791666667,939.561910787552 L2101.89583333333,1118.10897183462 L2109.14375,1086.39780911981 L2116.39166666667,1022.51949694688 L2123.63958333333,1318.83537559547 L2130.8875,1254.69254909666 L2138.13541666667,1350.01179687098 L2145.38333333333,1485.43135067137 L2152.63125,1553.64466957482 L2159.87916666667,1626.79543723757 L2167.12708333333,1654.91273777371 L2174.375,1696.71681695912 L2181.62291666667,1681.23886419161 L2188.87083333333,1664.01668709409 L2196.11875,1582.26301513575 L2203.36666666667,1733.72899771824 L2210.61458333333,1636.92383477483 L2217.8625,1628.44723776785 L2225.11041666667,1694.00468758984 L2232.35833333333,1683.04949164511 L2239.60625,1623.44006075382 L2246.85416666667,1584.76684618574 L2254.10208333333,1564.86715767396 L2261.35,1668.8482150013 L2268.59791666667,1511.40092729436 L2275.84583333333,1678.75422436048 L2283.09375,1666.70370554377 L2290.34166666667,1625.85711952173 L2297.58958333333,1550.08231015861 L2304.8375,1625.70462135404 L2312.08541666667,1620.42581500042 L2319.33333333333,1548.36930959884 L2326.58125,1693.58321587169 L2333.82916666667,1700.25025390972 L2341.07708333333,1542.2402872197 L2348.325,1674.3893904391 L2355.57291666667,1714.33666367217 L2362.82083333333,1672.87947717198 L2370.06875,1788.22517475559 L2377.31666666667,1544.21160851892 L2384.56458333333,1652.25510741317 L2391.8125,1577.19338849849 L2399.06041666667,1681.59919933785 L2406.30833333333,1640.16275251861 L2413.55625,1560.06835026201 L2420.80416666667,1671.97495394415 L2428.05208333333,1814.79635202189 L2435.3,1666.23555602087 L2442.54791666667,1690.32721320657 L2449.79583333333,1619.39172585027 L2457.04375,1716.13319114407 L2464.29166666667,1668.95190224091 L2471.53958333333,1786.50329325442 L2478.7875,1578.618361246 L2486.03541666667,1628.17189629494 L2493.28333333333,1676.93760252863 L2500.53125,1605.67008959233 L2507.77916666667,1650.76451627492 L2515.02708333333,1578.65372971702 L2522.275,1606.74101672912 L2529.52291666667,1518.84898835001 L2536.77083333333,1732.81918433264 L2544.01875,1678.17625254434 L2551.26666666667,1628.04975546112 L2558.51458333333,1603.16503157199 L2565.7625,1621.6920457388 L2573.01041666667,1728.78178204734 L2580.25833333333,1618.32749469665 L2587.50625,1620.89899736047 L2594.75416666667,1719.88702610719 L2602.00208333333,1688.25130070745 L2609.25,1714.30416168937 L2616.49791666667,1556.84172152392 L2623.74583333333,1516.50680179811 L2630.99375,1386.14546766291 L2638.24166666667,1463.7527726435 L2645.48958333333,1217.32985610091 L2652.7375,1268.44685458977 L2659.98541666667,1071.48424385843 L2667.23333333333,1043.55445619199 L2674.48125,1010.46247338185 L2681.72916666667,961.569674099092 L2688.97708333333,974.0936805652 L2696.225,851.881377724457 L2703.47291666667,744.049641017244 L2710.72083333333,742.008805906406 L2717.96875,653.961598291391 L2725.21666666667,593.371581781767 L2732.46458333333,506.19555526716 L2739.7125,403.35750417882 L2746.96041666667,591.878509188076 L2754.20833333333,575.178080424506 L2761.45625,301.390205693631 L2768.70416666667,420.431343894859 L2775.95208333333,292.770214895771 L2783.2,315.730210623439 L2790.44791666667,321.955744292719 L2797.69583333333,347.44406151905 L2804.94375,436.166013375003 L2812.19166666667,285.275650370321 L2819.43958333333,314.806752087282 L2826.6875,360.274242963388 L2833.93541666667,338.781146014809 L2841.18333333333,241.31870113903 L2848.43125,364.515143725908 L2855.67916666667,317.96733066858 L2862.92708333333,248.603561595751 L2870.175,321.428992781402 L2877.42291666667,333.10193269075 L2884.67083333333,523.715025198623 L2891.91875,548.223163642722 L2899.16666666667,393.731136237381 L2906.41458333333,520.146903417526 L2913.6625,553.325907299664 L2920.91041666667,681.019004431678 L2928.15833333333,619.847097792929 L2935.40625,732.325397183501 L2942.65416666667,813.192316529118 L2949.90208333333,750.175806728876 L2957.15,861.931255036365 L2964.39791666667,1009.85443936279 L2971.64583333333,969.811581165861 L2978.89375,1218.22814560221 L2986.14166666667,1194.01532356217 L2993.38958333333,1308.99445209078 L3000.6375,1284.97067088092 L3007.88541666667,1495.87286293444 L3015.13333333333,1355.90564135588 L3022.38125,1521.27337478517 L3029.62916666667,1628.39265439222 L3036.87708333333,1696.7256583202 L3044.125,1567.05723803855 L3051.37291666667,1608.22439319161 L3058.62083333333,1605.55711870464 L3065.86875,1622.01000310698 L3073.11666666667,1484.76552675235 L3080.36458333333,1672.65655696117 L3087.6125,1560.32094742828 L3094.86041666667,1632.14679628375 L3102.10833333333,1737.19510414012 L3109.35625,1588.54066797652 L3116.60416666667,1760.57263856141 L3123.85208333333,1783.11341696952 L3131.1,1657.79240147242 L3138.34791666667,1708.12251330638 L3145.59583333333,1646.66884817115 L3152.84375,1673.6435000517 L3160.09166666667,1636.78562439921 L3167.33958333333,1701.18247364928 L3174.5875,1635.49175143742 L3181.83541666667,1712.07489038687 L3189.08333333333,1546.16661320465 L3196.33125,1607.45562687718 L3203.57916666667,1700.24482504205 L3210.82708333333,1603.25408941162 L3218.075,1629.65488693347 L3225.32291666667,1746.24697355281 L3232.57083333333,1661.8816251777 L3239.81875,1670.73312958998 L3247.06666666667,1677.54247279098 L3254.31458333333,1522.53396752311 L3261.5625,1691.51402696819 L3268.81041666667,1678.79221860186 L3276.05833333333,1559.95783730325 L3283.30625,1572.83329738826 L3290.55416666667,1558.20777444875 L3297.80208333333,1733.68028967596 L3305.05,1536.2355984494 L3312.29791666667,1623.37018818925 L3319.54583333333,1552.15746190324 L3326.79375,1670.22904418145 L3334.04166666667,1787.0703527976 L3341.28958333333,1581.31151211166 L3348.5375,1609.44218700954 L3355.78541666667,1676.6103167215 L3363.03333333333,1749.26001443935 L3370.28125,1724.74614210641 L3377.52916666667,1585.88617747585 L3384.77708333333,1705.09219247345 L3392.025,1599.53896819259 L3399.27291666667,1698.92424566794 L3406.52083333333,1599.55859723949 L3413.76875,1716.03656392661 L3421.01666666667,1631.99763341499 L3428.26458333333,1677.27438207371 L3435.5125,1648.77154838992 L3442.76041666667,1644.21861148403 L3450.00833333333,1718.6698061782 L3457.25625,1641.50626812555 L3464.50416666667,1713.41160442008 L3471.75208333333,1785.6722877616 L3479,1656.00147598624 L3479,1656.00147598624" PBD:DatasetName="AF2_DS" PBD:DatasetColumn="\\JLEFEBVRENEW\DataStatistics\DataStatistic|Sensor">
				</path>
				<path id="Trend1_Plot1" style="font-family:Arial;font-size:33;stroke:#00FFFF;fill:none;stroke-width:2;" d="M0,1521.39346912411 L7.24791666666667,1521.39346912411 L7.24791666666667,1359.31317540232 L14.4958333333333,1359.31317540232 L14.4958333333333,1337.87293074516 L21.74375,1337.87293074516 L21.74375,1215.42248551844 L28.9916666666667,1215.42248551844 L28.9916666666667,1086.28035491414 L36.2395833333333,1086.28035491414 L36.2395833333333,1137.4101538491 L43.4875,1137.4101538491 L43.4875,1070.21059844596 L50.7354166666667,1070.21059844596 L50.7354166666667,1002.34120881704 L57.9833333333333,1002.34120881704 L57.9833333333333,901.498482658779 L65.23125,901.498482658779 L65.23125,920.175546651471 L72.4791666666667,920.175546651471 L72.4791666666667,774.123965937719 L79.7270833333333,774.123965937719 L79.7270833333333,784.658119915541 L86.975,784.658119915541 L86.975,512.829754105434 L94.2229166666667,512.829754105434 L94.2229166666667,609.995318217366 L101.470833333333,609.995318217366 L101.470833333333,459.464380859835 L108.71875,459.464380859835 L108.71875,547.031008848699 L115.966666666667,547.031008848699 L115.966666666667,368.236177516112 L123.214583333333,368.236177516112 L123.214583333333,337.553978029605 L130.4625,337.553978029605 L130.4625,294.69122843205 L137.710416666667,294.69122843205 L137.710416666667,258.535706913514 L144.958333333333,258.535706913514 L144.958333333333,215.961798913174 L152.20625,215.961798913174 L152.20625,175.869846394035 L159.454166666667,175.869846394035 L159.454166666667,194.517068179485 L166.702083333333,194.517068179485 L166.702083333333,237.195767331531 L173.95,237.195767331531 L173.95,88.1668568078912 L181.197916666667,88.1668568078912 L181.197916666667,74.9189445672335 L188.445833333333,74.9189445672335 L188.445833333333,164.013162207626 L195.69375,164.013162207626 L195.69375,19.8621963354687 L202.941666666667,19.8621963354687 L202.941666666667,64.1247214010571 L210.189583333333,64.1247214010571 L210.189583333333,110.940215575587 L217.4375,110.940215575587 L217.4375,98.6697009265819 L224.685416666667,98.6697009265819 L224.685416666667,30.2194230250937 L231.933333333333,30.2194230250937 L231.933333333333,0 L239.18125,0 L239.18125,51.3151760501576 L246.429166666667,51.3151760501576 L246.429166666667,219.011352711346 L253.677083333333,219.011352711346 L253.677083333333,118.799998629608 L260.925,118.799998629608 L260.925,177.741865605279 L268.172916666667,177.741865605279 L268.172916666667,203.372005159431 L275.420833333333,203.372005159431 L275.420833333333,163.711051936176 L282.66875,163.711051936176 L282.66875,378.628856781298 L289.916666666667,378.628856781298 L289.916666666667,317.671864878426 L297.164583333333,317.671864878426 L297.164583333333,329.589599199579 L304.4125,329.589599199579 L304.4125,386.035838553656 L311.660416666667,386.035838553656 L311.660416666667,261.120957815898 L318.908333333333,261.120957815898 L318.908333333333,427.999860701004 L326.15625,427.999860701004 L326.15625,528.191248869439 L333.404166666667,528.191248869439 L333.404166666667,583.423805178136 L340.652083333333,583.423805178136 L340.652083333333,620.238717400027 L347.9,620.238717400027 L347.9,707.956493214876 L355.147916666667,707.956493214876 L355.147916666667,778.162865624962 L362.395833333333,778.162865624962 L362.395833333333,747.603045235172 L369.64375,747.603045235172 L369.64375,847.328205930633 L376.891666666667,847.328205930633 L376.891666666667,887.399524846211 L384.139583333333,887.399524846211 L384.139583333333,940.061812582264 L391.3875,940.061812582264 L391.3875,1141.92323610452 L398.635416666667,1141.92323610452 L398.635416666667,1214.72630542668 L405.883333333333,1214.72630542668 L405.883333333333,1261.92402572971 L413.13125,1261.92402572971 L413.13125,1334.56397158474 L420.379166666667,1334.56397158474 L420.379166666667,1394.61071387812 L427.627083333333,1394.61071387812 L427.627083333333,1492.66523214767 L435,1493 M869.75,1513.07259654064 L876.997916666667,1506 L876.997916666667,1366.78464645075 L884.245833333333,1366.78464645075 L884.245833333333,1332.55300799181 L891.49375,1332.55300799181 L891.49375,1226.90834590404 L898.741666666667,1226.90834590404 L898.741666666667,1066.623719597 L905.989583333333,1066.623719597 L905.989583333333,1136.45429528043 L913.2375,1136.45429528043 L913.2375,1081.79721873825 L920.485416666667,1081.79721873825 L920.485416666667,985.254186693369 L927.733333333333,985.254186693369 L927.733333333333,888.967143029537 L934.98125,888.967143029537 L934.98125,907.569291798063 L942.229166666667,907.569291798063 L942.229166666667,773.126259766527 L949.477083333333,773.126259766527 L949.477083333333,775.694638068398 L956.725,775.694638068398 L956.725,555.384935523475 L963.972916666667,555.384935523475 L963.972916666667,610.813184502782 L971.220833333333,610.813184502782 L971.220833333333,469.204729845482 L978.46875,469.204729845482 L978.46875,548.922708786345 L985.716666666667,548.922708786345 L985.716666666667,359.197586579363 L992.964583333333,359.197586579363 L992.964583333333,340.222142843492 L1000.2125,340.222142843492 L1000.2125,292.200709126901 L1007.46041666667,292.200709126901 L1007.46041666667,326.748209387319 L1014.70833333333,326.748209387319 L1014.70833333333,237.927561243297 L1021.95625,237.927561243297 L1021.95625,242.673839605428 L1029.20416666667,242.673839605428 L1029.20416666667,208.614435190097 L1036.45208333333,208.614435190097 L1036.45208333333,234.508568114214 L1043.7,234.508568114214 L1043.7,150.041979145807 L1050.94791666667,150.041979145807 L1050.94791666667,71.037125550117 L1058.19583333333,71.037125550117 L1058.19583333333,154.024148307797 L1065.44375,154.024148307797 L1065.44375,74.0599247653497 L1072.69166666667,74.0599247653497 L1072.69166666667,110.087574327898 L1079.93958333333,110.087574327898 L1079.93958333333,108.318620192834 L1087.1875,108.318620192834 L1087.1875,94.3454856917635 L1094.43541666667,94.3454856917635 L1094.43541666667,99.8065850437491 L1101.68333333333,99.8065850437491 L1101.68333333333,1.12579295302807 L1108.93125,1.12579295302807 L1108.93125,51.1759786864027 L1116.17916666667,51.1759786864027 L1116.17916666667,223.807100151179 L1123.42708333333,223.807100151179 L1123.42708333333,139.893863204149 L1130.675,139.893863204149 L1130.675,181.850319067234 L1137.92291666667,181.850319067234 L1137.92291666667,212.963525207866 L1145.17083333333,212.963525207866 L1145.17083333333,165.725276271275 L1152.41875,165.725276271275 L1152.41875,360.003275270237 L1159.66666666667,360.003275270237 L1159.66666666667,309.384841037135 L1166.91458333333,309.384841037135 L1166.91458333333,330.339370286527 L1174.1625,330.339370286527 L1174.1625,380.923715159576 L1181.41041666667,380.923715159576 L1181.41041666667,261.510799848978 L1188.65833333333,261.510799848978 L1188.65833333333,432.933217815048 L1195.90625,432.933217815048 L1195.90625,542.512479980464 L1203.15416666667,542.512479980464 L1203.15416666667,535.765464379997 L1210.40208333333,535.765464379997 L1210.40208333333,615.279728456962 L1217.65,615.279728456962 L1217.65,707.704471560058 L1224.89791666667,707.704471560058 L1224.89791666667,723.243154175302 L1232.14583333333,723.243154175302 L1232.14583333333,773.957500796849 L1239.39375,773.957500796849 L1239.39375,823.38223362465 L1246.64166666667,823.38223362465 L1246.64166666667,925.112367133356 L1253.88958333333,925.112367133356 L1253.88958333333,937.691197633923 L1261.1375,937.691197633923 L1261.1375,1133.33654886404 L1268.38541666667,1133.33654886404 L1268.38541666667,1172.20306547487 L1275.63333333333,1172.20306547487 L1275.63333333333,1241.59873085237 L1282.88125,1241.59873085237 L1282.88125,1334.21563987666 L1290.12916666667,1334.21563987666 L1290.12916666667,1385.54466993965 L1297.37708333333,1385.54466993965 L1297.37708333333,1496.96234060704 L1305,1497 M1739.5,1517.40350993135 L1746.74791666667,1510 L1746.74791666667,1381.74530834314 L1753.99583333333,1381.74530834314 L1753.99583333333,1352.17297949567 L1761.24375,1352.17297949567 L1761.24375,1227.75921111201 L1768.49166666667,1227.75921111201 L1768.49166666667,1103.15523054591 L1775.73958333333,1103.15523054591 L1775.73958333333,1137.44357104965 L1782.9875,1137.44357104965 L1782.9875,1103.08327689086 L1790.23541666667,1103.08327689086 L1790.23541666667,990.547740647046 L1797.48333333333,990.547740647046 L1797.48333333333,890.355546178669 L1804.73125,890.355546178669 L1804.73125,898.582597597706 L1811.97916666667,898.582597597706 L1811.97916666667,769.508209324874 L1819.22708333333,769.508209324874 L1819.22708333333,785.228705389115 L1826.475,785.228705389115 L1826.475,562.987221378727 L1833.72291666667,562.987221378727 L1833.72291666667,645.574303601395 L1840.97083333333,645.574303601395 L1840.97083333333,469.274667363187 L1848.21875,469.274667363187 L1848.21875,555.730743142793 L1855.46666666667,555.730743142793 L1855.46666666667,464.110906962412 L1862.71458333333,464.110906962412 L1862.71458333333,372.52492429758 L1869.9625,372.52492429758 L1869.9625,293.450495953706 L1877.21041666667,293.450495953706 L1877.21041666667,305.451894302924 L1884.45833333333,305.451894302924 L1884.45833333333,238.404979014766 L1891.70625,238.404979014766 L1891.70625,241.071885320269 L1898.95416666667,241.071885320269 L1898.95416666667,220.681415395968 L1906.20208333333,220.681415395968 L1906.20208333333,205.924783572283 L1913.45,205.924783572283 L1913.45,104.616668116448 L1920.69791666667,104.616668116448 L1920.69791666667,70.8589930528104 L1927.94583333333,70.8589930528104 L1927.94583333333,48.8136479784208 L1935.19375,48.8136479784208 L1935.19375,63.7146927405955 L1942.44166666667,63.7146927405955 L1942.44166666667,149.487283791857 L1949.68958333333,149.487283791857 L1949.68958333333,108.174494915744 L1956.9375,108.174494915744 L1956.9375,95.7377106624028 L1964.18541666667,95.7377106624028 L1964.18541666667,48.4242319621136 L1971.43333333333,48.4242319621136 L1971.43333333333,11.8923974823174 L1978.68125,11.8923974823174 L1978.68125,54.1457394142648 L1985.92916666667,54.1457394142648 L1985.92916666667,150.086166487534 L1993.17708333333,150.086166487534 L1993.17708333333,140.267175392128 L2000.425,140.267175392128 L2000.425,195.875776958437 L2007.67291666667,195.875776958437 L2007.67291666667,214.629657572829 L2014.92083333333,214.629657572829 L2014.92083333333,174.386967471261 L2022.16875,174.386967471261 L2022.16875,391.569057617337 L2029.41666666667,391.569057617337 L2029.41666666667,310.73961225778 L2036.66458333333,310.73961225778 L2036.66458333333,324.857554070271 L2043.9125,324.857554070271 L2043.9125,395.289152130001 L2051.16041666667,395.289152130001 L2051.16041666667,321.596707245751 L2058.40833333333,321.596707245751 L2058.40833333333,425.025006896603 L2065.65625,425.025006896603 L2065.65625,538.025456724294 L2072.90416666667,538.025456724294 L2072.90416666667,537.728673892699 L2080.15208333333,537.728673892699 L2080.15208333333,636.589850968445 L2087.4,636.589850968445 L2087.4,728.145658920527 L2094.64791666667,728.145658920527 L2094.64791666667,722.414504354685 L2101.89583333333,722.414504354685 L2101.89583333333,784.502005520326 L2109.14375,784.502005520326 L2109.14375,830.617723199425 L2116.39166666667,830.617723199425 L2116.39166666667,983.29370128647 L2123.63958333333,983.29370128647 L2123.63958333333,928.741776591146 L2130.8875,928.741776591146 L2130.8875,1101.42544279443 L2138.13541666667,1101.42544279443 L2138.13541666667,1160.08466608806 L2145.38333333333,1160.08466608806 L2145.38333333333,1245.01598890637 L2152.63125,1245.01598890637 L2152.63125,1330.20376167956 L2159.87916666667,1330.20376167956 L2159.87916666667,1383.29898618691 L2167.12708333333,1383.29898618691 L2167.12708333333,1496.2094529364 L2174,1496 M2609.25,1520.33911465395 L2616.49791666667,1513 L2616.49791666667,1385.30856546364 L2623.74583333333,1385.30856546364 L2623.74583333333,1449.78611251057 L2630.99375,1449.78611251057 L2630.99375,1202.62072123957 L2638.24166666667,1202.62072123957 L2638.24166666667,1082.93245047948 L2645.48958333333,1082.93245047948 L2645.48958333333,1133.02677771807 L2652.7375,1133.02677771807 L2652.7375,1107.29037501921 L2659.98541666667,1107.29037501921 L2659.98541666667,993.73982825963 L2667.23333333333,993.73982825963 L2667.23333333333,880.800605103992 L2674.48125,880.800605103992 L2674.48125,847.443972919364 L2681.72916666667,847.443972919364 L2681.72916666667,767.185946632177 L2688.97708333333,767.185946632177 L2688.97708333333,752.190604454728 L2696.225,752.190604454728 L2696.225,599.533964895236 L2703.47291666667,599.533964895236 L2703.47291666667,637.360368164398 L2710.72083333333,637.360368164398 L2710.72083333333,466.454561243263 L2717.96875,466.454561243263 L2717.96875,566.355061604793 L2725.21666666667,566.355061604793 L2725.21666666667,425.182911810202 L2732.46458333333,425.182911810202 L2732.46458333333,365.08102581005 L2739.7125,365.08102581005 L2739.7125,263.037864205005 L2746.96041666667,263.037864205005 L2746.96041666667,302.217577137064 L2754.20833333333,302.217577137064 L2754.20833333333,230.119335765792 L2761.45625,230.119335765792 L2761.45625,261.828672203648 L2768.70416666667,261.828672203648 L2768.70416666667,221.475368176138 L2775.95208333333,221.475368176138 L2775.95208333333,205.973664836295 L2783.2,205.973664836295 L2783.2,71.3536776432399 L2790.44791666667,71.3536776432399 L2790.44791666667,44.9509276468755 L2797.69583333333,44.9509276468755 L2797.69583333333,49.4311461568716 L2804.94375,49.4311461568716 L2804.94375,64.4555043644242 L2812.19166666667,64.4555043644242 L2812.19166666667,162.834673774536 L2819.43958333333,162.834673774536 L2819.43958333333,131.701938280109 L2826.6875,131.701938280109 L2826.6875,93.825346115528 L2833.93541666667,93.825346115528 L2833.93541666667,47.82689412873 L2841.18333333333,47.82689412873 L2841.18333333333,33.4129587266081 L2848.43125,33.4129587266081 L2848.43125,52.5217239271947 L2855.67916666667,52.5217239271947 L2855.67916666667,145.643091926947 L2862.92708333333,145.643091926947 L2862.92708333333,129.07267464184 L2870.175,129.07267464184 L2870.175,137.683635633711 L2877.42291666667,137.683635633711 L2877.42291666667,203.312467754542 L2884.67083333333,203.312467754542 L2884.67083333333,170.072160348805 L2891.91875,170.072160348805 L2891.91875,347.442923269294 L2899.16666666667,347.442923269294 L2899.16666666667,307.382920311751 L2906.41458333333,307.382920311751 L2906.41458333333,363.808348848764 L2913.6625,363.808348848764 L2913.6625,384.242140875998 L2920.91041666667,384.242140875998 L2920.91041666667,329.398001213733 L2928.15833333333,329.398001213733 L2928.15833333333,424.059217897919 L2935.40625,424.059217897919 L2935.40625,530.18007577166 L2942.65416666667,530.18007577166 L2942.65416666667,541.929869167661 L2949.90208333333,541.929869167661 L2949.90208333333,606.443853228324 L2957.15,606.443853228324 L2957.15,728.266275982849 L2964.39791666667,728.266275982849 L2964.39791666667,719.108662536182 L2971.64583333333,719.108662536182 L2971.64583333333,814.1131882048 L2978.89375,814.1131882048 L2978.89375,833.232724258956 L2986.14166666667,833.232724258956 L2986.14166666667,924.572265660333 L2993.38958333333,924.572265660333 L2993.38958333333,1010.4476883983 L3000.6375,1010.4476883983 L3000.6375,1091.17864486075 L3007.88541666667,1091.17864486075 L3007.88541666667,1153.64369485747 L3015.13333333333,1153.64369485747 L3015.13333333333,1252.62236033793 L3022.38125,1252.62236033793 L3022.38125,1351.96606957096 L3029.62916666667,1351.96606957096 L3029.62916666667,1374.91619718823 L3036.87708333333,1374.91619718823 L3036.87708333333,1545.38539327891 L3044,1545 M3479,1518.15146950819 L3479,1511 L3479,1518.15146950819" PBD:DatasetName="AF2_DS" PBD:DatasetColumn="\\JLEFEBVRENEW\DataStatistics\DataStatistic|+3 sigma">
				</path>
				<path id="Trend1_Plot2" style="font-family:Arial;font-size:33;stroke:#FFFF00;fill:none;stroke-width:2;" d="M0,1827.65562972563 L7.24791666666667,1827.65562972563 L7.24791666666667,1818.71256211614 L14.4958333333333,1818.71256211614 L14.4958333333333,1711.60457387116 L21.74375,1711.60457387116 L21.74375,1612.59001965015 L28.9916666666667,1612.59001965015 L28.9916666666667,1590.8733849471 L36.2395833333333,1590.8733849471 L36.2395833333333,1357.95024412554 L43.4875,1357.95024412554 L43.4875,1375.28082173185 L50.7354166666667,1375.28082173185 L50.7354166666667,1300.20346423943 L57.9833333333333,1300.20346423943 L57.9833333333333,1300.87278297902 L65.23125,1300.87278297902 L65.23125,1114.40449847954 L72.4791666666667,1114.40449847954 L72.4791666666667,1121.90971636602 L79.7270833333333,1121.90971636602 L79.7270833333333,992.613563976364 L86.975,992.613563976364 L86.975,1107.61802175996 L94.2229166666667,1107.61802175996 L94.2229166666667,963.229391069992 L101.470833333333,963.229391069992 L101.470833333333,1018.25832022153 L108.71875,1018.25832022153 L108.71875,859.845143478394 L115.966666666667,859.845143478394 L115.966666666667,846.080586420885 L123.214583333333,846.080586420885 L123.214583333333,738.460269201501 L130.4625,738.460269201501 L130.4625,742.780757535918 L137.710416666667,742.780757535918 L137.710416666667,684.055596020563 L144.958333333333,684.055596020563 L144.958333333333,615.110351944207 L152.20625,615.110351944207 L152.20625,665.679709236509 L159.454166666667,665.679709236509 L159.454166666667,609.009791865522 L166.702083333333,609.009791865522 L166.702083333333,492.669771631938 L173.95,492.669771631938 L173.95,515.020085628695 L181.197916666667,515.020085628695 L181.197916666667,619.158850030066 L188.445833333333,619.158850030066 L188.445833333333,410.381428511586 L195.69375,410.381428511586 L195.69375,543.506550101488 L202.941666666667,543.506550101488 L202.941666666667,516.564180500565 L210.189583333333,516.564180500565 L210.189583333333,462.821994865596 L217.4375,462.821994865596 L217.4375,454.790742493577 L224.685416666667,454.790742493577 L224.685416666667,485.495517885475 L231.933333333333,485.495517885475 L231.933333333333,617.014233303844 L239.18125,617.014233303844 L239.18125,507.550321420216 L246.429166666667,507.550321420216 L246.429166666667,448.003931919459 L253.677083333333,448.003931919459 L253.677083333333,546.690270243475 L260.925,546.690270243475 L260.925,554.75399044089 L268.172916666667,554.75399044089 L268.172916666667,683.991277219448 L275.420833333333,683.991277219448 L275.420833333333,629.327385138294 L282.66875,629.327385138294 L282.66875,628.986188091891 L289.916666666667,628.986188091891 L289.916666666667,623.358877080147 L297.164583333333,623.358877080147 L297.164583333333,717.518757072835 L304.4125,717.518757072835 L304.4125,723.275628474979 L311.660416666667,723.275628474979 L311.660416666667,963.616589923154 L318.908333333333,963.616589923154 L318.908333333333,910.021701153936 L326.15625,910.021701153936 L326.15625,929.707380017463 L333.404166666667,929.707380017463 L333.404166666667,900.138536887645 L340.652083333333,900.138536887645 L340.652083333333,978.4479318551 L347.9,978.4479318551 L347.9,1086.62342983667 L355.147916666667,1086.62342983667 L355.147916666667,1245.70000946523 L362.395833333333,1245.70000946523 L362.395833333333,1198.19690642347 L369.64375,1198.19690642347 L369.64375,1272.86288975548 L376.891666666667,1272.86288975548 L376.891666666667,1423.95155623519 L384.139583333333,1423.95155623519 L384.139583333333,1405.98098099994 L391.3875,1405.98098099994 L391.3875,1491.88215621239 L398.635416666667,1491.88215621239 L398.635416666667,1601.42376993659 L405.883333333333,1601.42376993659 L405.883333333333,1643.28330070564 L413.13125,1643.28330070564 L413.13125,1693.99348830363 L420.379166666667,1693.99348830363 L420.379166666667,1664.48320555266 L427.627083333333,1664.48320555266 L427.627083333333,1777.05044976715 L435,1777 M869.75,1822.79822518518 L876.997916666667,1816 L876.997916666667,1821.10150003598 L884.245833333333,1821.10150003598 L884.245833333333,1695.83435735304 L891.49375,1695.83435735304 L891.49375,1616.48124143096 L898.741666666667,1616.48124143096 L898.741666666667,1645.42598345416 L905.989583333333,1645.42598345416 L905.989583333333,1362.30778919568 L913.2375,1362.30778919568 L913.2375,1372.72164159462 L920.485416666667,1372.72164159462 L920.485416666667,1330.32056532595 L927.733333333333,1330.32056532595 L927.733333333333,1271.50643503631 L934.98125,1271.50643503631 L934.98125,1149.63705727184 L942.229166666667,1149.63705727184 L942.229166666667,1119.61084460165 L949.477083333333,1119.61084460165 L949.477083333333,985.351800075917 L956.725,985.351800075917 L956.725,1091.61859185606 L963.972916666667,1091.61859185606 L963.972916666667,953.332753564353 L971.220833333333,953.332753564353 L971.220833333333,976.870110209233 L978.46875,976.870110209233 L978.46875,855.845196764869 L985.716666666667,855.845196764869 L985.716666666667,845.838129536728 L992.964583333333,845.838129536728 L992.964583333333,730.922858049758 L1000.2125,730.922858049758 L1000.2125,742.116572405878 L1007.46041666667,742.116572405878 L1007.46041666667,662.881414696982 L1014.70833333333,662.881414696982 L1014.70833333333,607.238893364981 L1021.95625,607.238893364981 L1021.95625,628.465504699195 L1029.20416666667,628.465504699195 L1029.20416666667,586.551156156576 L1036.45208333333,586.551156156576 L1036.45208333333,507.454333159906 L1043.7,507.454333159906 L1043.7,471.866056674583 L1050.94791666667,471.866056674583 L1050.94791666667,607.455241564775 L1058.19583333333,607.455241564775 L1058.19583333333,438.731955269832 L1065.44375,438.731955269832 L1065.44375,510.68464178467 L1072.69166666667,510.68464178467 L1072.69166666667,492.807626162809 L1079.93958333333,492.807626162809 L1079.93958333333,469.031674691725 L1087.1875,469.031674691725 L1087.1875,445.612094886125 L1094.43541666667,445.612094886125 L1094.43541666667,377.476783992074 L1101.68333333333,377.476783992074 L1101.68333333333,616.607290385102 L1108.93125,616.607290385102 L1108.93125,503.742815846751 L1116.17916666667,503.742815846751 L1116.17916666667,464.563165574949 L1123.42708333333,464.563165574949 L1123.42708333333,539.844956333899 L1130.675,539.844956333899 L1130.675,563.458538787332 L1137.92291666667,563.458538787332 L1137.92291666667,662.049944820541 L1145.17083333333,662.049944820541 L1145.17083333333,620.434184965875 L1152.41875,620.434184965875 L1152.41875,632.394778328729 L1159.66666666667,632.394778328729 L1159.66666666667,608.7987396105 L1166.91458333333,608.7987396105 L1166.91458333333,722.2749417832 L1174.1625,722.2749417832 L1174.1625,736.958504558472 L1181.41041666667,736.958504558472 L1181.41041666667,964.569001748697 L1188.65833333333,964.569001748697 L1188.65833333333,911.530466989833 L1195.90625,911.530466989833 L1195.90625,925.295908590056 L1203.15416666667,925.295908590056 L1203.15416666667,917.872961244918 L1210.40208333333,917.872961244918 L1210.40208333333,992.247221053718 L1217.65,992.247221053718 L1217.65,1073.52341507635 L1224.89791666667,1073.52341507635 L1224.89791666667,1278.07330926813 L1232.14583333333,1278.07330926813 L1232.14583333333,1209.24365782626 L1239.39375,1209.24365782626 L1239.39375,1307.34155649941 L1246.64166666667,1307.34155649941 L1246.64166666667,1410.78760519885 L1253.88958333333,1410.78760519885 L1253.88958333333,1401.75287992687 L1261.1375,1401.75287992687 L1261.1375,1490.83683202136 L1268.38541666667,1490.83683202136 L1268.38541666667,1620.71288299984 L1275.63333333333,1620.71288299984 L1275.63333333333,1649.52368583984 L1282.88125,1649.52368583984 L1282.88125,1682.94222783895 L1290.12916666667,1682.94222783895 L1290.12916666667,1681.80410334602 L1297.37708333333,1681.80410334602 L1297.37708333333,1778.17046495164 L1305,1778 M1739.5,1823.77135745344 L1746.74791666667,1817 L1746.74791666667,1825.87906250791 L1753.99583333333,1825.87906250791 L1753.99583333333,1662.56168895574 L1761.24375,1662.56168895574 L1761.24375,1614.13716972637 L1768.49166666667,1614.13716972637 L1768.49166666667,1576.97559811521 L1775.73958333333,1576.97559811521 L1775.73958333333,1354.23664652285 L1782.9875,1354.23664652285 L1782.9875,1377.72246279527 L1790.23541666667,1377.72246279527 L1790.23541666667,1327.26073283653 L1797.48333333333,1327.26073283653 L1797.48333333333,1267.34579841111 L1804.73125,1267.34579841111 L1804.73125,1169.48507704347 L1811.97916666667,1169.48507704347 L1811.97916666667,1126.11784239649 L1819.22708333333,1126.11784239649 L1819.22708333333,996.048981590053 L1826.475,996.048981590053 L1826.475,1090.47551814446 L1833.72291666667,1090.47551814446 L1833.72291666667,931.903578075728 L1840.97083333333,931.903578075728 L1840.97083333333,976.943361408426 L1848.21875,976.943361408426 L1848.21875,853.044540501752 L1855.46666666667,853.044540501752 L1855.46666666667,677.428696552428 L1862.71458333333,677.428696552428 L1862.71458333333,749.660116427439 L1869.9625,749.660116427439 L1869.9625,741.424063658067 L1877.21041666667,741.424063658067 L1877.21041666667,696.683622480654 L1884.45833333333,696.683622480654 L1884.45833333333,608.285253919485 L1891.70625,608.285253919485 L1891.70625,635.34300230907 L1898.95416666667,635.34300230907 L1898.95416666667,579.479192217213 L1906.20208333333,579.479192217213 L1906.20208333333,510.944418577619 L1913.45,510.944418577619 L1913.45,499.184072899168 L1920.69791666667,499.184072899168 L1920.69791666667,617.602111593057 L1927.94583333333,617.602111593057 L1927.94583333333,514.120291804763 L1935.19375,514.120291804763 L1935.19375,551.089927181878 L1942.44166666667,551.089927181878 L1942.44166666667,478.135655759985 L1949.68958333333,478.135655759985 L1949.68958333333,466.642973345317 L1956.9375,466.642973345317 L1956.9375,443.017342956382 L1964.18541666667,443.017342956382 L1964.18541666667,448.506537355618 L1971.43333333333,448.506537355618 L1971.43333333333,548.43041920122 L1978.68125,548.43041920122 L1978.68125,496.470630486209 L1985.92916666667,496.470630486209 L1985.92916666667,509.481258859444 L1993.17708333333,509.481258859444 L1993.17708333333,528.721609515805 L2000.425,528.721609515805 L2000.425,556.036332185921 L2007.67291666667,556.036332185921 L2007.67291666667,666.275101119786 L2014.92083333333,666.275101119786 L2014.92083333333,595.748949239377 L2022.16875,595.748949239377 L2022.16875,615.661875958172 L2029.41666666667,615.661875958172 L2029.41666666667,609.767299841648 L2036.66458333333,609.767299841648 L2036.66458333333,745.808382198386 L2043.9125,745.808382198386 L2043.9125,732.668261628702 L2051.16041666667,732.668261628702 L2051.16041666667,957.792946796462 L2058.40833333333,957.792946796462 L2058.40833333333,907.536267304896 L2065.65625,907.536267304896 L2065.65625,925.489870798443 L2072.90416666667,925.489870798443 L2072.90416666667,918.399934614989 L2080.15208333333,918.399934614989 L2080.15208333333,998.393803318452 L2087.4,998.393803318452 L2087.4,1071.54842307569 L2094.64791666667,1071.54842307569 L2094.64791666667,1275.99852245327 L2101.89583333333,1275.99852245327 L2101.89583333333,1208.44840914786 L2109.14375,1208.44840914786 L2109.14375,1305.99529041812 L2116.39166666667,1305.99529041812 L2116.39166666667,1418.27827406298 L2123.63958333333,1418.27827406298 L2123.63958333333,1417.07805964335 L2130.8875,1417.07805964335 L2130.8875,1536.53778366338 L2138.13541666667,1536.53778366338 L2138.13541666667,1615.52368410432 L2145.38333333333,1615.52368410432 L2145.38333333333,1649.50223193964 L2152.63125,1649.50223193964 L2152.63125,1703.14952202512 L2159.87916666667,1703.14952202512 L2159.87916666667,1682.92707830625 L2167.12708333333,1682.92707830625 L2167.12708333333,1775.53457871686 L2174,1776 M2609.25,1822.36531912785 L2616.49791666667,1815 L2616.49791666667,1825.1468328935 L2623.74583333333,1825.1468328935 L2623.74583333333,1589.71274021253 L2630.99375,1589.71274021253 L2630.99375,1623.18605571925 L2638.24166666667,1623.18605571925 L2638.24166666667,1610.30448982016 L2645.48958333333,1610.30448982016 L2645.48958333333,1345.87467580382 L2652.7375,1345.87467580382 L2652.7375,1376.68032311149 L2659.98541666667,1376.68032311149 L2659.98541666667,1334.09141129528 L2667.23333333333,1334.09141129528 L2667.23333333333,1283.26312808626 L2674.48125,1283.26312808626 L2674.48125,1192.89635933619 L2681.72916666667,1192.89635933619 L2681.72916666667,1134.2395274967 L2688.97708333333,1134.2395274967 L2688.97708333333,1054.39879336473 L2696.225,1054.39879336473 L2696.225,1071.26060567618 L2703.47291666667,1071.26060567618 L2703.47291666667,934.809411779105 L2710.72083333333,934.809411779105 L2710.72083333333,951.697912383991 L2717.96875,951.697912383991 L2717.96875,863.387169688522 L2725.21666666667,863.387169688522 L2725.21666666667,749.91318926588 L2732.46458333333,749.91318926588 L2732.46458333333,763.940970559749 L2739.7125,763.940970559749 L2739.7125,755.174324422338 L2746.96041666667,755.174324422338 L2746.96041666667,724.870615283045 L2754.20833333333,724.870615283045 L2754.20833333333,624.319858633763 L2761.45625,624.319858633763 L2761.45625,635.879018232631 L2768.70416666667,635.879018232631 L2768.70416666667,579.555665329287 L2775.95208333333,579.555665329287 L2775.95208333333,512.504341205011 L2783.2,512.504341205011 L2783.2,546.647225999643 L2790.44791666667,546.647225999643 L2790.44791666667,609.448304061016 L2797.69583333333,609.448304061016 L2797.69583333333,507.424157332319 L2804.94375,507.424157332319 L2804.94375,552.170975591671 L2812.19166666667,552.170975591671 L2812.19166666667,481.001521969938 L2819.43958333333,481.001521969938 L2819.43958333333,453.890181885593 L2826.6875,453.890181885593 L2826.6875,451.263245115569 L2833.93541666667,451.263245115569 L2833.93541666667,462.510562371769 L2841.18333333333,462.510562371769 L2841.18333333333,514.720832128325 L2848.43125,514.720832128325 L2848.43125,506.67173935217 L2855.67916666667,506.67173935217 L2855.67916666667,520.003108555009 L2862.92708333333,520.003108555009 L2862.92708333333,528.424231923575 L2870.175,528.424231923575 L2870.175,584.166141360736 L2877.42291666667,584.166141360736 L2877.42291666667,655.072638004926 L2884.67083333333,655.072638004926 L2884.67083333333,588.190961075423 L2891.91875,588.190961075423 L2891.91875,639.508041161012 L2899.16666666667,639.508041161012 L2899.16666666667,617.098523699675 L2906.41458333333,617.098523699675 L2906.41458333333,722.741359956442 L2913.6625,722.741359956442 L2913.6625,734.882779895288 L2920.91041666667,734.882779895288 L2920.91041666667,955.230812756266 L2928.15833333333,955.230812756266 L2928.15833333333,907.632110132621 L2935.40625,907.632110132621 L2935.40625,895.426094852579 L2942.65416666667,895.426094852579 L2942.65416666667,926.514737688981 L2949.90208333333,926.514737688981 L2949.90208333333,1045.78468189535 L2957.15,1045.78468189535 L2957.15,1074.46343919602 L2964.39791666667,1074.46343919602 L2964.39791666667,1277.04205214105 L2971.64583333333,1277.04205214105 L2971.64583333333,1225.1778343459 L2978.89375,1225.1778343459 L2978.89375,1295.65884661849 L2986.14166666667,1295.65884661849 L2986.14166666667,1421.69687393016 L2993.38958333333,1421.69687393016 L2993.38958333333,1400.48963333926 L3000.6375,1400.48963333926 L3000.6375,1540.1334512378 L3007.88541666667,1540.1334512378 L3007.88541666667,1614.73389878261 L3015.13333333333,1614.73389878261 L3015.13333333333,1656.22803240276 L3022.38125,1656.22803240276 L3022.38125,1702.08174413998 L3029.62916666667,1702.08174413998 L3029.62916666667,1695.15208170064 L3036.87708333333,1695.15208170064 L3036.87708333333,1748.43436593489 L3044,1748 M3479,1828.63435377486 L3479,1822 L3479,1828.63435377486" PBD:DatasetName="AF2_DS" PBD:DatasetColumn="\\JLEFEBVRENEW\DataStatistics\DataStatistic|-3 sigma">
				</path>
			</svg>
			<svg id="Trend1_MarkerGroup" height="1862" width="3479" style="" x="6" y="41">
				<circle id="Trend1_1" cx="435.375" cy="1493.16523214767" r="8" style="stroke-width:2;stroke:#00FFFF;fill:none;">
				</circle>
				<polyline id="Trend1_1" style="stroke-width:2;stroke:#00FFFF;fill:none;stroke-width:4;" points="863,1506 877,1520 870,1513 863,1520 877,1506">
				</polyline>
				<circle id="Trend1_1" cx="1305.125" cy="1497.46234060704" r="8" style="stroke-width:2;stroke:#00FFFF;fill:none;">
				</circle>
				<polyline id="Trend1_1" style="stroke-width:2;stroke:#00FFFF;fill:none;stroke-width:4;" points="1732,1510 1746,1524 1739,1517 1732,1524 1746,1510">
				</polyline>
				<circle id="Trend1_1" cx="2174.875" cy="1496.7094529364" r="8" style="stroke-width:2;stroke:#00FFFF;fill:none;">
				</circle>
				<polyline id="Trend1_1" style="stroke-width:2;stroke:#00FFFF;fill:none;stroke-width:4;" points="2602,1513 2616,1527 2609,1520 2602,1527 2616,1513">
				</polyline>
				<circle id="Trend1_1" cx="3044.625" cy="1545.88539327891" r="8" style="stroke-width:2;stroke:#00FFFF;fill:none;">
				</circle>
				<polyline id="Trend1_1" style="stroke-width:2;stroke:#00FFFF;fill:none;stroke-width:4;" points="3472,1511 3486,1525 3479,1518 3472,1525 3486,1511">
				</polyline>
				<polygon id="Trend1_2" points="429.375,1771.55044976715 441.375,1771.55044976715 441.375,1783.55044976715 429.375,1783.55044976715 429.375,1771.55044976715" style="stroke-width:2;stroke:#FFFF00;fill:#FFFF00;" transform="rotate(45,435.375,1777.55044976715) ">
				</polygon>
				<polyline id="Trend1_2" style="stroke-width:2;stroke:#FFFF00;fill:none;stroke-width:4;" points="863,1816 877,1830 870,1823 863,1830 877,1816">
				</polyline>
				<polygon id="Trend1_2" points="1299.125,1772.67046495164 1311.125,1772.67046495164 1311.125,1784.67046495164 1299.125,1784.67046495164 1299.125,1772.67046495164" style="stroke-width:2;stroke:#FFFF00;fill:#FFFF00;" transform="rotate(45,1305.125,1778.67046495164) ">
				</polygon>
				<polyline id="Trend1_2" style="stroke-width:2;stroke:#FFFF00;fill:none;stroke-width:4;" points="1732,1817 1746,1831 1739,1824 1732,1831 1746,1817">
				</polyline>
				<polygon id="Trend1_2" points="2168.875,1770.03457871686 2180.875,1770.03457871686 2180.875,1782.03457871686 2168.875,1782.03457871686 2168.875,1770.03457871686" style="stroke-width:2;stroke:#FFFF00;fill:#FFFF00;" transform="rotate(45,2174.875,1776.03457871686) ">
				</polygon>
				<polyline id="Trend1_2" style="stroke-width:2;stroke:#FFFF00;fill:none;stroke-width:4;" points="2602,1815 2616,1829 2609,1822 2602,1829 2616,1815">
				</polyline>
				<polygon id="Trend1_2" points="3038.625,1742.93436593489 3050.625,1742.93436593489 3050.625,1754.93436593489 3038.625,1754.93436593489 3038.625,1742.93436593489" style="stroke-width:2;stroke:#FFFF00;fill:#FFFF00;" transform="rotate(45,3044.625,1748.93436593489) ">
				</polygon>
				<polyline id="Trend1_2" style="stroke-width:2;stroke:#FFFF00;fill:none;stroke-width:4;" points="3472,1822 3486,1836 3479,1829 3472,1836 3486,1822">
				</polyline>
				<circle id="Trend1_1" cx="863.002083333333" cy="1659.30036861799" r="8" style="stroke-width:2;stroke:#00FF00;fill:#00FF00;">
				</circle>
				<circle id="Trend1_1" cx="1740" cy="1632.12088831812" r="8" style="stroke-width:2;stroke:#00FF00;fill:#00FF00;">
				</circle>
				<circle id="Trend1_1" cx="2616.99791666667" cy="1557.34172152392" r="8" style="stroke-width:2;stroke:#00FF00;fill:#00FF00;">
				</circle>
				<circle id="Trend1_2" cx="870.25" cy="1513.57259654064" r="8" style="stroke-width:2;stroke:#00FFFF;fill:none;">
				</circle>
				<circle id="Trend1_2" cx="1740" cy="1517.90350993135" r="8" style="stroke-width:2;stroke:#00FFFF;fill:none;">
				</circle>
				<circle id="Trend1_2" cx="2609.75" cy="1520.83911465395" r="8" style="stroke-width:2;stroke:#00FFFF;fill:none;">
				</circle>
				<polygon id="Trend1_3" points="864.25,1817.29822518518 876.25,1817.29822518518 876.25,1829.29822518518 864.25,1829.29822518518 864.25,1817.29822518518" style="stroke-width:2;stroke:#FFFF00;fill:#FFFF00;" transform="rotate(45,870.25,1823.29822518518) ">
				</polygon>
				<polygon id="Trend1_3" points="1734,1818.27135745344 1746,1818.27135745344 1746,1830.27135745344 1734,1830.27135745344 1734,1818.27135745344" style="stroke-width:2;stroke:#FFFF00;fill:#FFFF00;" transform="rotate(45,1740,1824.27135745344) ">
				</polygon>
				<polygon id="Trend1_3" points="2603.75,1816.86531912785 2615.75,1816.86531912785 2615.75,1828.86531912785 2603.75,1828.86531912785 2603.75,1816.86531912785" style="stroke-width:2;stroke:#FFFF00;fill:#FFFF00;" transform="rotate(45,2609.75,1822.86531912785) ">
				</polygon>
			</svg>
			<g id="Trend1_YScaleTextGroup" style="font-family:Arial;font-size:33;stroke:#FFFFFF;fill:#FFFFFF;" transform="translate(8,41)">
				<text id="Max_0" x="2" y="33">1.20594</text>
				<text id="Min_0" x="2" y="1856">-0.15499</text>
				<text x="0" y="1655.1984198137">0</text>
				<text x="0" y="1381.56095118332">0.2</text>
				<text x="0" y="1107.92348255295">0.4</text>
				<text x="0" y="834.286013922569">0.6</text>
				<text x="0" y="560.648545292192">0.8</text>
				<text x="0" y="287.011076661815">1</text>
			</g>
		</svg>
	</g>
	<g id="Value1" fill="#FFFFFF" stroke="none" font-family="Arial" font-size="53.3333312140572" PB:DisplayPointName="9" PB:DisplayTimeStamp="3" PB:HorzAlign="0" PB:ShowUOM="False" PB:IsMultiState="False" PB:NumberFormat="General" PB:CanonicalNumberFormat="General" PB:TagInfoType="1" PBD:DatasetName="AF2_DS" PBD:DatasetColumn="\\JLEFEBVRENEW\DataStatistics\DataStatistic|-3 sigma" PB:PtTagStatus="0" PB:PtTagTime="2016/04/24 10:49:31" PB:PtTagValue="No Data" PB:Type="7" PB:Visible="True" PB:Scripting="True">
		<rect id="Value1_pbTextBoundingRectEl" x="3691" y="298" width="860" height="56" fill="#C0C0C0" stroke-width="0">
		</rect>
		<text id="Value1_pbTextEl" x="4121" y="340" fill="#FFFFFF" stroke="none" font-family="Arial" font-size="53.3333312140572" text-anchor="middle" PBD:Property="timestamp">2016/04/24 10:49:31 <tspan PBD:Property="value">No Data</tspan>
		</text>
	</g>
	<g id="Trend2" PB:Type="10">
		<PB:TrendLogical id="Trend2_Logical" PB:ValueScalePosition="1" PB:BackgroundColor="8421504" PB:CurrentTrace="3" PB:DisplayScaleInside="True" PB:EnableScript="True" PB:Enabled="True" PB:EndTime="*+1m" PB:FillColor="16711680" PB:FontBold="False" PB:FontItalic="False" PB:FontName="Arial" PB:FontSize="10" PB:FontStrikethrough="False" PB:FontUnderline="False" PB:Height="1954" PB:IsMultiState="False" PB:Left="-14917" PB:LineColor="16777215" PB:MultipleScales="False" PB:Name="Trend2" PB:PlotTimeStyle="0" PB:Rotation="0" PB:ShowDescription="False" PB:ShowEngUnits="True" PB:ShowGrids="True" PB:ShowTagName="True" PB:ShowServerName="False" PB:ShowTitle="True" PB:ShowTraceMarkers="True" PB:ShowValue="True" PB:StartTime="*-2m" PB:Top="12481" PB:TraceCount="3" PB:TrendTitle="Plot-0" PB:Visible="True" PB:Width="4369">
			<PB:TraceElem id="PB:TraceElem_1" PB:ShowLinearRegression="False" PB:ScaleLogarithmic="False" PB:ScaleMax="Autorange" PB:ScaleMin="Autorange" PB:Trace="AF2.\\JLEFEBVRENEW\DataStatistics\DataStatistic|Sensor" PB:ScaleFormat="General" PB:DisplayDigits="-5" PB:CanonicalNumberFormat="General" PB:TagInfoType="1">
			</PB:TraceElem>
			<PB:TraceElem id="PB:TraceElem_2" PB:ShowLinearRegression="False" PB:ScaleLogarithmic="False" PB:ScaleMax="Autorange" PB:ScaleMin="Autorange" PB:Trace="AF2.\\JLEFEBVRENEW\DataStatistics\DataStatistic|-3 sigma" PB:ScaleFormat="General" PB:DisplayDigits="-5" PB:CanonicalNumberFormat="General" PB:TagInfoType="1">
			</PB:TraceElem>
			<PB:TraceElem id="PB:TraceElem_3" PB:ShowLinearRegression="False" PB:ScaleLogarithmic="False" PB:ScaleMax="Autorange" PB:ScaleMin="Autorange" PB:Trace="AF2.\\JLEFEBVRENEW\DataStatistics\DataStatistic|+3 sigma" PB:ScaleFormat="General" PB:DisplayDigits="-5" PB:CanonicalNumberFormat="General" PB:TagInfoType="1">
			</PB:TraceElem>
			<PB:Format id="PB:Format_1" PB:Name="Horz. Axis" PB:LineColor="0" PB:LineStyle="0" PB:LineWidth="1" PB:MarkerStyle="-1">
			</PB:Format>
			<PB:Format id="PB:Format_2" PB:Name="Background" PB:LineColor="8421504" PB:LineStyle="-1" PB:LineWidth="1" PB:MarkerStyle="-1">
			</PB:Format>
			<PB:Format id="PB:Format_3" PB:Name="Horz. Major Grid" PB:LineColor="0" PB:LineStyle="0" PB:LineWidth="1" PB:MarkerStyle="-1">
			</PB:Format>
			<PB:Format id="PB:Format_4" PB:Name="Horz. Minor Grid" PB:LineColor="0" PB:LineStyle="0" PB:LineWidth="1" PB:MarkerStyle="-1">
			</PB:Format>
			<PB:Format id="PB:Format_5" PB:Name="Pen 1" PB:LineColor="65280" PB:LineStyle="0" PB:LineWidth="1" PB:MarkerStyle="0">
			</PB:Format>
			<PB:Format id="PB:Format_6" PB:Name="Pen 2" PB:LineColor="16776960" PB:LineStyle="0" PB:LineWidth="1" PB:MarkerStyle="1">
			</PB:Format>
			<PB:Format id="PB:Format_7" PB:Name="Pen 3" PB:LineColor="65535" PB:LineStyle="0" PB:LineWidth="1" PB:MarkerStyle="2">
			</PB:Format>
			<PB:Format id="PB:Format_8" PB:Name="Pen 4" PB:LineColor="16711935" PB:LineStyle="0" PB:LineWidth="1" PB:MarkerStyle="3">
			</PB:Format>
			<PB:Format id="PB:Format_9" PB:Name="Pen 5" PB:LineColor="255" PB:LineStyle="0" PB:LineWidth="1" PB:MarkerStyle="4">
			</PB:Format>
			<PB:Format id="PB:Format_10" PB:Name="Pen 6" PB:LineColor="16777215" PB:LineStyle="0" PB:LineWidth="1" PB:MarkerStyle="5">
			</PB:Format>
			<PB:Format id="PB:Format_11" PB:Name="Pen 7" PB:LineColor="16711680" PB:LineStyle="0" PB:LineWidth="1" PB:MarkerStyle="6">
			</PB:Format>
			<PB:Format id="PB:Format_12" PB:Name="Pen 8" PB:LineColor="0" PB:LineStyle="0" PB:LineWidth="1" PB:MarkerStyle="7">
			</PB:Format>
			<PB:Format id="PB:Format_13" PB:Name="Pen 9" PB:LineColor="8388608" PB:LineStyle="0" PB:LineWidth="1" PB:MarkerStyle="8">
			</PB:Format>
			<PB:Format id="PB:Format_14" PB:Name="Pen 10" PB:LineColor="32768" PB:LineStyle="0" PB:LineWidth="1" PB:MarkerStyle="9">
			</PB:Format>
			<PB:Format id="PB:Format_15" PB:Name="Pen 11" PB:LineColor="8388736" PB:LineStyle="0" PB:LineWidth="1" PB:MarkerStyle="10">
			</PB:Format>
			<PB:Format id="PB:Format_16" PB:Name="Pen 12" PB:LineColor="8433626" PB:LineStyle="0" PB:LineWidth="1" PB:MarkerStyle="11">
			</PB:Format>
			<PB:Format id="PB:Format_17" PB:Name="Text" PB:LineColor="16777215" PB:LineStyle="-1" PB:LineWidth="1" PB:MarkerStyle="-1">
			</PB:Format>
			<PB:Format id="PB:Format_18" PB:Name="Vert. Axis" PB:LineColor="0" PB:LineStyle="0" PB:LineWidth="1" PB:MarkerStyle="-1">
			</PB:Format>
			<PB:Format id="PB:Format_19" PB:Name="Vert. Major Grid" PB:LineColor="0" PB:LineStyle="0" PB:LineWidth="1" PB:MarkerStyle="-1">
			</PB:Format>
			<PB:Format id="PB:Format_20" PB:Name="Vert. Minor Grid" PB:LineColor="0" PB:LineStyle="0" PB:LineWidth="1" PB:MarkerStyle="-1">
			</PB:Format>
		</PB:TrendLogical>
		<svg id="Trend2_Graphical" height="1954" width="4369" x="83" y="2519">
			<PB:RefreshData id="Trend2_RefreshData" PB:bEngUnits="True" PB:bLogarithmic="False" PB:bMarkers="True" PB:bTagname="True" PB:bValue="True" PB:fXUnits="19.383333333333333333333333333" PB:iGrdBegX="6" PB:iGrdBegY="41" PB:iGrdHght="1862" PB:iGrdWdth="3489" PB:iMinPerCol="30" PB:iNumTrcs="3" PB:iNumXCols="0" PB:bGrids="True" PB:Updateable="True" PB:iSnglLnHght="33" PB:iScaleWidth="0" PB:bOmitScaleText="False" PB:bOmitTimeText="False">
			</PB:RefreshData>
			<rect id="Trend2_Background" x="0" y="0" width="4369" height="1954" fill="#808080">
			</rect>
			<g id="Trend2_PlotTitleGroup" style="font-family:Arial;font-size:33;stroke:#FFFFFF;fill:#FFFFFF;">
				<text x="6" y="33" style="font-family:Arial;font-size:33;stroke:#FFFFFF;fill:#FFFFFF;">Plot-0</text>
			</g>
			<svg id="Trend2_AxesGroup" height="1862" width="3489" x="6" y="41">
				<rect id="Trend2_GridBackground" x="0" y="0" width="3489" height="1862" style="fill:#808080;stroke:none;">
				</rect>
				<polyline id="Trend2_VertAxis_1" style="stroke-width:3;fill:none;stroke:#000000;" points="0,0 0,1862">
				</polyline>
				<polyline id="Trend2_VertAxis_Last" style="stroke-width:3;fill:none;stroke:#000000;stroke-dasharray:10 10 10 10;" points="3489,0 3489,1862">
				</polyline>
				<polyline id="Trend2_HorizAxis" style="stroke-width:3;fill:none;stroke:#000000;" points="0,1862 3489,1862">
				</polyline>
			</svg>
			<svg id="Trend2_GridGroup" height="1862" width="3489" x="6" y="41">
				<path id="Trend2_HorizGridLine" style="stroke-width:2;stroke:#000000;" d="M504,0 L504,1862">
				</path>
				<path id="Trend2_HorizGridLine" style="stroke-width:2;stroke:#000000;" d="M1085,0 L1085,1862">
				</path>
				<path id="Trend2_HorizGridLine" style="stroke-width:2;stroke:#000000;" d="M1667,0 L1667,1862">
				</path>
				<path id="Trend2_HorizGridLine" style="stroke-width:2;stroke:#000000;" d="M2248,0 L2248,1862">
				</path>
				<path id="Trend2_HorizGridLine" style="stroke-width:2;stroke:#000000;" d="M2830,0 L2830,1862">
				</path>
				<path id="Trend2_HorizGridLine" style="stroke-width:2;stroke:#000000;" d="M3411,0 L3411,1862">
				</path>
				<path id="Trend2_VertGridLine" style="stroke-width:2;stroke:#000000" d="M0,1828.44 L3489,1828.44">
				</path>
				<path id="Trend2_VertGridLine" style="stroke-width:2;stroke:#000000" d="M0,1642.24 L3489,1642.24">
				</path>
				<path id="Trend2_VertGridLine" style="stroke-width:2;stroke:#000000" d="M0,1456.04 L3489,1456.04">
				</path>
				<path id="Trend2_VertGridLine" style="stroke-width:2;stroke:#000000" d="M0,1269.84 L3489,1269.84">
				</path>
				<path id="Trend2_VertGridLine" style="stroke-width:2;stroke:#000000" d="M0,1083.64 L3489,1083.64">
				</path>
				<path id="Trend2_VertGridLine" style="stroke-width:2;stroke:#000000" d="M0,897.44 L3489,897.44">
				</path>
				<path id="Trend2_VertGridLine" style="stroke-width:2;stroke:#000000" d="M0,711.24 L3489,711.24">
				</path>
				<path id="Trend2_VertGridLine" style="stroke-width:2;stroke:#000000" d="M0,525.04 L3489,525.04">
				</path>
				<path id="Trend2_VertGridLine" style="stroke-width:2;stroke:#000000" d="M0,338.84 L3489,338.84">
				</path>
				<path id="Trend2_VertGridLine" style="stroke-width:2;stroke:#000000" d="M0,152.64 L3489,152.64">
				</path>
				<path id="Trend2_VertGridLine" style="stroke-width:2;stroke:#000000" d="M0,0 L3489,0">
				</path>
			</svg>
			<g id="Trend2_XScaleTextGroup" style="font-family:Arial;font-size:33;stroke:#FFFFFF;fill:#FFFFFF;">
				<text id="Trend2_XScaleTextBegin" x="6" y="1938" style="font-family:Arial;font-size:33;stroke:#FFFFFF;fill:#FFFFFF;">2016/04/24 10:47:34</text>
				<text id="Trend2_XScaleTextSpan" x="1600" y="1938" style="font-family:Arial;font-size:33;stroke:#FFFFFF;fill:#FFFFFF;">180.00 seconds</text>
				<text id="Trend2_XScaleTextEnd" x="3110" y="1938" style="font-family:Arial;font-size:33;stroke:#FFFFFF;fill:#FFFFFF;">2016/04/24 10:50:34</text>
			</g>
			<g id="Trend2_TagNameGroup" transform="translate(3521,43)">
				<circle id="Trend2_0" cx="0.5" cy="17" r="8" style="stroke-width:2;stroke:#00FF00;fill:#00FF00;">
				</circle>
				<text id="Trend2_TagName0" x="19.1860465116279" y="33" style="font-family:Arial;font-size:33;stroke:#00FF00;fill:#00FF00;">DataGeneration.Sensor</text>
				<text id="Trend2_TagValue0" x="19.1860465116279" y="68" style="font-family:Arial;font-size:33;stroke:#00FF00;fill:#00FF00;">-0.03605</text>
				<text id="Trend2_EngUnits0" x="19.1860465116279" y="103" style="font-family:Arial;font-size:33;stroke:#00FF00;fill:#00FF00;">
				</text>
				<circle id="Trend2_1" cx="0.5" cy="122" r="8" style="stroke-width:2;stroke:#00FFFF;fill:none;">
				</circle>
				<text id="Trend2_TagName1" x="19.1860465116279" y="138" style="font-family:Arial;font-size:33;stroke:#00FFFF;fill:#00FFFF;">OSI_DataStatistic.-3 sigma</text>
				<text id="Trend2_TagValue1" x="19.1860465116279" y="173" style="font-family:Arial;font-size:33;stroke:#00FFFF;fill:#00FFFF;">No Data</text>
				<text id="Trend2_EngUnits1" x="19.1860465116279" y="208" style="font-family:Arial;font-size:33;stroke:#00FFFF;fill:#00FFFF;">
				</text>
				<polygon id="Trend2_2" points="-5.5,221 6.5,221 6.5,233 -5.5,233 -5.5,221" style="stroke-width:2;stroke:#FFFF00;fill:#FFFF00;" transform="rotate(45,0.5,227) ">
				</polygon>
				<text id="Trend2_TagName2" x="19.1860465116279" y="243" style="font-family:Arial;font-size:33;stroke:#FFFF00;fill:#FFFF00;">OSI_DataStatistic.+3 sigma</text>
				<text id="Trend2_TagValue2" x="19.1860465116279" y="278" style="font-family:Arial;font-size:33;stroke:#FFFF00;fill:#FFFF00;">No Data</text>
				<text id="Trend2_EngUnits2" x="19.1860465116279" y="313" style="font-family:Arial;font-size:33;stroke:#FFFF00;fill:#FFFF00;">
				</text>
			</g>
			<svg id="Trend2_TraceGroup" height="1862" width="3489" style="font-family:Arial;font-size:33;stroke:#FFFFFF;fill:#FFFFFF;" x="6" y="41">
				<path id="Trend2_Plot0" style="font-family:Arial;font-size:33;stroke:#00FF00;fill:none;stroke-width:2;" d="M-58.15,931 L2326,931 " PBD:DatasetName="AF2_DS" PBD:DatasetColumn="\\JLEFEBVRENEW\DataStatistics\DataStatistic|Sensor">
				</path>
				<path id="Trend2_Plot1" style="font-family:Arial;font-size:33;stroke:#00FFFF;fill:none;stroke-width:2;" d="" PBD:DatasetName="AF2_DS" PBD:DatasetColumn="\\JLEFEBVRENEW\DataStatistics\DataStatistic|-3 sigma">
				</path>
				<path id="Trend2_Plot2" style="font-family:Arial;font-size:33;stroke:#FFFF00;fill:none;stroke-width:2;" d="" PBD:DatasetName="AF2_DS" PBD:DatasetColumn="\\JLEFEBVRENEW\DataStatistics\DataStatistic|+3 sigma">
				</path>
			</svg>
			<svg id="Trend2_MarkerGroup" height="1862" width="3489" style="" x="6" y="41">
				<circle id="Trend2_0" cx="-57.65" cy="931.5" r="8" style="stroke-width:2;stroke:#00FF00;fill:#00FF00;">
				</circle>
			</svg>
			<g id="Trend2_YScaleTextGroup" style="font-family:Arial;font-size:33;stroke:#FFFFFF;fill:#FFFFFF;" transform="translate(8,41)">
				<text id="Max_0" x="2" y="33">0.96395</text>
				<text id="Min_0" x="2" y="1856">-1.03605</text>
				<text x="0" y="1647.48808117184">-0.8</text>
				<text x="0" y="1461.28808117184">-0.6</text>
				<text x="0" y="1275.08808117184">-0.4</text>
				<text x="0" y="1088.88808117184">-0.2</text>
				<text x="0" y="902.688081171835">0</text>
				<text x="0" y="716.488081171835">0.2</text>
				<text x="0" y="530.288081171835">0.4</text>
				<text x="0" y="344.088081171835">0.6</text>
				<text x="0" y="157.888081171835">0.8</text>
			</g>
		</svg>
	</g>
	<script language="JavaScript" type="text/javascript"> 
        
        function SVG_doc_loaded(evt)
	{
	    var parentDoc = evt.getTarget().getOwnerDocument();
	    var elem = parentDoc.createElement("Ready");
	    evt.getTarget().appendChild(elem);

        }</script>
</svg>
