<?xml version="1.0" encoding="UTF-8"?>
<svg height="100%" viewBox="0 0 5222 2021" width="100%" fill="#C0C0C0" image-rendering="optimizeSpeed" onload="SVG_doc_loaded(evt);" PB:pid="" xlink:xid="" xmlns:svg="OSI_SVG_20090601" xmlns:xlink="http://www.w3.org/1999/xlink" xmlns:PB="urn:osisoft-com-pb" xmlns:PBI="urn:osisoft-com-interface" xmlns:PBD="urn:osisoft-com-data" xmlns:xsi="http://www.w3.org/1999/XMLSchema/instance">
	<defs><PBD:DataSetUses tag="AF2_DS.\\JLEFEBVRENEW\DataStatistics\DataStatistic|+3 sigma" PB:Parent="AF2_DS" PB:BO="PWSPIDataSetsBO.CBODataSets">
			<PBI:Symbol name="Trend1_Plot3" PB:Type="10" PB:Parent="Trend1">
			</PBI:Symbol>
		</PBD:DataSetUses><PBD:DataSetUses tag="AF2_DS.\\JLEFEBVRENEW\DataStatistics\DataStatistic|-3 sigma" PB:Parent="AF2_DS" PB:BO="PWSPIDataSetsBO.CBODataSets">
			<PBI:Symbol name="Trend1_Plot2" PB:Type="10" PB:Parent="Trend1">
			</PBI:Symbol>
		</PBD:DataSetUses><PBD:DataSetUses tag="AF2_DS.\\JLEFEBVRENEW\DataStatistics\DataStatistic|Mean" PB:Parent="AF2_DS" PB:BO="PWSPIDataSetsBO.CBODataSets">
			<PBI:Symbol name="Trend1_Plot0" PB:Type="10" PB:Parent="Trend1">
			</PBI:Symbol>
		</PBD:DataSetUses><PBD:DataSetUses tag="AF2_DS.\\JLEFEBVRENEW\DataStatistics\DataStatistic|Sensor" PB:Parent="AF2_DS" PB:BO="PWSPIDataSetsBO.CBODataSets">
			<PBI:Symbol name="Trend1_Plot1" PB:Type="10" PB:Parent="Trend1">
			</PBI:Symbol>
		</PBD:DataSetUses>
	</defs>
	<rect x="0" y="0" width="5222" height="2021" PB:DocMajorVersionNum="3" PB:DocMinorVersionNum="26" PB:DocGroup="1" PB:wnHeight="670" PB:wnWidth="1616" PB:wnState="2" PB:Zoom="80" PB:LocalID="1041" PB:DisplayServerTimeZone="True" PB:Type="55" PB:NamedValues="AFDisplayBuilder.Upgraded,1">
	</rect>
	<PB:Dataset id="AF2_DS" PB:Type="57" PB:Context="2" PB:Description="" PB:RefreshInterval="10000" PB:Stepped="False" PB:DSType="3" PB:DSVisible="True">
		<PB:DSDatapoint id="\\JLEFEBVRENEW\DataStatistics\DataStatistic|Mean_DP"/>
		<PB:DSDatapoint id="\\JLEFEBVRENEW\DataStatistics\DataStatistic|Sensor_DP"/>
		<PB:DSDatapoint id="\\JLEFEBVRENEW\DataStatistics\DataStatistic|-3 sigma_DP"/>
		<PB:DSDatapoint id="\\JLEFEBVRENEW\DataStatistics\DataStatistic|+3 sigma_DP"/>
	</PB:Dataset>
	<PB:Dataset id="E_DS_DS" PB:Type="57" PB:Context="2" PB:Description="" PB:RefreshInterval="5000" PB:Stepped="False" PB:DSType="3" PB:DSVisible="False">
	</PB:Dataset>
	<PB:Dataset id="MODULEDB_DS" PB:Type="57" PB:Context="2" PB:Description="" PB:RefreshInterval="5000" PB:Stepped="False" PB:DSType="3" PB:DSVisible="False">
	</PB:Dataset>
	<g id="Trend1" PB:Type="10">
		<PB:TrendLogical id="Trend1_Logical" PB:ValueScalePosition="1" PB:BackgroundColor="8421504" PB:CurrentTrace="4" PB:DisplayScaleInside="True" PB:EnableScript="True" PB:Enabled="True" PB:EndTime="*+2M" PB:FillColor="16711680" PB:FontBold="False" PB:FontItalic="False" PB:FontName="Arial" PB:FontSize="10" PB:FontStrikethrough="False" PB:FontUnderline="False" PB:Height="1954" PB:IsMultiState="False" PB:Left="-14967" PB:LineColor="16777215" PB:MultipleScales="False" PB:Name="Trend1" PB:PlotTimeStyle="0" PB:Rotation="0" PB:ShowDescription="False" PB:ShowEngUnits="True" PB:ShowGrids="True" PB:ShowTagName="True" PB:ShowServerName="False" PB:ShowTitle="True" PB:ShowTraceMarkers="False" PB:ShowValue="True" PB:StartTime="*-4m" PB:Top="14948" PB:TraceCount="4" PB:TrendTitle="Plot-0" PB:Visible="True" PB:Width="4369">
			<PB:TraceElem id="PB:TraceElem_1" PB:ShowLinearRegression="False" PB:ScaleLogarithmic="False" PB:ScaleMax="Autorange" PB:ScaleMin="Autorange" PB:Trace="AF2.\\JLEFEBVRENEW\DataStatistics\DataStatistic|Mean" PB:ScaleFormat="General" PB:DisplayDigits="-5" PB:CanonicalNumberFormat="General" PB:TagInfoType="1">
			</PB:TraceElem>
			<PB:TraceElem id="PB:TraceElem_2" PB:ShowLinearRegression="False" PB:ScaleLogarithmic="False" PB:ScaleMax="Autorange" PB:ScaleMin="Autorange" PB:Trace="AF2.\\JLEFEBVRENEW\DataStatistics\DataStatistic|Sensor" PB:ScaleFormat="General" PB:DisplayDigits="-5" PB:CanonicalNumberFormat="General" PB:TagInfoType="1">
			</PB:TraceElem>
			<PB:TraceElem id="PB:TraceElem_3" PB:ShowLinearRegression="False" PB:ScaleLogarithmic="False" PB:ScaleMax="Autorange" PB:ScaleMin="Autorange" PB:Trace="AF2.\\JLEFEBVRENEW\DataStatistics\DataStatistic|-3 sigma" PB:ScaleFormat="General" PB:DisplayDigits="2" PB:CanonicalNumberFormat="General" PB:TagInfoType="1">
			</PB:TraceElem>
			<PB:TraceElem id="PB:TraceElem_4" PB:ShowLinearRegression="False" PB:ScaleLogarithmic="False" PB:ScaleMax="Autorange" PB:ScaleMin="Autorange" PB:Trace="AF2.\\JLEFEBVRENEW\DataStatistics\DataStatistic|+3 sigma" PB:ScaleFormat="General" PB:DisplayDigits="2" PB:CanonicalNumberFormat="General" PB:TagInfoType="1">
			</PB:TraceElem>
			<PB:Format id="PB:Format_1" PB:Name="Horz. Axis" PB:LineColor="0" PB:LineStyle="0" PB:LineWidth="1" PB:MarkerStyle="-1">
			</PB:Format>
			<PB:Format id="PB:Format_2" PB:Name="Background" PB:LineColor="8421504" PB:LineStyle="-1" PB:LineWidth="1" PB:MarkerStyle="-1">
			</PB:Format>
			<PB:Format id="PB:Format_3" PB:Name="Horz. Major Grid" PB:LineColor="0" PB:LineStyle="0" PB:LineWidth="1" PB:MarkerStyle="-1">
			</PB:Format>
			<PB:Format id="PB:Format_4" PB:Name="Horz. Minor Grid" PB:LineColor="0" PB:LineStyle="0" PB:LineWidth="1" PB:MarkerStyle="-1">
			</PB:Format>
			<PB:Format id="PB:Format_5" PB:Name="Pen 1" PB:LineColor="65280" PB:LineStyle="0" PB:LineWidth="1" PB:MarkerStyle="0">
			</PB:Format>
			<PB:Format id="PB:Format_6" PB:Name="Pen 2" PB:LineColor="16776960" PB:LineStyle="0" PB:LineWidth="1" PB:MarkerStyle="1">
			</PB:Format>
			<PB:Format id="PB:Format_7" PB:Name="Pen 3" PB:LineColor="65535" PB:LineStyle="0" PB:LineWidth="1" PB:MarkerStyle="2">
			</PB:Format>
			<PB:Format id="PB:Format_8" PB:Name="Pen 4" PB:LineColor="16711935" PB:LineStyle="0" PB:LineWidth="1" PB:MarkerStyle="3">
			</PB:Format>
			<PB:Format id="PB:Format_9" PB:Name="Pen 5" PB:LineColor="255" PB:LineStyle="0" PB:LineWidth="1" PB:MarkerStyle="4">
			</PB:Format>
			<PB:Format id="PB:Format_10" PB:Name="Pen 6" PB:LineColor="16777215" PB:LineStyle="0" PB:LineWidth="1" PB:MarkerStyle="5">
			</PB:Format>
			<PB:Format id="PB:Format_11" PB:Name="Pen 7" PB:LineColor="16711680" PB:LineStyle="0" PB:LineWidth="1" PB:MarkerStyle="6">
			</PB:Format>
			<PB:Format id="PB:Format_12" PB:Name="Pen 8" PB:LineColor="0" PB:LineStyle="0" PB:LineWidth="1" PB:MarkerStyle="7">
			</PB:Format>
			<PB:Format id="PB:Format_13" PB:Name="Pen 9" PB:LineColor="8388608" PB:LineStyle="0" PB:LineWidth="1" PB:MarkerStyle="8">
			</PB:Format>
			<PB:Format id="PB:Format_14" PB:Name="Pen 10" PB:LineColor="32768" PB:LineStyle="0" PB:LineWidth="1" PB:MarkerStyle="9">
			</PB:Format>
			<PB:Format id="PB:Format_15" PB:Name="Pen 11" PB:LineColor="8388736" PB:LineStyle="0" PB:LineWidth="1" PB:MarkerStyle="10">
			</PB:Format>
			<PB:Format id="PB:Format_16" PB:Name="Pen 12" PB:LineColor="8433626" PB:LineStyle="0" PB:LineWidth="1" PB:MarkerStyle="11">
			</PB:Format>
			<PB:Format id="PB:Format_17" PB:Name="Text" PB:LineColor="16777215" PB:LineStyle="-1" PB:LineWidth="1" PB:MarkerStyle="-1">
			</PB:Format>
			<PB:Format id="PB:Format_18" PB:Name="Vert. Axis" PB:LineColor="0" PB:LineStyle="0" PB:LineWidth="1" PB:MarkerStyle="-1">
			</PB:Format>
			<PB:Format id="PB:Format_19" PB:Name="Vert. Major Grid" PB:LineColor="0" PB:LineStyle="0" PB:LineWidth="1" PB:MarkerStyle="-1">
			</PB:Format>
			<PB:Format id="PB:Format_20" PB:Name="Vert. Minor Grid" PB:LineColor="0" PB:LineStyle="0" PB:LineWidth="1" PB:MarkerStyle="-1">
			</PB:Format>
		</PB:TrendLogical>
		<svg id="Trend1_Graphical" height="1954" width="4369" x="33" y="52">
			<PB:RefreshData id="Trend1_RefreshData" PB:bEngUnits="True" PB:bLogarithmic="False" PB:bMarkers="False" PB:bTagname="True" PB:bValue="True" PB:fXUnits="8.955555555555555555555555556" PB:iGrdBegX="6" PB:iGrdBegY="41" PB:iGrdHght="1862" PB:iGrdWdth="3224" PB:iMinPerCol="1" PB:iNumTrcs="4" PB:iNumXCols="0" PB:bGrids="True" PB:Updateable="True" PB:iSnglLnHght="33" PB:iScaleWidth="0" PB:bOmitScaleText="False" PB:bOmitTimeText="False">
			</PB:RefreshData>
			<rect id="Trend1_Background" x="0" y="0" width="4369" height="1954" fill="#808080">
			</rect>
			<g id="Trend1_PlotTitleGroup" style="font-family:Arial;font-size:33;stroke:#FFFFFF;fill:#FFFFFF;">
				<text x="6" y="33" style="font-family:Arial;font-size:33;stroke:#FFFFFF;fill:#FFFFFF;">Plot-0</text>
			</g>
			<svg id="Trend1_AxesGroup" height="1862" width="3224" x="6" y="41">
				<rect id="Trend1_GridBackground" x="0" y="0" width="3224" height="1862" style="fill:#808080;stroke:none;">
				</rect>
				<polyline id="Trend1_VertAxis_1" style="stroke-width:3;fill:none;stroke:#000000;" points="0,0 0,1862">
				</polyline>
				<polyline id="Trend1_VertAxis_Last" style="stroke-width:3;fill:none;stroke:#000000;stroke-dasharray:10 10 10 10;" points="3224,0 3224,1862">
				</polyline>
				<polyline id="Trend1_HorizAxis" style="stroke-width:3;fill:none;stroke:#000000;" points="0,1862 3224,1862">
				</polyline>
			</svg>
			<svg id="Trend1_GridGroup" height="1862" width="3224" x="6" y="41">
				<path id="Trend1_HorizGridLine" style="stroke-width:2;stroke:#000000;" d="M36,0 L36,1862">
				</path>
				<path id="Trend1_HorizGridLine" style="stroke-width:2;stroke:#000000;" d="M573,0 L573,1862">
				</path>
				<path id="Trend1_HorizGridLine" style="stroke-width:2;stroke:#000000;" d="M1110,0 L1110,1862">
				</path>
				<path id="Trend1_HorizGridLine" style="stroke-width:2;stroke:#000000;" d="M1648,0 L1648,1862">
				</path>
				<path id="Trend1_HorizGridLine" style="stroke-width:2;stroke:#000000;" d="M2185,0 L2185,1862">
				</path>
				<path id="Trend1_HorizGridLine" style="stroke-width:2;stroke:#000000;" d="M2722,0 L2722,1862">
				</path>
				<path id="Trend1_VertGridLine" style="stroke-width:2;stroke:#000000" d="M0,1715.19 L3224,1715.19">
				</path>
				<path id="Trend1_VertGridLine" style="stroke-width:2;stroke:#000000" d="M0,1393.03 L3224,1393.03">
				</path>
				<path id="Trend1_VertGridLine" style="stroke-width:2;stroke:#000000" d="M0,1070.86 L3224,1070.86">
				</path>
				<path id="Trend1_VertGridLine" style="stroke-width:2;stroke:#000000" d="M0,748.7 L3224,748.7">
				</path>
				<path id="Trend1_VertGridLine" style="stroke-width:2;stroke:#000000" d="M0,426.54 L3224,426.54">
				</path>
				<path id="Trend1_VertGridLine" style="stroke-width:2;stroke:#000000" d="M0,104.37 L3224,104.37">
				</path>
				<path id="Trend1_VertGridLine" style="stroke-width:2;stroke:#000000" d="M0,0 L3224,0">
				</path>
			</svg>
			<g id="Trend1_XScaleTextGroup" style="font-family:Arial;font-size:33;stroke:#FFFFFF;fill:#FFFFFF;">
				<text id="Trend1_XScaleTextBegin" x="6" y="1938" style="font-family:Arial;font-size:33;stroke:#FFFFFF;fill:#FFFFFF;">2016/04/15 3:15:56</text>
				<text id="Trend1_XScaleTextSpan" x="1495" y="1938" style="font-family:Arial;font-size:33;stroke:#FFFFFF;fill:#FFFFFF;">6.00 minutes</text>
				<text id="Trend1_XScaleTextEnd" x="2867" y="1938" style="font-family:Arial;font-size:33;stroke:#FFFFFF;fill:#FFFFFF;">2016/04/15 3:21:56</text>
			</g>
			<g id="Trend1_TagNameGroup" transform="translate(3256,43)">
				<circle id="Trend1_0" cx="0.5" cy="17" r="8" style="stroke-width:2;stroke:#00FF00;fill:#00FF00;">
				</circle>
				<text id="Trend1_TagName0" x="19.1860465116279" y="33" style="font-family:Arial;font-size:33;stroke:#00FF00;fill:#00FF00;">OSIDEMO_DataStatistic.Mean</text>
				<text id="Trend1_TagValue0" x="19.1860465116279" y="68" style="font-family:Arial;font-size:33;stroke:#00FF00;fill:#00FF00;">No Data</text>
				<text id="Trend1_EngUnits0" x="19.1860465116279" y="103" style="font-family:Arial;font-size:33;stroke:#00FF00;fill:#00FF00;">
				</text>
				<circle id="Trend1_1" cx="0.5" cy="122" r="8" style="stroke-width:2;stroke:#00FFFF;fill:none;">
				</circle>
				<text id="Trend1_TagName1" x="19.1860465116279" y="138" style="font-family:Arial;font-size:33;stroke:#00FFFF;fill:#00FFFF;">DataGeneration.Sensor</text>
				<text id="Trend1_TagValue1" x="19.1860465116279" y="173" style="font-family:Arial;font-size:33;stroke:#00FFFF;fill:#00FFFF;">0.66936</text>
				<text id="Trend1_EngUnits1" x="19.1860465116279" y="208" style="font-family:Arial;font-size:33;stroke:#00FFFF;fill:#00FFFF;">
				</text>
				<polygon id="Trend1_2" points="-5.5,221 6.5,221 6.5,233 -5.5,233 -5.5,221" style="stroke-width:2;stroke:#FFFF00;fill:#FFFF00;" transform="rotate(45,0.5,227) ">
				</polygon>
				<text id="Trend1_TagName2" x="19.1860465116279" y="243" style="font-family:Arial;font-size:33;stroke:#FFFF00;fill:#FFFF00;">AF2.\\JLEFEBVRENEW\DataStatistics\DataStatistic|-3 sigma</text>
				<text id="Trend1_TagValue2" x="19.1860465116279" y="278" style="font-family:Arial;font-size:33;stroke:#FFFF00;fill:#FFFF00;">Calc Failed</text>
				<text id="Trend1_EngUnits2" x="19.1860465116279" y="313" style="font-family:Arial;font-size:33;stroke:#FFFF00;fill:#FFFF00;">
				</text>
				<polygon id="Trend1_3" points="-5.5,326 6.5,326 6.5,338 -5.5,338 -5.5,326" style="stroke-width:2;stroke:#FF00FF;fill:none;" transform="rotate(45,0.5,332) ">
				</polygon>
				<text id="Trend1_TagName3" x="19.1860465116279" y="348" style="font-family:Arial;font-size:33;stroke:#FF00FF;fill:#FF00FF;">AF2.\\JLEFEBVRENEW\DataStatistics\DataStatistic|+3 sigma</text>
				<text id="Trend1_TagValue3" x="19.1860465116279" y="383" style="font-family:Arial;font-size:33;stroke:#FF00FF;fill:#FF00FF;">Calc Failed</text>
				<text id="Trend1_EngUnits3" x="19.1860465116279" y="418" style="font-family:Arial;font-size:33;stroke:#FF00FF;fill:#FF00FF;">
				</text>
			</g>
			<svg id="Trend1_TraceGroup" height="1862" width="3224" style="font-family:Arial;font-size:33;stroke:#FFFFFF;fill:#FFFFFF;" x="6" y="41">
				<path id="Trend1_Plot0" style="font-family:Arial;font-size:33;stroke:#00FF00;fill:none;stroke-width:2;" d="" PBD:DatasetName="AF2_DS" PBD:DatasetColumn="\\JLEFEBVRENEW\DataStatistics\DataStatistic|Mean">
				</path>
				<path id="Trend1_Plot1" style="font-family:Arial;font-size:33;stroke:#00FFFF;fill:none;stroke-width:2;" d="M0,1308.98190129984 L8.95555555555556,1433.12088805405 L17.9111111111111,1704.24122212556 L26.8666666666667,1665.00596469907 L35.8222222222222,1758.06892248578 L44.7777777777778,1651.08163228132 L53.7333333333333,1708.619558425 L62.6888888888889,1537.43529572817 L71.6444444444444,1359.54437395147 L80.6,1278.65353451007 L89.5555555555556,1101.33736651518 L98.5111111111111,1048.26954091797 L107.466666666667,1100.83591427644 L116.422222222222,941.773005559134 L125.377777777778,811.134608677647 L134.333333333333,729.409133132512 L143.288888888889,692.486939350537 L152.244444444444,771.090194961752 L161.2,619.355602790922 L170.155555555556,540.556290669539 L179.111111111111,732.380083194802 L188.066666666667,549.320835222566 L197.022222222222,484.121857381811 L205.977777777778,318.962173066636 L214.933333333333,322.899167877117 L223.888888888889,332.618768827351 L232.844444444444,299.638032532881 L241.8,162.498458369365 L250.755555555556,94.7271438168782 L259.711111111111,279.709391175063 L268.666666666667,155.867835260422 L277.622222222222,120.091693384764 L286.577777777778,26.9622010310202 L295.533333333333,170.027131113274 L304.488888888889,250.714190793367 L313.444444444444,69.6237908098343 L322.4,44.2409887886664 L331.355555555556,216.529255665621 L340.311111111111,204.38249382029 L349.266666666667,220.317582072682 L358.222222222222,230.109562982706 L367.177777777778,214.193417432928 L376.133333333333,240.913413320801 L385.088888888889,371.657412801173 L394.044444444444,339.401030451011 L403,441.100389187141 L411.955555555556,591.106124237104 L420.911111111111,396.652469620009 L429.866666666667,410.422377255546 L438.822222222222,609.425737956008 L447.777777777778,649.105808076566 L456.733333333333,632.527112948623 L465.688888888889,765.622958564871 L474.644444444444,991.534439054084 L483.6,810.924423594169 L492.555555555555,1017.64416275072 L501.511111111111,1164.05798606937 L510.466666666667,1162.04515742323 L519.422222222222,1331.54745183293 L528.377777777778,1441.95899200443 L537.333333333333,1443.05836194051 L546.288888888889,1564.59840494351 L555.244444444444,1693.58026551734 L564.2,1521.89815604107 L573.155555555556,1548.75905869596 L582.111111111111,1613.21868791729 L591.066666666667,1629.75338135775 L600.022222222222,1546.17041412986 L608.977777777778,1371.62888480407 L617.933333333333,1358.78031103821 L626.888888888889,1136.10387814306 L635.844444444444,1218.18705571054 L644.8,991.700417106024 L653.755555555556,992.40221144856 L662.711111111111,975.306315585598 L671.666666666667,773.856857606241 L680.622222222222,703.769312528686 L689.577777777778,502.27744726311 L698.533333333333,478.026707958501 L707.488888888889,534.581747486193 L716.444444444444,365.357074538312 L725.4,344.923308365594 L734.355555555556,400.410928097562 L743.311111111111,333.71471633353 L752.266666666667,432.014576909443 L761.222222222222,207.130612609703 L770.177777777778,67.7646556555617 L779.133333333333,322.818072380339 L788.088888888889,230.421705503676 L797.044444444444,98.10806813272 L806,138.684148606657 L814.955555555556,64.2356534647747 L823.911111111111,67.9358012679156 L832.866666666667,155.68258978809 L841.822222222222,138.877960208973 L850.777777777778,273.033660201222 L859.733333333333,95.4406896593574 L868.688888888889,80.1021309614891 L877.644444444444,172.535356878931 L886.6,236.262688722829 L895.555555555556,228.465060010423 L904.511111111111,158.947650059676 L913.466666666667,310.265891121097 L922.422222222222,239.826424164448 L931.377777777778,340.435670829078 L940.333333333333,427.049088180437 L949.288888888889,512.599527442158 L958.244444444444,444.833950567675 L967.2,592.007975875724 L976.155555555555,628.251719014815 L985.111111111111,773.657894749685 L994.066666666666,772.604195624742 L1003.02222222222,714.641985944404 L1011.97777777778,730.769462964594 L1020.93333333333,894.095419328437 L1029.88888888889,1034.58863132459 L1038.84444444444,1110.40561946122 L1047.8,1235.93684956649 L1056.75555555556,1330.81084111718 L1065.71111111111,1387.09859905579 L1074.66666666667,1399.88148695825 L1083.62222222222,1589.59880631196 L1092.57777777778,1605.21025900351 L1101.53333333333,1702.05663700124 L1110.48888888889,1831.06097790821 L1119.44444444444,1723.881024429 L1128.4,1627.10662567732 L1137.35555555556,1358.77104378588 L1146.31111111111,1454.89757105719 L1155.26666666667,1275.60061419149 L1164.22222222222,1249.43065747443 L1173.17777777778,1124.4270152859 L1182.13333333333,1010.83602640684 L1191.08888888889,1039.59153034623 L1200.04444444444,759.273714250335 L1209,765.982056371239 L1217.95555555556,834.017149787978 L1226.91111111111,617.040036282618 L1235.86666666667,768.245567813585 L1244.82222222222,514.215096478623 L1253.77777777778,358.766209563705 L1262.73333333333,397.815720428135 L1271.68888888889,384.331946379972 L1280.64444444444,257.787286808249 L1289.6,428.873747929084 L1298.55555555556,275.161557954429 L1307.51111111111,259.975351204578 L1316.46666666667,147.474872422637 L1325.42222222222,164.372874944234 L1334.37777777778,28.3244355594576 L1343.33333333333,259.406176178 L1352.28888888889,128.856496295141 L1361.24444444444,111.814855333439 L1370.2,216.064185315338 L1379.15555555556,0 L1388.11111111111,160.969622591529 L1397.06666666667,225.296913751576 L1406.02222222222,131.4562948686 L1414.97777777778,229.33599672634 L1423.93333333333,84.9971704521485 L1432.88888888889,179.325092439671 L1441.84444444444,307.944486461896 L1450.8,223.929150211096 L1459.75555555556,140.863844498294 L1468.71111111111,182.832531489726 L1477.66666666667,318.313546034032 L1486.62222222222,302.708178486753 L1495.57777777778,571.02509425198 L1504.53333333333,683.843098474142 L1513.48888888889,653.729687860695 L1522.44444444444,728.668982767685 L1531.4,635.413349560828 L1540.35555555556,788.157321403578 L1549.31111111111,912.740519467546 L1558.26666666667,916.262768556938 L1567.22222222222,945.017305422861 L1576.17777777778,1026.24751515209 L1585.13333333333,1233.20728754195 L1594.08888888889,1332.27294804722 L1603.04444444444,1375.73515783708 L1612,1442.61415128794 L1620.95555555556,1648.94140504604 L1629.91111111111,1533.70276218858 L1638.86666666667,1862.00000000001 L1647.82222222222,1681.64850368487 L1656.77777777778,1710.93176927597 L1665.73333333333,1542.31978054464 L1674.68888888889,1571.68176650117 L1683.64444444444,1305.43719992998 L1692.6,1293.09325082688 L1701.55555555556,1198.94181539779 L1710.51111111111,1061.97793095951 L1719.46666666667,1096.24576892328 L1728.42222222222,944.874119966111 L1737.37777777778,915.097762692859 L1746.33333333333,732.038691694676 L1755.28888888889,793.809378983321 L1764.24444444444,733.745267802449 L1773.2,623.877844664994 L1782.15555555556,437.188553763108 L1791.11111111111,469.34326937096 L1800.06666666667,530.101762457082 L1809.02222222222,461.524639669626 L1817.97777777778,504.271047915076 L1826.93333333333,355.161534914085 L1835.88888888889,182.619728299071 L1844.84444444444,187.637015146834 L1853.8,193.365120740774 L1862.75555555556,296.28926475722 L1871.71111111111,273.994190822573 L1880.66666666667,69.9476601136239 L1889.62222222222,266.894329940412 L1898.57777777778,40.7584742439539 L1907.53333333333,128.334555731765 L1916.48888888889,119.625746259124 L1925.44444444444,159.561313810875 L1934.4,32.1295018008733 L1943.35555555556,119.889006071045 L1952.31111111111,57.6896995987521 L1961.26666666667,86.117699696264 L1970.22222222222,263.634880373137 L1979.17777777778,309.604685199385 L1988.13333333333,230.484075235982 L1997.08888888889,231.295488874736 L2006.04444444444,190.273703200069 L2015,430.773607902287 L2023.95555555556,496.337281356505 L2032.91111111111,537.120890702912 L2041.86666666667,632.595200097774 L2050.82222222222,683.225091321953 L2059.77777777778,747.751410188765 L2068.73333333333,636.973632899182 L2149.33333333333,636.973632899182 " PBD:DatasetName="AF2_DS" PBD:DatasetColumn="\\JLEFEBVRENEW\DataStatistics\DataStatistic|Sensor">
				</path>
				<path id="Trend1_Plot2" style="font-family:Arial;font-size:33;stroke:#FFFF00;fill:none;stroke-width:2;" d="" PBD:DatasetName="AF2_DS" PBD:DatasetColumn="\\JLEFEBVRENEW\DataStatistics\DataStatistic|-3 sigma">
				</path>
				<path id="Trend1_Plot3" style="font-family:Arial;font-size:33;stroke:#FF00FF;fill:none;stroke-width:2;" d="" PBD:DatasetName="AF2_DS" PBD:DatasetColumn="\\JLEFEBVRENEW\DataStatistics\DataStatistic|+3 sigma">
				</path>
			</svg>
			<svg id="Trend1_MarkerGroup" height="1862" width="3224" style="" x="6" y="41">
				<circle id="Trend1_2" cx="510.966666666667" cy="1162.54515742323" r="8" style="stroke-width:2;stroke:#00FFFF;fill:none;">
				</circle>
				<circle id="Trend1_2" cx="1030.38888888889" cy="1035.08863132459" r="8" style="stroke-width:2;stroke:#00FFFF;fill:none;">
				</circle>
				<circle id="Trend1_2" cx="1549.81111111111" cy="913.240519467546" r="8" style="stroke-width:2;stroke:#00FFFF;fill:none;">
				</circle>
			</svg>
			<g id="Trend1_YScaleTextGroup" style="font-family:Arial;font-size:33;stroke:#FFFFFF;fill:#FFFFFF;" transform="translate(8,41)">
				<text id="Max_0" x="2" y="33">1.0648</text>
				<text id="Min_0" x="2" y="1856">-0.09114</text>
				<text x="0" y="1720.44192980692">0</text>
				<text x="0" y="1398.2784120199">0.2</text>
				<text x="0" y="1076.11489423289">0.4</text>
				<text x="0" y="753.951376445874">0.6</text>
				<text x="0" y="431.787858658859">0.8</text>
				<text x="0" y="109.624340871844">1</text>
			</g>
		</svg>
	</g>
	<script language="JavaScript" type="text/javascript"> 
        
        function SVG_doc_loaded(evt)
	{
	    var parentDoc = evt.getTarget().getOwnerDocument();
	    var elem = parentDoc.createElement("Ready");
	    evt.getTarget().appendChild(elem);

        }</script>
</svg>
