<?xml version="1.0" encoding="UTF-8"?>
<svg height="100%" viewBox="0 1307 8356 3233" width="100%" fill="#C0C0C0" image-rendering="optimizeSpeed" onload="SVG_doc_loaded(evt);" PB:pid="" xlink:xid="" xmlns:svg="OSI_SVG_20090601" xmlns:xlink="http://www.w3.org/1999/xlink" xmlns:PB="urn:osisoft-com-pb" xmlns:PBI="urn:osisoft-com-interface" xmlns:PBD="urn:osisoft-com-data" xmlns:xsi="http://www.w3.org/1999/XMLSchema/instance">
	<defs><PBD:TagUses tag="af2.\\jlefebvrenew\datastatistics\datastatistic|-3 sigma" PB:BO="PWSPIEventsBO.cBOEvents">
			<PBI:Symbol name="Value1" PB:Type="7"/>
		</PBD:TagUses><PBD:DataSetUses tag="AF2_DS.\\JLEFEBVRENEW\JDIData\DataEven|Sensor" PB:Parent="AF2_DS" PB:BO="PWSPIDataSetsBO.CBODataSets">
			<PBI:Symbol name="Trend1_Plot0" PB:Type="10" PB:Parent="Trend1">
			</PBI:Symbol>
		</PBD:DataSetUses><PBD:DataSetUses tag="AF2_DS.\\JLEFEBVRENEW\JDIData\DataEven|Sensor|HH" PB:Parent="AF2_DS" PB:BO="PWSPIDataSetsBO.CBODataSets">
			<PBI:Symbol name="Trend1_Plot1" PB:Type="10" PB:Parent="Trend1">
			</PBI:Symbol>
		</PBD:DataSetUses><PBD:DataSetUses tag="AF2_DS.\\JLEFEBVRENEW\JDIData\DataEven|Sensor|LoLo" PB:Parent="AF2_DS" PB:BO="PWSPIDataSetsBO.CBODataSets">
			<PBI:Symbol name="Trend1_Plot2" PB:Type="10" PB:Parent="Trend1">
			</PBI:Symbol>
		</PBD:DataSetUses><PBD:DataSetUses tag="AF2_DS.\\JLEFEBVRENEW\JDIData\DataShort|Sensor" PB:Parent="AF2_DS" PB:BO="PWSPIDataSetsBO.CBODataSets">
			<PBI:Symbol name="Trend2_Plot0" PB:Type="10" PB:Parent="Trend2">
			</PBI:Symbol>
		</PBD:DataSetUses><PBD:DataSetUses tag="AF2_DS.\\JLEFEBVRENEW\JDIData\DataShort|Sensor|HH" PB:Parent="AF2_DS" PB:BO="PWSPIDataSetsBO.CBODataSets">
			<PBI:Symbol name="Trend2_Plot1" PB:Type="10" PB:Parent="Trend2">
			</PBI:Symbol>
		</PBD:DataSetUses><PBD:DataSetUses tag="AF2_DS.\\JLEFEBVRENEW\JDIData\DataShort|Sensor|LoLo" PB:Parent="AF2_DS" PB:BO="PWSPIDataSetsBO.CBODataSets">
			<PBI:Symbol name="Trend2_Plot2" PB:Type="10" PB:Parent="Trend2">
			</PBI:Symbol>
		</PBD:DataSetUses>
	</defs>
	<rect x="0" y="0" width="8356" height="4540" PB:DocMajorVersionNum="3" PB:DocMinorVersionNum="26" PB:DocGroup="1" PB:wnHeight="670" PB:wnWidth="1616" PB:wnState="2" PB:Zoom="50" PB:LocalID="1041" PB:DisplayServerTimeZone="True" PB:Type="55" PB:NamedValues="AFDisplayBuilder.Upgraded,1">
	</rect>
	<PB:Dataset id="AF2_DS" PB:Type="57" PB:Context="2" PB:Description="" PB:RefreshInterval="10000" PB:Stepped="False" PB:DSType="3" PB:DSVisible="True">
		<PB:DSDatapoint id="\\JLEFEBVRENEW\JDIData\DataEven|Sensor_DP"/>
		<PB:DSDatapoint id="\\JLEFEBVRENEW\JDIData\DataEven|Sensor|HH_DP"/>
		<PB:DSDatapoint id="\\JLEFEBVRENEW\JDIData\DataEven|Sensor|LoLo_DP"/>
		<PB:DSDatapoint id="\\JLEFEBVRENEW\JDIData\DataShort|Sensor_DP"/>
		<PB:DSDatapoint id="\\JLEFEBVRENEW\JDIData\DataShort|Sensor|HH_DP"/>
		<PB:DSDatapoint id="\\JLEFEBVRENEW\JDIData\DataShort|Sensor|LoLo_DP"/>
	</PB:Dataset>
	<PB:Dataset id="E_DS_DS" PB:Type="57" PB:Context="2" PB:Description="" PB:RefreshInterval="5000" PB:Stepped="False" PB:DSType="3" PB:DSVisible="False">
	</PB:Dataset>
	<PB:Dataset id="MODULEDB_DS" PB:Type="57" PB:Context="2" PB:Description="" PB:RefreshInterval="5000" PB:Stepped="False" PB:DSType="3" PB:DSVisible="False">
	</PB:Dataset>
	<g id="Trend1" PB:Type="10">
		<PB:TrendLogical id="Trend1_Logical" PB:ValueScalePosition="1" PB:BackgroundColor="8421504" PB:CurrentTrace="3" PB:DisplayScaleInside="True" PB:EnableScript="True" PB:Enabled="True" PB:EndTime="*+1m" PB:FillColor="16711680" PB:FontBold="False" PB:FontItalic="False" PB:FontName="Arial" PB:FontSize="10" PB:FontStrikethrough="False" PB:FontUnderline="False" PB:Height="1954" PB:IsMultiState="False" PB:Left="-14848" PB:LineColor="16777215" PB:MultipleScales="False" PB:Name="Trend1" PB:PlotTimeStyle="0" PB:Rotation="0" PB:ShowDescription="False" PB:ShowEngUnits="True" PB:ShowGrids="True" PB:ShowTagName="True" PB:ShowServerName="False" PB:ShowTitle="True" PB:ShowTraceMarkers="False" PB:ShowValue="True" PB:StartTime="*-5m" PB:Top="14478" PB:TraceCount="3" PB:TrendTitle="Plot-0" PB:Visible="True" PB:Width="4369">
			<PB:TraceElem id="PB:TraceElem_1" PB:ShowLinearRegression="False" PB:ScaleLogarithmic="False" PB:ScaleMax="Autorange" PB:ScaleMin="Autorange" PB:Trace="AF2.\\JLEFEBVRENEW\JDIData\DataEven|Sensor" PB:ScaleFormat="General" PB:DisplayDigits="-5" PB:CanonicalNumberFormat="General" PB:TagInfoType="1">
			</PB:TraceElem>
			<PB:TraceElem id="PB:TraceElem_2" PB:ShowLinearRegression="False" PB:ScaleLogarithmic="False" PB:ScaleMax="Autorange" PB:ScaleMin="Autorange" PB:Trace="AF2.\\JLEFEBVRENEW\JDIData\DataEven|Sensor|HH" PB:ScaleFormat="General" PB:DisplayDigits="-5" PB:CanonicalNumberFormat="General" PB:TagInfoType="1">
			</PB:TraceElem>
			<PB:TraceElem id="PB:TraceElem_3" PB:ShowLinearRegression="False" PB:ScaleLogarithmic="False" PB:ScaleMax="Autorange" PB:ScaleMin="Autorange" PB:Trace="AF2.\\JLEFEBVRENEW\JDIData\DataEven|Sensor|LoLo" PB:ScaleFormat="General" PB:DisplayDigits="-5" PB:CanonicalNumberFormat="General" PB:TagInfoType="1">
			</PB:TraceElem>
			<PB:Format id="PB:Format_1" PB:Name="Horz. Axis" PB:LineColor="0" PB:LineStyle="0" PB:LineWidth="1" PB:MarkerStyle="-1">
			</PB:Format>
			<PB:Format id="PB:Format_2" PB:Name="Background" PB:LineColor="8421504" PB:LineStyle="-1" PB:LineWidth="1" PB:MarkerStyle="-1">
			</PB:Format>
			<PB:Format id="PB:Format_3" PB:Name="Horz. Major Grid" PB:LineColor="0" PB:LineStyle="0" PB:LineWidth="1" PB:MarkerStyle="-1">
			</PB:Format>
			<PB:Format id="PB:Format_4" PB:Name="Horz. Minor Grid" PB:LineColor="0" PB:LineStyle="0" PB:LineWidth="1" PB:MarkerStyle="-1">
			</PB:Format>
			<PB:Format id="PB:Format_5" PB:Name="Pen 1" PB:LineColor="65280" PB:LineStyle="0" PB:LineWidth="1" PB:MarkerStyle="0">
			</PB:Format>
			<PB:Format id="PB:Format_6" PB:Name="Pen 2" PB:LineColor="16776960" PB:LineStyle="0" PB:LineWidth="1" PB:MarkerStyle="1">
			</PB:Format>
			<PB:Format id="PB:Format_7" PB:Name="Pen 3" PB:LineColor="65535" PB:LineStyle="0" PB:LineWidth="1" PB:MarkerStyle="2">
			</PB:Format>
			<PB:Format id="PB:Format_8" PB:Name="Pen 4" PB:LineColor="16711935" PB:LineStyle="0" PB:LineWidth="1" PB:MarkerStyle="3">
			</PB:Format>
			<PB:Format id="PB:Format_9" PB:Name="Pen 5" PB:LineColor="255" PB:LineStyle="0" PB:LineWidth="1" PB:MarkerStyle="4">
			</PB:Format>
			<PB:Format id="PB:Format_10" PB:Name="Pen 6" PB:LineColor="16777215" PB:LineStyle="0" PB:LineWidth="1" PB:MarkerStyle="5">
			</PB:Format>
			<PB:Format id="PB:Format_11" PB:Name="Pen 7" PB:LineColor="16711680" PB:LineStyle="0" PB:LineWidth="1" PB:MarkerStyle="6">
			</PB:Format>
			<PB:Format id="PB:Format_12" PB:Name="Pen 8" PB:LineColor="0" PB:LineStyle="0" PB:LineWidth="1" PB:MarkerStyle="7">
			</PB:Format>
			<PB:Format id="PB:Format_13" PB:Name="Pen 9" PB:LineColor="8388608" PB:LineStyle="0" PB:LineWidth="1" PB:MarkerStyle="8">
			</PB:Format>
			<PB:Format id="PB:Format_14" PB:Name="Pen 10" PB:LineColor="32768" PB:LineStyle="0" PB:LineWidth="1" PB:MarkerStyle="9">
			</PB:Format>
			<PB:Format id="PB:Format_15" PB:Name="Pen 11" PB:LineColor="8388736" PB:LineStyle="0" PB:LineWidth="1" PB:MarkerStyle="10">
			</PB:Format>
			<PB:Format id="PB:Format_16" PB:Name="Pen 12" PB:LineColor="8433626" PB:LineStyle="0" PB:LineWidth="1" PB:MarkerStyle="11">
			</PB:Format>
			<PB:Format id="PB:Format_17" PB:Name="Text" PB:LineColor="16777215" PB:LineStyle="-1" PB:LineWidth="1" PB:MarkerStyle="-1">
			</PB:Format>
			<PB:Format id="PB:Format_18" PB:Name="Vert. Axis" PB:LineColor="0" PB:LineStyle="0" PB:LineWidth="1" PB:MarkerStyle="-1">
			</PB:Format>
			<PB:Format id="PB:Format_19" PB:Name="Vert. Major Grid" PB:LineColor="0" PB:LineStyle="0" PB:LineWidth="1" PB:MarkerStyle="-1">
			</PB:Format>
			<PB:Format id="PB:Format_20" PB:Name="Vert. Minor Grid" PB:LineColor="0" PB:LineStyle="0" PB:LineWidth="1" PB:MarkerStyle="-1">
			</PB:Format>
		</PB:TrendLogical>
		<svg id="Trend1_Graphical" height="1954" width="4369" x="152" y="522">
			<PB:RefreshData id="Trend1_RefreshData" PB:bEngUnits="True" PB:bLogarithmic="False" PB:bMarkers="False" PB:bTagname="True" PB:bValue="True" PB:fXUnits="9.705555555555555555555555556" PB:iGrdBegX="6" PB:iGrdBegY="41" PB:iGrdHght="1862" PB:iGrdWdth="3494" PB:iMinPerCol="1" PB:iNumTrcs="3" PB:iNumXCols="0" PB:bGrids="True" PB:Updateable="True" PB:iSnglLnHght="33" PB:iScaleWidth="0" PB:bOmitScaleText="False" PB:bOmitTimeText="False">
			</PB:RefreshData>
			<rect id="Trend1_Background" x="0" y="0" width="4369" height="1954" fill="#808080">
			</rect>
			<g id="Trend1_PlotTitleGroup" style="font-family:Arial;font-size:33;stroke:#FFFFFF;fill:#FFFFFF;">
				<text x="6" y="33" style="font-family:Arial;font-size:33;stroke:#FFFFFF;fill:#FFFFFF;">Plot-0</text>
			</g>
			<svg id="Trend1_AxesGroup" height="1862" width="3494" x="6" y="41">
				<rect id="Trend1_GridBackground" x="0" y="0" width="3494" height="1862" style="fill:#808080;stroke:none;">
				</rect>
				<polyline id="Trend1_VertAxis_1" style="stroke-width:3;fill:none;stroke:#000000;" points="0,0 0,1862">
				</polyline>
				<polyline id="Trend1_VertAxis_Last" style="stroke-width:3;fill:none;stroke:#000000;stroke-dasharray:10 10 10 10;" points="3494,0 3494,1862">
				</polyline>
				<polyline id="Trend1_HorizAxis" style="stroke-width:3;fill:none;stroke:#000000;" points="0,1862 3494,1862">
				</polyline>
			</svg>
			<svg id="Trend1_GridGroup" height="1862" width="3494" x="6" y="41">
				<path id="Trend1_HorizGridLine" style="stroke-width:2;stroke:#000000;" d="M514,0 L514,1862">
				</path>
				<path id="Trend1_HorizGridLine" style="stroke-width:2;stroke:#000000;" d="M1097,0 L1097,1862">
				</path>
				<path id="Trend1_HorizGridLine" style="stroke-width:2;stroke:#000000;" d="M1679,0 L1679,1862">
				</path>
				<path id="Trend1_HorizGridLine" style="stroke-width:2;stroke:#000000;" d="M2261,0 L2261,1862">
				</path>
				<path id="Trend1_HorizGridLine" style="stroke-width:2;stroke:#000000;" d="M2844,0 L2844,1862">
				</path>
				<path id="Trend1_HorizGridLine" style="stroke-width:2;stroke:#000000;" d="M3426,0 L3426,1862">
				</path>
				<path id="Trend1_VertGridLine" style="stroke-width:2;stroke:#000000" d="M0,1757.81 L3494,1757.81">
				</path>
				<path id="Trend1_VertGridLine" style="stroke-width:2;stroke:#000000" d="M0,1425.17 L3494,1425.17">
				</path>
				<path id="Trend1_VertGridLine" style="stroke-width:2;stroke:#000000" d="M0,1092.53 L3494,1092.53">
				</path>
				<path id="Trend1_VertGridLine" style="stroke-width:2;stroke:#000000" d="M0,759.88 L3494,759.88">
				</path>
				<path id="Trend1_VertGridLine" style="stroke-width:2;stroke:#000000" d="M0,427.24 L3494,427.24">
				</path>
				<path id="Trend1_VertGridLine" style="stroke-width:2;stroke:#000000" d="M0,94.6 L3494,94.6">
				</path>
				<path id="Trend1_VertGridLine" style="stroke-width:2;stroke:#000000" d="M0,0 L3494,0">
				</path>
			</svg>
			<g id="Trend1_XScaleTextGroup" style="font-family:Arial;font-size:33;stroke:#FFFFFF;fill:#FFFFFF;">
				<text id="Trend1_XScaleTextBegin" x="6" y="1938" style="font-family:Arial;font-size:33;stroke:#FFFFFF;fill:#FFFFFF;">2016/04/28 8:59:07</text>
				<text id="Trend1_XScaleTextSpan" x="1630" y="1938" style="font-family:Arial;font-size:33;stroke:#FFFFFF;fill:#FFFFFF;">6.00 minutes</text>
				<text id="Trend1_XScaleTextEnd" x="3137" y="1938" style="font-family:Arial;font-size:33;stroke:#FFFFFF;fill:#FFFFFF;">2016/04/28 9:05:07</text>
			</g>
			<g id="Trend1_TagNameGroup" transform="translate(3526,43)">
				<circle id="Trend1_0" cx="0.5" cy="17" r="8" style="stroke-width:2;stroke:#00FF00;fill:#00FF00;">
				</circle>
				<text id="Trend1_TagName0" x="19.1860465116279" y="33" style="font-family:Arial;font-size:33;stroke:#00FF00;fill:#00FF00;">DataEven.Sensor</text>
				<text id="Trend1_TagValue0" x="19.1860465116279" y="68" style="font-family:Arial;font-size:33;stroke:#00FF00;fill:#00FF00;">0</text>
				<text id="Trend1_EngUnits0" x="19.1860465116279" y="103" style="font-family:Arial;font-size:33;stroke:#00FF00;fill:#00FF00;">
				</text>
				<circle id="Trend1_1" cx="0.5" cy="122" r="8" style="stroke-width:2;stroke:#00FFFF;fill:none;">
				</circle>
				<text id="Trend1_TagName1" x="19.1860465116279" y="138" style="font-family:Arial;font-size:33;stroke:#00FFFF;fill:#00FFFF;">OSIDemo_DataEven.HH</text>
				<text id="Trend1_TagValue1" x="19.1860465116279" y="173" style="font-family:Arial;font-size:33;stroke:#00FFFF;fill:#00FFFF;">No Data</text>
				<text id="Trend1_EngUnits1" x="19.1860465116279" y="208" style="font-family:Arial;font-size:33;stroke:#00FFFF;fill:#00FFFF;">
				</text>
				<polygon id="Trend1_2" points="-5.5,221 6.5,221 6.5,233 -5.5,233 -5.5,221" style="stroke-width:2;stroke:#FFFF00;fill:#FFFF00;" transform="rotate(45,0.5,227) ">
				</polygon>
				<text id="Trend1_TagName2" x="19.1860465116279" y="243" style="font-family:Arial;font-size:33;stroke:#FFFF00;fill:#FFFF00;">OSIDemo_DataEven.LoLo</text>
				<text id="Trend1_TagValue2" x="19.1860465116279" y="278" style="font-family:Arial;font-size:33;stroke:#FFFF00;fill:#FFFF00;">No Data</text>
				<text id="Trend1_EngUnits2" x="19.1860465116279" y="313" style="font-family:Arial;font-size:33;stroke:#FFFF00;fill:#FFFF00;">
				</text>
			</g>
			<svg id="Trend1_TraceGroup" height="1862" width="3494" style="font-family:Arial;font-size:33;stroke:#FFFFFF;fill:#FFFFFF;" x="6" y="41">
				<path id="Trend1_Plot0" style="font-family:Arial;font-size:33;stroke:#00FF00;fill:none;stroke-width:2;" d="M-29.1166666666667,94.5996392531441 L-19.4111111111111,94.5996392531441 L-9.70555555555556,94.5996392531441 L0,94.5996392531441 L9.70555555555556,94.5996392531441 L19.4111111111111,94.5996392531441 L29.1166666666667,94.5996392531441 L38.8222222222222,94.5996392531441 L48.5277777777778,94.5996392531441 L58.2333333333333,94.5996392531441 L67.9388888888889,94.5996392531441 L77.6444444444444,94.5996392531441 L87.35,94.5996392531441 L97.0555555555556,94.5996392531441 L106.761111111111,94.5996392531441 L116.466666666667,94.5996392531441 L126.172222222222,94.5996392531441 L135.877777777778,94.5996392531441 L145.583333333333,94.5996392531441 L155.288888888889,94.5996392531441 L164.994444444444,94.5996392531441 L174.7,94.5996392531441 L184.405555555556,94.5996392531441 L194.111111111111,94.5996392531441 L203.816666666667,94.5996392531441 L213.522222222222,94.5996392531441 L223.227777777778,94.5996392531441 L232.933333333333,94.5996392531441 L242.638888888889,94.5996392531441 L252.344444444444,94.5996392531441 L262.05,94.5996392531441 L271.755555555556,94.5996392531441 L281.461111111111,94.5996392531441 L291.166666666667,94.5996392531441 L300.872222222222,94.5996392531441 L310.577777777778,94.5996392531441 L320.283333333333,94.5996392531441 L329.988888888889,94.5996392531441 L339.694444444444,94.5996392531441 L349.4,94.5996392531441 L359.105555555556,94.5996392531441 L368.811111111111,94.5996392531441 L378.516666666667,94.5996392531441 L388.222222222222,94.5996392531441 L397.927777777778,94.5996392531441 L407.633333333333,94.5996392531441 L417.338888888889,94.5996392531441 L427.044444444444,94.5996392531441 L436.75,94.5996392531441 L446.455555555556,94.5996392531441 L456.161111111111,94.5996392531441 L465.866666666667,94.5996392531441 L475.572222222222,94.5996392531441 L485.277777777778,94.5996392531441 L494.983333333333,94.5996392531441 L504.688888888889,94.5996392531441 L514.394444444444,0 L524.1,74.5923050969151 L533.805555555556,226.216120639485 L543.511111111111,367.66974093585 L553.216666666667,356.943911874187 L562.922222222222,441.85160472857 L572.627777777778,659.373927564071 L582.333333333333,604.999376988752 L592.038888888889,852.616668214537 L601.744444444444,912.101834983332 L611.45,884.571801186468 L621.155555555555,977.434343443716 L630.861111111111,956.94438305754 L640.566666666667,1335.93974556626 L650.272222222222,1186.55637194073 L659.977777777778,1400.12565053401 L669.683333333333,1285.21085892745 L679.388888888889,1290.10699115029 L689.094444444444,1524.2130285759 L698.8,1471.8892352503 L708.505555555555,1466.79088337153 L718.211111111111,1550.22849068589 L727.916666666667,1505.24855033026 L737.622222222222,1556.09933027279 L747.327777777778,1582.33294461003 L757.033333333333,1851.60338371151 L766.738888888889,1530.63323624949 L776.444444444444,1590.1650486452 L786.15,1723.33735937288 L795.855555555556,1722.68801482456 L805.561111111111,1698.0476789205 L815.266666666667,1811.86101695992 L824.972222222222,1572.66072959179 L834.677777777778,1705.94167882524 L844.383333333333,1513.20285472248 L854.088888888889,1667.44210255511 L863.794444444444,1665.8138462533 L873.5,1636.16048753465 L883.205555555556,1589.66443144264 L892.911111111111,1593.09874411004 L902.616666666667,1576.03324736519 L912.322222222222,1304.31801611931 L922.027777777778,1277.66248614737 L931.733333333333,1339.10249494795 L941.438888888889,1215.50281707876 L951.144444444444,1263.15004140986 L960.85,1084.6182201278 L970.555555555555,1297.68606801608 L980.261111111111,1098.6111855843 L989.966666666667,882.635318909601 L999.672222222222,991.407421141353 L1009.37777777778,753.136223833085 L1019.08333333333,796.952386763826 L1028.78888888889,709.611252160505 L1038.49444444444,661.749387956275 L1048.2,505.08261100852 L1057.90555555556,420.41238995863 L1067.61111111111,281.595247049715 L1077.31666666667,310.331795133156 L1087.02222222222,77.7052338768557 L1096.72777777778,94.5996392531441 L1106.43333333333,94.5996392531441 L1116.13888888889,94.5996392531441 L1125.84444444444,94.5996392531441 L1135.55,94.5996392531441 L1145.25555555556,94.5996392531441 L1154.96111111111,94.5996392531441 L1164.66666666667,94.5996392531441 L1174.37222222222,94.5996392531441 L1184.07777777778,94.5996392531441 L1193.78333333333,94.5996392531441 L1203.48888888889,94.5996392531441 L1213.19444444444,94.5996392531441 L1222.9,94.5996392531441 L1232.60555555556,94.5996392531441 L1242.31111111111,94.5996392531441 L1252.01666666667,94.5996392531441 L1261.72222222222,94.5996392531441 L1271.42777777778,94.5996392531441 L1281.13333333333,94.5996392531441 L1290.83888888889,94.5996392531441 L1300.54444444444,94.5996392531441 L1310.25,94.5996392531441 L1319.95555555556,94.5996392531441 L1329.66111111111,94.5996392531441 L1339.36666666667,94.5996392531441 L1349.07222222222,94.5996392531441 L1358.77777777778,94.5996392531441 L1368.48333333333,94.5996392531441 L1378.18888888889,94.5996392531441 L1387.89444444444,94.5996392531441 L1397.6,94.5996392531441 L1407.30555555556,94.5996392531441 L1417.01111111111,94.5996392531441 L1426.71666666667,94.5996392531441 L1436.42222222222,94.5996392531441 L1446.12777777778,94.5996392531441 L1455.83333333333,94.5996392531441 L1465.53888888889,94.5996392531441 L1475.24444444444,94.5996392531441 L1484.95,94.5996392531441 L1494.65555555556,94.5996392531441 L1504.36111111111,94.5996392531441 L1514.06666666667,94.5996392531441 L1523.77222222222,94.5996392531441 L1533.47777777778,94.5996392531441 L1543.18333333333,94.5996392531441 L1552.88888888889,94.5996392531441 L1562.59444444444,94.5996392531441 L1572.3,94.5996392531441 L1582.00555555556,94.5996392531441 L1591.71111111111,94.5996392531441 L1601.41666666667,94.5996392531441 L1611.12222222222,94.5996392531441 L1620.82777777778,94.5996392531441 L1630.53333333333,94.5996392531441 L1640.23888888889,94.5996392531441 L1649.94444444444,94.5996392531441 L1659.65,94.5996392531441 L1669.35555555556,94.5996392531441 L1679.06111111111,228.721952002276 L1688.76666666667,174.032304147438 L1698.47222222222,206.903663114945 L1708.17777777778,260.468703562072 L1717.88333333333,367.476155009568 L1727.58888888889,533.348257278861 L1737.29444444444,615.975670314363 L1747,560.778886755992 L1756.70555555556,803.388791714982 L1766.41111111111,874.334257011956 L1776.11666666667,883.00386389585 L1785.82222222222,983.121800565075 L1795.52777777778,1129.13782049042 L1805.23333333333,975.030383690297 L1814.93888888889,1258.69564906097 L1824.64444444444,1219.81443352852 L1834.35,1365.27906103215 L1844.05555555556,1390.57511083652 L1853.76111111111,1371.83843120057 L1863.46666666667,1502.65688507732 L1873.17222222222,1542.62638011806 L1882.87777777778,1574.89921581443 L1892.58333333333,1591.84251865381 L1902.28888888889,1608.7245846698 L1911.99444444444,1730.66751633601 L1921.7,1816.43907786086 L1931.40555555556,1673.8910863457 L1941.11111111111,1839.52879847852 L1950.81666666667,1608.65259908834 L1960.52222222222,1750.5947774209 L1970.22777777778,1653.81405633068 L1979.93333333333,1747.03556730235 L1989.63888888889,1743.07802548504 L1999.34444444444,1649.46812949936 L2009.05,1862 L2018.75555555556,1633.73509915542 L2028.46111111111,1649.6038933153 L2038.16666666667,1650.43240337871 L2047.87222222222,1530.58518315162 L2057.57777777778,1468.83231220223 L2067.28333333333,1615.18114306628 L2076.98888888889,1355.88923892476 L2086.69444444444,1518.15163070217 L2096.4,1375.33958363972 L2106.10555555556,1226.84429217187 L2115.81111111111,1397.95378709874 L2125.51666666667,1297.93762025851 L2135.22222222222,1090.07527086625 L2144.92777777778,1154.45399799995 L2154.63333333333,828.160116094841 L2164.33888888889,869.967923878168 L2174.04444444444,821.371324206891 L2183.75,778.22763696667 L2193.45555555556,699.753490009533 L2203.16111111111,669.610929009822 L2212.86666666667,576.649963260431 L2222.57222222222,575.977442173687 L2232.27777777778,385.375489531036 L2241.98333333333,132.796172745699 L2251.68888888889,209.950008893653 L2261.39444444444,94.5996392531441 L2271.1,94.5996392531441 L2280.80555555556,94.5996392531441 L2290.51111111111,94.5996392531441 L2300.21666666667,94.5996392531441 L2309.92222222222,94.5996392531441 L2319.62777777778,94.5996392531441 L2329.33333333333,94.5996392531441 L2339.03888888889,94.5996392531441 L2348.74444444444,94.5996392531441 L2358.45,94.5996392531441 L2368.15555555556,94.5996392531441 L2377.86111111111,94.5996392531441 L2387.56666666667,94.5996392531441 L2397.27222222222,94.5996392531441 L2406.97777777778,94.5996392531441 L2416.68333333333,94.5996392531441 L2426.38888888889,94.5996392531441 L2436.09444444444,94.5996392531441 L2445.8,94.5996392531441 L2455.50555555556,94.5996392531441 L2465.21111111111,94.5996392531441 L2474.91666666667,94.5996392531441 L2484.62222222222,94.5996392531441 L2494.32777777778,94.5996392531441 L2504.03333333333,94.5996392531441 L2513.73888888889,94.5996392531441 L2523.44444444444,94.5996392531441 L2533.15,94.5996392531441 L2542.85555555556,94.5996392531441 L2552.56111111111,94.5996392531441 L2562.26666666667,94.5996392531441 L2571.97222222222,94.5996392531441 L2581.67777777778,94.5996392531441 L2591.38333333333,94.5996392531441 L2601.08888888889,94.5996392531441 L2610.79444444444,94.5996392531441 L2620.5,94.5996392531441 L2630.20555555556,94.5996392531441 L2639.91111111111,94.5996392531441 L2649.61666666667,94.5996392531441 L2659.32222222222,94.5996392531441 L2669.02777777778,94.5996392531441 L2678.73333333333,94.5996392531441 L2688.43888888889,94.5996392531441 L2698.14444444444,94.5996392531441 L2707.85,94.5996392531441 L2717.55555555556,94.5996392531441 L2727.26111111111,94.5996392531441 L2736.96666666667,94.5996392531441 L2746.67222222222,94.5996392531441 L2756.37777777778,94.5996392531441 L2766.08333333333,94.5996392531441 L2775.78888888889,94.5996392531441 L2785.49444444444,94.5996392531441 L2795.2,94.5996392531441 L2804.90555555556,94.5996392531441 L2814.61111111111,94.5996392531441 L2824.31666666667,94.5996392531441 L2834.02222222222,94.5996392531441 L2911.66666666667,94.5996392531441 " PBD:DatasetName="AF2_DS" PBD:DatasetColumn="\\JLEFEBVRENEW\JDIData\DataEven|Sensor">
				</path>
				<path id="Trend1_Plot1" style="font-family:Arial;font-size:33;stroke:#00FFFF;fill:none;stroke-width:2;" d="" PBD:DatasetName="AF2_DS" PBD:DatasetColumn="\\JLEFEBVRENEW\JDIData\DataEven|Sensor|HH">
				</path>
				<path id="Trend1_Plot2" style="font-family:Arial;font-size:33;stroke:#FFFF00;fill:none;stroke-width:2;" d="" PBD:DatasetName="AF2_DS" PBD:DatasetColumn="\\JLEFEBVRENEW\JDIData\DataEven|Sensor|LoLo">
				</path>
			</svg>
			<svg id="Trend1_MarkerGroup" height="1862" width="3494" style="" x="6" y="41">
				<circle id="Trend1_1" cx="679.888888888889" cy="1290.60699115029" r="8" style="stroke-width:2;stroke:#00FF00;fill:#00FF00;">
				</circle>
				<circle id="Trend1_1" cx="1398.1" cy="95.0996392531441" r="8" style="stroke-width:2;stroke:#00FF00;fill:#00FF00;">
				</circle>
				<circle id="Trend1_1" cx="2116.31111111111" cy="1398.45378709874" r="8" style="stroke-width:2;stroke:#00FF00;fill:#00FF00;">
				</circle>
			</svg>
			<g id="Trend1_YScaleTextGroup" style="font-family:Arial;font-size:33;stroke:#FFFFFF;fill:#FFFFFF;" transform="translate(8,41)">
				<text id="Max_0" x="2" y="33">0.05688</text>
				<text id="Min_0" x="2" y="1856">-1.06264</text>
				<text x="0" y="1763.06264550495">-1</text>
				<text x="0" y="1430.42014926509">-1</text>
				<text x="0" y="1097.77765302523">-1</text>
				<text x="0" y="765.135156785369">0</text>
				<text x="0" y="432.492660545509">0</text>
				<text x="0" y="99.8501643056494">0</text>
			</g>
		</svg>
	</g>
	<g id="Value1" fill="#FFFFFF" stroke="none" font-family="Arial" font-size="53.3333312140572" PB:DisplayPointName="9" PB:DisplayTimeStamp="3" PB:HorzAlign="0" PB:ShowUOM="False" PB:IsMultiState="False" PB:NumberFormat="General" PB:CanonicalNumberFormat="General" PB:TagInfoType="3" PBD:PtTagName="af2.\\jlefebvrenew\datastatistics\datastatistic|-3 sigma" PB:PtTagStatus="0" PB:PtTagTime="2016/04/28 9:04:08" PB:PtTagValue="No Data" PB:Type="7" PB:Visible="True" PB:Scripting="True">
		<rect id="Value1_pbTextBoundingRectEl" x="3695" y="298" width="810" height="53" fill="#C0C0C0" stroke-width="0">
		</rect>
		<text id="Value1_pbTextEl" x="4100" y="338" fill="#FFFFFF" stroke="none" font-family="Arial" font-size="53.3333312140572" text-anchor="middle" PBD:Property="timestamp">2016/04/28 9:04:08 <tspan PBD:Property="value">No Data</tspan>
		</text>
	</g>
	<g id="Trend2" PB:Type="10">
		<PB:TrendLogical id="Trend2_Logical" PB:ValueScalePosition="1" PB:BackgroundColor="8421504" PB:CurrentTrace="3" PB:DisplayScaleInside="True" PB:EnableScript="True" PB:Enabled="True" PB:EndTime="*+1m" PB:FillColor="16711680" PB:FontBold="False" PB:FontItalic="False" PB:FontName="Arial" PB:FontSize="10" PB:FontStrikethrough="False" PB:FontUnderline="False" PB:Height="1373" PB:IsMultiState="False" PB:Left="-14775" PB:LineColor="16777215" PB:MultipleScales="False" PB:Name="Trend2" PB:PlotTimeStyle="0" PB:Rotation="0" PB:ShowDescription="False" PB:ShowEngUnits="True" PB:ShowGrids="True" PB:ShowTagName="True" PB:ShowServerName="False" PB:ShowTitle="True" PB:ShowTraceMarkers="False" PB:ShowValue="True" PB:StartTime="*-2m" PB:Top="12381" PB:TraceCount="3" PB:TrendTitle="Plot-0" PB:Visible="True" PB:Width="4233">
			<PB:TraceElem id="PB:TraceElem_1" PB:ShowLinearRegression="False" PB:ScaleLogarithmic="False" PB:ScaleMax="Autorange" PB:ScaleMin="Autorange" PB:Trace="AF2.\\JLEFEBVRENEW\JDIData\DataShort|Sensor" PB:ScaleFormat="General" PB:DisplayDigits="-5" PB:CanonicalNumberFormat="General" PB:TagInfoType="1">
			</PB:TraceElem>
			<PB:TraceElem id="PB:TraceElem_2" PB:ShowLinearRegression="False" PB:ScaleLogarithmic="False" PB:ScaleMax="Autorange" PB:ScaleMin="Autorange" PB:Trace="AF2.\\JLEFEBVRENEW\JDIData\DataShort|Sensor|HH" PB:ScaleFormat="General" PB:DisplayDigits="-5" PB:CanonicalNumberFormat="General" PB:TagInfoType="1">
			</PB:TraceElem>
			<PB:TraceElem id="PB:TraceElem_3" PB:ShowLinearRegression="False" PB:ScaleLogarithmic="False" PB:ScaleMax="Autorange" PB:ScaleMin="Autorange" PB:Trace="AF2.\\JLEFEBVRENEW\JDIData\DataShort|Sensor|LoLo" PB:ScaleFormat="General" PB:DisplayDigits="-5" PB:CanonicalNumberFormat="General" PB:TagInfoType="1">
			</PB:TraceElem>
			<PB:Format id="PB:Format_1" PB:Name="Horz. Axis" PB:LineColor="0" PB:LineStyle="0" PB:LineWidth="1" PB:MarkerStyle="-1">
			</PB:Format>
			<PB:Format id="PB:Format_2" PB:Name="Background" PB:LineColor="8421504" PB:LineStyle="-1" PB:LineWidth="1" PB:MarkerStyle="-1">
			</PB:Format>
			<PB:Format id="PB:Format_3" PB:Name="Horz. Major Grid" PB:LineColor="0" PB:LineStyle="0" PB:LineWidth="1" PB:MarkerStyle="-1">
			</PB:Format>
			<PB:Format id="PB:Format_4" PB:Name="Horz. Minor Grid" PB:LineColor="0" PB:LineStyle="0" PB:LineWidth="1" PB:MarkerStyle="-1">
			</PB:Format>
			<PB:Format id="PB:Format_5" PB:Name="Pen 1" PB:LineColor="65280" PB:LineStyle="0" PB:LineWidth="1" PB:MarkerStyle="0">
			</PB:Format>
			<PB:Format id="PB:Format_6" PB:Name="Pen 2" PB:LineColor="16776960" PB:LineStyle="0" PB:LineWidth="1" PB:MarkerStyle="1">
			</PB:Format>
			<PB:Format id="PB:Format_7" PB:Name="Pen 3" PB:LineColor="65535" PB:LineStyle="0" PB:LineWidth="1" PB:MarkerStyle="2">
			</PB:Format>
			<PB:Format id="PB:Format_8" PB:Name="Pen 4" PB:LineColor="16711935" PB:LineStyle="0" PB:LineWidth="1" PB:MarkerStyle="3">
			</PB:Format>
			<PB:Format id="PB:Format_9" PB:Name="Pen 5" PB:LineColor="255" PB:LineStyle="0" PB:LineWidth="1" PB:MarkerStyle="4">
			</PB:Format>
			<PB:Format id="PB:Format_10" PB:Name="Pen 6" PB:LineColor="16777215" PB:LineStyle="0" PB:LineWidth="1" PB:MarkerStyle="5">
			</PB:Format>
			<PB:Format id="PB:Format_11" PB:Name="Pen 7" PB:LineColor="16711680" PB:LineStyle="0" PB:LineWidth="1" PB:MarkerStyle="6">
			</PB:Format>
			<PB:Format id="PB:Format_12" PB:Name="Pen 8" PB:LineColor="0" PB:LineStyle="0" PB:LineWidth="1" PB:MarkerStyle="7">
			</PB:Format>
			<PB:Format id="PB:Format_13" PB:Name="Pen 9" PB:LineColor="8388608" PB:LineStyle="0" PB:LineWidth="1" PB:MarkerStyle="8">
			</PB:Format>
			<PB:Format id="PB:Format_14" PB:Name="Pen 10" PB:LineColor="32768" PB:LineStyle="0" PB:LineWidth="1" PB:MarkerStyle="9">
			</PB:Format>
			<PB:Format id="PB:Format_15" PB:Name="Pen 11" PB:LineColor="8388736" PB:LineStyle="0" PB:LineWidth="1" PB:MarkerStyle="10">
			</PB:Format>
			<PB:Format id="PB:Format_16" PB:Name="Pen 12" PB:LineColor="8433626" PB:LineStyle="0" PB:LineWidth="1" PB:MarkerStyle="11">
			</PB:Format>
			<PB:Format id="PB:Format_17" PB:Name="Text" PB:LineColor="16777215" PB:LineStyle="-1" PB:LineWidth="1" PB:MarkerStyle="-1">
			</PB:Format>
			<PB:Format id="PB:Format_18" PB:Name="Vert. Axis" PB:LineColor="0" PB:LineStyle="0" PB:LineWidth="1" PB:MarkerStyle="-1">
			</PB:Format>
			<PB:Format id="PB:Format_19" PB:Name="Vert. Major Grid" PB:LineColor="0" PB:LineStyle="0" PB:LineWidth="1" PB:MarkerStyle="-1">
			</PB:Format>
			<PB:Format id="PB:Format_20" PB:Name="Vert. Minor Grid" PB:LineColor="0" PB:LineStyle="0" PB:LineWidth="1" PB:MarkerStyle="-1">
			</PB:Format>
		</PB:TrendLogical>
		<svg id="Trend2_Graphical" height="1373" width="4233" x="225" y="2619">
			<PB:RefreshData id="Trend2_RefreshData" PB:bEngUnits="True" PB:bLogarithmic="False" PB:bMarkers="False" PB:bTagname="True" PB:bValue="True" PB:fXUnits="18.627777777777777777777777778" PB:iGrdBegX="6" PB:iGrdBegY="41" PB:iGrdHght="1280" PB:iGrdWdth="3353" PB:iMinPerCol="30" PB:iNumTrcs="3" PB:iNumXCols="0" PB:bGrids="True" PB:Updateable="True" PB:iSnglLnHght="33" PB:iScaleWidth="0" PB:bOmitScaleText="False" PB:bOmitTimeText="False">
			</PB:RefreshData>
			<rect id="Trend2_Background" x="0" y="0" width="4233" height="1373" fill="#808080">
			</rect>
			<g id="Trend2_PlotTitleGroup" style="font-family:Arial;font-size:33;stroke:#FFFFFF;fill:#FFFFFF;">
				<text x="6" y="33" style="font-family:Arial;font-size:33;stroke:#FFFFFF;fill:#FFFFFF;">Plot-0</text>
			</g>
			<svg id="Trend2_AxesGroup" height="1280" width="3353" x="6" y="41">
				<rect id="Trend2_GridBackground" x="0" y="0" width="3353" height="1280" style="fill:#808080;stroke:none;">
				</rect>
				<polyline id="Trend2_VertAxis_1" style="stroke-width:3;fill:none;stroke:#000000;" points="0,0 0,1280">
				</polyline>
				<polyline id="Trend2_VertAxis_Last" style="stroke-width:3;fill:none;stroke:#000000;stroke-dasharray:10 10 10 10;" points="3353,0 3353,1280">
				</polyline>
				<polyline id="Trend2_HorizAxis" style="stroke-width:3;fill:none;stroke:#000000;" points="0,1280 3353,1280">
				</polyline>
			</svg>
			<svg id="Trend2_GridGroup" height="1280" width="3353" x="6" y="41">
				<path id="Trend2_HorizGridLine" style="stroke-width:2;stroke:#000000;" d="M428,0 L428,1280">
				</path>
				<path id="Trend2_HorizGridLine" style="stroke-width:2;stroke:#000000;" d="M987,0 L987,1280">
				</path>
				<path id="Trend2_HorizGridLine" style="stroke-width:2;stroke:#000000;" d="M1546,0 L1546,1280">
				</path>
				<path id="Trend2_HorizGridLine" style="stroke-width:2;stroke:#000000;" d="M2105,0 L2105,1280">
				</path>
				<path id="Trend2_HorizGridLine" style="stroke-width:2;stroke:#000000;" d="M2664,0 L2664,1280">
				</path>
				<path id="Trend2_HorizGridLine" style="stroke-width:2;stroke:#000000;" d="M3223,0 L3223,1280">
				</path>
				<path id="Trend2_VertGridLine" style="stroke-width:2;stroke:#000000" d="M0,1248.51 L3353,1248.51">
				</path>
				<path id="Trend2_VertGridLine" style="stroke-width:2;stroke:#000000" d="M0,1015.59 L3353,1015.59">
				</path>
				<path id="Trend2_VertGridLine" style="stroke-width:2;stroke:#000000" d="M0,782.67 L3353,782.67">
				</path>
				<path id="Trend2_VertGridLine" style="stroke-width:2;stroke:#000000" d="M0,549.75 L3353,549.75">
				</path>
				<path id="Trend2_VertGridLine" style="stroke-width:2;stroke:#000000" d="M0,316.83 L3353,316.83">
				</path>
				<path id="Trend2_VertGridLine" style="stroke-width:2;stroke:#000000" d="M0,83.91 L3353,83.91">
				</path>
				<path id="Trend2_VertGridLine" style="stroke-width:2;stroke:#000000" d="M0,0 L3353,0">
				</path>
			</svg>
			<g id="Trend2_XScaleTextGroup" style="font-family:Arial;font-size:33;stroke:#FFFFFF;fill:#FFFFFF;">
				<text id="Trend2_XScaleTextBegin" x="6" y="1356" style="font-family:Arial;font-size:33;stroke:#FFFFFF;fill:#FFFFFF;">2016/04/28 9:02:07</text>
				<text id="Trend2_XScaleTextSpan" x="1532" y="1356" style="font-family:Arial;font-size:33;stroke:#FFFFFF;fill:#FFFFFF;">180.00 seconds</text>
				<text id="Trend2_XScaleTextEnd" x="2996" y="1356" style="font-family:Arial;font-size:33;stroke:#FFFFFF;fill:#FFFFFF;">2016/04/28 9:05:07</text>
			</g>
			<g id="Trend2_TagNameGroup" transform="translate(3385,43)">
				<circle id="Trend2_0" cx="0.5" cy="17" r="8" style="stroke-width:2;stroke:#00FF00;fill:#00FF00;">
				</circle>
				<text id="Trend2_TagName0" x="19.1860465116279" y="33" style="font-family:Arial;font-size:33;stroke:#00FF00;fill:#00FF00;">DataShort.Sensor</text>
				<text id="Trend2_TagValue0" x="19.1860465116279" y="68" style="font-family:Arial;font-size:33;stroke:#00FF00;fill:#00FF00;">0</text>
				<text id="Trend2_EngUnits0" x="19.1860465116279" y="103" style="font-family:Arial;font-size:33;stroke:#00FF00;fill:#00FF00;">
				</text>
				<circle id="Trend2_1" cx="0.5" cy="122" r="8" style="stroke-width:2;stroke:#00FFFF;fill:none;">
				</circle>
				<text id="Trend2_TagName1" x="19.1860465116279" y="138" style="font-family:Arial;font-size:33;stroke:#00FFFF;fill:#00FFFF;">OSIDemo_DataShort.HH</text>
				<text id="Trend2_TagValue1" x="19.1860465116279" y="173" style="font-family:Arial;font-size:33;stroke:#00FFFF;fill:#00FFFF;">No Data</text>
				<text id="Trend2_EngUnits1" x="19.1860465116279" y="208" style="font-family:Arial;font-size:33;stroke:#00FFFF;fill:#00FFFF;">
				</text>
				<polygon id="Trend2_2" points="-5.5,221 6.5,221 6.5,233 -5.5,233 -5.5,221" style="stroke-width:2;stroke:#FFFF00;fill:#FFFF00;" transform="rotate(45,0.5,227) ">
				</polygon>
				<text id="Trend2_TagName2" x="19.1860465116279" y="243" style="font-family:Arial;font-size:33;stroke:#FFFF00;fill:#FFFF00;">OSIDemo_DataShort.LoLo</text>
				<text id="Trend2_TagValue2" x="19.1860465116279" y="278" style="font-family:Arial;font-size:33;stroke:#FFFF00;fill:#FFFF00;">No Data</text>
				<text id="Trend2_EngUnits2" x="19.1860465116279" y="313" style="font-family:Arial;font-size:33;stroke:#FFFF00;fill:#FFFF00;">
				</text>
			</g>
			<svg id="Trend2_TraceGroup" height="1280" width="3353" style="font-family:Arial;font-size:33;stroke:#FFFFFF;fill:#FFFFFF;" x="6" y="41">
				<path id="Trend2_Plot0" style="font-family:Arial;font-size:33;stroke:#00FF00;fill:none;stroke-width:2;" d="M-55.8833333333333,667.591153249009 L-37.2555555555556,746.194477321596 L-18.6277777777778,581.227769135919 L0,394.439724098021 L18.6277777777778,357.913968759914 L37.2555555555556,150.252295494754 L55.8833333333333,225.173512745699 L74.5111111111111,204.333886985555 L93.1388888888889,174.938295195779 L111.766666666667,156.448986148948 L130.394444444444,155.943211190988 L149.022222222222,84.7548728384985 L167.65,0 L186.277777777778,119.774751111843 L204.905555555556,111.775966976004 L223.533333333333,218.885454724589 L242.161111111111,313.962357264613 L260.788888888889,368.276301759878 L279.416666666667,410.312994000632 L298.044444444444,387.139503476127 L316.672222222222,455.533830694591 L335.3,589.822501592377 L353.927777777778,719.967709475068 L372.555555555556,880.488705806657 L391.183333333333,994.729008494829 L409.811111111111,1150.12852094306 L428.438888888889,1280 L447.066666666667,1248.5071405791 L465.694444444444,1248.5071405791 L484.322222222222,1248.5071405791 L502.95,1248.5071405791 L521.577777777778,1248.5071405791 L540.205555555556,1248.5071405791 L558.833333333333,1248.5071405791 L577.461111111111,1248.5071405791 L596.088888888889,1248.5071405791 L614.716666666667,1248.5071405791 L633.344444444444,1248.5071405791 L651.972222222222,1248.5071405791 L670.6,1248.5071405791 L689.227777777778,1248.5071405791 L707.855555555556,1248.5071405791 L726.483333333333,1248.5071405791 L745.111111111111,1248.5071405791 L763.738888888889,1248.5071405791 L782.366666666667,1248.5071405791 L800.994444444444,1248.5071405791 L819.622222222222,1248.5071405791 L838.25,1248.5071405791 L856.877777777778,1248.5071405791 L875.505555555555,1248.5071405791 L894.133333333333,1248.5071405791 L912.761111111111,1248.5071405791 L931.388888888889,1248.5071405791 L950.016666666667,1248.5071405791 L968.644444444444,1248.5071405791 L987.272222222222,1250.05224099991 L1005.9,1139.1124440399 L1024.52777777778,997.1389912167 L1043.15555555556,878.106817819112 L1061.78333333333,772.11880389948 L1080.41111111111,670.093268847945 L1099.03888888889,661.243674567446 L1117.66666666667,423.157892950786 L1136.29444444444,364.020846342099 L1154.92222222222,323.756424413772 L1173.55,335.908644042217 L1192.17777777778,167.759665711924 L1210.80555555556,183.414917554016 L1229.43333333333,123.755362996758 L1248.06111111111,26.6024083709335 L1266.68888888889,79.9239142165836 L1285.31666666667,157.781764156193 L1303.94444444444,68.2593044673174 L1322.57222222222,44.7433459551266 L1341.2,74.0579763534305 L1359.82777777778,128.732550319404 L1378.45555555556,345.57801944731 L1397.08333333333,420.630670922543 L1415.71111111111,394.278485116727 L1434.33888888889,501.597383285845 L1452.96666666667,677.465022965094 L1471.59444444444,813.869165407186 L1490.22222222222,844.391553602365 L1508.85,1065.78747494641 L1527.47777777778,1110.53253731137 L1546.10555555556,1184.01479777689 L1564.73333333333,1248.5071405791 L1583.36111111111,1248.5071405791 L1601.98888888889,1248.5071405791 L1620.61666666667,1248.5071405791 L1639.24444444444,1248.5071405791 L1657.87222222222,1248.5071405791 L1676.5,1248.5071405791 L1695.12777777778,1248.5071405791 L1713.75555555556,1248.5071405791 L1732.38333333333,1248.5071405791 L1751.01111111111,1248.5071405791 L1769.63888888889,1248.5071405791 L1788.26666666667,1248.5071405791 L1806.89444444444,1248.5071405791 L1825.52222222222,1248.5071405791 L1844.15,1248.5071405791 L1862.77777777778,1248.5071405791 L1881.40555555556,1248.5071405791 L1900.03333333333,1248.5071405791 L1918.66111111111,1248.5071405791 L1937.28888888889,1248.5071405791 L1955.91666666667,1248.5071405791 L1974.54444444444,1248.5071405791 L1993.17222222222,1248.5071405791 L2011.8,1248.5071405791 L2030.42777777778,1248.5071405791 L2049.05555555556,1248.5071405791 L2067.68333333333,1248.5071405791 L2086.31111111111,1248.5071405791 L2235.33333333333,1248.5071405791 " PBD:DatasetName="AF2_DS" PBD:DatasetColumn="\\JLEFEBVRENEW\JDIData\DataShort|Sensor">
				</path>
				<path id="Trend2_Plot1" style="font-family:Arial;font-size:33;stroke:#00FFFF;fill:none;stroke-width:2;" d="" PBD:DatasetName="AF2_DS" PBD:DatasetColumn="\\JLEFEBVRENEW\JDIData\DataShort|Sensor|HH">
				</path>
				<path id="Trend2_Plot2" style="font-family:Arial;font-size:33;stroke:#FFFF00;fill:none;stroke-width:2;" d="" PBD:DatasetName="AF2_DS" PBD:DatasetColumn="\\JLEFEBVRENEW\JDIData\DataShort|Sensor|LoLo">
				</path>
			</svg>
			<svg id="Trend2_MarkerGroup" height="1280" width="3353" style="" x="6" y="41">
				<circle id="Trend2_1" cx="466.194444444444" cy="1249.0071405791" r="8" style="stroke-width:2;stroke:#00FF00;fill:#00FF00;">
				</circle>
				<circle id="Trend2_1" cx="1006.4" cy="1139.6124440399" r="8" style="stroke-width:2;stroke:#00FF00;fill:#00FF00;">
				</circle>
				<circle id="Trend2_1" cx="1546.60555555556" cy="1184.51479777689" r="8" style="stroke-width:2;stroke:#00FF00;fill:#00FF00;">
				</circle>
			</svg>
			<g id="Trend2_YScaleTextGroup" style="font-family:Arial;font-size:33;stroke:#FFFFFF;fill:#FFFFFF;" transform="translate(8,41)">
				<text id="Max_0" x="2" y="33">1.07205</text>
				<text id="Min_0" x="2" y="1274">-0.02704</text>
				<text x="0" y="1020.83903415349">0.2</text>
				<text x="0" y="787.920402675366">0.4</text>
				<text x="0" y="555.001771197246">0.6</text>
				<text x="0" y="322.083139719125">0.8</text>
				<text x="0" y="89.1645082410044">1</text>
			</g>
		</svg>
	</g>
	<script language="JavaScript" type="text/javascript"> 
        
        function SVG_doc_loaded(evt)
	{
	    var parentDoc = evt.getTarget().getOwnerDocument();
	    var elem = parentDoc.createElement("Ready");
	    evt.getTarget().appendChild(elem);

        }</script>
</svg>
