<?xml version="1.0" encoding="UTF-8"?>
<svg height="100%" viewBox="0 121 6281 2748" width="100%" fill="#C0C0C0" image-rendering="optimizeSpeed" onload="SVG_doc_loaded(evt);" PB:pid="" xlink:xid="" xmlns:svg="OSI_SVG_20090601" xmlns:xlink="http://www.w3.org/1999/xlink" xmlns:PB="urn:osisoft-com-pb" xmlns:PBI="urn:osisoft-com-interface" xmlns:PBD="urn:osisoft-com-data" xmlns:xsi="http://www.w3.org/1999/XMLSchema/instance">
	<defs><PBD:DataSetUses tag="AF2_DS.\\JLEFEBVRENEW\DataStatistics\DataStatistic|+3 sigma" PB:Parent="AF2_DS" PB:BO="PWSPIDataSetsBO.CBODataSets">
			<PBI:Symbol name="Trend1_Plot1" PB:Type="10" PB:Parent="Trend1">
			</PBI:Symbol>
		</PBD:DataSetUses><PBD:DataSetUses tag="AF2_DS.\\JLEFEBVRENEW\DataStatistics\DataStatistic|-3 sigma" PB:Parent="AF2_DS" PB:BO="PWSPIDataSetsBO.CBODataSets">
			<PBI:Symbol name="Trend1_Plot0" PB:Type="10" PB:Parent="Trend1">
			</PBI:Symbol>
		</PBD:DataSetUses><PBD:DataSetUses tag="AF2_DS.\\JLEFEBVRENEW\DataStatistics\DataStatistic|Mean" PB:Parent="AF2_DS" PB:BO="PWSPIDataSetsBO.CBODataSets">
			<PBI:Symbol name="Trend1_Plot2" PB:Type="10" PB:Parent="Trend1">
			</PBI:Symbol>
		</PBD:DataSetUses><PBD:DataSetUses tag="AF2_DS.\\JLEFEBVRENEW\DataStatistics\DataStatistic|Sensor" PB:Parent="AF2_DS" PB:BO="PWSPIDataSetsBO.CBODataSets">
			<PBI:Symbol name="Trend1_Plot3" PB:Type="10" PB:Parent="Trend1">
			</PBI:Symbol>
		</PBD:DataSetUses>
	</defs>
	<rect x="0" y="0" width="6281" height="2869" PB:DocMajorVersionNum="3" PB:DocMinorVersionNum="26" PB:DocGroup="1" PB:wnHeight="890" PB:wnWidth="1936" PB:wnState="2" PB:Zoom="80" PB:LocalID="1041" PB:DisplayServerTimeZone="True" PB:Type="55" PB:NamedValues="AFDisplayBuilder.Upgraded,1">
	</rect>
	<PB:Dataset id="AF2_DS" PB:Type="57" PB:Context="2" PB:Description="" PB:RefreshInterval="10000" PB:Stepped="False" PB:DSType="3" PB:DSVisible="True">
		<PB:DSDatapoint id="\\JLEFEBVRENEW\DataStatistics\DataStatistic|-3 sigma_DP"/>
		<PB:DSDatapoint id="\\JLEFEBVRENEW\DataStatistics\DataStatistic|+3 sigma_DP"/>
		<PB:DSDatapoint id="\\JLEFEBVRENEW\DataStatistics\DataStatistic|Mean_DP"/>
		<PB:DSDatapoint id="\\JLEFEBVRENEW\DataStatistics\DataStatistic|Sensor_DP"/>
	</PB:Dataset>
	<PB:Dataset id="E_DS_DS" PB:Type="57" PB:Context="2" PB:Description="" PB:RefreshInterval="5000" PB:Stepped="False" PB:DSType="3" PB:DSVisible="False">
	</PB:Dataset>
	<PB:Dataset id="MODULEDB_DS" PB:Type="57" PB:Context="2" PB:Description="" PB:RefreshInterval="5000" PB:Stepped="False" PB:DSType="3" PB:DSVisible="False">
	</PB:Dataset>
	<g id="Trend1" PB:Type="10">
		<PB:TrendLogical id="Trend1_Logical" PB:ValueScalePosition="1" PB:BackgroundColor="8421504" PB:CurrentTrace="4" PB:DisplayScaleInside="True" PB:EnableScript="True" PB:Enabled="True" PB:EndTime="*+2M" PB:FillColor="16711680" PB:FontBold="False" PB:FontItalic="False" PB:FontName="Arial" PB:FontSize="10" PB:FontStrikethrough="False" PB:FontUnderline="False" PB:Height="1954" PB:IsMultiState="False" PB:Left="-14967" PB:LineColor="16777215" PB:MultipleScales="False" PB:Name="Trend1" PB:PlotTimeStyle="0" PB:Rotation="0" PB:ShowDescription="False" PB:ShowEngUnits="True" PB:ShowGrids="True" PB:ShowTagName="True" PB:ShowServerName="False" PB:ShowTitle="True" PB:ShowTraceMarkers="False" PB:ShowValue="True" PB:StartTime="*-1m" PB:Top="14948" PB:TraceCount="4" PB:TrendTitle="Plot-0" PB:Visible="True" PB:Width="4369">
			<PB:TraceElem id="PB:TraceElem_1" PB:ShowLinearRegression="False" PB:ScaleLogarithmic="False" PB:ScaleMax="Autorange" PB:ScaleMin="Autorange" PB:Trace="AF2.\\JLEFEBVRENEW\DataStatistics\DataStatistic|-3 sigma" PB:ScaleFormat="General" PB:DisplayDigits="2" PB:CanonicalNumberFormat="General" PB:TagInfoType="1">
			</PB:TraceElem>
			<PB:TraceElem id="PB:TraceElem_2" PB:ShowLinearRegression="False" PB:ScaleLogarithmic="False" PB:ScaleMax="Autorange" PB:ScaleMin="Autorange" PB:Trace="AF2.\\JLEFEBVRENEW\DataStatistics\DataStatistic|+3 sigma" PB:ScaleFormat="General" PB:DisplayDigits="2" PB:CanonicalNumberFormat="General" PB:TagInfoType="1">
			</PB:TraceElem>
			<PB:TraceElem id="PB:TraceElem_3" PB:ShowLinearRegression="False" PB:ScaleLogarithmic="False" PB:ScaleMax="Autorange" PB:ScaleMin="Autorange" PB:Trace="AF2.\\JLEFEBVRENEW\DataStatistics\DataStatistic|Mean" PB:ScaleFormat="General" PB:DisplayDigits="-5" PB:CanonicalNumberFormat="General" PB:TagInfoType="1">
			</PB:TraceElem>
			<PB:TraceElem id="PB:TraceElem_4" PB:ShowLinearRegression="False" PB:ScaleLogarithmic="False" PB:ScaleMax="Autorange" PB:ScaleMin="Autorange" PB:Trace="AF2.\\JLEFEBVRENEW\DataStatistics\DataStatistic|Sensor" PB:ScaleFormat="General" PB:DisplayDigits="-5" PB:CanonicalNumberFormat="General" PB:TagInfoType="1">
			</PB:TraceElem>
			<PB:Format id="PB:Format_1" PB:Name="Horz. Axis" PB:LineColor="0" PB:LineStyle="0" PB:LineWidth="1" PB:MarkerStyle="-1">
			</PB:Format>
			<PB:Format id="PB:Format_2" PB:Name="Background" PB:LineColor="8421504" PB:LineStyle="-1" PB:LineWidth="1" PB:MarkerStyle="-1">
			</PB:Format>
			<PB:Format id="PB:Format_3" PB:Name="Horz. Major Grid" PB:LineColor="0" PB:LineStyle="0" PB:LineWidth="1" PB:MarkerStyle="-1">
			</PB:Format>
			<PB:Format id="PB:Format_4" PB:Name="Horz. Minor Grid" PB:LineColor="0" PB:LineStyle="0" PB:LineWidth="1" PB:MarkerStyle="-1">
			</PB:Format>
			<PB:Format id="PB:Format_5" PB:Name="Pen 1" PB:LineColor="65280" PB:LineStyle="0" PB:LineWidth="1" PB:MarkerStyle="0">
			</PB:Format>
			<PB:Format id="PB:Format_6" PB:Name="Pen 2" PB:LineColor="16776960" PB:LineStyle="0" PB:LineWidth="1" PB:MarkerStyle="1">
			</PB:Format>
			<PB:Format id="PB:Format_7" PB:Name="Pen 3" PB:LineColor="65535" PB:LineStyle="0" PB:LineWidth="1" PB:MarkerStyle="2">
			</PB:Format>
			<PB:Format id="PB:Format_8" PB:Name="Pen 4" PB:LineColor="16711935" PB:LineStyle="0" PB:LineWidth="1" PB:MarkerStyle="3">
			</PB:Format>
			<PB:Format id="PB:Format_9" PB:Name="Pen 5" PB:LineColor="255" PB:LineStyle="0" PB:LineWidth="1" PB:MarkerStyle="4">
			</PB:Format>
			<PB:Format id="PB:Format_10" PB:Name="Pen 6" PB:LineColor="16777215" PB:LineStyle="0" PB:LineWidth="1" PB:MarkerStyle="5">
			</PB:Format>
			<PB:Format id="PB:Format_11" PB:Name="Pen 7" PB:LineColor="16711680" PB:LineStyle="0" PB:LineWidth="1" PB:MarkerStyle="6">
			</PB:Format>
			<PB:Format id="PB:Format_12" PB:Name="Pen 8" PB:LineColor="0" PB:LineStyle="0" PB:LineWidth="1" PB:MarkerStyle="7">
			</PB:Format>
			<PB:Format id="PB:Format_13" PB:Name="Pen 9" PB:LineColor="8388608" PB:LineStyle="0" PB:LineWidth="1" PB:MarkerStyle="8">
			</PB:Format>
			<PB:Format id="PB:Format_14" PB:Name="Pen 10" PB:LineColor="32768" PB:LineStyle="0" PB:LineWidth="1" PB:MarkerStyle="9">
			</PB:Format>
			<PB:Format id="PB:Format_15" PB:Name="Pen 11" PB:LineColor="8388736" PB:LineStyle="0" PB:LineWidth="1" PB:MarkerStyle="10">
			</PB:Format>
			<PB:Format id="PB:Format_16" PB:Name="Pen 12" PB:LineColor="8433626" PB:LineStyle="0" PB:LineWidth="1" PB:MarkerStyle="11">
			</PB:Format>
			<PB:Format id="PB:Format_17" PB:Name="Text" PB:LineColor="16777215" PB:LineStyle="-1" PB:LineWidth="1" PB:MarkerStyle="-1">
			</PB:Format>
			<PB:Format id="PB:Format_18" PB:Name="Vert. Axis" PB:LineColor="0" PB:LineStyle="0" PB:LineWidth="1" PB:MarkerStyle="-1">
			</PB:Format>
			<PB:Format id="PB:Format_19" PB:Name="Vert. Major Grid" PB:LineColor="0" PB:LineStyle="0" PB:LineWidth="1" PB:MarkerStyle="-1">
			</PB:Format>
			<PB:Format id="PB:Format_20" PB:Name="Vert. Minor Grid" PB:LineColor="0" PB:LineStyle="0" PB:LineWidth="1" PB:MarkerStyle="-1">
			</PB:Format>
		</PB:TrendLogical>
		<svg id="Trend1_Graphical" height="1954" width="4369" x="33" y="52">
			<PB:RefreshData id="Trend1_RefreshData" PB:bEngUnits="True" PB:bLogarithmic="False" PB:bMarkers="False" PB:bTagname="True" PB:bValue="True" PB:fXUnits="17.911111111111111111111111111" PB:iGrdBegX="6" PB:iGrdBegY="41" PB:iGrdHght="1862" PB:iGrdWdth="3224" PB:iMinPerCol="30" PB:iNumTrcs="4" PB:iNumXCols="0" PB:bGrids="True" PB:Updateable="True" PB:iSnglLnHght="33" PB:iScaleWidth="0" PB:bOmitScaleText="False" PB:bOmitTimeText="False">
			</PB:RefreshData>
			<rect id="Trend1_Background" x="0" y="0" width="4369" height="1954" fill="#808080">
			</rect>
			<g id="Trend1_PlotTitleGroup" style="font-family:Arial;font-size:33;stroke:#FFFFFF;fill:#FFFFFF;">
				<text x="6" y="33" style="font-family:Arial;font-size:33;stroke:#FFFFFF;fill:#FFFFFF;">Plot-0</text>
			</g>
			<svg id="Trend1_AxesGroup" height="1862" width="3224" x="6" y="41">
				<rect id="Trend1_GridBackground" x="0" y="0" width="3224" height="1862" style="fill:#808080;stroke:none;">
				</rect>
				<polyline id="Trend1_VertAxis_1" style="stroke-width:3;fill:none;stroke:#000000;" points="0,0 0,1862">
				</polyline>
				<polyline id="Trend1_VertAxis_Last" style="stroke-width:3;fill:none;stroke:#000000;stroke-dasharray:10 10 10 10;" points="3224,0 3224,1862">
				</polyline>
				<polyline id="Trend1_HorizAxis" style="stroke-width:3;fill:none;stroke:#000000;" points="0,1862 3224,1862">
				</polyline>
			</svg>
			<svg id="Trend1_GridGroup" height="1862" width="3224" x="6" y="41">
				<path id="Trend1_HorizGridLine" style="stroke-width:2;stroke:#000000;" d="M394,0 L394,1862">
				</path>
				<path id="Trend1_HorizGridLine" style="stroke-width:2;stroke:#000000;" d="M931,0 L931,1862">
				</path>
				<path id="Trend1_HorizGridLine" style="stroke-width:2;stroke:#000000;" d="M1469,0 L1469,1862">
				</path>
				<path id="Trend1_HorizGridLine" style="stroke-width:2;stroke:#000000;" d="M2006,0 L2006,1862">
				</path>
				<path id="Trend1_HorizGridLine" style="stroke-width:2;stroke:#000000;" d="M2543,0 L2543,1862">
				</path>
				<path id="Trend1_HorizGridLine" style="stroke-width:2;stroke:#000000;" d="M3081,0 L3081,1862">
				</path>
				<path id="Trend1_VertGridLine" style="stroke-width:2;stroke:#000000" d="M0,1929.76 L3224,1929.76">
				</path>
				<path id="Trend1_VertGridLine" style="stroke-width:2;stroke:#000000" d="M0,1644.5 L3224,1644.5">
				</path>
				<path id="Trend1_VertGridLine" style="stroke-width:2;stroke:#000000" d="M0,1359.23 L3224,1359.23">
				</path>
				<path id="Trend1_VertGridLine" style="stroke-width:2;stroke:#000000" d="M0,1073.97 L3224,1073.97">
				</path>
				<path id="Trend1_VertGridLine" style="stroke-width:2;stroke:#000000" d="M0,788.71 L3224,788.71">
				</path>
				<path id="Trend1_VertGridLine" style="stroke-width:2;stroke:#000000" d="M0,503.44 L3224,503.44">
				</path>
				<path id="Trend1_VertGridLine" style="stroke-width:2;stroke:#000000" d="M0,218.18 L3224,218.18">
				</path>
				<path id="Trend1_VertGridLine" style="stroke-width:2;stroke:#000000" d="M0,0 L3224,0">
				</path>
			</svg>
			<g id="Trend1_XScaleTextGroup" style="font-family:Arial;font-size:33;stroke:#FFFFFF;fill:#FFFFFF;">
				<text id="Trend1_XScaleTextBegin" x="6" y="1938" style="font-family:Arial;font-size:33;stroke:#FFFFFF;fill:#FFFFFF;">2016/03/08 15:34:08</text>
				<text id="Trend1_XScaleTextSpan" x="1468" y="1938" style="font-family:Arial;font-size:33;stroke:#FFFFFF;fill:#FFFFFF;">180.00 seconds</text>
				<text id="Trend1_XScaleTextEnd" x="2845" y="1938" style="font-family:Arial;font-size:33;stroke:#FFFFFF;fill:#FFFFFF;">2016/03/08 15:37:08</text>
			</g>
			<g id="Trend1_TagNameGroup" transform="translate(3256,43)">
				<circle id="Trend1_0" cx="0.5" cy="17" r="8" style="stroke-width:2;stroke:#00FF00;fill:#00FF00;">
				</circle>
				<text id="Trend1_TagName0" x="19.1860465116279" y="33" style="font-family:Arial;font-size:33;stroke:#00FF00;fill:#00FF00;">AF2.\\JLEFEBVRENEW\DataStatistics\DataStatistic|-3 sigma</text>
				<text id="Trend1_TagValue0" x="19.1860465116279" y="68" style="font-family:Arial;font-size:33;stroke:#00FF00;fill:#00FF00;">-0.15249</text>
				<text id="Trend1_EngUnits0" x="19.1860465116279" y="103" style="font-family:Arial;font-size:33;stroke:#00FF00;fill:#00FF00;">
				</text>
				<circle id="Trend1_1" cx="0.5" cy="122" r="8" style="stroke-width:2;stroke:#00FFFF;fill:none;">
				</circle>
				<text id="Trend1_TagName1" x="19.1860465116279" y="138" style="font-family:Arial;font-size:33;stroke:#00FFFF;fill:#00FFFF;">AF2.\\JLEFEBVRENEW\DataStatistics\DataStatistic|+3 sigma</text>
				<text id="Trend1_TagValue1" x="19.1860465116279" y="173" style="font-family:Arial;font-size:33;stroke:#00FFFF;fill:#00FFFF;">0.16609</text>
				<text id="Trend1_EngUnits1" x="19.1860465116279" y="208" style="font-family:Arial;font-size:33;stroke:#00FFFF;fill:#00FFFF;">
				</text>
				<polygon id="Trend1_2" points="-5.5,221 6.5,221 6.5,233 -5.5,233 -5.5,221" style="stroke-width:2;stroke:#FFFF00;fill:#FFFF00;" transform="rotate(45,0.5,227) ">
				</polygon>
				<text id="Trend1_TagName2" x="19.1860465116279" y="243" style="font-family:Arial;font-size:33;stroke:#FFFF00;fill:#FFFF00;">OSIDEMO_DataStatistic.Mean</text>
				<text id="Trend1_TagValue2" x="19.1860465116279" y="278" style="font-family:Arial;font-size:33;stroke:#FFFF00;fill:#FFFF00;">0.0068</text>
				<text id="Trend1_EngUnits2" x="19.1860465116279" y="313" style="font-family:Arial;font-size:33;stroke:#FFFF00;fill:#FFFF00;">
				</text>
				<polygon id="Trend1_3" points="-5.5,326 6.5,326 6.5,338 -5.5,338 -5.5,326" style="stroke-width:2;stroke:#FF00FF;fill:none;" transform="rotate(45,0.5,332) ">
				</polygon>
				<text id="Trend1_TagName3" x="19.1860465116279" y="348" style="font-family:Arial;font-size:33;stroke:#FF00FF;fill:#FF00FF;">DataGeneration.Sensor</text>
				<text id="Trend1_TagValue3" x="19.1860465116279" y="383" style="font-family:Arial;font-size:33;stroke:#FF00FF;fill:#FF00FF;">0.05004</text>
				<text id="Trend1_EngUnits3" x="19.1860465116279" y="418" style="font-family:Arial;font-size:33;stroke:#FF00FF;fill:#FF00FF;">
				</text>
			</g>
			<svg id="Trend1_TraceGroup" height="1862" width="3224" style="font-family:Arial;font-size:33;stroke:#FFFFFF;fill:#FFFFFF;" x="6" y="41">
				<path id="Trend1_Plot0" style="font-family:Arial;font-size:33;stroke:#00FF00;fill:none;stroke-width:2;" d="M-17.9111111111111,1405.93836583372 L0,1315.77839944658 L17.9111111111111,1279.36777866458 L35.8222222222222,1199.19288158477 L53.7333333333333,1131.55230724238 L71.6444444444444,1059.90312340995 L89.5555555555556,1009.52689749362 L107.466666666667,951.16010491279 L125.377777777778,918.749908567349 L143.288888888889,832.86307873123 L161.2,784.123175962269 L179.111111111111,734.852589930637 L197.022222222222,704.3418755899 L214.933333333333,629.744176138203 L232.844444444444,609.592660790035 L250.755555555556,588.506156592233 L268.666666666667,544.71928041273 L286.577777777778,512.36992070343 L304.488888888889,507.555903597544 L322.4,480.838951300369 L340.311111111111,435.512394092601 L358.222222222222,413.186379735978 L376.133333333333,435.126181954078 L394.044444444444,410.055757325738 L411.955555555556,424.57525527354 L429.866666666667,440.581328439508 L447.777777777778,447.703688604415 L465.688888888889,446.814039803554 L483.6,442.436239387179 L501.511111111111,488.79772885285 L519.422222222222,518.742409858973 L537.333333333333,584.948493148518 L555.244444444444,579.831860844652 L573.155555555556,611.345863495757 L591.066666666667,634.541884780793 L608.977777777778,699.759073307136 L626.888888888889,734.788220894256 L644.8,801.923516400411 L662.711111111111,851.09649402854 L680.622222222222,879.544143359074 L698.533333333333,953.614920094981 L716.444444444444,1047.88858919954 L734.355555555556,1050.83467002525 L752.266666666667,1119.54555098955 L770.177777777778,1176.1086163898 L788.088888888889,1281.58640861822 L806,1325.42154891531 L823.911111111111,1406.38510263273 L841.822222222222,1464.8164330937 L859.733333333333,1579.71227581096 L877.644444444444,1626.09799086078 L895.555555555556,1710.66940252009 L913.466666666667,1794.8212925944 L931.377777777778,1862 L949.288888888889,1850.18559761068 L967.2,1754.86708647547 L985.111111111111,1710.54438526026 L1003.02222222222,1632.04564308893 L1020.93333333333,1566.31811796867 L1038.84444444444,1503.37035663475 L1056.75555555556,1405.93836583372 L1074.66666666667,1315.77839944658 L1092.57777777778,1279.36777866458 L1110.48888888889,1199.19288158477 L1128.4,1131.55230724238 L1146.31111111111,1059.90312340995 L1164.22222222222,1009.52689749362 L1182.13333333333,951.16010491279 L1200.04444444444,918.749908567349 L1217.95555555556,832.86307873123 L1235.86666666667,784.123175962269 L1253.77777777778,734.852589930637 L1271.68888888889,704.3418755899 L1289.6,629.744176138203 L1307.51111111111,609.592660790035 L1325.42222222222,588.506156592233 L1343.33333333333,544.71928041273 L1361.24444444444,512.36992070343 L1379.15555555556,507.555903597544 L1397.06666666667,480.838951300369 L1414.97777777778,435.512394092601 L1432.88888888889,413.186379735978 L1450.8,435.126181954078 L1468.71111111111,410.055757325738 L1486.62222222222,424.57525527354 L1504.53333333333,440.581328439508 L1522.44444444444,447.703688604415 L1540.35555555556,446.814039803554 L1558.26666666667,442.436239387179 L1576.17777777778,488.79772885285 L1594.08888888889,518.742409858973 L1612,584.948493148518 L1629.91111111111,579.831860844652 L1647.82222222222,611.345863495757 L1665.73333333333,634.541884780793 L1683.64444444444,699.759073307136 L1701.55555555556,734.788220894256 L1719.46666666667,801.923516400411 L1737.37777777778,851.09649402854 L1755.28888888889,879.544143359074 L1773.2,953.614920094981 L1791.11111111111,1047.88858919954 L1809.02222222222,1050.83467002525 L1826.93333333333,1119.54555098955 L1844.84444444444,1176.1086163898 L1862.75555555556,1281.58640861822 L1880.66666666667,1325.42154891531 L1898.57777777778,1406.38510263273 L1916.48888888889,1464.8164330937 L1934.4,1579.71227581096 L1952.31111111111,1626.09799086078 L1970.22222222222,1710.66940252009 L1988.13333333333,1794.8212925944 L2006.04444444444,1862 L1074.66666666667,1862 " PBD:DatasetName="AF2_DS" PBD:DatasetColumn="\\JLEFEBVRENEW\DataStatistics\DataStatistic|-3 sigma">
				</path>
				<path id="Trend1_Plot1" style="font-family:Arial;font-size:33;stroke:#00FFFF;fill:none;stroke-width:2;" d="M-17.9111111111111,974.744235114572 L0,908.17188276522 L17.9111111111111,827.426067984595 L35.8222222222222,786.148028061988 L53.7333333333333,737.500045347018 L71.6444444444444,644.460701819746 L89.5555555555556,566.599036357481 L107.466666666667,523.437388017788 L125.377777777778,434.315139790186 L143.288888888889,391.564175260282 L161.2,356.799708629045 L179.111111111111,300.09106792077 L197.022222222222,245.890979423388 L214.933333333333,252.755643365273 L232.844444444444,175.056521168584 L250.755555555556,143.589050719052 L268.666666666667,125.320635050183 L286.577777777778,108.170339242894 L304.488888888889,55.0697266802776 L322.4,21.1163392452934 L340.311111111111,39.7651110894158 L358.222222222222,37.8661980705933 L376.133333333333,8.68135278513459 L394.044444444444,0 L411.955555555556,15.9192135197901 L429.866666666667,16.8319572494536 L447.777777777778,28.9364303960859 L465.688888888889,37.1385769059585 L483.6,82.8870706197311 L501.511111111111,68.8416466231828 L519.422222222222,82.9517016176868 L537.333333333333,80.226462731126 L555.244444444444,150.077476731371 L573.155555555556,176.782176408849 L591.066666666667,250.192979721126 L608.977777777778,242.061761845159 L626.888888888889,344.739161712898 L644.8,351.917251153032 L662.711111111111,413.163796324056 L680.622222222222,494.783914408132 L698.533333333333,521.479643114723 L716.444444444444,552.390999690442 L734.355555555556,656.530095787242 L752.266666666667,722.135933285584 L770.177777777778,789.989834323901 L788.088888888889,848.962031126678 L806,926.674053640092 L823.911111111111,988.840195985449 L841.822222222222,1062.16975294921 L859.733333333333,1113.51287646081 L877.644444444444,1207.08214153326 L895.555555555556,1277.95476486578 L913.466666666667,1366.17362346225 L931.377777777778,1407.60122746323 L949.288888888889,1430.90276000205 L967.2,1333.1734070997 L985.111111111111,1284.30448461163 L1003.02222222222,1189.59017379585 L1020.93333333333,1108.32203406622 L1038.84444444444,1038.02043158276 L1056.75555555556,974.744235114572 L1074.66666666667,908.17188276522 L1092.57777777778,827.426067984595 L1110.48888888889,786.148028061988 L1128.4,737.500045347018 L1146.31111111111,644.460701819746 L1164.22222222222,566.599036357481 L1182.13333333333,523.437388017788 L1200.04444444444,434.315139790186 L1217.95555555556,391.564175260282 L1235.86666666667,356.799708629045 L1253.77777777778,300.09106792077 L1271.68888888889,245.890979423388 L1289.6,252.755643365273 L1307.51111111111,175.056521168584 L1325.42222222222,143.589050719052 L1343.33333333333,125.320635050183 L1361.24444444444,108.170339242894 L1379.15555555556,55.0697266802776 L1397.06666666667,21.1163392452934 L1414.97777777778,39.7651110894158 L1432.88888888889,37.8661980705933 L1450.8,8.68135278513459 L1468.71111111111,0 L1486.62222222222,15.9192135197901 L1504.53333333333,16.8319572494536 L1522.44444444444,28.9364303960859 L1540.35555555556,37.1385769059585 L1558.26666666667,82.8870706197311 L1576.17777777778,68.8416466231828 L1594.08888888889,82.9517016176868 L1612,80.226462731126 L1629.91111111111,150.077476731371 L1647.82222222222,176.782176408849 L1665.73333333333,250.192979721126 L1683.64444444444,242.061761845159 L1701.55555555556,344.739161712898 L1719.46666666667,351.917251153032 L1737.37777777778,413.163796324056 L1755.28888888889,494.783914408132 L1773.2,521.479643114723 L1791.11111111111,552.390999690442 L1809.02222222222,656.530095787242 L1826.93333333333,722.135933285584 L1844.84444444444,789.989834323901 L1862.75555555556,848.962031126678 L1880.66666666667,926.674053640092 L1898.57777777778,988.840195985449 L1916.48888888889,1062.16975294921 L1934.4,1113.51287646081 L1952.31111111111,1207.08214153326 L1970.22222222222,1277.95476486578 L1988.13333333333,1366.17362346225 L2006.04444444444,1407.60122746323 L1074.66666666667,1407.60122746323 " PBD:DatasetName="AF2_DS" PBD:DatasetColumn="\\JLEFEBVRENEW\DataStatistics\DataStatistic|+3 sigma">
				</path>
				<path id="Trend1_Plot2" style="font-family:Arial;font-size:33;stroke:#FFFF00;fill:none;stroke-width:2;" d="M-17.9111111111111,1190.34130047414 L0,1190.34130047414 L0,1111.9751411059 L17.9111111111111,1111.9751411059 L17.9111111111111,1053.39692332459 L35.8222222222222,1053.39692332459 L35.8222222222222,992.670454823379 L53.7333333333333,992.670454823379 L53.7333333333333,934.526176294699 L71.6444444444444,934.526176294699 L71.6444444444444,852.181912614845 L89.5555555555556,852.181912614845 L89.5555555555556,788.062966925552 L107.466666666667,788.062966925552 L107.466666666667,737.298746465289 L125.377777777778,737.298746465289 L125.377777777778,676.532524178768 L143.288888888889,676.532524178768 L143.288888888889,612.213626995756 L161.2,612.213626995756 L161.2,570.461442295657 L179.111111111111,570.461442295657 L179.111111111111,517.471828925703 L197.022222222222,517.471828925703 L197.022222222222,475.116427506644 L214.933333333333,475.116427506644 L214.933333333333,441.249909751738 L232.844444444444,441.249909751738 L232.844444444444,392.32459097931 L250.755555555556,392.32459097931 L250.755555555556,366.047603655642 L268.666666666667,366.047603655642 L268.666666666667,335.019957731456 L286.577777777778,335.019957731456 L286.577777777778,310.270129973162 L304.488888888889,310.270129973162 L304.488888888889,281.312815138911 L322.4,281.312815138911 L322.4,250.977645272831 L340.311111111111,250.977645272831 L340.311111111111,237.638752591009 L358.222222222222,237.638752591009 L358.222222222222,225.526288903286 L376.133333333333,225.526288903286 L376.133333333333,221.903767369606 L394.044444444444,221.903767369606 L394.044444444444,205.027878662869 L411.955555555556,205.027878662869 L411.955555555556,220.247234396665 L429.866666666667,220.247234396665 L429.866666666667,228.706642844481 L447.777777777778,228.706642844481 L447.777777777778,238.32005950025 L465.688888888889,238.32005950025 L465.688888888889,241.976308354756 L483.6,241.976308354756 L483.6,262.661655003455 L501.511111111111,262.661655003455 L501.511111111111,278.819687738017 L519.422222222222,278.819687738017 L519.422222222222,300.84705573833 L537.333333333333,300.84705573833 L537.333333333333,332.587477939822 L555.244444444444,332.587477939822 L555.244444444444,364.954668788012 L573.155555555556,364.954668788012 L573.155555555556,394.064019952303 L591.066666666667,394.064019952303 L591.066666666667,442.367432250959 L608.977777777778,442.367432250959 L608.977777777778,470.910417576147 L626.888888888889,470.910417576147 L626.888888888889,539.763691303577 L644.8,539.763691303577 L644.8,576.920383776722 L662.711111111111,576.920383776722 L662.711111111111,632.130145176298 L680.622222222222,632.130145176298 L680.622222222222,687.164028883603 L698.533333333333,687.164028883603 L698.533333333333,737.547281604852 L716.444444444444,737.547281604852 L716.444444444444,800.139794444992 L734.355555555556,800.139794444992 L734.355555555556,853.682382906245 L752.266666666667,853.682382906245 L752.266666666667,920.840742137567 L770.177777777778,920.840742137567 L770.177777777778,983.04922535685 L788.088888888889,983.04922535685 L788.088888888889,1065.27421987245 L806,1065.27421987245 L806,1126.0478012777 L823.911111111111,1126.0478012777 L823.911111111111,1197.61264930909 L841.822222222222,1197.61264930909 L841.822222222222,1263.49309302145 L859.733333333333,1263.49309302145 L859.733333333333,1346.61257613588 L877.644444444444,1346.61257613588 L877.644444444444,1416.59006619702 L895.555555555556,1416.59006619702 L895.555555555556,1494.31208369294 L913.466666666667,1494.31208369294 L913.466666666667,1580.49745802832 L931.377777777778,1580.49745802832 L931.377777777778,1634.80061373161 L949.288888888889,1634.80061373161 L949.288888888889,1640.54417880636 L967.2,1640.54417880636 L967.2,1544.02024678759 L985.111111111111,1544.02024678759 L985.111111111111,1497.42443493595 L1003.02222222222,1497.42443493595 L1003.02222222222,1410.81790844239 L1020.93333333333,1410.81790844239 L1020.93333333333,1337.32007601745 L1038.84444444444,1337.32007601745 L1038.84444444444,1270.69539410876 L1056.75555555556,1270.69539410876 L1056.75555555556,1190.34130047414 L1074.66666666667,1190.34130047414 L1074.66666666667,1111.9751411059 L1092.57777777778,1111.9751411059 L1092.57777777778,1053.39692332459 L1110.48888888889,1053.39692332459 L1110.48888888889,992.670454823379 L1128.4,992.670454823379 L1128.4,934.526176294699 L1146.31111111111,934.526176294699 L1146.31111111111,852.181912614845 L1164.22222222222,852.181912614845 L1164.22222222222,788.062966925552 L1182.13333333333,788.062966925552 L1182.13333333333,737.298746465289 L1200.04444444444,737.298746465289 L1200.04444444444,676.532524178768 L1217.95555555556,676.532524178768 L1217.95555555556,612.213626995756 L1235.86666666667,612.213626995756 L1235.86666666667,570.461442295657 L1253.77777777778,570.461442295657 L1253.77777777778,517.471828925703 L1271.68888888889,517.471828925703 L1271.68888888889,475.116427506644 L1289.6,475.116427506644 L1289.6,441.249909751738 L1307.51111111111,441.249909751738 L1307.51111111111,392.32459097931 L1325.42222222222,392.32459097931 L1325.42222222222,366.047603655642 L1343.33333333333,366.047603655642 L1343.33333333333,335.019957731456 L1361.24444444444,335.019957731456 L1361.24444444444,310.270129973162 L1379.15555555556,310.270129973162 L1379.15555555556,281.312815138911 L1397.06666666667,281.312815138911 L1397.06666666667,250.977645272831 L1414.97777777778,250.977645272831 L1414.97777777778,237.638752591009 L1432.88888888889,237.638752591009 L1432.88888888889,225.526288903286 L1450.8,225.526288903286 L1450.8,221.903767369606 L1468.71111111111,221.903767369606 L1468.71111111111,205.027878662869 L1486.62222222222,205.027878662869 L1486.62222222222,220.247234396665 L1504.53333333333,220.247234396665 L1504.53333333333,228.706642844481 L1522.44444444444,228.706642844481 L1522.44444444444,238.32005950025 L1540.35555555556,238.32005950025 L1540.35555555556,241.976308354756 L1558.26666666667,241.976308354756 L1558.26666666667,262.661655003455 L1576.17777777778,262.661655003455 L1576.17777777778,278.819687738017 L1594.08888888889,278.819687738017 L1594.08888888889,300.84705573833 L1612,300.84705573833 L1612,332.587477939822 L1629.91111111111,332.587477939822 L1629.91111111111,364.954668788012 L1647.82222222222,364.954668788012 L1647.82222222222,394.064019952303 L1665.73333333333,394.064019952303 L1665.73333333333,442.367432250959 L1683.64444444444,442.367432250959 L1683.64444444444,470.910417576147 L1701.55555555556,470.910417576147 L1701.55555555556,539.763691303577 L1719.46666666667,539.763691303577 L1719.46666666667,576.920383776722 L1737.37777777778,576.920383776722 L1737.37777777778,632.130145176298 L1755.28888888889,632.130145176298 L1755.28888888889,687.164028883603 L1773.2,687.164028883603 L1773.2,737.547281604852 L1791.11111111111,737.547281604852 L1791.11111111111,800.139794444992 L1809.02222222222,800.139794444992 L1809.02222222222,853.682382906245 L1826.93333333333,853.682382906245 L1826.93333333333,920.840742137567 L1844.84444444444,920.840742137567 L1844.84444444444,983.04922535685 L1862.75555555556,983.04922535685 L1862.75555555556,1065.27421987245 L1880.66666666667,1065.27421987245 L1880.66666666667,1126.0478012777 L1898.57777777778,1126.0478012777 L1898.57777777778,1197.61264930909 L1916.48888888889,1197.61264930909 L1916.48888888889,1263.49309302145 L1934.4,1263.49309302145 L1934.4,1346.61257613588 L1952.31111111111,1346.61257613588 L1952.31111111111,1416.59006619702 L1970.22222222222,1416.59006619702 L1970.22222222222,1494.31208369294 L1988.13333333333,1494.31208369294 L1988.13333333333,1580.49745802832 L2006.04444444444,1580.49745802832 L2006.04444444444,1634.80061373161 L1074.66666666667,1634.80061373161 " PBD:DatasetName="AF2_DS" PBD:DatasetColumn="\\JLEFEBVRENEW\DataStatistics\DataStatistic|Mean">
				</path>
				<path id="Trend1_Plot3" style="font-family:Arial;font-size:33;stroke:#FF00FF;fill:none;stroke-width:2;" d="M-17.9111111111111,1163.50523328541 L0,1237.19823385838 L17.9111111111111,1088.6611855057 L35.8222222222222,1112.2226584651 L53.7333333333333,1004.85112538771 L71.6444444444444,826.278100410421 L89.5555555555556,827.88961422518 L107.466666666667,785.401466394607 L125.377777777778,706.003841503907 L143.288888888889,564.681829404683 L161.2,565.672978039624 L179.111111111111,532.040784293315 L197.022222222222,520.868964315411 L214.933333333333,472.698522927422 L232.844444444444,417.588713714438 L250.755555555556,346.804914123474 L268.666666666667,317.971319204474 L286.577777777778,324.328447535959 L304.488888888889,322.082430661748 L322.4,219.943594952672 L340.311111111111,129.071240483454 L358.222222222222,123.558296603179 L376.133333333333,217.867038950404 L394.044444444444,179.338486455237 L411.955555555556,206.334457929562 L429.866666666667,236.349752779495 L447.777777777778,297.855648081914 L465.688888888889,222.020326115936 L483.6,224.105377012009 L501.511111111111,307.126743866756 L519.422222222222,384.950715735988 L537.333333333333,308.167426248401 L555.244444444444,327.763416933987 L573.155555555556,382.82964888323 L591.066666666667,502.138655506785 L608.977777777778,535.848869642753 L626.888888888889,559.488562517026 L644.8,605.297938651765 L662.711111111111,607.289030313528 L680.622222222222,804.203272837375 L698.533333333333,718.11528635149 L716.444444444444,921.915891483798 L734.355555555556,868.320285110349 L752.266666666667,966.414131691426 L770.177777777778,863.233572019159 L788.088888888889,1148.90107953022 L806,1191.67697079479 L823.911111111111,1166.55118527507 L841.822222222222,1265.26722899286 L859.733333333333,1302.54708845884 L877.644444444444,1372.57264370976 L895.555555555556,1650.92405896652 L913.466666666667,1520.26831847287 L931.377777777778,1571.53143114659 L949.288888888889,1596.16146177295 L967.2,1573.11974494663 L1074.66666666667,1573.11974494663 " PBD:DatasetName="AF2_DS" PBD:DatasetColumn="\\JLEFEBVRENEW\DataStatistics\DataStatistic|Sensor">
				</path>
			</svg>
			<svg id="Trend1_MarkerGroup" height="1862" width="3224" style="" x="6" y="41">
				<circle id="Trend1_1" cx="466.188888888889" cy="447.314039803554" r="8" style="stroke-width:2;stroke:#00FF00;fill:#00FF00;">
				</circle>
				<circle id="Trend1_1" cx="985.611111111111" cy="1711.04438526026" r="8" style="stroke-width:2;stroke:#00FF00;fill:#00FF00;">
				</circle>
				<circle id="Trend1_1" cx="1505.03333333333" cy="441.081328439508" r="8" style="stroke-width:2;stroke:#00FF00;fill:#00FF00;">
				</circle>
				<circle id="Trend1_2" cx="466.188888888889" cy="37.6385769059585" r="8" style="stroke-width:2;stroke:#00FFFF;fill:none;">
				</circle>
				<circle id="Trend1_2" cx="985.611111111111" cy="1284.80448461163" r="8" style="stroke-width:2;stroke:#00FFFF;fill:none;">
				</circle>
				<circle id="Trend1_2" cx="1505.03333333333" cy="17.3319572494536" r="8" style="stroke-width:2;stroke:#00FFFF;fill:none;">
				</circle>
				<polygon id="Trend1_3" points="460.188888888889,236.476308354756 472.188888888889,236.476308354756 472.188888888889,248.476308354756 460.188888888889,248.476308354756 460.188888888889,236.476308354756" style="stroke-width:2;stroke:#FFFF00;fill:#FFFF00;" transform="rotate(45,466.188888888889,242.476308354756) ">
				</polygon>
				<polygon id="Trend1_3" points="979.611111111111,1491.92443493595 991.611111111111,1491.92443493595 991.611111111111,1503.92443493595 979.611111111111,1503.92443493595 979.611111111111,1491.92443493595" style="stroke-width:2;stroke:#FFFF00;fill:#FFFF00;" transform="rotate(45,985.611111111111,1497.92443493595) ">
				</polygon>
				<polygon id="Trend1_3" points="1499.03333333333,223.206642844481 1511.03333333333,223.206642844481 1511.03333333333,235.206642844481 1499.03333333333,235.206642844481 1499.03333333333,223.206642844481" style="stroke-width:2;stroke:#FFFF00;fill:#FFFF00;" transform="rotate(45,1505.03333333333,229.206642844481) ">
				</polygon>
				<polygon id="Trend1_4" points="209.433333333333,467.198522927422 221.433333333333,467.198522927422 221.433333333333,479.198522927422 209.433333333333,479.198522927422 209.433333333333,467.198522927422" style="stroke-width:2;stroke:#FF00FF;fill:none;" transform="rotate(45,215.433333333333,473.198522927422) ">
				</polygon>
				<polygon id="Trend1_4" points="460.188888888889,216.520326115936 472.188888888889,216.520326115936 472.188888888889,228.520326115936 460.188888888889,228.520326115936 460.188888888889,216.520326115936" style="stroke-width:2;stroke:#FF00FF;fill:none;" transform="rotate(45,466.188888888889,222.520326115936) ">
				</polygon>
				<polygon id="Trend1_4" points="710.944444444444,916.415891483798 722.944444444444,916.415891483798 722.944444444444,928.415891483798 710.944444444444,928.415891483798 710.944444444444,916.415891483798" style="stroke-width:2;stroke:#FF00FF;fill:none;" transform="rotate(45,716.944444444444,922.415891483798) ">
				</polygon>
			</svg>
			<g id="Trend1_YScaleTextGroup" style="font-family:Arial;font-size:33;stroke:#FFFFFF;fill:#FFFFFF;" transform="translate(8,41)">
				<text id="Max_0" x="2" y="33">1.15297</text>
				<text id="Min_0" x="2" y="1856">-0.15249</text>
				<text x="0" y="1649.74621595807">0</text>
				<text x="0" y="1364.48274419058">0.2</text>
				<text x="0" y="1079.2192724231">0.4</text>
				<text x="0" y="793.955800655609">0.6</text>
				<text x="0" y="508.692328888123">0.8</text>
				<text x="0" y="223.428857120636">1</text>
			</g>
		</svg>
	</g>
	<script language="JavaScript" type="text/javascript"> 
        
        function SVG_doc_loaded(evt)
	{
	    var parentDoc = evt.getTarget().getOwnerDocument();
	    var elem = parentDoc.createElement("Ready");
	    evt.getTarget().appendChild(elem);

        }</script>
</svg>
