<?xml version="1.0" encoding="UTF-8"?>
<svg height="100%" viewBox="0 121 5265 2077" width="100%" fill="#C0C0C0" image-rendering="optimizeSpeed" onload="SVG_doc_loaded(evt);" PB:pid="" xlink:xid="" xmlns:svg="OSI_SVG_20090601" xmlns:xlink="http://www.w3.org/1999/xlink" xmlns:PB="urn:osisoft-com-pb" xmlns:PBI="urn:osisoft-com-interface" xmlns:PBD="urn:osisoft-com-data" xmlns:xsi="http://www.w3.org/1999/XMLSchema/instance">
	<defs><PBD:TagUses tag="\\jlefebvrenew\datageneration.sensor" PB:BO="PWSPIEventsBO.cBOEvents">
			<PBI:Symbol name="Trend1_Plot0" PB:Type="10" PB:Parent="Trend1"/>
		</PBD:TagUses><PBD:DataSetUses tag="AF2_DS.\\JLEFEBVRENEW\GenerationOfData\DataGeneration|+3 sigma" PB:Parent="AF2_DS" PB:BO="PWSPIDataSetsBO.CBODataSets">
			<PBI:Symbol name="Trend1_Plot2" PB:Type="10" PB:Parent="Trend1">
			</PBI:Symbol>
		</PBD:DataSetUses><PBD:DataSetUses tag="AF2_DS.\\JLEFEBVRENEW\GenerationOfData\DataGeneration|-3 sigma" PB:Parent="AF2_DS" PB:BO="PWSPIDataSetsBO.CBODataSets">
			<PBI:Symbol name="Trend1_Plot1" PB:Type="10" PB:Parent="Trend1">
			</PBI:Symbol>
		</PBD:DataSetUses><PBD:DataSetUses tag="AF2_DS.\\JLEFEBVRENEW\GenerationOfData\DataGeneration|平均" PB:Parent="AF2_DS" PB:BO="PWSPIDataSetsBO.CBODataSets">
			<PBI:Symbol name="Trend1_Plot3" PB:Type="10" PB:Parent="Trend1">
			</PBI:Symbol>
		</PBD:DataSetUses>
	</defs>
	<rect x="0" y="0" width="5265" height="2198" PB:DocMajorVersionNum="3" PB:DocMinorVersionNum="26" PB:DocGroup="1" PB:wnHeight="670" PB:wnWidth="1612" PB:wnState="2" PB:Zoom="80" PB:LocalID="1041" PB:DisplayServerTimeZone="True" PB:Type="55" PB:NamedValues="AFDisplayBuilder.Upgraded,1">
	</rect>
	<PB:Dataset id="AF2_DS" PB:Type="57" PB:Context="2" PB:Description="" PB:RefreshInterval="10000" PB:Stepped="False" PB:DSType="3" PB:DSVisible="True">
		<PB:DSDatapoint id="\\JLEFEBVRENEW\GenerationOfData\DataGeneration|-3 sigma_DP"/>
		<PB:DSDatapoint id="\\JLEFEBVRENEW\GenerationOfData\DataGeneration|+3 sigma_DP"/>
		<PB:DSDatapoint id="\\JLEFEBVRENEW\GenerationOfData\DataGeneration|平均_DP"/>
	</PB:Dataset>
	<PB:Dataset id="E_DS_DS" PB:Type="57" PB:Context="2" PB:Description="" PB:RefreshInterval="5000" PB:Stepped="False" PB:DSType="3" PB:DSVisible="False">
	</PB:Dataset>
	<PB:Dataset id="MODULEDB_DS" PB:Type="57" PB:Context="2" PB:Description="" PB:RefreshInterval="5000" PB:Stepped="False" PB:DSType="3" PB:DSVisible="False">
	</PB:Dataset>
	<g id="Trend1" PB:Type="10">
		<PB:TrendLogical id="Trend1_Logical" PB:ValueScalePosition="1" PB:BackgroundColor="8421504" PB:CurrentTrace="4" PB:DisplayScaleInside="True" PB:EnableScript="True" PB:Enabled="True" PB:EndTime="*+2M" PB:FillColor="16711680" PB:FontBold="False" PB:FontItalic="False" PB:FontName="Arial" PB:FontSize="10" PB:FontStrikethrough="False" PB:FontUnderline="False" PB:Height="1866" PB:IsMultiState="False" PB:Left="-14968" PB:LineColor="16777215" PB:MultipleScales="False" PB:Name="Trend1" PB:PlotTimeStyle="0" PB:Rotation="0" PB:ShowDescription="False" PB:ShowEngUnits="True" PB:ShowGrids="True" PB:ShowTagName="True" PB:ShowServerName="False" PB:ShowTitle="True" PB:ShowTraceMarkers="False" PB:ShowValue="True" PB:StartTime="*-30s" PB:Top="14947" PB:TraceCount="4" PB:TrendTitle="Plot-0" PB:Visible="True" PB:Width="4127">
			<PB:TraceElem id="PB:TraceElem_1" PB:ShowLinearRegression="False" PB:ScaleLogarithmic="False" PB:ScaleMax="Autorange" PB:ScaleMin="Autorange" PB:Trace="\\jlefebvrenew\datageneration.sensor" PB:PersistString="95 {4572DB6F-FB4B-4BA4-92E2-1811DAA61D7B} \1\?e0e3d8a6-0a4f-44e0-9b8f-02a6160c8aa6\JLEFEBVRENEW70 {2CA6C7D5-025B-4EF6-9E5E-CCE1AB741C69} \1\?47\DataGeneration.Sensor" PB:ScaleFormat="Database" PB:DisplayDigits="-5" PB:CanonicalNumberFormat="Database" PB:TagInfoType="0">
			</PB:TraceElem>
			<PB:TraceElem id="PB:TraceElem_2" PB:ShowLinearRegression="False" PB:ScaleLogarithmic="False" PB:ScaleMax="Autorange" PB:ScaleMin="Autorange" PB:Trace="AF2.\\JLEFEBVRENEW\GenerationOfData\DataGeneration|-3 sigma" PB:ScaleFormat="General" PB:DisplayDigits="2" PB:CanonicalNumberFormat="General" PB:TagInfoType="1">
			</PB:TraceElem>
			<PB:TraceElem id="PB:TraceElem_3" PB:ShowLinearRegression="False" PB:ScaleLogarithmic="False" PB:ScaleMax="Autorange" PB:ScaleMin="Autorange" PB:Trace="AF2.\\JLEFEBVRENEW\GenerationOfData\DataGeneration|+3 sigma" PB:ScaleFormat="General" PB:DisplayDigits="2" PB:CanonicalNumberFormat="General" PB:TagInfoType="1">
			</PB:TraceElem>
			<PB:TraceElem id="PB:TraceElem_4" PB:ShowLinearRegression="False" PB:ScaleLogarithmic="False" PB:ScaleMax="Autorange" PB:ScaleMin="Autorange" PB:Trace="AF2.\\JLEFEBVRENEW\GenerationOfData\DataGeneration|平均" PB:ScaleFormat="General" PB:DisplayDigits="2" PB:CanonicalNumberFormat="General" PB:TagInfoType="1">
			</PB:TraceElem>
			<PB:Format id="PB:Format_1" PB:Name="Horz. Axis" PB:LineColor="0" PB:LineStyle="0" PB:LineWidth="1" PB:MarkerStyle="-1">
			</PB:Format>
			<PB:Format id="PB:Format_2" PB:Name="Background" PB:LineColor="8421504" PB:LineStyle="-1" PB:LineWidth="1" PB:MarkerStyle="-1">
			</PB:Format>
			<PB:Format id="PB:Format_3" PB:Name="Horz. Major Grid" PB:LineColor="0" PB:LineStyle="0" PB:LineWidth="1" PB:MarkerStyle="-1">
			</PB:Format>
			<PB:Format id="PB:Format_4" PB:Name="Horz. Minor Grid" PB:LineColor="0" PB:LineStyle="0" PB:LineWidth="1" PB:MarkerStyle="-1">
			</PB:Format>
			<PB:Format id="PB:Format_5" PB:Name="Pen 1" PB:LineColor="65280" PB:LineStyle="0" PB:LineWidth="1" PB:MarkerStyle="0">
			</PB:Format>
			<PB:Format id="PB:Format_6" PB:Name="Pen 2" PB:LineColor="16776960" PB:LineStyle="0" PB:LineWidth="1" PB:MarkerStyle="1">
			</PB:Format>
			<PB:Format id="PB:Format_7" PB:Name="Pen 3" PB:LineColor="65535" PB:LineStyle="0" PB:LineWidth="1" PB:MarkerStyle="2">
			</PB:Format>
			<PB:Format id="PB:Format_8" PB:Name="Pen 4" PB:LineColor="16711935" PB:LineStyle="0" PB:LineWidth="1" PB:MarkerStyle="3">
			</PB:Format>
			<PB:Format id="PB:Format_9" PB:Name="Pen 5" PB:LineColor="255" PB:LineStyle="0" PB:LineWidth="1" PB:MarkerStyle="4">
			</PB:Format>
			<PB:Format id="PB:Format_10" PB:Name="Pen 6" PB:LineColor="16777215" PB:LineStyle="0" PB:LineWidth="1" PB:MarkerStyle="5">
			</PB:Format>
			<PB:Format id="PB:Format_11" PB:Name="Pen 7" PB:LineColor="16711680" PB:LineStyle="0" PB:LineWidth="1" PB:MarkerStyle="6">
			</PB:Format>
			<PB:Format id="PB:Format_12" PB:Name="Pen 8" PB:LineColor="0" PB:LineStyle="0" PB:LineWidth="1" PB:MarkerStyle="7">
			</PB:Format>
			<PB:Format id="PB:Format_13" PB:Name="Pen 9" PB:LineColor="8388608" PB:LineStyle="0" PB:LineWidth="1" PB:MarkerStyle="8">
			</PB:Format>
			<PB:Format id="PB:Format_14" PB:Name="Pen 10" PB:LineColor="32768" PB:LineStyle="0" PB:LineWidth="1" PB:MarkerStyle="9">
			</PB:Format>
			<PB:Format id="PB:Format_15" PB:Name="Pen 11" PB:LineColor="8388736" PB:LineStyle="0" PB:LineWidth="1" PB:MarkerStyle="10">
			</PB:Format>
			<PB:Format id="PB:Format_16" PB:Name="Pen 12" PB:LineColor="8433626" PB:LineStyle="0" PB:LineWidth="1" PB:MarkerStyle="11">
			</PB:Format>
			<PB:Format id="PB:Format_17" PB:Name="Text" PB:LineColor="16777215" PB:LineStyle="-1" PB:LineWidth="1" PB:MarkerStyle="-1">
			</PB:Format>
			<PB:Format id="PB:Format_18" PB:Name="Vert. Axis" PB:LineColor="0" PB:LineStyle="0" PB:LineWidth="1" PB:MarkerStyle="-1">
			</PB:Format>
			<PB:Format id="PB:Format_19" PB:Name="Vert. Major Grid" PB:LineColor="0" PB:LineStyle="0" PB:LineWidth="1" PB:MarkerStyle="-1">
			</PB:Format>
			<PB:Format id="PB:Format_20" PB:Name="Vert. Minor Grid" PB:LineColor="0" PB:LineStyle="0" PB:LineWidth="1" PB:MarkerStyle="-1">
			</PB:Format>
		</PB:TrendLogical>
		<svg id="Trend1_Graphical" height="1866" width="4127" x="32" y="53">
			<PB:RefreshData id="Trend1_RefreshData" PB:bEngUnits="True" PB:bLogarithmic="False" PB:bMarkers="False" PB:bTagname="True" PB:bValue="True" PB:fXUnits="18.986666666666666666666666667" PB:iGrdBegX="6" PB:iGrdBegY="41" PB:iGrdHght="1774" PB:iGrdWdth="2848" PB:iMinPerCol="30" PB:iNumTrcs="4" PB:iNumXCols="0" PB:bGrids="True" PB:Updateable="True" PB:iSnglLnHght="33" PB:iScaleWidth="0" PB:bOmitScaleText="False" PB:bOmitTimeText="False">
			</PB:RefreshData>
			<rect id="Trend1_Background" x="0" y="0" width="4127" height="1866" fill="#808080">
			</rect>
			<g id="Trend1_PlotTitleGroup" style="font-family:Arial;font-size:33;stroke:#FFFFFF;fill:#FFFFFF;">
				<text x="6" y="33" style="font-family:Arial;font-size:33;stroke:#FFFFFF;fill:#FFFFFF;">Plot-0</text>
			</g>
			<svg id="Trend1_AxesGroup" height="1774" width="2848" x="6" y="41">
				<rect id="Trend1_GridBackground" x="0" y="0" width="2848" height="1774" style="fill:#808080;stroke:none;">
				</rect>
				<polyline id="Trend1_VertAxis_1" style="stroke-width:3;fill:none;stroke:#000000;" points="0,0 0,1774">
				</polyline>
				<polyline id="Trend1_VertAxis_Last" style="stroke-width:3;fill:none;stroke:#000000;stroke-dasharray:10 10 10 10;" points="2848,0 2848,1774">
				</polyline>
				<polyline id="Trend1_HorizAxis" style="stroke-width:3;fill:none;stroke:#000000;" points="0,1774 2848,1774">
				</polyline>
			</svg>
			<svg id="Trend1_GridGroup" height="1774" width="2848" x="6" y="41">
				<path id="Trend1_HorizGridLine" style="stroke-width:2;stroke:#000000;" d="M209,0 L209,1774">
				</path>
				<path id="Trend1_HorizGridLine" style="stroke-width:2;stroke:#000000;" d="M778,0 L778,1774">
				</path>
				<path id="Trend1_HorizGridLine" style="stroke-width:2;stroke:#000000;" d="M1348,0 L1348,1774">
				</path>
				<path id="Trend1_HorizGridLine" style="stroke-width:2;stroke:#000000;" d="M1918,0 L1918,1774">
				</path>
				<path id="Trend1_HorizGridLine" style="stroke-width:2;stroke:#000000;" d="M2487,0 L2487,1774">
				</path>
				<path id="Trend1_VertGridLine" style="stroke-width:2;stroke:#000000" d="M0,1723.25 L2848,1723.25">
				</path>
				<path id="Trend1_VertGridLine" style="stroke-width:2;stroke:#000000" d="M0,1389.57 L2848,1389.57">
				</path>
				<path id="Trend1_VertGridLine" style="stroke-width:2;stroke:#000000" d="M0,1055.89 L2848,1055.89">
				</path>
				<path id="Trend1_VertGridLine" style="stroke-width:2;stroke:#000000" d="M0,722.21 L2848,722.21">
				</path>
				<path id="Trend1_VertGridLine" style="stroke-width:2;stroke:#000000" d="M0,388.53 L2848,388.53">
				</path>
				<path id="Trend1_VertGridLine" style="stroke-width:2;stroke:#000000" d="M0,54.85 L2848,54.85">
				</path>
				<path id="Trend1_VertGridLine" style="stroke-width:2;stroke:#000000" d="M0,0 L2848,0">
				</path>
			</svg>
			<g id="Trend1_XScaleTextGroup" style="font-family:Arial;font-size:33;stroke:#FFFFFF;fill:#FFFFFF;">
				<text id="Trend1_XScaleTextBegin" x="6" y="1850" style="font-family:Arial;font-size:33;stroke:#FFFFFF;fill:#FFFFFF;">2016/02/27 11:23:49</text>
				<text id="Trend1_XScaleTextSpan" x="1280" y="1850" style="font-family:Arial;font-size:33;stroke:#FFFFFF;fill:#FFFFFF;">150.00 seconds</text>
				<text id="Trend1_XScaleTextEnd" x="2472" y="1850" style="font-family:Arial;font-size:33;stroke:#FFFFFF;fill:#FFFFFF;">2016/02/27 11:26:19</text>
			</g>
			<g id="Trend1_TagNameGroup" transform="translate(2880,43)">
				<circle id="Trend1_0" cx="0.5" cy="17" r="8" style="stroke-width:2;stroke:#00FF00;fill:#00FF00;">
				</circle>
				<text id="Trend1_TagName0" x="19.1860465116279" y="33" style="font-family:Arial;font-size:33;stroke:#00FF00;fill:#00FF00;">datageneration.sensor</text>
				<text id="Trend1_TagValue0" x="19.1860465116279" y="68" style="font-family:Arial;font-size:33;stroke:#00FF00;fill:#00FF00;">0.6433</text>
				<text id="Trend1_EngUnits0" x="19.1860465116279" y="103" style="font-family:Arial;font-size:33;stroke:#00FF00;fill:#00FF00;">
				</text>
				<circle id="Trend1_1" cx="0.5" cy="122" r="8" style="stroke-width:2;stroke:#00FFFF;fill:none;">
				</circle>
				<text id="Trend1_TagName1" x="19.1860465116279" y="138" style="font-family:Arial;font-size:33;stroke:#00FFFF;fill:#00FFFF;">AF2.\\JLEFEBVRENEW\GenerationOfData\DataGeneration|-3 sigma</text>
				<text id="Trend1_TagValue1" x="19.1860465116279" y="173" style="font-family:Arial;font-size:33;stroke:#00FFFF;fill:#00FFFF;">-0.02801</text>
				<text id="Trend1_EngUnits1" x="19.1860465116279" y="208" style="font-family:Arial;font-size:33;stroke:#00FFFF;fill:#00FFFF;">
				</text>
				<polygon id="Trend1_2" points="-5.5,221 6.5,221 6.5,233 -5.5,233 -5.5,221" style="stroke-width:2;stroke:#FFFF00;fill:#FFFF00;" transform="rotate(45,0.5,227) ">
				</polygon>
				<text id="Trend1_TagName2" x="19.1860465116279" y="243" style="font-family:Arial;font-size:33;stroke:#FFFF00;fill:#FFFF00;">AF2.\\JLEFEBVRENEW\GenerationOfData\DataGeneration|+3 sigma</text>
				<text id="Trend1_TagValue2" x="19.1860465116279" y="278" style="font-family:Arial;font-size:33;stroke:#FFFF00;fill:#FFFF00;">0.03456</text>
				<text id="Trend1_EngUnits2" x="19.1860465116279" y="313" style="font-family:Arial;font-size:33;stroke:#FFFF00;fill:#FFFF00;">
				</text>
				<polygon id="Trend1_3" points="-5.5,326 6.5,326 6.5,338 -5.5,338 -5.5,326" style="stroke-width:2;stroke:#FF00FF;fill:none;" transform="rotate(45,0.5,332) ">
				</polygon>
				<text id="Trend1_TagName3" x="19.1860465116279" y="348" style="font-family:Arial;font-size:33;stroke:#FF00FF;fill:#FF00FF;">AF2.\\JLEFEBVRENEW\GenerationOfData\DataGeneration|平均</text>
				<text id="Trend1_TagValue3" x="19.1860465116279" y="383" style="font-family:Arial;font-size:33;stroke:#FF00FF;fill:#FF00FF;">0.00328</text>
				<text id="Trend1_EngUnits3" x="19.1860465116279" y="418" style="font-family:Arial;font-size:33;stroke:#FF00FF;fill:#FF00FF;">
				</text>
			</g>
			<svg id="Trend1_TraceGroup" height="1774" width="2848" style="font-family:Arial;font-size:33;stroke:#FFFFFF;fill:#FFFFFF;" x="6" y="41">
				<path id="Trend1_Plot0" style="font-family:Arial;font-size:33;stroke:#00FF00;fill:none;stroke-width:2;" d="M18.9866666666667,1097.30567807849 L37.9733333333333,1214.64673863327 L56.96,1166.91351681821 L75.9466666666667,1292.98511219211 L94.9333333333333,1345.20755750621 L113.92,1150.10520473117 L132.906666666667,1321.96924655056 L151.893333333333,1734.58351497662 L170.88,1409.63241655328 L189.866666666667,1641.60490494445 L208.853333333333,1479.46651792433 L227.84,1618.85101975652 L246.826666666667,1239.37907762234 L265.813333333333,1171.77778140582 L284.8,1351.86522851565 L303.786666666667,1541.33482943449 L322.773333333333,1463.15613168956 L341.76,1144.724575148 L360.746666666667,1161.49548631198 L379.733333333333,919.108787228663 L398.72,1032.67548461962 L417.706666666667,947.16058295791 L436.693333333333,755.778435929827 L455.68,652.034446632139 L474.666666666667,702.655090091296 L493.653333333333,649.932764899297 L569.6,649.932764899297 " PBD:PtTagName="\\jlefebvrenew\datageneration.sensor">
				</path>
				<path id="Trend1_Plot1" style="font-family:Arial;font-size:33;stroke:#00FFFF;fill:none;stroke-width:2;" d="M18.9866666666667,1026.74796728312 L37.9733333333333,1119.66357436043 L56.96,1211.60135861612 L75.9466666666667,1312.03574065412 L94.9333333333333,1366.98343378355 L113.92,1470.3926394668 L132.906666666667,1563.64341259363 L151.893333333333,1670.80423811967 L170.88,1713.28898773234 L189.866666666667,1769.98818137264 L208.853333333333,1774 L227.84,1671.38710626427 L246.826666666667,1589.73716603592 L265.813333333333,1505.46047915683 L284.8,1423.67728888219 L303.786666666667,1338.4596985869 L322.773333333333,1253.3341910202 L341.76,1176.86496183465 L360.746666666667,1060.02474887252 L379.733333333333,1011.6290574289 L398.72,923.727723195255 L417.706666666667,842.848699067303 L436.693333333333,775.417936656477 L455.68,693.704787413665 L474.666666666667,650.634436462096 L493.653333333333,586.016333982406 L512.64,502.848375641999 L531.626666666667,459.886741343326 L550.613333333333,403.968186658257 L569.6,349.063343104113 L588.586666666667,309.112664772506 L607.573333333333,268.219842311529 L626.56,259.945583214998 L645.546666666667,206.233601404862 L664.533333333333,158.40219050509 L683.52,147.139185305445 L702.506666666667,126.407224752581 L721.493333333333,111.92652220974 L740.48,112.805919631529 L759.466666666667,113.71664228219 L778.453333333333,100.390261902782 L797.44,106.957717229849 L816.426666666667,129.727476456276 L835.413333333333,126.134523373097 L854.4,160.582000113785 L873.386666666667,182.685461868697 L892.373333333333,172.777822225246 L911.36,248.260472010072 L930.346666666667,264.160954779582 L949.333333333333,301.844851194215 L968.32,376.109341781639 L987.306666666667,430.049314701348 L1006.29333333333,475.162299012196 L1025.28,561.928775403394 L1044.26666666667,637.126566294794 L1063.25333333333,666.051536747091 L1082.24,739.14969625338 L1101.22666666667,814.266822336702 L1120.21333333333,877.416795646162 L1139.2,950.026410640853 L1158.18666666667,1026.74796728312 L1177.17333333333,1119.66357436043 L1196.16,1211.60135861612 L1215.14666666667,1312.03574065412 L1234.13333333333,1366.98343378355 L1253.12,1470.3926394668 L1272.10666666667,1563.64341259363 L1291.09333333333,1670.80423811967 L1310.08,1713.28898773234 L1329.06666666667,1769.98818137264 L569.6,1769.98818137264 " PBD:DatasetName="AF2_DS" PBD:DatasetColumn="\\JLEFEBVRENEW\GenerationOfData\DataGeneration|-3 sigma">
				</path>
				<path id="Trend1_Plot2" style="font-family:Arial;font-size:33;stroke:#FFFF00;fill:none;stroke-width:2;" d="M18.9866666666667,882.780372975859 L37.9733333333333,973.28747793446 L56.96,1043.62083849559 L75.9466666666667,1125.33423856544 L94.9333333333333,1199.85960814377 L113.92,1288.1430194612 L132.906666666667,1365.39168673099 L151.893333333333,1440.44494259902 L170.88,1560.65226987493 L189.866666666667,1665.58288906575 L208.853333333333,1688.48912171116 L227.84,1575.12041607807 L246.826666666667,1493.43901922281 L265.813333333333,1419.76138600078 L284.8,1318.03306219077 L303.786666666667,1239.27059605816 L322.773333333333,1159.65875975995 L341.76,1049.02573750795 L360.746666666667,1006.24084773635 L379.733333333333,917.628512118617 L398.72,828.332480619627 L417.706666666667,738.211536518132 L436.693333333333,672.648210137544 L455.68,611.14095259496 L474.666666666667,532.323874591916 L493.653333333333,460.356463527326 L512.64,426.628264802563 L531.626666666667,370.699792617044 L550.613333333333,298.799450812788 L569.6,258.181989342996 L588.586666666667,223.922646858457 L607.573333333333,172.527123048296 L626.56,121.501392115016 L645.546666666667,102.579477217347 L664.533333333333,98.49470720055 L683.52,68.1891904632914 L702.506666666667,37.30878936487 L721.493333333333,20.4973631347449 L740.48,13.7710607161025 L759.466666666667,0 L778.453333333333,21.1120307782063 L797.44,13.0659788203241 L816.426666666667,15.8622054649711 L835.413333333333,49.500453478272 L854.4,52.2651634067519 L873.386666666667,69.5531373362926 L892.373333333333,122.442906417572 L911.36,130.159423497557 L930.346666666667,176.0870142225 L949.333333333333,217.930673990789 L968.32,257.33302207638 L987.306666666667,307.828413283828 L1006.29333333333,343.575770978406 L1025.28,383.933450233687 L1044.26666666667,435.251532406073 L1063.25333333333,522.874239308345 L1082.24,599.082256381909 L1101.22666666667,668.802187502217 L1120.21333333333,726.391805611222 L1139.2,818.260646850628 L1158.18666666667,882.780372975859 L1177.17333333333,973.28747793446 L1196.16,1043.62083849559 L1215.14666666667,1125.33423856544 L1234.13333333333,1199.85960814377 L1253.12,1288.1430194612 L1272.10666666667,1365.39168673099 L1291.09333333333,1440.44494259902 L1310.08,1560.65226987493 L1329.06666666667,1665.58288906575 L569.6,1665.58288906575 " PBD:DatasetName="AF2_DS" PBD:DatasetColumn="\\JLEFEBVRENEW\GenerationOfData\DataGeneration|+3 sigma">
				</path>
				<path id="Trend1_Plot3" style="font-family:Arial;font-size:33;stroke:#FF00FF;fill:none;stroke-width:2;" d="M18.9866666666667,954.764170129491 L37.9733333333333,1046.47552614744 L56.96,1127.61109855586 L75.9466666666667,1218.68498960978 L94.9333333333333,1283.42152096366 L113.92,1379.267829464 L132.906666666667,1464.51754966231 L151.893333333333,1555.62459035935 L170.88,1636.97062880363 L189.866666666667,1717.7855352192 L208.853333333333,1731.24456085558 L227.84,1623.25376117117 L246.826666666667,1541.58809262936 L265.813333333333,1462.6109325788 L284.8,1370.85517553648 L303.786666666667,1288.86514732253 L322.773333333333,1206.49647539007 L341.76,1112.9453496713 L360.746666666667,1033.13279830443 L379.733333333333,964.628784773759 L398.72,876.030101907441 L417.706666666667,790.530117792717 L436.693333333333,724.033073397011 L455.68,652.422870004312 L474.666666666667,591.479155527006 L493.653333333333,523.186398754866 L512.64,464.738320222281 L531.626666666667,415.293266980185 L550.613333333333,351.383818735523 L569.6,303.622666223555 L588.586666666667,266.517655815481 L607.573333333333,220.373482679913 L626.56,190.723487665007 L645.546666666667,154.406539311105 L664.533333333333,128.44844885282 L683.52,107.664187884368 L702.506666666667,81.8580070587258 L721.493333333333,66.2119426722426 L740.48,63.2884901738155 L759.466666666667,56.8583211410953 L778.453333333333,60.7511463404943 L797.44,60.0118480250866 L816.426666666667,72.7948409606236 L835.413333333333,87.8174884256843 L854.4,106.423581760269 L873.386666666667,126.119299602495 L892.373333333333,147.610364321409 L911.36,189.209947753815 L930.346666666667,220.123984501041 L949.333333333333,259.887762592502 L968.32,316.721181929009 L987.306666666667,368.938863992588 L1006.29333333333,409.369034995301 L1025.28,472.93111281854 L1044.26666666667,536.189049350433 L1063.25333333333,594.462888027718 L1082.24,669.115976317644 L1101.22666666667,741.53450491946 L1120.21333333333,801.904300628692 L1139.2,884.143528745741 L1158.18666666667,954.764170129491 L1177.17333333333,1046.47552614744 L1196.16,1127.61109855586 L1215.14666666667,1218.68498960978 L1234.13333333333,1283.42152096366 L1253.12,1379.267829464 L1272.10666666667,1464.51754966231 L1291.09333333333,1555.62459035935 L1310.08,1636.97062880363 L1329.06666666667,1717.7855352192 L569.6,1717.7855352192 " PBD:DatasetName="AF2_DS" PBD:DatasetColumn="\\JLEFEBVRENEW\GenerationOfData\DataGeneration|平均">
				</path>
			</svg>
			<svg id="Trend1_MarkerGroup" height="1774" width="2848" style="" x="6" y="41">
				<circle id="Trend1_1" cx="114.42" cy="1150.60520473117" r="8" style="stroke-width:2;stroke:#00FF00;fill:#00FF00;">
				</circle>
				<circle id="Trend1_1" cx="247.326666666667" cy="1239.87907762234" r="8" style="stroke-width:2;stroke:#00FF00;fill:#00FF00;">
				</circle>
				<circle id="Trend1_1" cx="380.233333333333" cy="919.608787228663" r="8" style="stroke-width:2;stroke:#00FF00;fill:#00FF00;">
				</circle>
				<circle id="Trend1_2" cx="342.26" cy="1177.36496183465" r="8" style="stroke-width:2;stroke:#00FFFF;fill:none;">
				</circle>
				<circle id="Trend1_2" cx="665.033333333333" cy="158.90219050509" r="8" style="stroke-width:2;stroke:#00FFFF;fill:none;">
				</circle>
				<circle id="Trend1_2" cx="987.806666666667" cy="430.549314701348" r="8" style="stroke-width:2;stroke:#00FFFF;fill:none;">
				</circle>
				<polygon id="Trend1_3" points="336.26,1043.52573750795 348.26,1043.52573750795 348.26,1055.52573750795 336.26,1055.52573750795 336.26,1043.52573750795" style="stroke-width:2;stroke:#FFFF00;fill:#FFFF00;" transform="rotate(45,342.26,1049.52573750795) ">
				</polygon>
				<polygon id="Trend1_3" points="659.033333333333,92.99470720055 671.033333333333,92.99470720055 671.033333333333,104.99470720055 659.033333333333,104.99470720055 659.033333333333,92.99470720055" style="stroke-width:2;stroke:#FFFF00;fill:#FFFF00;" transform="rotate(45,665.033333333333,98.99470720055) ">
				</polygon>
				<polygon id="Trend1_3" points="981.806666666667,302.328413283828 993.806666666667,302.328413283828 993.806666666667,314.328413283828 981.806666666667,314.328413283828 981.806666666667,302.328413283828" style="stroke-width:2;stroke:#FFFF00;fill:#FFFF00;" transform="rotate(45,987.806666666667,308.328413283828) ">
				</polygon>
				<polygon id="Trend1_4" points="336.26,1107.4453496713 348.26,1107.4453496713 348.26,1119.4453496713 336.26,1119.4453496713 336.26,1107.4453496713" style="stroke-width:2;stroke:#FF00FF;fill:none;" transform="rotate(45,342.26,1113.4453496713) ">
				</polygon>
				<polygon id="Trend1_4" points="659.033333333333,122.94844885282 671.033333333333,122.94844885282 671.033333333333,134.94844885282 659.033333333333,134.94844885282 659.033333333333,122.94844885282" style="stroke-width:2;stroke:#FF00FF;fill:none;" transform="rotate(45,665.033333333333,128.94844885282) ">
				</polygon>
				<polygon id="Trend1_4" points="981.806666666667,363.438863992588 993.806666666667,363.438863992588 993.806666666667,375.438863992588 981.806666666667,375.438863992588 981.806666666667,363.438863992588" style="stroke-width:2;stroke:#FF00FF;fill:none;" transform="rotate(45,987.806666666667,369.438863992588) ">
				</polygon>
			</svg>
			<g id="Trend1_YScaleTextGroup" style="font-family:Arial;font-size:33;stroke:#FFFFFF;fill:#FFFFFF;" transform="translate(8,41)">
				<text id="Max_0" x="2" y="33">1.0329</text>
				<text id="Min_0" x="2" y="1768">-0.0304</text>
				<text x="0" y="1394.82114533248">0.2</text>
				<text x="0" y="1061.14189329575">0.4</text>
				<text x="0" y="727.46264125902">0.6</text>
				<text x="0" y="393.78338922229">0.8</text>
				<text x="0" y="60.1041371855609">1</text>
			</g>
		</svg>
	</g>
	<script language="JavaScript" type="text/javascript"> 
        
        function SVG_doc_loaded(evt)
	{
	    var parentDoc = evt.getTarget().getOwnerDocument();
	    var elem = parentDoc.createElement("Ready");
	    evt.getTarget().appendChild(elem);

        }</script>
</svg>
