<?xml version="1.0" encoding="UTF-8"?>
<svg height="100%" viewBox="0 0 5209 2021" width="100%" fill="#C0C0C0" image-rendering="optimizeSpeed" onload="SVG_doc_loaded(evt);" PB:pid="" xlink:xid="" xmlns:svg="OSI_SVG_20090601" xmlns:xlink="http://www.w3.org/1999/xlink" xmlns:PB="urn:osisoft-com-pb" xmlns:PBI="urn:osisoft-com-interface" xmlns:PBD="urn:osisoft-com-data" xmlns:xsi="http://www.w3.org/1999/XMLSchema/instance">
	<defs><PBD:DataSetUses tag="AF2_DS.\\JLEFEBVRENEW\DataStatistics\DataStatistic|+3 sigma" PB:Parent="AF2_DS" PB:BO="PWSPIDataSetsBO.CBODataSets">
			<PBI:Symbol name="Trend1_Plot3" PB:Type="10" PB:Parent="Trend1">
			</PBI:Symbol>
		</PBD:DataSetUses><PBD:DataSetUses tag="AF2_DS.\\JLEFEBVRENEW\DataStatistics\DataStatistic|-3 sigma" PB:Parent="AF2_DS" PB:BO="PWSPIDataSetsBO.CBODataSets">
			<PBI:Symbol name="Trend1_Plot2" PB:Type="10" PB:Parent="Trend1">
			</PBI:Symbol>
		</PBD:DataSetUses><PBD:DataSetUses tag="AF2_DS.\\JLEFEBVRENEW\DataStatistics\DataStatistic|Maximum" PB:Parent="AF2_DS" PB:BO="PWSPIDataSetsBO.CBODataSets">
			<PBI:Symbol name="Trend1_Plot5" PB:Type="10" PB:Parent="Trend1">
			</PBI:Symbol>
		</PBD:DataSetUses><PBD:DataSetUses tag="AF2_DS.\\JLEFEBVRENEW\DataStatistics\DataStatistic|Mean" PB:Parent="AF2_DS" PB:BO="PWSPIDataSetsBO.CBODataSets">
			<PBI:Symbol name="Trend1_Plot0" PB:Type="10" PB:Parent="Trend1">
			</PBI:Symbol>
		</PBD:DataSetUses><PBD:DataSetUses tag="AF2_DS.\\JLEFEBVRENEW\DataStatistics\DataStatistic|Minimum" PB:Parent="AF2_DS" PB:BO="PWSPIDataSetsBO.CBODataSets">
			<PBI:Symbol name="Trend1_Plot4" PB:Type="10" PB:Parent="Trend1">
			</PBI:Symbol>
		</PBD:DataSetUses><PBD:DataSetUses tag="AF2_DS.\\JLEFEBVRENEW\DataStatistics\DataStatistic|Sensor" PB:Parent="AF2_DS" PB:BO="PWSPIDataSetsBO.CBODataSets">
			<PBI:Symbol name="Trend1_Plot1" PB:Type="10" PB:Parent="Trend1">
			</PBI:Symbol>
		</PBD:DataSetUses>
	</defs>
	<rect x="0" y="0" width="5209" height="2021" PB:DocMajorVersionNum="3" PB:DocMinorVersionNum="26" PB:DocGroup="1" PB:wnHeight="670" PB:wnWidth="1612" PB:wnState="0" PB:Zoom="80" PB:LocalID="1041" PB:DisplayServerTimeZone="True" PB:Type="55" PB:NamedValues="AFDisplayBuilder.Upgraded,1">
	</rect>
	<PB:Dataset id="AF2_DS" PB:Type="57" PB:Context="2" PB:Description="" PB:RefreshInterval="10000" PB:Stepped="False" PB:DSType="3" PB:DSVisible="True">
		<PB:DSDatapoint id="\\JLEFEBVRENEW\DataStatistics\DataStatistic|Mean_DP"/>
		<PB:DSDatapoint id="\\JLEFEBVRENEW\DataStatistics\DataStatistic|Sensor_DP"/>
		<PB:DSDatapoint id="\\JLEFEBVRENEW\DataStatistics\DataStatistic|-3 sigma_DP"/>
		<PB:DSDatapoint id="\\JLEFEBVRENEW\DataStatistics\DataStatistic|+3 sigma_DP"/>
		<PB:DSDatapoint id="\\JLEFEBVRENEW\DataStatistics\DataStatistic|Minimum_DP"/>
		<PB:DSDatapoint id="\\JLEFEBVRENEW\DataStatistics\DataStatistic|Maximum_DP"/>
	</PB:Dataset>
	<PB:Dataset id="E_DS_DS" PB:Type="57" PB:Context="2" PB:Description="" PB:RefreshInterval="5000" PB:Stepped="False" PB:DSType="3" PB:DSVisible="False">
	</PB:Dataset>
	<PB:Dataset id="MODULEDB_DS" PB:Type="57" PB:Context="2" PB:Description="" PB:RefreshInterval="5000" PB:Stepped="False" PB:DSType="3" PB:DSVisible="False">
	</PB:Dataset>
	<g id="Trend1" PB:Type="10">
		<PB:TrendLogical id="Trend1_Logical" PB:ValueScalePosition="1" PB:BackgroundColor="8421504" PB:CurrentTrace="6" PB:DisplayScaleInside="True" PB:EnableScript="True" PB:Enabled="True" PB:EndTime="*+2M" PB:FillColor="16711680" PB:FontBold="False" PB:FontItalic="False" PB:FontName="Arial" PB:FontSize="10" PB:FontStrikethrough="False" PB:FontUnderline="False" PB:Height="1954" PB:IsMultiState="False" PB:Left="-14967" PB:LineColor="16777215" PB:MultipleScales="False" PB:Name="Trend1" PB:PlotTimeStyle="0" PB:Rotation="0" PB:ShowDescription="False" PB:ShowEngUnits="True" PB:ShowGrids="True" PB:ShowTagName="True" PB:ShowServerName="False" PB:ShowTitle="True" PB:ShowTraceMarkers="False" PB:ShowValue="True" PB:StartTime="*-4m" PB:Top="14948" PB:TraceCount="6" PB:TrendTitle="Plot-0" PB:Visible="True" PB:Width="4369">
			<PB:TraceElem id="PB:TraceElem_1" PB:ShowLinearRegression="False" PB:ScaleLogarithmic="False" PB:ScaleMax="Autorange" PB:ScaleMin="Autorange" PB:Trace="AF2.\\JLEFEBVRENEW\DataStatistics\DataStatistic|Mean" PB:ScaleFormat="General" PB:DisplayDigits="-5" PB:CanonicalNumberFormat="General" PB:TagInfoType="1">
			</PB:TraceElem>
			<PB:TraceElem id="PB:TraceElem_2" PB:ShowLinearRegression="False" PB:ScaleLogarithmic="False" PB:ScaleMax="Autorange" PB:ScaleMin="Autorange" PB:Trace="AF2.\\JLEFEBVRENEW\DataStatistics\DataStatistic|Sensor" PB:ScaleFormat="General" PB:DisplayDigits="-5" PB:CanonicalNumberFormat="General" PB:TagInfoType="1">
			</PB:TraceElem>
			<PB:TraceElem id="PB:TraceElem_3" PB:ShowLinearRegression="False" PB:ScaleLogarithmic="False" PB:ScaleMax="Autorange" PB:ScaleMin="Autorange" PB:Trace="AF2.\\JLEFEBVRENEW\DataStatistics\DataStatistic|-3 sigma" PB:ScaleFormat="General" PB:DisplayDigits="2" PB:CanonicalNumberFormat="General" PB:TagInfoType="1">
			</PB:TraceElem>
			<PB:TraceElem id="PB:TraceElem_4" PB:ShowLinearRegression="False" PB:ScaleLogarithmic="False" PB:ScaleMax="Autorange" PB:ScaleMin="Autorange" PB:Trace="AF2.\\JLEFEBVRENEW\DataStatistics\DataStatistic|+3 sigma" PB:ScaleFormat="General" PB:DisplayDigits="2" PB:CanonicalNumberFormat="General" PB:TagInfoType="1">
			</PB:TraceElem>
			<PB:TraceElem id="PB:TraceElem_5" PB:ShowLinearRegression="False" PB:ScaleLogarithmic="False" PB:ScaleMax="Autorange" PB:ScaleMin="Autorange" PB:Trace="AF2.\\JLEFEBVRENEW\DataStatistics\DataStatistic|Minimum" PB:ScaleFormat="General" PB:DisplayDigits="-5" PB:CanonicalNumberFormat="General" PB:TagInfoType="1">
			</PB:TraceElem>
			<PB:TraceElem id="PB:TraceElem_6" PB:ShowLinearRegression="False" PB:ScaleLogarithmic="False" PB:ScaleMax="Autorange" PB:ScaleMin="Autorange" PB:Trace="AF2.\\JLEFEBVRENEW\DataStatistics\DataStatistic|Maximum" PB:ScaleFormat="General" PB:DisplayDigits="-5" PB:CanonicalNumberFormat="General" PB:TagInfoType="1">
			</PB:TraceElem>
			<PB:Format id="PB:Format_1" PB:Name="Horz. Axis" PB:LineColor="0" PB:LineStyle="0" PB:LineWidth="1" PB:MarkerStyle="-1">
			</PB:Format>
			<PB:Format id="PB:Format_2" PB:Name="Background" PB:LineColor="8421504" PB:LineStyle="-1" PB:LineWidth="1" PB:MarkerStyle="-1">
			</PB:Format>
			<PB:Format id="PB:Format_3" PB:Name="Horz. Major Grid" PB:LineColor="0" PB:LineStyle="0" PB:LineWidth="1" PB:MarkerStyle="-1">
			</PB:Format>
			<PB:Format id="PB:Format_4" PB:Name="Horz. Minor Grid" PB:LineColor="0" PB:LineStyle="0" PB:LineWidth="1" PB:MarkerStyle="-1">
			</PB:Format>
			<PB:Format id="PB:Format_5" PB:Name="Pen 1" PB:LineColor="65280" PB:LineStyle="0" PB:LineWidth="1" PB:MarkerStyle="0">
			</PB:Format>
			<PB:Format id="PB:Format_6" PB:Name="Pen 2" PB:LineColor="16776960" PB:LineStyle="0" PB:LineWidth="1" PB:MarkerStyle="1">
			</PB:Format>
			<PB:Format id="PB:Format_7" PB:Name="Pen 3" PB:LineColor="65535" PB:LineStyle="0" PB:LineWidth="1" PB:MarkerStyle="2">
			</PB:Format>
			<PB:Format id="PB:Format_8" PB:Name="Pen 4" PB:LineColor="16711935" PB:LineStyle="0" PB:LineWidth="1" PB:MarkerStyle="3">
			</PB:Format>
			<PB:Format id="PB:Format_9" PB:Name="Pen 5" PB:LineColor="255" PB:LineStyle="0" PB:LineWidth="1" PB:MarkerStyle="4">
			</PB:Format>
			<PB:Format id="PB:Format_10" PB:Name="Pen 6" PB:LineColor="16777215" PB:LineStyle="0" PB:LineWidth="1" PB:MarkerStyle="5">
			</PB:Format>
			<PB:Format id="PB:Format_11" PB:Name="Pen 7" PB:LineColor="16711680" PB:LineStyle="0" PB:LineWidth="1" PB:MarkerStyle="6">
			</PB:Format>
			<PB:Format id="PB:Format_12" PB:Name="Pen 8" PB:LineColor="0" PB:LineStyle="0" PB:LineWidth="1" PB:MarkerStyle="7">
			</PB:Format>
			<PB:Format id="PB:Format_13" PB:Name="Pen 9" PB:LineColor="8388608" PB:LineStyle="0" PB:LineWidth="1" PB:MarkerStyle="8">
			</PB:Format>
			<PB:Format id="PB:Format_14" PB:Name="Pen 10" PB:LineColor="32768" PB:LineStyle="0" PB:LineWidth="1" PB:MarkerStyle="9">
			</PB:Format>
			<PB:Format id="PB:Format_15" PB:Name="Pen 11" PB:LineColor="8388736" PB:LineStyle="0" PB:LineWidth="1" PB:MarkerStyle="10">
			</PB:Format>
			<PB:Format id="PB:Format_16" PB:Name="Pen 12" PB:LineColor="8433626" PB:LineStyle="0" PB:LineWidth="1" PB:MarkerStyle="11">
			</PB:Format>
			<PB:Format id="PB:Format_17" PB:Name="Text" PB:LineColor="16777215" PB:LineStyle="-1" PB:LineWidth="1" PB:MarkerStyle="-1">
			</PB:Format>
			<PB:Format id="PB:Format_18" PB:Name="Vert. Axis" PB:LineColor="0" PB:LineStyle="0" PB:LineWidth="1" PB:MarkerStyle="-1">
			</PB:Format>
			<PB:Format id="PB:Format_19" PB:Name="Vert. Major Grid" PB:LineColor="0" PB:LineStyle="0" PB:LineWidth="1" PB:MarkerStyle="-1">
			</PB:Format>
			<PB:Format id="PB:Format_20" PB:Name="Vert. Minor Grid" PB:LineColor="0" PB:LineStyle="0" PB:LineWidth="1" PB:MarkerStyle="-1">
			</PB:Format>
		</PB:TrendLogical>
		<svg id="Trend1_Graphical" height="1954" width="4369" x="33" y="52">
			<PB:RefreshData id="Trend1_RefreshData" PB:bEngUnits="True" PB:bLogarithmic="False" PB:bMarkers="False" PB:bTagname="True" PB:bValue="True" PB:fXUnits="8.955555555555555555555555556" PB:iGrdBegX="6" PB:iGrdBegY="41" PB:iGrdHght="1862" PB:iGrdWdth="3224" PB:iMinPerCol="1" PB:iNumTrcs="6" PB:iNumXCols="0" PB:bGrids="True" PB:Updateable="True" PB:iSnglLnHght="33" PB:iScaleWidth="0" PB:bOmitScaleText="False" PB:bOmitTimeText="False">
			</PB:RefreshData>
			<rect id="Trend1_Background" x="0" y="0" width="4369" height="1954" fill="#808080">
			</rect>
			<g id="Trend1_PlotTitleGroup" style="font-family:Arial;font-size:33;stroke:#FFFFFF;fill:#FFFFFF;">
				<text x="6" y="33" style="font-family:Arial;font-size:33;stroke:#FFFFFF;fill:#FFFFFF;">Plot-0</text>
			</g>
			<svg id="Trend1_AxesGroup" height="1862" width="3224" x="6" y="41">
				<rect id="Trend1_GridBackground" x="0" y="0" width="3224" height="1862" style="fill:#808080;stroke:none;">
				</rect>
				<polyline id="Trend1_VertAxis_1" style="stroke-width:3;fill:none;stroke:#000000;" points="0,0 0,1862">
				</polyline>
				<polyline id="Trend1_VertAxis_Last" style="stroke-width:3;fill:none;stroke:#000000;stroke-dasharray:10 10 10 10;" points="3224,0 3224,1862">
				</polyline>
				<polyline id="Trend1_HorizAxis" style="stroke-width:3;fill:none;stroke:#000000;" points="0,1862 3224,1862">
				</polyline>
			</svg>
			<svg id="Trend1_GridGroup" height="1862" width="3224" x="6" y="41">
				<path id="Trend1_HorizGridLine" style="stroke-width:2;stroke:#000000;" d="M233,0 L233,1862">
				</path>
				<path id="Trend1_HorizGridLine" style="stroke-width:2;stroke:#000000;" d="M770,0 L770,1862">
				</path>
				<path id="Trend1_HorizGridLine" style="stroke-width:2;stroke:#000000;" d="M1308,0 L1308,1862">
				</path>
				<path id="Trend1_HorizGridLine" style="stroke-width:2;stroke:#000000;" d="M1845,0 L1845,1862">
				</path>
				<path id="Trend1_HorizGridLine" style="stroke-width:2;stroke:#000000;" d="M2382,0 L2382,1862">
				</path>
				<path id="Trend1_HorizGridLine" style="stroke-width:2;stroke:#000000;" d="M2920,0 L2920,1862">
				</path>
				<path id="Trend1_VertGridLine" style="stroke-width:2;stroke:#000000" d="M0,1822.65 L3224,1822.65">
				</path>
				<path id="Trend1_VertGridLine" style="stroke-width:2;stroke:#000000" d="M0,1480.75 L3224,1480.75">
				</path>
				<path id="Trend1_VertGridLine" style="stroke-width:2;stroke:#000000" d="M0,1138.84 L3224,1138.84">
				</path>
				<path id="Trend1_VertGridLine" style="stroke-width:2;stroke:#000000" d="M0,796.94 L3224,796.94">
				</path>
				<path id="Trend1_VertGridLine" style="stroke-width:2;stroke:#000000" d="M0,455.03 L3224,455.03">
				</path>
				<path id="Trend1_VertGridLine" style="stroke-width:2;stroke:#000000" d="M0,113.13 L3224,113.13">
				</path>
				<path id="Trend1_VertGridLine" style="stroke-width:2;stroke:#000000" d="M0,0 L3224,0">
				</path>
			</svg>
			<g id="Trend1_XScaleTextGroup" style="font-family:Arial;font-size:33;stroke:#FFFFFF;fill:#FFFFFF;">
				<text id="Trend1_XScaleTextBegin" x="6" y="1938" style="font-family:Arial;font-size:33;stroke:#FFFFFF;fill:#FFFFFF;">2016/04/19 16:10:34</text>
				<text id="Trend1_XScaleTextSpan" x="1495" y="1938" style="font-family:Arial;font-size:33;stroke:#FFFFFF;fill:#FFFFFF;">6.00 minutes</text>
				<text id="Trend1_XScaleTextEnd" x="2845" y="1938" style="font-family:Arial;font-size:33;stroke:#FFFFFF;fill:#FFFFFF;">2016/04/19 16:16:34</text>
			</g>
			<g id="Trend1_TagNameGroup" transform="translate(3256,43)">
				<circle id="Trend1_0" cx="0.5" cy="17" r="8" style="stroke-width:2;stroke:#00FF00;fill:#00FF00;">
				</circle>
				<text id="Trend1_TagName0" x="19.1860465116279" y="33" style="font-family:Arial;font-size:33;stroke:#00FF00;fill:#00FF00;">OSI_DataStatistic.Mean</text>
				<text id="Trend1_TagValue0" x="19.1860465116279" y="68" style="font-family:Arial;font-size:33;stroke:#00FF00;fill:#00FF00;">No Data</text>
				<text id="Trend1_EngUnits0" x="19.1860465116279" y="103" style="font-family:Arial;font-size:33;stroke:#00FF00;fill:#00FF00;">
				</text>
				<circle id="Trend1_1" cx="0.5" cy="122" r="8" style="stroke-width:2;stroke:#00FFFF;fill:none;">
				</circle>
				<text id="Trend1_TagName1" x="19.1860465116279" y="138" style="font-family:Arial;font-size:33;stroke:#00FFFF;fill:#00FFFF;">DataGeneration.Sensor</text>
				<text id="Trend1_TagValue1" x="19.1860465116279" y="173" style="font-family:Arial;font-size:33;stroke:#00FFFF;fill:#00FFFF;">0.90626</text>
				<text id="Trend1_EngUnits1" x="19.1860465116279" y="208" style="font-family:Arial;font-size:33;stroke:#00FFFF;fill:#00FFFF;">
				</text>
				<polygon id="Trend1_2" points="-5.5,221 6.5,221 6.5,233 -5.5,233 -5.5,221" style="stroke-width:2;stroke:#FFFF00;fill:#FFFF00;" transform="rotate(45,0.5,227) ">
				</polygon>
				<text id="Trend1_TagName2" x="19.1860465116279" y="243" style="font-family:Arial;font-size:33;stroke:#FFFF00;fill:#FFFF00;">AF2.\\JLEFEBVRENEW\DataStatistics\DataStatistic|-3 sigma</text>
				<text id="Trend1_TagValue2" x="19.1860465116279" y="278" style="font-family:Arial;font-size:33;stroke:#FFFF00;fill:#FFFF00;">Calc Failed</text>
				<text id="Trend1_EngUnits2" x="19.1860465116279" y="313" style="font-family:Arial;font-size:33;stroke:#FFFF00;fill:#FFFF00;">
				</text>
				<polygon id="Trend1_3" points="-5.5,326 6.5,326 6.5,338 -5.5,338 -5.5,326" style="stroke-width:2;stroke:#FF00FF;fill:none;" transform="rotate(45,0.5,332) ">
				</polygon>
				<text id="Trend1_TagName3" x="19.1860465116279" y="348" style="font-family:Arial;font-size:33;stroke:#FF00FF;fill:#FF00FF;">AF2.\\JLEFEBVRENEW\DataStatistics\DataStatistic|+3 sigma</text>
				<text id="Trend1_TagValue3" x="19.1860465116279" y="383" style="font-family:Arial;font-size:33;stroke:#FF00FF;fill:#FF00FF;">Calc Failed</text>
				<text id="Trend1_EngUnits3" x="19.1860465116279" y="418" style="font-family:Arial;font-size:33;stroke:#FF00FF;fill:#FF00FF;">
				</text>
				<rect id="Trend1_4" x="-7.5" y="429" width="16" height="16" style="stroke-width:2;stroke:#FF0000;fill:#FF0000;">
				</rect>
				<text id="Trend1_TagName4" x="19.1860465116279" y="453" style="font-family:Arial;font-size:33;stroke:#FF0000;fill:#FF0000;">OSI_DataStatistic.Minimum</text>
				<text id="Trend1_TagValue4" x="19.1860465116279" y="488" style="font-family:Arial;font-size:33;stroke:#FF0000;fill:#FF0000;">No Data</text>
				<text id="Trend1_EngUnits4" x="19.1860465116279" y="523" style="font-family:Arial;font-size:33;stroke:#FF0000;fill:#FF0000;">
				</text>
				<rect id="Trend1_5" x="-7.5" y="534" width="16" height="16" style="stroke-width:2;stroke:#FFFFFF;fill:none;">
				</rect>
				<text id="Trend1_TagName5" x="19.1860465116279" y="558" style="font-family:Arial;font-size:33;stroke:#FFFFFF;fill:#FFFFFF;">OSI_DataStatistic.Maximum</text>
				<text id="Trend1_TagValue5" x="19.1860465116279" y="593" style="font-family:Arial;font-size:33;stroke:#FFFFFF;fill:#FFFFFF;">No Data</text>
				<text id="Trend1_EngUnits5" x="19.1860465116279" y="628" style="font-family:Arial;font-size:33;stroke:#FFFFFF;fill:#FFFFFF;">
				</text>
			</g>
			<svg id="Trend1_TraceGroup" height="1862" width="3224" style="font-family:Arial;font-size:33;stroke:#FFFFFF;fill:#FFFFFF;" x="6" y="41">
				<path id="Trend1_Plot0" style="font-family:Arial;font-size:33;stroke:#00FF00;fill:none;stroke-width:2;" d="" PBD:DatasetName="AF2_DS" PBD:DatasetColumn="\\JLEFEBVRENEW\DataStatistics\DataStatistic|Mean">
				</path>
				<path id="Trend1_Plot1" style="font-family:Arial;font-size:33;stroke:#00FFFF;fill:none;stroke-width:2;" d="M8.95555555555556,80.0871882452235 L17.9111111111111,280.371766977276 L26.8666666666667,261.87780218607 L35.8222222222222,372.535863905093 L44.7777777777778,329.291832875417 L53.7333333333333,172.35245931845 L62.6888888888889,449.95800154356 L71.6444444444444,506.752753027491 L80.6,648.829965176861 L89.5555555555556,468.087380903436 L98.5111111111111,634.388600105804 L107.466666666667,777.926090518105 L116.422222222222,732.555502988151 L125.377777777778,875.477673474966 L134.333333333333,889.043645356058 L143.288888888889,1097.62014046621 L152.244444444444,1011.63386265008 L161.2,1040.14418560591 L170.155555555556,1321.96344976411 L179.111111111111,1443.5390842622 L188.066666666667,1423.00614405327 L197.022222222222,1460.108545529 L205.977777777778,1595.47589371572 L214.933333333333,1625.38381764836 L223.888888888889,1753.9452651217 L232.844444444444,1822.64999849812 L241.8,1822.64999849812 L250.755555555556,1822.64999849812 L259.711111111111,1822.64999849812 L268.666666666667,1822.64999849812 L277.622222222222,1822.64999849812 L286.577777777778,1822.64999849812 L295.533333333333,1822.64999849812 L304.488888888889,1822.64999849812 L313.444444444444,1822.64999849812 L322.4,1822.64999849812 L331.355555555556,1822.64999849812 L340.311111111111,1822.64999849812 L349.266666666667,1822.64999849812 L358.222222222222,1822.64999849812 L367.177777777778,1822.64999849812 L376.133333333333,1822.64999849812 L385.088888888889,1822.64999849812 L394.044444444444,1822.64999849812 L403,1822.64999849812 L411.955555555556,1822.64999849812 L420.911111111111,1822.64999849812 L429.866666666667,1822.64999849812 L438.822222222222,1822.64999849812 L447.777777777778,1822.64999849812 L456.733333333333,1822.64999849812 L465.688888888889,1822.64999849812 L474.644444444444,1822.64999849812 L483.6,1822.64999849812 L492.555555555555,1822.64999849812 L501.511111111111,1822.64999849812 L510.466666666667,1822.64999849812 L519.422222222222,1822.64999849812 L528.377777777778,1822.64999849812 L537.333333333333,1822.64999849812 L546.288888888889,1822.64999849812 L555.244444444444,1822.64999849812 L564.2,1822.64999849812 L573.155555555556,1822.64999849812 L582.111111111111,1822.64999849812 L591.066666666667,1822.64999849812 L600.022222222222,1822.64999849812 L608.977777777778,1822.64999849812 L617.933333333333,1822.64999849812 L626.888888888889,1822.64999849812 L635.844444444444,1822.64999849812 L644.8,1822.64999849812 L653.755555555556,1822.64999849812 L662.711111111111,1822.64999849812 L671.666666666667,1822.64999849812 L680.622222222222,1822.64999849812 L689.577777777778,1822.64999849812 L698.533333333333,1822.64999849812 L707.488888888889,1822.64999849812 L716.444444444444,1822.64999849812 L725.4,1822.64999849812 L734.355555555556,1822.64999849812 L743.311111111111,1822.64999849812 L752.266666666667,1822.64999849812 L761.222222222222,1822.64999849812 L770.177777777778,1862 L779.133333333333,1679.5393730397 L788.088888888889,1728.03982629597 L797.044444444444,1482.76061668365 L806,1523.53774422437 L814.955555555556,1452.51989195688 L823.911111111111,1282.19632476352 L832.866666666667,1227.58047039113 L841.822222222222,1221.27858256599 L850.777777777778,1100.72938894532 L859.733333333333,866.322536533304 L868.688888888889,888.276110834928 L877.644444444444,715.724402861314 L886.6,609.707314868425 L895.555555555556,731.053730748759 L904.511111111111,614.193905523372 L913.466666666667,643.660250573568 L922.422222222222,474.51721366014 L931.377777777778,467.957104214458 L940.333333333333,386.487208910964 L949.288888888889,485.115724115789 L958.244444444444,184.605293354331 L967.2,390.729342111014 L976.155555555555,116.190089662248 L985.111111111111,183.233303796293 L994.066666666666,230.737158663192 L1003.02222222222,202.175944745153 L1011.97777777778,0 L1020.93333333333,70.7943492801046 L1029.88888888889,216.567667175425 L1038.84444444444,71.6330480100871 L1047.8,130.181598701611 L1056.75555555556,169.245633301274 L1065.71111111111,145.580240785044 L1074.66666666667,333.107414256172 L1083.62222222222,190.209395789005 L1092.57777777778,392.554071540337 L1101.53333333333,289.312157581937 L1110.48888888889,181.18057685618 L1119.44444444444,333.118569348217 L1128.4,376.93808463511 L1137.35555555556,509.938363231183 L1146.31111111111,609.126666312693 L1155.26666666667,500.359079072138 L1164.22222222222,503.774221619008 L1173.17777777778,682.209897335034 L1182.13333333333,611.592594070199 L1191.08888888889,753.721200693013 L1200.04444444444,866.526804951607 L1209,982.193890746445 L1217.95555555556,998.435455682299 L1226.91111111111,1195.74834035221 L1235.86666666667,1280.15694774591 L1244.82222222222,1127.11107790694 L1253.77777777778,1310.22359303144 L1262.73333333333,1481.38089700377 L1271.68888888889,1593.2498334711 L1280.64444444444,1718.81881352169 L1289.6,1602.39648311204 L1298.55555555556,1807.43775831181 L1307.51111111111,1822.64999849812 L1316.46666666667,1822.64999849812 L1325.42222222222,1822.64999849812 L1334.37777777778,1822.64999849812 L1343.33333333333,1822.64999849812 L1352.28888888889,1822.64999849812 L1361.24444444444,1822.64999849812 L1370.2,1822.64999849812 L1379.15555555556,1822.64999849812 L1388.11111111111,1822.64999849812 L1397.06666666667,1822.64999849812 L1406.02222222222,1822.64999849812 L1414.97777777778,1822.64999849812 L1423.93333333333,1822.64999849812 L1432.88888888889,1822.64999849812 L1441.84444444444,1822.64999849812 L1450.8,1822.64999849812 L1459.75555555556,1822.64999849812 L1468.71111111111,1822.64999849812 L1477.66666666667,1822.64999849812 L1486.62222222222,1822.64999849812 L1495.57777777778,1822.64999849812 L1504.53333333333,1822.64999849812 L1513.48888888889,1822.64999849812 L1522.44444444444,1822.64999849812 L1531.4,1822.64999849812 L1540.35555555556,1822.64999849812 L1549.31111111111,1822.64999849812 L1558.26666666667,1822.64999849812 L1567.22222222222,1822.64999849812 L1576.17777777778,1822.64999849812 L1585.13333333333,1822.64999849812 L1594.08888888889,1822.64999849812 L1603.04444444444,1822.64999849812 L1612,1822.64999849812 L1620.95555555556,1822.64999849812 L1629.91111111111,1822.64999849812 L1638.86666666667,1822.64999849812 L1647.82222222222,1822.64999849812 L1656.77777777778,1822.64999849812 L1665.73333333333,1822.64999849812 L1674.68888888889,1822.64999849812 L1683.64444444444,1822.64999849812 L1692.6,1822.64999849812 L1701.55555555556,1822.64999849812 L1710.51111111111,1822.64999849812 L1719.46666666667,1822.64999849812 L1728.42222222222,1822.64999849812 L1737.37777777778,1822.64999849812 L1746.33333333333,1822.64999849812 L1755.28888888889,1822.64999849812 L1764.24444444444,1822.64999849812 L1773.2,1822.64999849812 L1782.15555555556,1822.64999849812 L1791.11111111111,1822.64999849812 L1800.06666666667,1822.64999849812 L1809.02222222222,1822.64999849812 L1817.97777777778,1822.64999849812 L1826.93333333333,1822.64999849812 L1835.88888888889,1822.64999849812 L1844.84444444444,1745.95113862917 L1853.8,1694.09170095058 L1862.75555555556,1672.6297467003 L1871.71111111111,1560.23688076647 L1880.66666666667,1512.23152175991 L1889.62222222222,1351.7888938612 L1898.57777777778,1391.97254234973 L1907.53333333333,1230.36433600022 L1916.48888888889,1114.02812863092 L1925.44444444444,868.370971393685 L1934.4,973.198060180982 L1943.35555555556,919.695653234071 L1952.31111111111,719.190488425789 L1961.26666666667,832.141682548555 L1970.22222222222,645.904144181008 L1979.17777777778,577.444716866594 L1988.13333333333,666.595006746216 L1997.08888888889,445.049655195781 L2006.04444444444,309.130634521415 L2015,148.859979459815 L2023.95555555556,325.283734518621 L2032.91111111111,394.741217889817 L2041.86666666667,260.360992895628 L2050.82222222222,93.83291648165 L2059.77777777778,225.864510863795 L2068.73333333333,273.378216366367 L2149.33333333333,273.378216366367 " PBD:DatasetName="AF2_DS" PBD:DatasetColumn="\\JLEFEBVRENEW\DataStatistics\DataStatistic|Sensor">
				</path>
				<path id="Trend1_Plot2" style="font-family:Arial;font-size:33;stroke:#FFFF00;fill:none;stroke-width:2;" d="" PBD:DatasetName="AF2_DS" PBD:DatasetColumn="\\JLEFEBVRENEW\DataStatistics\DataStatistic|-3 sigma">
				</path>
				<path id="Trend1_Plot3" style="font-family:Arial;font-size:33;stroke:#FF00FF;fill:none;stroke-width:2;" d="" PBD:DatasetName="AF2_DS" PBD:DatasetColumn="\\JLEFEBVRENEW\DataStatistics\DataStatistic|+3 sigma">
				</path>
				<path id="Trend1_Plot4" style="font-family:Arial;font-size:33;stroke:#FF0000;fill:none;stroke-width:2;" d="" PBD:DatasetName="AF2_DS" PBD:DatasetColumn="\\JLEFEBVRENEW\DataStatistics\DataStatistic|Minimum">
				</path>
				<path id="Trend1_Plot5" style="font-family:Arial;font-size:33;stroke:#FFFFFF;fill:none;stroke-width:2;" d="" PBD:DatasetName="AF2_DS" PBD:DatasetColumn="\\JLEFEBVRENEW\DataStatistics\DataStatistic|Maximum">
				</path>
			</svg>
			<svg id="Trend1_MarkerGroup" height="1862" width="3224" style="" x="6" y="41">
				<circle id="Trend1_2" cx="519.922222222222" cy="1823.14999849812" r="8" style="stroke-width:2;stroke:#00FFFF;fill:none;">
				</circle>
				<circle id="Trend1_2" cx="1039.34444444444" cy="72.1330480100871" r="8" style="stroke-width:2;stroke:#00FFFF;fill:none;">
				</circle>
				<circle id="Trend1_2" cx="1549.81111111111" cy="1823.14999849812" r="8" style="stroke-width:2;stroke:#00FFFF;fill:none;">
				</circle>
			</svg>
			<g id="Trend1_YScaleTextGroup" style="font-family:Arial;font-size:33;stroke:#FFFFFF;fill:#FFFFFF;" transform="translate(8,41)">
				<text id="Max_0" x="2" y="33">1.06618</text>
				<text id="Min_0" x="2" y="1856">-0.02302</text>
				<text x="0" y="1485.99676640703">0.2</text>
				<text x="0" y="1144.09300926344">0.4</text>
				<text x="0" y="802.189252119847">0.6</text>
				<text x="0" y="460.285494976256">0.8</text>
				<text x="0" y="118.381737832665">1</text>
			</g>
		</svg>
	</g>
	<script language="JavaScript" type="text/javascript"> 
        
        function SVG_doc_loaded(evt)
	{
	    var parentDoc = evt.getTarget().getOwnerDocument();
	    var elem = parentDoc.createElement("Ready");
	    evt.getTarget().appendChild(elem);

        }</script>
</svg>
