<?xml version="1.0" encoding="UTF-8"?>
<svg height="100%" viewBox="0 121 5222 2021" width="100%" fill="#C0C0C0" image-rendering="optimizeSpeed" onload="SVG_doc_loaded(evt);" PB:pid="" xlink:xid="" xmlns:svg="OSI_SVG_20090601" xmlns:xlink="http://www.w3.org/1999/xlink" xmlns:PB="urn:osisoft-com-pb" xmlns:PBI="urn:osisoft-com-interface" xmlns:PBD="urn:osisoft-com-data" xmlns:xsi="http://www.w3.org/1999/XMLSchema/instance">
	<defs><PBD:DataSetUses tag="AF2_DS.\\JLEFEBVRENEW\GenerationOfData\DataStatistic|+3 sigma" PB:Parent="AF2_DS" PB:BO="PWSPIDataSetsBO.CBODataSets">
			<PBI:Symbol name="Trend1_Plot2" PB:Type="10" PB:Parent="Trend1">
			</PBI:Symbol>
		</PBD:DataSetUses><PBD:DataSetUses tag="AF2_DS.\\JLEFEBVRENEW\GenerationOfData\DataStatistic|-3 sigma" PB:Parent="AF2_DS" PB:BO="PWSPIDataSetsBO.CBODataSets">
			<PBI:Symbol name="Trend1_Plot1" PB:Type="10" PB:Parent="Trend1">
			</PBI:Symbol>
		</PBD:DataSetUses><PBD:DataSetUses tag="AF2_DS.\\JLEFEBVRENEW\GenerationOfData\DataStatistic|Mean" PB:Parent="AF2_DS" PB:BO="PWSPIDataSetsBO.CBODataSets">
			<PBI:Symbol name="Trend1_Plot4" PB:Type="10" PB:Parent="Trend1">
			</PBI:Symbol>
		</PBD:DataSetUses><PBD:DataSetUses tag="AF2_DS.\\JLEFEBVRENEW\GenerationOfData\DataStatistic|Sensor" PB:Parent="AF2_DS" PB:BO="PWSPIDataSetsBO.CBODataSets">
			<PBI:Symbol name="Trend1_Plot3" PB:Type="10" PB:Parent="Trend1">
			</PBI:Symbol>
		</PBD:DataSetUses><PBD:DataSetUses tag="AF2_DS.\\JLEFEBVRENEW\GenerationOfData\DataStatistic|平均" PB:Parent="AF2_DS" PB:BO="PWSPIDataSetsBO.CBODataSets">
			<PBI:Symbol name="Trend1_Plot0" PB:Type="10" PB:Parent="Trend1">
			</PBI:Symbol>
		</PBD:DataSetUses>
	</defs>
	<rect x="0" y="0" width="5222" height="2142" PB:DocMajorVersionNum="3" PB:DocMinorVersionNum="26" PB:DocGroup="1" PB:wnHeight="670" PB:wnWidth="1616" PB:wnState="2" PB:Zoom="80" PB:LocalID="1041" PB:DisplayServerTimeZone="True" PB:Type="55" PB:NamedValues="AFDisplayBuilder.Upgraded,1">
	</rect>
	<PB:Dataset id="AF2_DS" PB:Type="57" PB:Context="2" PB:Description="" PB:RefreshInterval="10000" PB:Stepped="False" PB:DSType="3" PB:DSVisible="True">
		<PB:DSDatapoint id="\\JLEFEBVRENEW\GenerationOfData\DataStatistic|平均_DP"/>
		<PB:DSDatapoint id="\\JLEFEBVRENEW\GenerationOfData\DataStatistic|-3 sigma_DP"/>
		<PB:DSDatapoint id="\\JLEFEBVRENEW\GenerationOfData\DataStatistic|+3 sigma_DP"/>
		<PB:DSDatapoint id="\\JLEFEBVRENEW\GenerationOfData\DataStatistic|Sensor_DP"/>
		<PB:DSDatapoint id="\\JLEFEBVRENEW\GenerationOfData\DataStatistic|Mean_DP"/>
	</PB:Dataset>
	<PB:Dataset id="E_DS_DS" PB:Type="57" PB:Context="2" PB:Description="" PB:RefreshInterval="5000" PB:Stepped="False" PB:DSType="3" PB:DSVisible="False">
	</PB:Dataset>
	<PB:Dataset id="MODULEDB_DS" PB:Type="57" PB:Context="2" PB:Description="" PB:RefreshInterval="5000" PB:Stepped="False" PB:DSType="3" PB:DSVisible="False">
	</PB:Dataset>
	<g id="Trend1" PB:Type="10">
		<PB:TrendLogical id="Trend1_Logical" PB:ValueScalePosition="1" PB:BackgroundColor="8421504" PB:CurrentTrace="5" PB:DisplayScaleInside="True" PB:EnableScript="True" PB:Enabled="True" PB:EndTime="*+2M" PB:FillColor="16711680" PB:FontBold="False" PB:FontItalic="False" PB:FontName="Arial" PB:FontSize="10" PB:FontStrikethrough="False" PB:FontUnderline="False" PB:Height="1954" PB:IsMultiState="False" PB:Left="-14967" PB:LineColor="16777215" PB:MultipleScales="False" PB:Name="Trend1" PB:PlotTimeStyle="0" PB:Rotation="0" PB:ShowDescription="False" PB:ShowEngUnits="True" PB:ShowGrids="True" PB:ShowTagName="True" PB:ShowServerName="False" PB:ShowTitle="True" PB:ShowTraceMarkers="False" PB:ShowValue="True" PB:StartTime="*-1m" PB:Top="14948" PB:TraceCount="5" PB:TrendTitle="Plot-0" PB:Visible="True" PB:Width="4369">
			<PB:TraceElem id="PB:TraceElem_1" PB:ShowLinearRegression="False" PB:ScaleLogarithmic="False" PB:ScaleMax="Autorange" PB:ScaleMin="Autorange" PB:Trace="AF2.\\JLEFEBVRENEW\GenerationOfData\DataStatistic|平均" PB:ScaleFormat="General" PB:DisplayDigits="2" PB:CanonicalNumberFormat="General" PB:TagInfoType="1">
			</PB:TraceElem>
			<PB:TraceElem id="PB:TraceElem_2" PB:ShowLinearRegression="False" PB:ScaleLogarithmic="False" PB:ScaleMax="Autorange" PB:ScaleMin="Autorange" PB:Trace="AF2.\\JLEFEBVRENEW\GenerationOfData\DataStatistic|-3 sigma" PB:ScaleFormat="General" PB:DisplayDigits="2" PB:CanonicalNumberFormat="General" PB:TagInfoType="1">
			</PB:TraceElem>
			<PB:TraceElem id="PB:TraceElem_3" PB:ShowLinearRegression="False" PB:ScaleLogarithmic="False" PB:ScaleMax="Autorange" PB:ScaleMin="Autorange" PB:Trace="AF2.\\JLEFEBVRENEW\GenerationOfData\DataStatistic|+3 sigma" PB:ScaleFormat="General" PB:DisplayDigits="2" PB:CanonicalNumberFormat="General" PB:TagInfoType="1">
			</PB:TraceElem>
			<PB:TraceElem id="PB:TraceElem_4" PB:ShowLinearRegression="False" PB:ScaleLogarithmic="False" PB:ScaleMax="Autorange" PB:ScaleMin="Autorange" PB:Trace="AF2.\\JLEFEBVRENEW\GenerationOfData\DataStatistic|Sensor" PB:ScaleFormat="General" PB:DisplayDigits="-5" PB:CanonicalNumberFormat="General" PB:TagInfoType="1">
			</PB:TraceElem>
			<PB:TraceElem id="PB:TraceElem_5" PB:ShowLinearRegression="False" PB:ScaleLogarithmic="False" PB:ScaleMax="Autorange" PB:ScaleMin="Autorange" PB:Trace="AF2.\\JLEFEBVRENEW\GenerationOfData\DataStatistic|Mean" PB:ScaleFormat="General" PB:DisplayDigits="-5" PB:CanonicalNumberFormat="General" PB:TagInfoType="1">
			</PB:TraceElem>
			<PB:Format id="PB:Format_1" PB:Name="Horz. Axis" PB:LineColor="0" PB:LineStyle="0" PB:LineWidth="1" PB:MarkerStyle="-1">
			</PB:Format>
			<PB:Format id="PB:Format_2" PB:Name="Background" PB:LineColor="8421504" PB:LineStyle="-1" PB:LineWidth="1" PB:MarkerStyle="-1">
			</PB:Format>
			<PB:Format id="PB:Format_3" PB:Name="Horz. Major Grid" PB:LineColor="0" PB:LineStyle="0" PB:LineWidth="1" PB:MarkerStyle="-1">
			</PB:Format>
			<PB:Format id="PB:Format_4" PB:Name="Horz. Minor Grid" PB:LineColor="0" PB:LineStyle="0" PB:LineWidth="1" PB:MarkerStyle="-1">
			</PB:Format>
			<PB:Format id="PB:Format_5" PB:Name="Pen 1" PB:LineColor="65280" PB:LineStyle="0" PB:LineWidth="1" PB:MarkerStyle="0">
			</PB:Format>
			<PB:Format id="PB:Format_6" PB:Name="Pen 2" PB:LineColor="16776960" PB:LineStyle="0" PB:LineWidth="1" PB:MarkerStyle="1">
			</PB:Format>
			<PB:Format id="PB:Format_7" PB:Name="Pen 3" PB:LineColor="65535" PB:LineStyle="0" PB:LineWidth="1" PB:MarkerStyle="2">
			</PB:Format>
			<PB:Format id="PB:Format_8" PB:Name="Pen 4" PB:LineColor="16711935" PB:LineStyle="0" PB:LineWidth="1" PB:MarkerStyle="3">
			</PB:Format>
			<PB:Format id="PB:Format_9" PB:Name="Pen 5" PB:LineColor="255" PB:LineStyle="0" PB:LineWidth="1" PB:MarkerStyle="4">
			</PB:Format>
			<PB:Format id="PB:Format_10" PB:Name="Pen 6" PB:LineColor="16777215" PB:LineStyle="0" PB:LineWidth="1" PB:MarkerStyle="5">
			</PB:Format>
			<PB:Format id="PB:Format_11" PB:Name="Pen 7" PB:LineColor="16711680" PB:LineStyle="0" PB:LineWidth="1" PB:MarkerStyle="6">
			</PB:Format>
			<PB:Format id="PB:Format_12" PB:Name="Pen 8" PB:LineColor="0" PB:LineStyle="0" PB:LineWidth="1" PB:MarkerStyle="7">
			</PB:Format>
			<PB:Format id="PB:Format_13" PB:Name="Pen 9" PB:LineColor="8388608" PB:LineStyle="0" PB:LineWidth="1" PB:MarkerStyle="8">
			</PB:Format>
			<PB:Format id="PB:Format_14" PB:Name="Pen 10" PB:LineColor="32768" PB:LineStyle="0" PB:LineWidth="1" PB:MarkerStyle="9">
			</PB:Format>
			<PB:Format id="PB:Format_15" PB:Name="Pen 11" PB:LineColor="8388736" PB:LineStyle="0" PB:LineWidth="1" PB:MarkerStyle="10">
			</PB:Format>
			<PB:Format id="PB:Format_16" PB:Name="Pen 12" PB:LineColor="8433626" PB:LineStyle="0" PB:LineWidth="1" PB:MarkerStyle="11">
			</PB:Format>
			<PB:Format id="PB:Format_17" PB:Name="Text" PB:LineColor="16777215" PB:LineStyle="-1" PB:LineWidth="1" PB:MarkerStyle="-1">
			</PB:Format>
			<PB:Format id="PB:Format_18" PB:Name="Vert. Axis" PB:LineColor="0" PB:LineStyle="0" PB:LineWidth="1" PB:MarkerStyle="-1">
			</PB:Format>
			<PB:Format id="PB:Format_19" PB:Name="Vert. Major Grid" PB:LineColor="0" PB:LineStyle="0" PB:LineWidth="1" PB:MarkerStyle="-1">
			</PB:Format>
			<PB:Format id="PB:Format_20" PB:Name="Vert. Minor Grid" PB:LineColor="0" PB:LineStyle="0" PB:LineWidth="1" PB:MarkerStyle="-1">
			</PB:Format>
		</PB:TrendLogical>
		<svg id="Trend1_Graphical" height="1954" width="4369" x="33" y="52">
			<PB:RefreshData id="Trend1_RefreshData" PB:bEngUnits="True" PB:bLogarithmic="False" PB:bMarkers="False" PB:bTagname="True" PB:bValue="True" PB:fXUnits="17.477777777777777777777777778" PB:iGrdBegX="6" PB:iGrdBegY="41" PB:iGrdHght="1862" PB:iGrdWdth="3146" PB:iMinPerCol="30" PB:iNumTrcs="5" PB:iNumXCols="0" PB:bGrids="True" PB:Updateable="True" PB:iSnglLnHght="33" PB:iScaleWidth="0" PB:bOmitScaleText="False" PB:bOmitTimeText="False">
			</PB:RefreshData>
			<rect id="Trend1_Background" x="0" y="0" width="4369" height="1954" fill="#808080">
			</rect>
			<g id="Trend1_PlotTitleGroup" style="font-family:Arial;font-size:33;stroke:#FFFFFF;fill:#FFFFFF;">
				<text x="6" y="33" style="font-family:Arial;font-size:33;stroke:#FFFFFF;fill:#FFFFFF;">Plot-0</text>
				<image id="ICON_1" x="17" y="0" width="34" height="34" xlink:href="C:\Program Files (x86)\PIPC\Procbook\SVG_Addin\Substituted12.png">
				</image>
				<line stroke="white" stroke-dasharray="7 9" stroke-width="3" x1="17" y1="17" x2="140.3" y2="17">
				</line>
			</g>
			<svg id="Trend1_AxesGroup" height="1862" width="3146" x="6" y="41">
				<rect id="Trend1_GridBackground" x="0" y="0" width="3146" height="1862" style="fill:#808080;stroke:none;">
				</rect>
				<polyline id="Trend1_VertAxis_1" style="stroke-width:3;fill:none;stroke:#000000;" points="0,0 0,1862">
				</polyline>
				<polyline id="Trend1_VertAxis_Last" style="stroke-width:3;fill:none;stroke:#000000;stroke-dasharray:10 10 10 10;" points="3146,0 3146,1862">
				</polyline>
				<polyline id="Trend1_HorizAxis" style="stroke-width:3;fill:none;stroke:#000000;" points="0,1862 3146,1862">
				</polyline>
			</svg>
			<svg id="Trend1_GridGroup" height="1862" width="3146" x="6" y="41">
				<path id="Trend1_HorizGridLine" style="stroke-width:2;stroke:#000000;" d="M262,0 L262,1862">
				</path>
				<path id="Trend1_HorizGridLine" style="stroke-width:2;stroke:#000000;" d="M786,0 L786,1862">
				</path>
				<path id="Trend1_HorizGridLine" style="stroke-width:2;stroke:#000000;" d="M1311,0 L1311,1862">
				</path>
				<path id="Trend1_HorizGridLine" style="stroke-width:2;stroke:#000000;" d="M1835,0 L1835,1862">
				</path>
				<path id="Trend1_HorizGridLine" style="stroke-width:2;stroke:#000000;" d="M2359,0 L2359,1862">
				</path>
				<path id="Trend1_HorizGridLine" style="stroke-width:2;stroke:#000000;" d="M2884,0 L2884,1862">
				</path>
				<path id="Trend1_VertGridLine" style="stroke-width:2;stroke:#000000" d="M0,1940.62 L3146,1940.62">
				</path>
				<path id="Trend1_VertGridLine" style="stroke-width:2;stroke:#000000" d="M0,1740.87 L3146,1740.87">
				</path>
				<path id="Trend1_VertGridLine" style="stroke-width:2;stroke:#000000" d="M0,1541.12 L3146,1541.12">
				</path>
				<path id="Trend1_VertGridLine" style="stroke-width:2;stroke:#000000" d="M0,1341.37 L3146,1341.37">
				</path>
				<path id="Trend1_VertGridLine" style="stroke-width:2;stroke:#000000" d="M0,1141.62 L3146,1141.62">
				</path>
				<path id="Trend1_VertGridLine" style="stroke-width:2;stroke:#000000" d="M0,941.87 L3146,941.87">
				</path>
				<path id="Trend1_VertGridLine" style="stroke-width:2;stroke:#000000" d="M0,742.13 L3146,742.13">
				</path>
				<path id="Trend1_VertGridLine" style="stroke-width:2;stroke:#000000" d="M0,542.38 L3146,542.38">
				</path>
				<path id="Trend1_VertGridLine" style="stroke-width:2;stroke:#000000" d="M0,342.63 L3146,342.63">
				</path>
				<path id="Trend1_VertGridLine" style="stroke-width:2;stroke:#000000" d="M0,142.88 L3146,142.88">
				</path>
				<path id="Trend1_VertGridLine" style="stroke-width:2;stroke:#000000" d="M0,0 L3146,0">
				</path>
			</svg>
			<g id="Trend1_XScaleTextGroup" style="font-family:Arial;font-size:33;stroke:#FFFFFF;fill:#FFFFFF;">
				<text id="Trend1_XScaleTextBegin" x="6" y="1938" style="font-family:Arial;font-size:33;stroke:#FFFFFF;fill:#FFFFFF;">2016/03/03 16:48:45</text>
				<text id="Trend1_XScaleTextSpan" x="1429" y="1938" style="font-family:Arial;font-size:33;stroke:#FFFFFF;fill:#FFFFFF;">180.00 seconds</text>
				<text id="Trend1_XScaleTextEnd" x="2767" y="1938" style="font-family:Arial;font-size:33;stroke:#FFFFFF;fill:#FFFFFF;">2016/03/03 16:51:45</text>
			</g>
			<g id="Trend1_TagNameGroup" transform="translate(3178,43)">
				<circle id="Trend1_0" cx="0.5" cy="17" r="8" style="stroke-width:2;stroke:#00FF00;fill:#00FF00;">
				</circle>
				<text id="Trend1_TagName0" x="19.1860465116279" y="33" style="font-family:Arial;font-size:33;stroke:#00FF00;fill:#00FF00;">AF2.\\JLEFEBVRENEW\GenerationOfData\DataStatistic|平均</text>
				<text id="Trend1_TagValue0" x="19.1860465116279" y="68" style="font-family:Arial;font-size:33;stroke:#00FF00;fill:#00FF00;">-0.01552</text>
				<text id="Trend1_EngUnits0" x="19.1860465116279" y="103" style="font-family:Arial;font-size:33;stroke:#00FF00;fill:#00FF00;">
				</text>
				<circle id="Trend1_1" cx="0.5" cy="122" r="8" style="stroke-width:2;stroke:#00FFFF;fill:none;">
				</circle>
				<text id="Trend1_TagName1" x="19.1860465116279" y="138" style="font-family:Arial;font-size:33;stroke:#00FFFF;fill:#00FFFF;">AF2.\\JLEFEBVRENEW\GenerationOfData\DataStatistic|-3 sigma</text>
				<text id="Trend1_TagValue1" x="19.1860465116279" y="173" style="font-family:Arial;font-size:33;stroke:#00FFFF;fill:#00FFFF;">-0.01552</text>
				<text id="Trend1_EngUnits1" x="19.1860465116279" y="208" style="font-family:Arial;font-size:33;stroke:#00FFFF;fill:#00FFFF;">
				</text>
				<polygon id="Trend1_2" points="-5.5,221 6.5,221 6.5,233 -5.5,233 -5.5,221" style="stroke-width:2;stroke:#FFFF00;fill:#FFFF00;" transform="rotate(45,0.5,227) ">
				</polygon>
				<text id="Trend1_TagName2" x="19.1860465116279" y="243" style="font-family:Arial;font-size:33;stroke:#FFFF00;fill:#FFFF00;">AF2.\\JLEFEBVRENEW\GenerationOfData\DataStatistic|+3 sigma</text>
				<text id="Trend1_TagValue2" x="19.1860465116279" y="278" style="font-family:Arial;font-size:33;stroke:#FFFF00;fill:#FFFF00;">-0.01552</text>
				<text id="Trend1_EngUnits2" x="19.1860465116279" y="313" style="font-family:Arial;font-size:33;stroke:#FFFF00;fill:#FFFF00;">
				</text>
				<polygon id="Trend1_3" points="-5.5,326 6.5,326 6.5,338 -5.5,338 -5.5,326" style="stroke-width:2;stroke:#FF00FF;fill:none;" transform="rotate(45,0.5,332) ">
				</polygon>
				<text id="Trend1_TagName3" x="19.1860465116279" y="348" style="font-family:Arial;font-size:33;stroke:#FF00FF;fill:#FF00FF;">DataGeneration.Sensor</text>
				<text id="Trend1_TagValue3" x="19.1860465116279" y="383" style="font-family:Arial;font-size:33;stroke:#FF00FF;fill:#FF00FF;">0.95263</text>
				<text id="Trend1_EngUnits3" x="19.1860465116279" y="418" style="font-family:Arial;font-size:33;stroke:#FF00FF;fill:#FF00FF;">
				</text>
				<rect id="Trend1_4" x="-7.5" y="429" width="16" height="16" style="stroke-width:2;stroke:#FF0000;fill:#FF0000;">
				</rect>
				<text id="Trend1_TagName4" x="19.1860465116279" y="453" style="font-family:Arial;font-size:33;stroke:#FF0000;fill:#FF0000;">DataStatistic.Mean</text>
				<text id="Trend1_TagValue4" x="19.1860465116279" y="488" style="font-family:Arial;font-size:33;stroke:#FF0000;fill:#FF0000;">-0.01552</text>
				<text id="Trend1_EngUnits4" x="19.1860465116279" y="523" style="font-family:Arial;font-size:33;stroke:#FF0000;fill:#FF0000;">
				</text>
			</g>
			<svg id="Trend1_TraceGroup" height="1862" width="3146" style="font-family:Arial;font-size:33;stroke:#FFFFFF;fill:#FFFFFF;" x="6" y="41">
				<path id="Trend1_Plot0" style="font-family:Arial;font-size:33;stroke:#00FF00;fill:none;stroke-width:2;" d="M0,1095.55505028139 L17.4777777777778,1123.54829811551 L34.9555555555556,1016.92437605404 L52.4333333333333,1027.80325767403 L69.9111111111111,1122.5765782139 L87.3888888888889,1117.55106131528 L104.866666666667,1304.94039832086 L122.344444444444,1257.18867642249 L139.822222222222,1329.60573342809 L157.3,1356.87229644939 L174.777777777778,1047.17319778046 L192.255555555556,1051.64614325474 L209.733333333333,1052.84267232963 L227.211111111111,1059.80345124113 L244.688888888889,1029.40656587464 L279.644444444444,1298.24060824816 L297.122222222222,1286.30240738368 L314.6,1204.57996310813 L332.077777777778,1138.01850974547 L349.555555555556,1079.95062039556 L367.033333333333,1032.77351631914 L384.511111111111,967.05251689701 L401.988888888889,913.633891260914 L419.466666666667,870.953636633754 L436.944444444444,805.147422397357 L454.422222222222,720.306580177091 L471.9,720.596507462815 L489.377777777778,663.351406230096 L506.855555555556,645.700473516895 L524.333333333333,574.872985929536 L541.811111111111,494.497547139676 L559.288888888889,493.087068744202 L576.766666666667,413.65418434658 L594.244444444444,427.105605651324 L611.722222222222,427.173933356013 L629.2,384.833585954876 L646.677777777778,405.230686313209 L664.155555555555,380.924871459602 L681.633333333333,315.893441816737 L699.111111111111,328.426875024106 L716.588888888889,364.823376574347 L734.066666666667,369.943200830786 L751.544444444444,317.229273557741 L769.022222222222,365.491280209468 L786.5,399.654661744257 L803.977777777778,441.681950571942 L821.455555555556,444.421023474612 L838.933333333333,481.880629872694 L856.411111111111,484.375674882394 L873.888888888889,511.81037058136 L891.366666666667,577.897731677468 L908.844444444444,604.755061937291 L926.322222222222,733.678890204284 L943.8,759.911082864207 L961.277777777778,829.858696481255 L978.755555555555,840.607283842145 L996.233333333333,874.892473378537 L1013.71111111111,926.419568170875 L1031.18888888889,1047.45801389378 L1048.66666666667,1095.55505028139 L1066.14444444444,1123.54829811551 L1083.62222222222,1016.92437605404 L1101.1,1027.80325767403 L1118.57777777778,1122.5765782139 L1136.05555555556,1117.55106131528 L1153.53333333333,1304.94039832086 L1171.01111111111,1257.18867642249 L1188.48888888889,1329.60573342809 L1205.96666666667,1356.87229644939 L1048.66666666667,1356.87229644939 " PBD:DatasetName="AF2_DS" PBD:DatasetColumn="\\JLEFEBVRENEW\GenerationOfData\DataStatistic|平均">
				</path>
				<path id="Trend1_Plot1" style="font-family:Arial;font-size:33;stroke:#00FFFF;fill:none;stroke-width:2;" d="M0,1788.45295823034 L17.4777777777778,1665.78373810922 L34.9555555555556,1711.5077512712 L52.4333333333333,1444.79797858509 L69.9111111111111,1144.58788679983 L87.3888888888889,1423.84101765515 L104.866666666667,1862 L122.344444444444,1257.18867642249 L139.822222222222,1329.60573342809 L157.3,1356.87229644939 L174.777777777778,1225.90957120318 L192.255555555556,1274.43501423809 L209.733333333333,1287.19892251786 L227.211111111111,1362.98395666415 L244.688888888889,1046.3437186297 L279.644444444444,1518.81739634141 L297.122222222222,1486.18301481961 L314.6,1219.2184070833 L332.077777777778,1254.14335078923 L349.555555555556,1236.87469000954 L367.033333333333,1142.7009473213 L384.511111111111,1120.76734635142 L401.988888888889,982.667157975456 L419.466666666667,1081.42837769884 L436.944444444444,951.919449871094 L454.422222222222,844.32388046135 L471.9,991.892685885546 L489.377777777778,795.242708547875 L506.855555555556,778.027970642282 L524.333333333333,632.610210166629 L541.811111111111,615.150891812349 L559.288888888889,708.969990280227 L576.766666666667,539.501428603097 L594.244444444444,724.73925605714 L611.722222222222,597.253939965017 L629.2,624.909669154103 L646.677777777778,689.238887062039 L664.155555555555,501.860149771085 L681.633333333333,394.268946493824 L699.111111111111,510.824547911205 L716.588888888889,512.042460781973 L734.066666666667,596.711258553908 L751.544444444444,472.377229577394 L769.022222222222,580.1483707648 L786.5,480.096487781302 L803.977777777778,513.591798439648 L821.455555555556,695.008971547843 L838.933333333333,855.607304074544 L856.411111111111,968.751349764788 L873.888888888889,844.343558069812 L891.366666666667,892.466570322925 L908.844444444444,1004.72512848486 L926.322222222222,1122.02405190865 L943.8,1260.74998500344 L961.277777777778,1232.98858040896 L978.755555555555,1425.48530012569 L996.233333333333,1369.37533010266 L1013.71111111111,1574.39559342274 L1031.18888888889,1663.71752773042 L1048.66666666667,1788.45295823034 L1066.14444444444,1665.78373810922 L1083.62222222222,1711.5077512712 L1101.1,1444.79797858509 L1118.57777777778,1144.58788679983 L1136.05555555556,1423.84101765515 L1153.53333333333,1862 L1171.01111111111,1257.18867642249 L1188.48888888889,1329.60573342809 L1205.96666666667,1356.87229644939 L1048.66666666667,1356.87229644939 " PBD:DatasetName="AF2_DS" PBD:DatasetColumn="\\JLEFEBVRENEW\GenerationOfData\DataStatistic|-3 sigma">
				</path>
				<path id="Trend1_Plot2" style="font-family:Arial;font-size:33;stroke:#FFFF00;fill:none;stroke-width:2;" d="M0,402.657142332437 L17.4777777777778,581.312858121805 L34.9555555555556,322.341000836876 L52.4333333333333,610.808536762966 L69.9111111111111,1100.56526962798 L87.3888888888889,811.26110497541 L104.866666666667,747.880796641723 L122.344444444444,1257.18867642249 L139.822222222222,1329.60573342809 L157.3,1356.87229644939 L174.777777777778,868.436824357735 L192.255555555556,828.857272271394 L209.733333333333,818.486422141398 L227.211111111111,756.622945818116 L244.688888888889,1012.46941311957 L279.644444444444,1077.66382015491 L297.122222222222,1086.42179994776 L314.6,1189.94151913297 L332.077777777778,1021.89366870172 L349.555555555556,923.026550781577 L367.033333333333,922.846085316985 L384.511111111111,813.337687442602 L401.988888888889,844.600624546372 L419.466666666667,660.478895568665 L436.944444444444,658.375394923619 L454.422222222222,596.289279892833 L471.9,449.300329040083 L489.377777777778,531.460103912318 L506.855555555556,513.372976391508 L524.333333333333,517.135761692444 L541.811111111111,373.844202467002 L559.288888888889,277.204147208176 L576.766666666667,287.806940090063 L594.244444444444,129.471955245509 L611.722222222222,257.093926747009 L629.2,144.757502755649 L646.677777777778,121.222485564379 L664.155555555555,259.989593148119 L681.633333333333,237.51793713965 L699.111111111111,146.029202137007 L716.588888888889,217.604292366721 L734.066666666667,143.175143107663 L751.544444444444,162.081317538088 L769.022222222222,150.834189654135 L786.5,319.212835707211 L803.977777777778,369.772102704237 L821.455555555556,193.833075401381 L838.933333333333,108.153955670844 L856.411111111111,0 L873.888888888889,179.277183092909 L891.366666666667,263.32889303201 L908.844444444444,204.784995389724 L926.322222222222,345.333728499916 L943.8,259.072180724972 L961.277777777778,426.728812553549 L978.755555555555,255.729267558601 L996.233333333333,380.409616654418 L1013.71111111111,278.443542919007 L1031.18888888889,431.19850005714 L1048.66666666667,402.657142332437 L1066.14444444444,581.312858121805 L1083.62222222222,322.341000836876 L1101.1,610.808536762966 L1118.57777777778,1100.56526962798 L1136.05555555556,811.26110497541 L1153.53333333333,747.880796641723 L1171.01111111111,1257.18867642249 L1188.48888888889,1329.60573342809 L1205.96666666667,1356.87229644939 L1048.66666666667,1356.87229644939 " PBD:DatasetName="AF2_DS" PBD:DatasetColumn="\\JLEFEBVRENEW\GenerationOfData\DataStatistic|+3 sigma">
				</path>
				<path id="Trend1_Plot3" style="font-family:Arial;font-size:33;stroke:#FF00FF;fill:none;stroke-width:2;" d="M0,1232.28298397365 L17.4777777777778,1211.76495384976 L34.9555555555556,1319.84569208397 L52.4333333333333,1341.3725954204 L69.9111111111111,1341.3725954204 L87.3888888888889,1341.3725954204 L104.866666666667,1341.3725954204 L122.344444444444,1341.3725954204 L139.822222222222,1341.3725954204 L157.3,1341.3725954204 L174.777777777778,1341.3725954204 L192.255555555556,1341.3725954204 L209.733333333333,1341.3725954204 L227.211111111111,1341.3725954204 L244.688888888889,1341.3725954204 L262.166666666667,1341.3725954204 L279.644444444444,1416.9716330463 L297.122222222222,1239.21455085444 L314.6,1208.08110925893 L332.077777777778,1062.03979809359 L349.555555555556,1120.04441977894 L367.033333333333,1012.11331086651 L384.511111111111,880.972819356514 L401.988888888889,820.099362796337 L419.466666666667,722.315366540524 L436.944444444444,691.941444766978 L454.422222222222,617.475630921504 L471.9,632.79715015875 L489.377777777778,558.525806594295 L594.244444444444,348.094296158749 L611.722222222222,495.025857194541 L629.2,522.25609436992 L646.677777777778,451.586921407361 L664.155555555555,482.099607637982 L786.5,384.146808516497 L803.977777777778,221.136029445926 L821.455555555556,346.54480519257 L838.933333333333,385.301364922573 L856.411111111111,390.611930070266 L873.888888888889,389.936548437959 L1048.66666666667,389.936548437959 " PBD:DatasetName="AF2_DS" PBD:DatasetColumn="\\JLEFEBVRENEW\GenerationOfData\DataStatistic|Sensor">
				</path>
				<path id="Trend1_Plot4" style="font-family:Arial;font-size:33;stroke:#FF0000;fill:none;stroke-width:2;" d="M0,1095.55505028139 L17.4777777777778,1095.55505028139 L17.4777777777778,1123.54829811551 L34.9555555555556,1123.54829811551 L34.9555555555556,1016.92437605404 L52.4333333333333,1016.92437605404 L52.4333333333333,1027.80325767403 L69.9111111111111,1027.80325767403 L69.9111111111111,1122.5765782139 L87.3888888888889,1122.5765782139 L87.3888888888889,1117.55106131528 L104.866666666667,1117.55106131528 L104.866666666667,1304.94039832086 L122.344444444444,1304.94039832086 L122.344444444444,1257.18867642249 L139.822222222222,1257.18867642249 L139.822222222222,1329.60573342809 L157.3,1329.60573342809 L157.3,1356.87229644939 L174.777777777778,1356.87229644939 L174.777777777778,1047.17319778046 L192.255555555556,1047.17319778046 L192.255555555556,1051.64614325474 L209.733333333333,1051.64614325474 L209.733333333333,1052.84267232963 L227.211111111111,1052.84267232963 L227.211111111111,1059.80345124113 L244.688888888889,1059.80345124113 L244.688888888889,1029.40656587464 L279.644444444444,1029.40656587464 L279.644444444444,1298.24060824816 L297.122222222222,1298.24060824816 L297.122222222222,1286.30240738368 L314.6,1286.30240738368 L314.6,1204.57996310813 L332.077777777778,1204.57996310813 L332.077777777778,1138.01850974547 L349.555555555556,1138.01850974547 L349.555555555556,1079.95062039556 L367.033333333333,1079.95062039556 L367.033333333333,1032.77351631914 L384.511111111111,1032.77351631914 L384.511111111111,967.05251689701 L401.988888888889,967.05251689701 L401.988888888889,913.633891260914 L419.466666666667,913.633891260914 L419.466666666667,870.953636633754 L436.944444444444,870.953636633754 L436.944444444444,805.147422397357 L454.422222222222,805.147422397357 L454.422222222222,720.306580177091 L471.9,720.306580177091 L471.9,720.596507462815 L489.377777777778,720.596507462815 L489.377777777778,663.351406230096 L506.855555555556,663.351406230096 L506.855555555556,645.700473516895 L524.333333333333,645.700473516895 L524.333333333333,574.872985929536 L541.811111111111,574.872985929536 L541.811111111111,494.497547139676 L559.288888888889,494.497547139676 L559.288888888889,493.087068744202 L576.766666666667,493.087068744202 L576.766666666667,413.65418434658 L594.244444444444,413.65418434658 L594.244444444444,427.105605651324 L611.722222222222,427.105605651324 L611.722222222222,427.173933356013 L629.2,427.173933356013 L629.2,384.833585954876 L646.677777777778,384.833585954876 L646.677777777778,405.230686313209 L664.155555555555,405.230686313209 L664.155555555555,380.924871459602 L681.633333333333,380.924871459602 L681.633333333333,315.893441816737 L699.111111111111,315.893441816737 L699.111111111111,328.426875024106 L716.588888888889,328.426875024106 L716.588888888889,364.823376574347 L734.066666666667,364.823376574347 L734.066666666667,369.943200830786 L751.544444444444,369.943200830786 L751.544444444444,317.229273557741 L769.022222222222,317.229273557741 L769.022222222222,365.491280209468 L786.5,365.491280209468 L786.5,399.654661744257 L803.977777777778,399.654661744257 L803.977777777778,441.681950571942 L821.455555555556,441.681950571942 L821.455555555556,444.421023474612 L838.933333333333,444.421023474612 L838.933333333333,481.880629872694 L856.411111111111,481.880629872694 L856.411111111111,484.375674882394 L873.888888888889,484.375674882394 L873.888888888889,511.81037058136 L891.366666666667,511.81037058136 L891.366666666667,577.897731677468 L908.844444444444,577.897731677468 L908.844444444444,604.755061937291 L926.322222222222,604.755061937291 L926.322222222222,733.678890204284 L943.8,733.678890204284 L943.8,759.911082864207 L961.277777777778,759.911082864207 L961.277777777778,829.858696481255 L978.755555555555,829.858696481255 L978.755555555555,840.607283842145 L996.233333333333,840.607283842145 L996.233333333333,874.892473378537 L1013.71111111111,874.892473378537 L1013.71111111111,926.419568170875 L1031.18888888889,926.419568170875 L1031.18888888889,1047.45801389378 L1048.66666666667,1047.45801389378 L1048.66666666667,1095.55505028139 L1066.14444444444,1095.55505028139 L1066.14444444444,1123.54829811551 L1083.62222222222,1123.54829811551 L1083.62222222222,1016.92437605404 L1101.1,1016.92437605404 L1101.1,1027.80325767403 L1118.57777777778,1027.80325767403 L1118.57777777778,1122.5765782139 L1136.05555555556,1122.5765782139 L1136.05555555556,1117.55106131528 L1153.53333333333,1117.55106131528 L1153.53333333333,1304.94039832086 L1171.01111111111,1304.94039832086 L1171.01111111111,1257.18867642249 L1188.48888888889,1257.18867642249 L1188.48888888889,1329.60573342809 L1205.96666666667,1329.60573342809 L1205.96666666667,1356.87229644939 L1048.66666666667,1356.87229644939 " PBD:DatasetName="AF2_DS" PBD:DatasetColumn="\\JLEFEBVRENEW\GenerationOfData\DataStatistic|Mean">
				</path>
			</svg>
			<svg id="Trend1_MarkerGroup" height="1862" width="3146" style="" x="6" y="41">
				<circle id="Trend1_1" cx="297.622222222222" cy="1286.80240738368" r="8" style="stroke-width:2;stroke:#00FF00;fill:#00FF00;">
				</circle>
				<circle id="Trend1_1" cx="594.744444444444" cy="427.605605651324" r="8" style="stroke-width:2;stroke:#00FF00;fill:#00FF00;">
				</circle>
				<circle id="Trend1_1" cx="909.344444444444" cy="605.255061937291" r="8" style="stroke-width:2;stroke:#00FF00;fill:#00FF00;">
				</circle>
				<circle id="Trend1_2" cx="297.622222222222" cy="1486.68301481961" r="8" style="stroke-width:2;stroke:#00FFFF;fill:none;">
				</circle>
				<circle id="Trend1_2" cx="594.744444444444" cy="725.23925605714" r="8" style="stroke-width:2;stroke:#00FFFF;fill:none;">
				</circle>
				<circle id="Trend1_2" cx="909.344444444444" cy="1005.22512848486" r="8" style="stroke-width:2;stroke:#00FFFF;fill:none;">
				</circle>
				<polygon id="Trend1_3" points="291.622222222222,1080.92179994776 303.622222222222,1080.92179994776 303.622222222222,1092.92179994776 291.622222222222,1092.92179994776 291.622222222222,1080.92179994776" style="stroke-width:2;stroke:#FFFF00;fill:#FFFF00;" transform="rotate(45,297.622222222222,1086.92179994776) ">
				</polygon>
				<polygon id="Trend1_3" points="588.744444444444,123.971955245509 600.744444444444,123.971955245509 600.744444444444,135.971955245509 588.744444444444,135.971955245509 588.744444444444,123.971955245509" style="stroke-width:2;stroke:#FFFF00;fill:#FFFF00;" transform="rotate(45,594.744444444444,129.971955245509) ">
				</polygon>
				<polygon id="Trend1_3" points="903.344444444444,199.284995389724 915.344444444444,199.284995389724 915.344444444444,211.284995389724 903.344444444444,211.284995389724 903.344444444444,199.284995389724" style="stroke-width:2;stroke:#FFFF00;fill:#FFFF00;" transform="rotate(45,909.344444444444,205.284995389724) ">
				</polygon>
				<polygon id="Trend1_4" points="151.8,1335.8725954204 163.8,1335.8725954204 163.8,1347.8725954204 151.8,1347.8725954204 151.8,1335.8725954204" style="stroke-width:2;stroke:#FF00FF;fill:none;" transform="rotate(45,157.8,1341.8725954204) ">
				</polygon>
				<polygon id="Trend1_4" points="326.577777777778,1056.53979809359 338.577777777778,1056.53979809359 338.577777777778,1068.53979809359 326.577777777778,1068.53979809359 326.577777777778,1056.53979809359" style="stroke-width:2;stroke:#FF00FF;fill:none;" transform="rotate(45,332.577777777778,1062.53979809359) ">
				</polygon>
				<polygon id="Trend1_4" points="588.744444444444,342.594296158749 600.744444444444,342.594296158749 600.744444444444,354.594296158749 588.744444444444,354.594296158749 588.744444444444,342.594296158749" style="stroke-width:2;stroke:#FF00FF;fill:none;" transform="rotate(45,594.744444444444,348.594296158749) ">
				</polygon>
				<rect id="Trend1_5" x="289.622222222222" y="1278.80240738368" width="16" height="16" style="stroke-width:2;stroke:#FF0000;fill:#FF0000;">
				</rect>
				<rect id="Trend1_5" x="586.744444444444" y="419.605605651324" width="16" height="16" style="stroke-width:2;stroke:#FF0000;fill:#FF0000;">
				</rect>
				<rect id="Trend1_5" x="901.344444444444" y="597.255061937291" width="16" height="16" style="stroke-width:2;stroke:#FF0000;fill:#FF0000;">
				</rect>
			</svg>
			<g id="Trend1_YScaleTextGroup" style="font-family:Arial;font-size:33;stroke:#FFFFFF;fill:#FFFFFF;" transform="translate(8,41)">
				<text id="Max_0" x="2" y="33">1.34306</text>
				<text id="Min_0" x="2" y="1856">-0.52128</text>
				<text x="0" y="1746.12087070795">-0.4</text>
				<text x="0" y="1546.37199559043">-0.2</text>
				<text x="0" y="1346.62312047291">0</text>
				<text x="0" y="1146.87424535539">0.2</text>
				<text x="0" y="947.125370237864">0.4</text>
				<text x="0" y="747.376495120343">0.6</text>
				<text x="0" y="547.627620002821">0.8</text>
				<text x="0" y="347.8787448853">1</text>
				<text x="0" y="148.129869767779">1.2</text>
			</g>
		</svg>
	</g>
	<script language="JavaScript" type="text/javascript"> 
        
        function SVG_doc_loaded(evt)
	{
	    var parentDoc = evt.getTarget().getOwnerDocument();
	    var elem = parentDoc.createElement("Ready");
	    evt.getTarget().appendChild(elem);

        }</script>
</svg>
