<?xml version="1.0" encoding="UTF-8"?>
<svg height="100%" viewBox="0 121 5265 2077" width="100%" fill="#C0C0C0" image-rendering="optimizeSpeed" onload="SVG_doc_loaded(evt);" PB:pid="" xlink:xid="" xmlns:svg="OSI_SVG_20090601" xmlns:xlink="http://www.w3.org/1999/xlink" xmlns:PB="urn:osisoft-com-pb" xmlns:PBI="urn:osisoft-com-interface" xmlns:PBD="urn:osisoft-com-data" xmlns:xsi="http://www.w3.org/1999/XMLSchema/instance">
	<defs><PBD:TagUses tag="\\jlefebvrenew\datageneration.sensor" PB:BO="PWSPIEventsBO.cBOEvents">
			<PBI:Symbol name="Trend1_Plot0" PB:Type="10" PB:Parent="Trend1"/>
		</PBD:TagUses><PBD:DataSetUses tag="AF2_DS.\\JLEFEBVRENEW\GenerationOfData\DataGeneration|+3 sigma" PB:Parent="AF2_DS" PB:BO="PWSPIDataSetsBO.CBODataSets">
			<PBI:Symbol name="Trend1_Plot2" PB:Type="10" PB:Parent="Trend1">
			</PBI:Symbol>
		</PBD:DataSetUses><PBD:DataSetUses tag="AF2_DS.\\JLEFEBVRENEW\GenerationOfData\DataGeneration|-3 sigma" PB:Parent="AF2_DS" PB:BO="PWSPIDataSetsBO.CBODataSets">
			<PBI:Symbol name="Trend1_Plot1" PB:Type="10" PB:Parent="Trend1">
			</PBI:Symbol>
		</PBD:DataSetUses><PBD:DataSetUses tag="AF2_DS.\\JLEFEBVRENEW\GenerationOfData\DataGeneration|平均" PB:Parent="AF2_DS" PB:BO="PWSPIDataSetsBO.CBODataSets">
			<PBI:Symbol name="Trend1_Plot3" PB:Type="10" PB:Parent="Trend1">
			</PBI:Symbol>
		</PBD:DataSetUses>
	</defs>
	<rect x="0" y="0" width="5265" height="2198" PB:DocMajorVersionNum="3" PB:DocMinorVersionNum="26" PB:DocGroup="1" PB:wnHeight="670" PB:wnWidth="1612" PB:wnState="2" PB:Zoom="80" PB:LocalID="1041" PB:DisplayServerTimeZone="True" PB:Type="55" PB:NamedValues="AFDisplayBuilder.Upgraded,1">
	</rect>
	<PB:Dataset id="AF2_DS" PB:Type="57" PB:Context="2" PB:Description="" PB:RefreshInterval="10000" PB:Stepped="False" PB:DSType="3" PB:DSVisible="True">
		<PB:DSDatapoint id="\\JLEFEBVRENEW\GenerationOfData\DataGeneration|-3 sigma_DP"/>
		<PB:DSDatapoint id="\\JLEFEBVRENEW\GenerationOfData\DataGeneration|+3 sigma_DP"/>
		<PB:DSDatapoint id="\\JLEFEBVRENEW\GenerationOfData\DataGeneration|平均_DP"/>
	</PB:Dataset>
	<PB:Dataset id="E_DS_DS" PB:Type="57" PB:Context="2" PB:Description="" PB:RefreshInterval="5000" PB:Stepped="False" PB:DSType="3" PB:DSVisible="False">
	</PB:Dataset>
	<PB:Dataset id="MODULEDB_DS" PB:Type="57" PB:Context="2" PB:Description="" PB:RefreshInterval="5000" PB:Stepped="False" PB:DSType="3" PB:DSVisible="False">
	</PB:Dataset>
	<g id="Trend1" PB:Type="10">
		<PB:TrendLogical id="Trend1_Logical" PB:ValueScalePosition="1" PB:BackgroundColor="8421504" PB:CurrentTrace="4" PB:DisplayScaleInside="True" PB:EnableScript="True" PB:Enabled="True" PB:EndTime="*+2M" PB:FillColor="16711680" PB:FontBold="False" PB:FontItalic="False" PB:FontName="Arial" PB:FontSize="10" PB:FontStrikethrough="False" PB:FontUnderline="False" PB:Height="1954" PB:IsMultiState="False" PB:Left="-14967" PB:LineColor="16777215" PB:MultipleScales="False" PB:Name="Trend1" PB:PlotTimeStyle="0" PB:Rotation="0" PB:ShowDescription="False" PB:ShowEngUnits="True" PB:ShowGrids="True" PB:ShowTagName="True" PB:ShowServerName="False" PB:ShowTitle="True" PB:ShowTraceMarkers="False" PB:ShowValue="True" PB:StartTime="*-1m" PB:Top="14948" PB:TraceCount="4" PB:TrendTitle="Plot-0" PB:Visible="True" PB:Width="4369">
			<PB:TraceElem id="PB:TraceElem_1" PB:ShowLinearRegression="False" PB:ScaleLogarithmic="False" PB:ScaleMax="Autorange" PB:ScaleMin="Autorange" PB:Trace="\\jlefebvrenew\datageneration.sensor" PB:PersistString="95 {4572DB6F-FB4B-4BA4-92E2-1811DAA61D7B} \1\?e0e3d8a6-0a4f-44e0-9b8f-02a6160c8aa6\JLEFEBVRENEW70 {2CA6C7D5-025B-4EF6-9E5E-CCE1AB741C69} \1\?47\DataGeneration.Sensor" PB:ScaleFormat="Database" PB:DisplayDigits="-5" PB:CanonicalNumberFormat="Database" PB:TagInfoType="0">
			</PB:TraceElem>
			<PB:TraceElem id="PB:TraceElem_2" PB:ShowLinearRegression="False" PB:ScaleLogarithmic="False" PB:ScaleMax="Autorange" PB:ScaleMin="Autorange" PB:Trace="AF2.\\JLEFEBVRENEW\GenerationOfData\DataGeneration|-3 sigma" PB:ScaleFormat="General" PB:DisplayDigits="2" PB:CanonicalNumberFormat="General" PB:TagInfoType="1">
			</PB:TraceElem>
			<PB:TraceElem id="PB:TraceElem_3" PB:ShowLinearRegression="False" PB:ScaleLogarithmic="False" PB:ScaleMax="Autorange" PB:ScaleMin="Autorange" PB:Trace="AF2.\\JLEFEBVRENEW\GenerationOfData\DataGeneration|+3 sigma" PB:ScaleFormat="General" PB:DisplayDigits="2" PB:CanonicalNumberFormat="General" PB:TagInfoType="1">
			</PB:TraceElem>
			<PB:TraceElem id="PB:TraceElem_4" PB:ShowLinearRegression="False" PB:ScaleLogarithmic="False" PB:ScaleMax="Autorange" PB:ScaleMin="Autorange" PB:Trace="AF2.\\JLEFEBVRENEW\GenerationOfData\DataGeneration|平均" PB:ScaleFormat="General" PB:DisplayDigits="2" PB:CanonicalNumberFormat="General" PB:TagInfoType="1">
			</PB:TraceElem>
			<PB:Format id="PB:Format_1" PB:Name="Horz. Axis" PB:LineColor="0" PB:LineStyle="0" PB:LineWidth="1" PB:MarkerStyle="-1">
			</PB:Format>
			<PB:Format id="PB:Format_2" PB:Name="Background" PB:LineColor="8421504" PB:LineStyle="-1" PB:LineWidth="1" PB:MarkerStyle="-1">
			</PB:Format>
			<PB:Format id="PB:Format_3" PB:Name="Horz. Major Grid" PB:LineColor="0" PB:LineStyle="0" PB:LineWidth="1" PB:MarkerStyle="-1">
			</PB:Format>
			<PB:Format id="PB:Format_4" PB:Name="Horz. Minor Grid" PB:LineColor="0" PB:LineStyle="0" PB:LineWidth="1" PB:MarkerStyle="-1">
			</PB:Format>
			<PB:Format id="PB:Format_5" PB:Name="Pen 1" PB:LineColor="65280" PB:LineStyle="0" PB:LineWidth="1" PB:MarkerStyle="0">
			</PB:Format>
			<PB:Format id="PB:Format_6" PB:Name="Pen 2" PB:LineColor="16776960" PB:LineStyle="0" PB:LineWidth="1" PB:MarkerStyle="1">
			</PB:Format>
			<PB:Format id="PB:Format_7" PB:Name="Pen 3" PB:LineColor="65535" PB:LineStyle="0" PB:LineWidth="1" PB:MarkerStyle="2">
			</PB:Format>
			<PB:Format id="PB:Format_8" PB:Name="Pen 4" PB:LineColor="16711935" PB:LineStyle="0" PB:LineWidth="1" PB:MarkerStyle="3">
			</PB:Format>
			<PB:Format id="PB:Format_9" PB:Name="Pen 5" PB:LineColor="255" PB:LineStyle="0" PB:LineWidth="1" PB:MarkerStyle="4">
			</PB:Format>
			<PB:Format id="PB:Format_10" PB:Name="Pen 6" PB:LineColor="16777215" PB:LineStyle="0" PB:LineWidth="1" PB:MarkerStyle="5">
			</PB:Format>
			<PB:Format id="PB:Format_11" PB:Name="Pen 7" PB:LineColor="16711680" PB:LineStyle="0" PB:LineWidth="1" PB:MarkerStyle="6">
			</PB:Format>
			<PB:Format id="PB:Format_12" PB:Name="Pen 8" PB:LineColor="0" PB:LineStyle="0" PB:LineWidth="1" PB:MarkerStyle="7">
			</PB:Format>
			<PB:Format id="PB:Format_13" PB:Name="Pen 9" PB:LineColor="8388608" PB:LineStyle="0" PB:LineWidth="1" PB:MarkerStyle="8">
			</PB:Format>
			<PB:Format id="PB:Format_14" PB:Name="Pen 10" PB:LineColor="32768" PB:LineStyle="0" PB:LineWidth="1" PB:MarkerStyle="9">
			</PB:Format>
			<PB:Format id="PB:Format_15" PB:Name="Pen 11" PB:LineColor="8388736" PB:LineStyle="0" PB:LineWidth="1" PB:MarkerStyle="10">
			</PB:Format>
			<PB:Format id="PB:Format_16" PB:Name="Pen 12" PB:LineColor="8433626" PB:LineStyle="0" PB:LineWidth="1" PB:MarkerStyle="11">
			</PB:Format>
			<PB:Format id="PB:Format_17" PB:Name="Text" PB:LineColor="16777215" PB:LineStyle="-1" PB:LineWidth="1" PB:MarkerStyle="-1">
			</PB:Format>
			<PB:Format id="PB:Format_18" PB:Name="Vert. Axis" PB:LineColor="0" PB:LineStyle="0" PB:LineWidth="1" PB:MarkerStyle="-1">
			</PB:Format>
			<PB:Format id="PB:Format_19" PB:Name="Vert. Major Grid" PB:LineColor="0" PB:LineStyle="0" PB:LineWidth="1" PB:MarkerStyle="-1">
			</PB:Format>
			<PB:Format id="PB:Format_20" PB:Name="Vert. Minor Grid" PB:LineColor="0" PB:LineStyle="0" PB:LineWidth="1" PB:MarkerStyle="-1">
			</PB:Format>
		</PB:TrendLogical>
		<svg id="Trend1_Graphical" height="1954" width="4369" x="33" y="52">
			<PB:RefreshData id="Trend1_RefreshData" PB:bEngUnits="True" PB:bLogarithmic="False" PB:bMarkers="False" PB:bTagname="True" PB:bValue="True" PB:fXUnits="17.166666666666666666666666667" PB:iGrdBegX="6" PB:iGrdBegY="41" PB:iGrdHght="1862" PB:iGrdWdth="3090" PB:iMinPerCol="30" PB:iNumTrcs="4" PB:iNumXCols="0" PB:bGrids="True" PB:Updateable="True" PB:iSnglLnHght="33" PB:iScaleWidth="0" PB:bOmitScaleText="False" PB:bOmitTimeText="False">
			</PB:RefreshData>
			<rect id="Trend1_Background" x="0" y="0" width="4369" height="1954" fill="#808080">
			</rect>
			<g id="Trend1_PlotTitleGroup" style="font-family:Arial;font-size:33;stroke:#FFFFFF;fill:#FFFFFF;">
				<text x="6" y="33" style="font-family:Arial;font-size:33;stroke:#FFFFFF;fill:#FFFFFF;">Plot-0</text>
			</g>
			<svg id="Trend1_AxesGroup" height="1862" width="3090" x="6" y="41">
				<rect id="Trend1_GridBackground" x="0" y="0" width="3090" height="1862" style="fill:#808080;stroke:none;">
				</rect>
				<polyline id="Trend1_VertAxis_1" style="stroke-width:3;fill:none;stroke:#000000;" points="0,0 0,1862">
				</polyline>
				<polyline id="Trend1_VertAxis_Last" style="stroke-width:3;fill:none;stroke:#000000;stroke-dasharray:10 10 10 10;" points="3090,0 3090,1862">
				</polyline>
				<polyline id="Trend1_HorizAxis" style="stroke-width:3;fill:none;stroke:#000000;" points="0,1862 3090,1862">
				</polyline>
			</svg>
			<svg id="Trend1_GridGroup" height="1862" width="3090" x="6" y="41">
				<path id="Trend1_HorizGridLine" style="stroke-width:2;stroke:#000000;" d="M326,0 L326,1862">
				</path>
				<path id="Trend1_HorizGridLine" style="stroke-width:2;stroke:#000000;" d="M841,0 L841,1862">
				</path>
				<path id="Trend1_HorizGridLine" style="stroke-width:2;stroke:#000000;" d="M1356,0 L1356,1862">
				</path>
				<path id="Trend1_HorizGridLine" style="stroke-width:2;stroke:#000000;" d="M1871,0 L1871,1862">
				</path>
				<path id="Trend1_HorizGridLine" style="stroke-width:2;stroke:#000000;" d="M2386,0 L2386,1862">
				</path>
				<path id="Trend1_HorizGridLine" style="stroke-width:2;stroke:#000000;" d="M2901,0 L2901,1862">
				</path>
				<path id="Trend1_VertGridLine" style="stroke-width:2;stroke:#000000" d="M0,1946.23 L3090,1946.23">
				</path>
				<path id="Trend1_VertGridLine" style="stroke-width:2;stroke:#000000" d="M0,1662.9 L3090,1662.9">
				</path>
				<path id="Trend1_VertGridLine" style="stroke-width:2;stroke:#000000" d="M0,1379.58 L3090,1379.58">
				</path>
				<path id="Trend1_VertGridLine" style="stroke-width:2;stroke:#000000" d="M0,1096.25 L3090,1096.25">
				</path>
				<path id="Trend1_VertGridLine" style="stroke-width:2;stroke:#000000" d="M0,812.93 L3090,812.93">
				</path>
				<path id="Trend1_VertGridLine" style="stroke-width:2;stroke:#000000" d="M0,529.6 L3090,529.6">
				</path>
				<path id="Trend1_VertGridLine" style="stroke-width:2;stroke:#000000" d="M0,246.28 L3090,246.28">
				</path>
				<path id="Trend1_VertGridLine" style="stroke-width:2;stroke:#000000" d="M0,0 L3090,0">
				</path>
			</svg>
			<g id="Trend1_XScaleTextGroup" style="font-family:Arial;font-size:33;stroke:#FFFFFF;fill:#FFFFFF;">
				<text id="Trend1_XScaleTextBegin" x="6" y="1938" style="font-family:Arial;font-size:33;stroke:#FFFFFF;fill:#FFFFFF;">2016/02/27 14:06:11</text>
				<text id="Trend1_XScaleTextSpan" x="1401" y="1938" style="font-family:Arial;font-size:33;stroke:#FFFFFF;fill:#FFFFFF;">180.00 seconds</text>
				<text id="Trend1_XScaleTextEnd" x="2711" y="1938" style="font-family:Arial;font-size:33;stroke:#FFFFFF;fill:#FFFFFF;">2016/02/27 14:09:11</text>
			</g>
			<g id="Trend1_TagNameGroup" transform="translate(3122,43)">
				<circle id="Trend1_0" cx="0.5" cy="17" r="8" style="stroke-width:2;stroke:#00FF00;fill:#00FF00;">
				</circle>
				<text id="Trend1_TagName0" x="19.1860465116279" y="33" style="font-family:Arial;font-size:33;stroke:#00FF00;fill:#00FF00;">datageneration.sensor</text>
				<text id="Trend1_TagValue0" x="19.1860465116279" y="68" style="font-family:Arial;font-size:33;stroke:#00FF00;fill:#00FF00;">0.2519</text>
				<text id="Trend1_EngUnits0" x="19.1860465116279" y="103" style="font-family:Arial;font-size:33;stroke:#00FF00;fill:#00FF00;">
				</text>
				<circle id="Trend1_1" cx="0.5" cy="122" r="8" style="stroke-width:2;stroke:#00FFFF;fill:none;">
				</circle>
				<text id="Trend1_TagName1" x="19.1860465116279" y="138" style="font-family:Arial;font-size:33;stroke:#00FFFF;fill:#00FFFF;">AF2.\\JLEFEBVRENEW\GenerationOfData\DataGeneration|-3 sigma</text>
				<text id="Trend1_TagValue1" x="19.1860465116279" y="173" style="font-family:Arial;font-size:33;stroke:#00FFFF;fill:#00FFFF;">-0.10355</text>
				<text id="Trend1_EngUnits1" x="19.1860465116279" y="208" style="font-family:Arial;font-size:33;stroke:#00FFFF;fill:#00FFFF;">
				</text>
				<polygon id="Trend1_2" points="-5.5,221 6.5,221 6.5,233 -5.5,233 -5.5,221" style="stroke-width:2;stroke:#FFFF00;fill:#FFFF00;" transform="rotate(45,0.5,227) ">
				</polygon>
				<text id="Trend1_TagName2" x="19.1860465116279" y="243" style="font-family:Arial;font-size:33;stroke:#FFFF00;fill:#FFFF00;">AF2.\\JLEFEBVRENEW\GenerationOfData\DataGeneration|+3 sigma</text>
				<text id="Trend1_TagValue2" x="19.1860465116279" y="278" style="font-family:Arial;font-size:33;stroke:#FFFF00;fill:#FFFF00;">0.13928</text>
				<text id="Trend1_EngUnits2" x="19.1860465116279" y="313" style="font-family:Arial;font-size:33;stroke:#FFFF00;fill:#FFFF00;">
				</text>
				<polygon id="Trend1_3" points="-5.5,326 6.5,326 6.5,338 -5.5,338 -5.5,326" style="stroke-width:2;stroke:#FF00FF;fill:none;" transform="rotate(45,0.5,332) ">
				</polygon>
				<text id="Trend1_TagName3" x="19.1860465116279" y="348" style="font-family:Arial;font-size:33;stroke:#FF00FF;fill:#FF00FF;">AF2.\\JLEFEBVRENEW\GenerationOfData\DataGeneration|平均</text>
				<text id="Trend1_TagValue3" x="19.1860465116279" y="383" style="font-family:Arial;font-size:33;stroke:#FF00FF;fill:#FF00FF;">0.01787</text>
				<text id="Trend1_EngUnits3" x="19.1860465116279" y="418" style="font-family:Arial;font-size:33;stroke:#FF00FF;fill:#FF00FF;">
				</text>
			</g>
			<svg id="Trend1_TraceGroup" height="1862" width="3090" style="font-family:Arial;font-size:33;stroke:#FFFFFF;fill:#FFFFFF;" x="6" y="41">
				<path id="Trend1_Plot0" style="font-family:Arial;font-size:33;stroke:#00FF00;fill:none;stroke-width:2;" d="M17.1666666666667,785.343574064555 L34.3333333333333,779.868918329436 L51.5,765.559685207248 L68.6666666666667,683.040583407377 L85.8333333333333,714.811623773468 L103,738.974415866601 L120.166666666667,503.66783581071 L137.333333333333,488.068657143708 L154.5,497.748137562753 L171.666666666667,440.29480795905 L188.833333333333,220.309165716366 L206,211.884686024783 L223.166666666667,232.279960058948 L240.333333333333,296.127340715093 L257.5,247.548141683716 L274.666666666667,319.419303971723 L291.833333333333,245.345854235351 L309,150.594803455599 L326.166666666667,177.469132591749 L343.333333333333,187.993505188703 L360.5,212.967179729988 L377.666666666667,229.982705368879 L394.833333333333,310.164566352893 L412,458.119677216957 L429.166666666667,285.091796524248 L446.333333333333,322.540611672425 L463.5,400.26592625122 L480.666666666667,471.221297558892 L497.833333333333,463.345605502193 L515,485.477081232514 L532.166666666667,570.140558520635 L549.333333333333,532.045308678116 L566.5,643.038170706868 L583.666666666667,760.781065586253 L600.833333333333,860.01255273062 L618,855.527041617738 L635.166666666667,878.780672844644 L652.333333333333,907.09454618374 L669.5,1024.56922623892 L686.666666666667,1103.65026512184 L703.833333333333,1230.34047320006 L721,1180.55729583964 L738.166666666667,1338.44632417043 L755.333333333333,1457.25863171106 L772.5,1495.96812391251 L789.666666666667,1514.78446194393 L806.833333333333,1599.51578761169 L824,1803.99670753817 L841.166666666667,1630.79182460069 L858.333333333333,1697.53118173204 L875.5,1468.27678526702 L892.666666666667,1387.04235830972 L909.833333333333,1375.19094899409 L927,1271.24577716954 L944.166666666667,1224.50377015364 L961.333333333333,1306.00017540807 L1030,1306.00017540807 " PBD:PtTagName="\\jlefebvrenew\datageneration.sensor">
				</path>
				<path id="Trend1_Plot1" style="font-family:Arial;font-size:33;stroke:#00FFFF;fill:none;stroke-width:2;" d="M17.1666666666667,1033.57385086332 L34.3333333333333,970.578067855579 L51.5,881.238460189147 L68.6666666666667,881.109886885565 L85.8333333333333,759.258958904014 L103,706.391713901117 L120.166666666667,705.187679711808 L137.333333333333,672.893772939947 L154.5,702.962374705174 L171.666666666667,600.305259315513 L188.833333333333,587.242114223907 L206,598.865461873062 L223.166666666667,554.582363231412 L240.333333333333,450.70932740912 L257.5,509.325642141198 L274.666666666667,488.329168537199 L291.833333333333,492.975476878594 L309,512.285721134472 L326.166666666667,513.689922979875 L343.333333333333,454.77508741977 L360.5,490.42864901006 L377.666666666667,509.950974997114 L394.833333333333,508.666832705975 L412,539.962188002205 L429.166666666667,498.864570176197 L446.333333333333,585.130427728992 L463.5,554.392476457083 L480.666666666667,587.745512288763 L497.833333333333,651.143522107752 L515,658.38937354384 L532.166666666667,740.187833206324 L549.333333333333,761.285341319092 L566.5,844.242153306178 L583.666666666667,911.155153331471 L600.833333333333,1030.54365033933 L618,999.01995878675 L635.166666666667,1007.70595863514 L652.333333333333,1120.07506656606 L669.5,1206.26029215735 L686.666666666667,1335.69854007267 L703.833333333333,1355.46422250951 L721,1466.84242471366 L738.166666666667,1557.43957528749 L755.333333333333,1521.91874543766 L772.5,1733.04191487615 L789.666666666667,1740.05579102753 L806.833333333333,1765.95506605429 L824,1809.59238763014 L841.166666666667,1862 L858.333333333333,1810.35714914267 L875.5,1777.93712693729 L892.666666666667,1608.72285737112 L909.833333333333,1570.48209718599 L927,1487.92118657303 L944.166666666667,1369.92158410251 L961.333333333333,1307.89537793938 L978.5,1333.65690931061 L995.666666666667,1320.26114637857 L1012.83333333333,1141.5303474455 L1030,1104.49691468233 L1047.16666666667,1033.57385086332 L1064.33333333333,970.578067855579 L1081.5,881.238460189147 L1098.66666666667,881.109886885565 L1115.83333333333,759.258958904014 L1133,706.391713901117 L1150.16666666667,705.187679711808 L1167.33333333333,672.893772939947 L1184.5,702.962374705174 L1201.66666666667,600.305259315513 L1218.83333333333,587.242114223907 L1236,598.865461873062 L1253.16666666667,554.582363231412 L1270.33333333333,450.70932740912 L1287.5,509.325642141198 L1304.66666666667,488.329168537199 L1321.83333333333,492.975476878594 L1339,512.285721134472 L1356.16666666667,513.689922979875 L1373.33333333333,454.77508741977 L1390.5,490.42864901006 L1407.66666666667,509.950974997114 L1424.83333333333,508.666832705975 L1442,539.962188002205 L1459.16666666667,498.864570176197 L1476.33333333333,585.130427728992 L1493.5,554.392476457083 L1510.66666666667,587.745512288763 L1527.83333333333,651.143522107752 L1545,658.38937354384 L1562.16666666667,740.187833206324 L1579.33333333333,761.285341319092 L1596.5,844.242153306178 L1613.66666666667,911.155153331471 L1630.83333333333,1030.54365033933 L1648,999.01995878675 L1665.16666666667,1007.70595863514 L1682.33333333333,1120.07506656606 L1699.5,1206.26029215735 L1716.66666666667,1335.69854007267 L1733.83333333333,1355.46422250951 L1751,1466.84242471366 L1768.16666666667,1557.43957528749 L1785.33333333333,1521.91874543766 L1802.5,1733.04191487615 L1819.66666666667,1740.05579102753 L1836.83333333333,1765.95506605429 L1854,1809.59238763014 L1030,1809.59238763014 " PBD:DatasetName="AF2_DS" PBD:DatasetColumn="\\JLEFEBVRENEW\GenerationOfData\DataGeneration|-3 sigma">
				</path>
				<path id="Trend1_Plot2" style="font-family:Arial;font-size:33;stroke:#FFFF00;fill:none;stroke-width:2;" d="M17.1666666666667,600.016837902857 L34.3333333333333,557.263352395095 L51.5,540.806283934621 L68.6666666666667,432.565934524854 L85.8333333333333,437.676399111394 L103,344.103095015766 L120.166666666667,332.911658349344 L137.333333333333,259.571840667349 L154.5,184.781761063366 L171.666666666667,204.212084141959 L188.833333333333,180.460100069987 L206,84.3435793811264 L223.166666666667,44.0324446939153 L240.333333333333,92.8553957109659 L257.5,43.0897181936133 L274.666666666667,50.4819450032605 L291.833333333333,11.263854347959 L309,5.74616976117674 L326.166666666667,1.93859701679886 L343.333333333333,0 L360.5,24.4211955085795 L377.666666666667,1.2460285755689 L394.833333333333,31.6460986622018 L412,90.6446648272078 L429.166666666667,160.580944090102 L446.333333333333,114.067828209998 L463.5,206.939680449227 L480.666666666667,284.319978301292 L497.833333333333,225.873302839993 L515,354.832854257949 L532.166666666667,325.419888068262 L549.333333333333,424.10184685799 L566.5,438.629511320034 L583.666666666667,504.861340372121 L600.833333333333,475.307620401228 L618,651.287878936275 L635.166666666667,666.96543640506 L652.333333333333,786.275149137831 L669.5,790.500133161136 L686.666666666667,838.826539463919 L703.833333333333,999.150476311117 L721,989.236923251952 L738.166666666667,1070.74387911488 L755.333333333333,1193.01345226848 L772.5,1159.66008988503 L789.666666666667,1264.71517061973 L806.833333333333,1352.0922597913 L824,1465.59319367245 L841.166666666667,1504.67123667154 L858.333333333333,1365.15864476014 L875.5,1239.72809639296 L892.666666666667,1249.64942363062 L909.833333333333,1158.69159493851 L927,1115.2162104134 L944.166666666667,1010.25620805576 L961.333333333333,988.915135450377 L978.5,836.567656583945 L995.666666666667,731.316414939595 L1012.83333333333,764.436856342934 L1030,667.913376695739 L1047.16666666667,600.016837902857 L1064.33333333333,557.263352395095 L1081.5,540.806283934621 L1098.66666666667,432.565934524854 L1115.83333333333,437.676399111394 L1133,344.103095015766 L1150.16666666667,332.911658349344 L1167.33333333333,259.571840667349 L1184.5,184.781761063366 L1201.66666666667,204.212084141959 L1218.83333333333,180.460100069987 L1236,84.3435793811264 L1253.16666666667,44.0324446939153 L1270.33333333333,92.8553957109659 L1287.5,43.0897181936133 L1304.66666666667,50.4819450032605 L1321.83333333333,11.263854347959 L1339,5.74616976117674 L1356.16666666667,1.93859701679886 L1373.33333333333,0 L1390.5,24.4211955085795 L1407.66666666667,1.2460285755689 L1424.83333333333,31.6460986622018 L1442,90.6446648272078 L1459.16666666667,160.580944090102 L1476.33333333333,114.067828209998 L1493.5,206.939680449227 L1510.66666666667,284.319978301292 L1527.83333333333,225.873302839993 L1545,354.832854257949 L1562.16666666667,325.419888068262 L1579.33333333333,424.10184685799 L1596.5,438.629511320034 L1613.66666666667,504.861340372121 L1630.83333333333,475.307620401228 L1648,651.287878936275 L1665.16666666667,666.96543640506 L1682.33333333333,786.275149137831 L1699.5,790.500133161136 L1716.66666666667,838.826539463919 L1733.83333333333,999.150476311117 L1751,989.236923251952 L1768.16666666667,1070.74387911488 L1785.33333333333,1193.01345226848 L1802.5,1159.66008988503 L1819.66666666667,1264.71517061973 L1836.83333333333,1352.0922597913 L1854,1465.59319367245 L1030,1465.59319367245 " PBD:DatasetName="AF2_DS" PBD:DatasetColumn="\\JLEFEBVRENEW\GenerationOfData\DataGeneration|+3 sigma">
				</path>
				<path id="Trend1_Plot3" style="font-family:Arial;font-size:33;stroke:#FF00FF;fill:none;stroke-width:2;" d="M17.1666666666667,816.795344383089 L34.3333333333333,763.920710125337 L51.5,711.022372061884 L68.6666666666667,656.837910705209 L85.8333333333333,598.467679007704 L103,525.247404458441 L120.166666666667,519.049669030576 L137.333333333333,466.232806803648 L154.5,443.87206788427 L171.666666666667,402.258671728736 L188.833333333333,383.851107146947 L206,341.604520627094 L223.166666666667,299.307403962664 L240.333333333333,271.782361560043 L257.5,276.207680167405 L274.666666666667,269.40555677023 L291.833333333333,252.119665613276 L309,259.015945447824 L326.166666666667,257.814259998337 L343.333333333333,227.387543709885 L360.5,257.42492225932 L377.666666666667,255.598501786341 L394.833333333333,270.156465684088 L412,315.303426414707 L429.166666666667,329.72275713315 L446.333333333333,349.599127969495 L463.5,380.666078453155 L480.666666666667,436.032745295028 L497.833333333333,438.508412473872 L515,506.611113900895 L532.166666666667,532.803860637293 L549.333333333333,592.693594088541 L566.5,641.435832313106 L583.666666666667,708.008246851796 L600.833333333333,752.925635370279 L618,825.153918861513 L635.166666666667,837.3356975201 L652.333333333333,953.175107851945 L669.5,998.380212659242 L686.666666666667,1087.26253976829 L703.833333333333,1177.30734941032 L721,1228.03967398281 L738.166666666667,1314.09172720119 L755.333333333333,1357.46609885307 L772.5,1446.35100238059 L789.666666666667,1502.38548082363 L806.833333333333,1559.02366292279 L824,1637.59279065129 L841.166666666667,1683.33561833577 L858.333333333333,1587.75789695141 L875.5,1508.83261166512 L892.666666666667,1429.18614050087 L909.833333333333,1364.58684606225 L927,1301.56869849322 L944.166666666667,1190.08889607913 L961.333333333333,1148.40525669488 L978.5,1085.11228294728 L995.666666666667,1025.78878065908 L1012.83333333333,952.983601894217 L1030,886.205145689035 L1047.16666666667,816.795344383089 L1064.33333333333,763.920710125337 L1081.5,711.022372061884 L1098.66666666667,656.837910705209 L1115.83333333333,598.467679007704 L1133,525.247404458441 L1150.16666666667,519.049669030576 L1167.33333333333,466.232806803648 L1184.5,443.87206788427 L1201.66666666667,402.258671728736 L1218.83333333333,383.851107146947 L1236,341.604520627094 L1253.16666666667,299.307403962664 L1270.33333333333,271.782361560043 L1287.5,276.207680167405 L1304.66666666667,269.40555677023 L1321.83333333333,252.119665613276 L1339,259.015945447824 L1356.16666666667,257.814259998337 L1373.33333333333,227.387543709885 L1390.5,257.42492225932 L1407.66666666667,255.598501786341 L1424.83333333333,270.156465684088 L1442,315.303426414707 L1459.16666666667,329.72275713315 L1476.33333333333,349.599127969495 L1493.5,380.666078453155 L1510.66666666667,436.032745295028 L1527.83333333333,438.508412473872 L1545,506.611113900895 L1562.16666666667,532.803860637293 L1579.33333333333,592.693594088541 L1596.5,641.435832313106 L1613.66666666667,708.008246851796 L1630.83333333333,752.925635370279 L1648,825.153918861513 L1665.16666666667,837.3356975201 L1682.33333333333,953.175107851945 L1699.5,998.380212659242 L1716.66666666667,1087.26253976829 L1733.83333333333,1177.30734941032 L1751,1228.03967398281 L1768.16666666667,1314.09172720119 L1785.33333333333,1357.46609885307 L1802.5,1446.35100238059 L1819.66666666667,1502.38548082363 L1836.83333333333,1559.02366292279 L1854,1637.59279065129 L1030,1637.59279065129 " PBD:DatasetName="AF2_DS" PBD:DatasetColumn="\\JLEFEBVRENEW\GenerationOfData\DataGeneration|平均">
				</path>
			</svg>
			<svg id="Trend1_MarkerGroup" height="1862" width="3090" style="" x="6" y="41">
				<circle id="Trend1_1" cx="240.833333333333" cy="296.627340715093" r="8" style="stroke-width:2;stroke:#00FF00;fill:#00FF00;">
				</circle>
				<circle id="Trend1_1" cx="481.166666666667" cy="471.721297558892" r="8" style="stroke-width:2;stroke:#00FF00;fill:#00FF00;">
				</circle>
				<circle id="Trend1_1" cx="721.5" cy="1181.05729583964" r="8" style="stroke-width:2;stroke:#00FF00;fill:#00FF00;">
				</circle>
				<circle id="Trend1_2" cx="464" cy="554.892476457083" r="8" style="stroke-width:2;stroke:#00FFFF;fill:none;">
				</circle>
				<circle id="Trend1_2" cx="927.5" cy="1488.42118657303" r="8" style="stroke-width:2;stroke:#00FFFF;fill:none;">
				</circle>
				<circle id="Trend1_2" cx="1391" cy="490.92864901006" r="8" style="stroke-width:2;stroke:#00FFFF;fill:none;">
				</circle>
				<polygon id="Trend1_3" points="458,201.439680449227 470,201.439680449227 470,213.439680449227 458,213.439680449227 458,201.439680449227" style="stroke-width:2;stroke:#FFFF00;fill:#FFFF00;" transform="rotate(45,464,207.439680449227) ">
				</polygon>
				<polygon id="Trend1_3" points="921.5,1109.7162104134 933.5,1109.7162104134 933.5,1121.7162104134 921.5,1121.7162104134 921.5,1109.7162104134" style="stroke-width:2;stroke:#FFFF00;fill:#FFFF00;" transform="rotate(45,927.5,1115.7162104134) ">
				</polygon>
				<polygon id="Trend1_3" points="1385,18.9211955085795 1397,18.9211955085795 1397,30.9211955085795 1385,30.9211955085795 1385,18.9211955085795" style="stroke-width:2;stroke:#FFFF00;fill:#FFFF00;" transform="rotate(45,1391,24.9211955085795) ">
				</polygon>
				<polygon id="Trend1_4" points="458,375.166078453155 470,375.166078453155 470,387.166078453155 458,387.166078453155 458,375.166078453155" style="stroke-width:2;stroke:#FF00FF;fill:none;" transform="rotate(45,464,381.166078453155) ">
				</polygon>
				<polygon id="Trend1_4" points="921.5,1296.06869849322 933.5,1296.06869849322 933.5,1308.06869849322 921.5,1308.06869849322 921.5,1296.06869849322" style="stroke-width:2;stroke:#FF00FF;fill:none;" transform="rotate(45,927.5,1302.06869849322) ">
				</polygon>
				<polygon id="Trend1_4" points="1385,251.92492225932 1397,251.92492225932 1397,263.92492225932 1385,263.92492225932 1385,251.92492225932" style="stroke-width:2;stroke:#FF00FF;fill:none;" transform="rotate(45,1391,257.92492225932) ">
				</polygon>
			</svg>
			<g id="Trend1_YScaleTextGroup" style="font-family:Arial;font-size:33;stroke:#FFFFFF;fill:#FFFFFF;" transform="translate(8,41)">
				<text id="Max_0" x="2" y="33">1.1738</text>
				<text id="Min_0" x="2" y="1856">-0.1405</text>
				<text x="0" y="1668.15468708434">0</text>
				<text x="0" y="1384.82958599143">0.2</text>
				<text x="0" y="1101.50448489852">0.4</text>
				<text x="0" y="818.179383805611">0.6</text>
				<text x="0" y="534.854282712703">0.8</text>
				<text x="0" y="251.529181619795">1</text>
			</g>
		</svg>
	</g>
	<script language="JavaScript" type="text/javascript"> 
        
        function SVG_doc_loaded(evt)
	{
	    var parentDoc = evt.getTarget().getOwnerDocument();
	    var elem = parentDoc.createElement("Ready");
	    evt.getTarget().appendChild(elem);

        }</script>
</svg>
